<?xml version="1.0" encoding="UTF-8"?>
<svg width="1420px" height="659px" viewBox="0 0 1420 659" version="1.1" xmlns="http://www.w3.org/2000/svg" xmlns:xlink="http://www.w3.org/1999/xlink">
    <title>Group 2</title>
    <defs>
        <rect id="path-1" x="-2.78799916e-07" y="-4.90000048e-07" width="1420" height="659"></rect>
        <linearGradient x1="28.7771764%" y1="7.4834936%" x2="66.8439831%" y2="94.6897361%" id="linearGradient-3">
            <stop stop-color="#FF6EFF" offset="0%"></stop>
            <stop stop-color="#D158FA" offset="24%"></stop>
            <stop stop-color="#AB46F5" offset="49%"></stop>
            <stop stop-color="#933AF2" offset="68%"></stop>
            <stop stop-color="#8A36F1" offset="80%"></stop>
        </linearGradient>
        <linearGradient x1="100.861295%" y1="55.283705%" x2="1.65366796%" y2="45.9877721%" id="linearGradient-4">
            <stop stop-color="#8A36F1" offset="22%"></stop>
            <stop stop-color="#FF6EFF" offset="100%"></stop>
        </linearGradient>
        <linearGradient x1="0.00925937355%" y1="49.9564685%" x2="99.9889659%" y2="49.9564685%" id="linearGradient-5">
            <stop stop-color="#8A36F1" offset="0%"></stop>
            <stop stop-color="#FF6EFF" offset="100%"></stop>
        </linearGradient>
    </defs>
    <g id="Page-1" stroke="none" stroke-width="1" fill="none" fill-rule="evenodd">
        <g id="Group-2">
            <mask id="mask-2" fill="white">
                <use xlink:href="#path-1"></use>
            </mask>
            <g id="path-1"></g>
            <g id="purple-flare" mask="url(#mask-2)">
                <g transform="translate(-448.000000, -334.000000)"></g>
            </g>
            <g id="Group-Clipped" mask="url(#mask-2)">
                <g transform="translate(-447.025545, -333.511415)" id="Group">
                    <g id="Path" transform="translate(567.000000, 513.000000) rotate(8.000000) translate(-567.000000, -513.000000) translate(58.000000, 67.000000)" fill-rule="nonzero">
                        <path d="M574.105489,629.958553 L572.533047,629.171027 L572.533047,629.171027 C465.606982,585.594602 383.577917,511.304672 321.728527,402.363608 C266.693052,304.972922 228.692368,179.756326 208.774767,29.8639232 L208.774767,29.8639232 L208.774767,28.0263631 C207.731389,19.7607537 203.434905,12.2550864 196.840334,7.17771284 C190.245762,2.10033925 181.899553,-0.12801053 173.656893,0.987978618 L27.9439222,20.1511055 C10.7626414,22.5973949 -1.33364498,38.3253617 0.688258637,55.5897647 L0.688258637,57.4273248 L0.688258637,57.4273248 C24.0128169,234.095604 70.6619334,385.038041 139.063166,506.0545 C223.712967,655.421886 342.956496,762.525389 493.124719,823.68989 L493.124719,823.68989 L494.697161,824.477416 C510.833557,830.832731 529.086428,823.146816 535.84273,807.151849 L591.140279,670.909893 C597.648335,654.889902 590.04438,636.610128 574.105489,629.958553 Z" fill="url(#linearGradient-3)"></path>
                        <path d="M1017.20174,869.942534 L1011.96055,777.978584 C1011.69177,772.770569 1009.34771,767.889106 1005.45485,764.430598 C1001.562,760.972089 996.446692,759.226462 991.25786,759.585794 L990.209622,759.585794 C868.089932,766.680156 600.527263,713.078311 458.491057,613.49449 L458.491057,613.49449 L457.704879,612.968982 C448.71371,606.812097 436.457814,609.03571 430.18864,617.961311 L377.776756,693.108996 C371.58184,702.056275 373.680442,714.330573 382.493825,720.698181 L383.542063,721.223689 L383.542063,721.223689 C546.280963,835.521741 819.608939,891.488374 969.244868,891.488374 C979.203126,891.488374 988.637266,891.22562 997.547286,890.700111 L998.595523,890.700111 C1009.39092,889.995882 1017.6516,880.78005 1017.20174,869.942534 L1017.20174,869.942534 Z" fill="url(#linearGradient-4)"></path>
                    </g>
                </g>
            </g>
            <g id="Path-Copy-Clipped" mask="url(#mask-2)" fill="url(#linearGradient-5)" fill-rule="nonzero">
                <g transform="translate(1218.974455, -58.511415)" id="Path-Copy">
                    <path d="M391.55832,197.341211 L381.22057,122.774752 C380.58382,118.548183 378.28645,114.749439 374.83708,112.219533 C371.38771,109.689627 367.0709,108.637264 362.84235,109.295431 L361.98087,109.295431 L334.98785,112.450165 C234.76909,122.487958 140.58069,113.597342 55.29425,85.4915226 L54.43277,85.4915226 C45.95748,82.8383938 36.91011,87.4199505 34.04442,95.8161092 L10.49732,167.227833 C7.84081,175.692326 12.42821,184.728174 20.83507,187.590212 L21.69655,187.590212 C97.77946,211.99682 177.25766,224.193772 257.16756,223.726265 C286.07497,223.726265 315.65243,222.292295 345.89992,219.424354 L376.91317,215.696031 L377.77465,215.696031 C382.05906,215.129246 385.9347,212.863968 388.52779,209.41091 C391.12089,205.957852 392.21315,201.6077 391.55832,197.341211 L391.55832,197.341211 Z" transform="translate(200.744052, 154.239212) rotate(29.000000) translate(-200.744052, -154.239212) "></path>
                </g>
            </g>
        </g>
    </g>
</svg>