<?xml version="1.0" encoding="UTF-8"?>
<svg width="100px" height="100px" viewBox="0 0 100 100" version="1.1" xmlns="http://www.w3.org/2000/svg" xmlns:xlink="http://www.w3.org/1999/xlink">
    <title>Random/Umbrella</title>
    <g id="Random/Umbrella" stroke="none" stroke-width="1" fill="none" fill-rule="evenodd">
        <path d="M99.5316,47.3776 C96.864,36.6456 90.4344,27.5924 80.926,21.1852 C73.2316,16 63.838,12.8648 54.1148,12.1796 L54.1148,6.2684 C54.1148,4.0592 52.3236,2.2684 50.1148,2.2684 C47.9056,2.2684 46.1148,4.0592 46.1148,6.2684 L46.1148,12.1724 C36.3504,12.8408 26.9124,15.9792 19.1876,21.1848 C9.6796,27.5924 3.25,36.6452 0.5824,47.3772 C0.3636,48.0616 0.3636,48.6368 0.3636,48.92 C0.3636,52.0372 3.0008,54.6704 6.122,54.6704 C7.5404,54.6704 8.8512,54.1528 10.018,53.1324 L10.112,53.0472 C12.938,50.4116 14.948,49.0736 18.0904,49.0736 C22.8856,49.0736 26.2684,53.028 27.5128,54.7492 C27.7936,55.1492 28.0664,55.6176 28.3548,56.1128 C28.606,56.5432 28.8652,56.9888 29.1472,57.4256 C30.6868,59.8536 32.8872,60.2164 34.062,60.2164 C35.5188,60.2164 37.5584,59.7348 39.0176,57.4452 C39.32,56.9792 39.5804,56.5328 39.8328,56.1012 C40.1216,55.6064 40.3944,55.1388 40.6592,54.7652 C41.518,53.5724 43.4232,51.2768 46.1136,49.996 L46.0996,82.6772 C46.0996,86.8148 42.7336,90.1808 38.5964,90.1808 C34.4592,90.1808 31.0932,86.8148 31.0932,82.6772 C31.0932,80.4684 29.3024,78.6772 27.0932,78.6772 C24.884,78.6772 23.0932,80.4684 23.0932,82.6772 C23.0932,91.226 30.048,98.1808 38.5964,98.1808 C47.1448,98.1808 54.0996,91.226 54.0996,82.6788 L54.1136,50.0492 C56.744,51.3384 58.6032,53.5828 59.4392,54.744 C59.7196,55.1392 59.9928,55.6064 60.2812,56.1016 C60.5332,56.5336 60.7932,56.98 61.0956,57.4456 C62.5552,59.7352 64.5948,60.2168 66.0516,60.2168 C67.2264,60.2168 69.4268,59.8544 70.9496,57.4524 C71.2484,56.9896 71.508,56.544 71.7584,56.1136 C72.0472,55.6184 72.3196,55.15 72.6004,54.7496 C73.8448,53.0284 77.2276,49.074 82.0228,49.074 C85.1648,49.074 87.1752,50.412 90.0008,53.0476 L90.096,53.1332 C91.2624,54.1536 92.5732,54.6708 93.9912,54.6708 C97.1128,54.6708 99.7496322,52.0376 99.7496322,48.9204 C99.7496322,48.6372 99.7496322,48.062 99.5316,47.3776 Z M82.0228,41.074 C76.0324,41.074 70.2288,44.3596 66.098,50.0892 L66.0736,50.1232 C66.056,50.148 66.0388,50.1732 66.0212,50.198 C65.9964,50.1624 65.9712,50.1268 65.946,50.0908 C61.824,44.3664 56.0436,41.08 50.0872,41.0744 L50.026,41.0744 C44.0692,41.08 38.2888,44.3664 34.1512,50.1124 C34.1308,50.1408 34.1108,50.1692 34.0912,50.1976 C34.074,50.1728 34.0564,50.1476 34.0388,50.1224 L34.0148,50.0892 C29.8848,44.36 24.0808,41.074 18.09,41.074 C15.144,41.074 12.7204,41.7568 10.6512,42.7852 C13.4336,36.8324 17.8456,31.7356 23.658,27.8188 C31.0904,22.8104 40.4344,20.0468 49.9756,20.034 L50.0508,20.0368 L50.1324,20.034 C59.6748,20.0456 69.0212,22.8096 76.4552,27.8188 C82.2672,31.7356 86.6796,36.8324 89.462,42.7852 C87.3928,41.7572 84.9688,41.074 82.0228,41.074 Z" id="icon-umbrella" fill="#ED0000"></path>
    </g>
</svg>