<?xml version="1.0" encoding="UTF-8"?>
<svg width="100px" height="98px" viewBox="0 0 100 98" version="1.1" xmlns="http://www.w3.org/2000/svg" xmlns:xlink="http://www.w3.org/1999/xlink">
    <title>Devices/V6 box times two</title>
    <g id="Devices/V6-box-times-two" stroke="none" stroke-width="1" fill="none" fill-rule="evenodd">
        <g id="Group" transform="translate(2.000000, 3.000000)" fill="#ED0000">
            <path d="M86.3904212,3.90798505e-14 C92.1440173,3.90798505e-14 96.825498,4.7185298 96.825498,10.5190056 L96.825498,10.5190056 L96.825498,23.037276 C96.825498,28.8373626 92.1444034,33.5562816 86.3908073,33.5562816 L86.3908073,33.5562816 L85.480455,33.5562816 C85.4719615,34.787287 84.4708829,35.7921735 83.2478142,35.7921735 L83.2478142,35.7921735 L75.2716151,35.7921735 C74.0481603,35.7921735 73.0474678,34.787287 73.0389742,33.5562816 L73.0389742,33.5562816 L23.5849954,33.5562816 C23.5765018,34.787287 22.5754232,35.7921735 21.3523545,35.7921735 L21.3523545,35.7921735 L13.3761554,35.7921735 C12.1527007,35.7921735 11.1520081,34.787287 11.1435146,33.5562816 L11.1435146,33.5562816 L10.4346907,33.5562816 C4.6810946,33.5562816 1.13686838e-13,28.8373626 1.13686838e-13,23.037276 L1.13686838e-13,23.037276 L1.13686838e-13,10.5190056 C1.13686838e-13,4.71891899 4.6810946,3.90798505e-14 10.4346907,3.90798505e-14 L10.4346907,3.90798505e-14 Z M86.3904212,7.78339471 L10.4346907,7.78339471 C8.93596829,7.78339471 7.72139315,9.00817311 7.72139315,10.5186164 L7.72139315,10.5186164 L7.72139315,23.0368868 C7.72139315,24.5477193 8.93635436,25.7721085 10.4346907,25.7721085 L10.4346907,25.7721085 L86.3904212,25.7721085 C87.8891436,25.7721085 89.1037187,24.5473301 89.1037187,23.0368868 L89.1037187,23.0368868 L89.1037187,10.5186164 C89.1037187,9.00778392 87.8887575,7.78339471 86.3904212,7.78339471 L86.3904212,7.78339471 Z M83.5798341,10.8073948 C84.6461585,10.8073948 85.5101824,11.6784002 85.5101824,12.7533407 C85.5101824,13.8282813 84.6461585,14.6992867 83.5798341,14.6992867 L77.5795395,14.6992867 C76.5132151,14.6992867 75.6491912,13.8282813 75.6491912,12.7533407 C75.6491912,11.6784002 76.5132151,10.8073948 77.5795395,10.8073948 L83.5798341,10.8073948 Z" id="icon-tvbox"></path>
            <path d="M86.3904212,56 C92.1440173,56 96.825498,60.7185298 96.825498,66.5190056 L96.825498,66.5190056 L96.825498,79.037276 C96.825498,84.8373626 92.1444034,89.5562816 86.3908073,89.5562816 L86.3908073,89.5562816 L85.480455,89.5562816 C85.4719615,90.787287 84.4708829,91.7921735 83.2478142,91.7921735 L83.2478142,91.7921735 L75.2716151,91.7921735 C74.0481603,91.7921735 73.0474678,90.787287 73.0389742,89.5562816 L73.0389742,89.5562816 L23.5849954,89.5562816 C23.5765018,90.787287 22.5754232,91.7921735 21.3523545,91.7921735 L21.3523545,91.7921735 L13.3761554,91.7921735 C12.1527007,91.7921735 11.1520081,90.787287 11.1435146,89.5562816 L11.1435146,89.5562816 L10.4346907,89.5562816 C4.6810946,89.5562816 1.13686838e-13,84.8373626 1.13686838e-13,79.037276 L1.13686838e-13,79.037276 L1.13686838e-13,66.5190056 C1.13686838e-13,60.718919 4.6810946,56 10.4346907,56 L10.4346907,56 Z M86.3904212,63.7833947 L10.4346907,63.7833947 C8.93596829,63.7833947 7.72139315,65.0081731 7.72139315,66.5186164 L7.72139315,66.5186164 L7.72139315,79.0368868 C7.72139315,80.5477193 8.93635436,81.7721085 10.4346907,81.7721085 L10.4346907,81.7721085 L86.3904212,81.7721085 C87.8891436,81.7721085 89.1037187,80.5473301 89.1037187,79.0368868 L89.1037187,79.0368868 L89.1037187,66.5186164 C89.1037187,65.0077839 87.8887575,63.7833947 86.3904212,63.7833947 L86.3904212,63.7833947 Z M83.5798341,66.8073948 C84.6461585,66.8073948 85.5101824,67.6784002 85.5101824,68.7533407 C85.5101824,69.8282813 84.6461585,70.6992867 83.5798341,70.6992867 L77.5795395,70.6992867 C76.5132151,70.6992867 75.6491912,69.8282813 75.6491912,68.7533407 C75.6491912,67.6784002 76.5132151,66.8073948 77.5795395,66.8073948 L83.5798341,66.8073948 Z" id="icon-tvbox-copy"></path>
        </g>
    </g>
</svg>