<?xml version="1.0" encoding="UTF-8"?>
<svg width="100px" height="98px" viewBox="0 0 100 98" version="1.1" xmlns="http://www.w3.org/2000/svg" xmlns:xlink="http://www.w3.org/1999/xlink">
    <title>Devices/Sim swap</title>
    <g id="Devices/Sim-swap" stroke="none" stroke-width="1" fill="none" fill-rule="evenodd">
        <path d="M80.333995,63.3725119 C82.2834624,63.3725119 83.8757248,64.9018883 83.9764228,66.8262816 L83.9814787,67.0199957 L83.981,84.943 L88.3928337,80.5328341 C89.8172647,79.1084031 92.1267237,79.1084031 93.5511547,80.5328341 C94.9247132,81.9063925 94.9737688,84.1028915 93.6983217,85.5352315 L93.5511547,85.691155 L82.9131554,96.3291543 C82.2518125,96.9904973 81.3996918,97.3447881 80.5339441,97.3920269 L80.333995,97.3974775 C79.4005225,97.3974775 78.46705,97.0413698 77.7548345,96.3291543 L67.7108352,86.285155 C66.2864042,84.860724 66.2864042,82.551265 67.7108352,81.126834 C69.0843937,79.7532756 71.2808927,79.7042199 72.7132326,80.979667 L72.8691562,81.126834 L76.686,84.943 L76.6865112,67.0199957 C76.6865112,65.005546 78.3195453,63.3725119 80.333995,63.3725119 Z M67.4279959,17.1770002 C68.3380944,17.1770002 69.183097,17.4949469 69.8599998,18.0961493 L70.0256638,18.252331 L91.6796622,39.9063295 C93.0639962,41.2906635 93.1117319,43.4580768 91.8228692,44.8964162 L91.6796622,45.0476653 L48.3716653,88.3556623 C46.9873314,89.7399962 44.819918,89.7877319 43.3815786,88.4988692 L43.2303295,88.3556623 L12.2883317,57.4136645 C10.9039977,56.0293305 10.8562621,53.8619172 12.1451247,52.4235777 L12.2883317,52.2723286 L46.3083293,18.252331 C46.9565002,17.6041602 47.7813544,17.2363542 48.6798883,17.183604 L48.9059972,17.1770002 L67.4279959,17.1770002 Z M65.959,24.468 L50.428,24.468 L20.027,54.87 L45.774,80.617 L83.941,42.45 L65.959,24.468 Z M41.9038046,40.8202717 C44.2618302,38.4622461 48.0977591,38.4622461 50.4552832,40.8197702 L50.4552832,40.8197702 L60.537322,50.901809 C62.8948461,53.2593331 62.8948461,57.095262 60.5368205,59.4532876 L60.5368205,59.4532876 L50.4470085,69.5430996 C48.0892337,71.9008745 44.2533048,71.9008745 41.8957807,69.5433504 L41.8957807,69.5433504 L31.8137418,59.4613115 C29.4562177,57.1037874 29.4564685,53.2676078 31.8139926,50.9100837 L31.8139926,50.9100837 Z M38.6152565,51.1297381 L35.3244518,54.4205429 C34.9024444,54.8425502 34.9021937,55.528845 35.324201,55.9508523 L35.324201,55.9508523 L45.4062399,66.0328912 C45.8282472,66.4548985 46.514542,66.4546478 46.9365493,66.0326404 L46.9365493,66.0326404 L50.2273541,62.7418357 L38.6152565,51.1297381 Z M53.741073,51.1264784 L49.6869941,55.1805573 L53.7378133,59.2313765 L57.0263613,55.9428284 C57.4486194,55.5205703 57.4488701,54.8342756 57.0268628,54.4122682 L57.0268628,54.4122682 L53.741073,51.1264784 Z M46.944824,44.3302294 C46.5230674,43.9084728 45.8365219,43.9084728 45.4142638,44.3307309 L45.4142638,44.3307309 L42.1257157,47.6192789 L46.1765349,51.6700981 L50.2306138,47.6160192 Z M19.9079992,2.67651623 L20.1079484,2.68196686 C20.9071001,2.72557189 21.6946406,3.03080711 22.3312362,3.59767251 L22.4871597,3.74483949 L32.477159,13.7348388 C33.90159,15.1592698 33.90159,17.4687288 32.477159,18.8931598 C31.1036005,20.2667182 28.9071015,20.3157739 27.4747616,19.0403267 L27.318838,18.8931598 L23.555,15.13 L23.555483,32.9999981 C23.555483,35.0144477 21.9224489,36.6474818 19.9079992,36.6474818 C17.9585318,36.6474818 16.3662694,35.1181055 16.2655714,33.1937121 L16.2605155,32.9999981 L16.26,15.13 L11.8491605,19.5411597 C10.4247295,20.9655907 8.1152705,20.9655907 6.69083949,19.5411597 C5.31728102,18.1676012 5.26822536,15.9711022 6.54367251,14.5387623 L6.69083949,14.3828387 L17.3288387,3.74483949 C17.9862684,3.08740979 18.8322248,2.73340919 19.6926832,2.68283767 L19.9079992,2.67651623 Z" id="icon-sim-swap" fill="#ED0000"></path>
    </g>
</svg>