<?xml version="1.0" encoding="UTF-8"?>
<svg width="100px" height="100px" viewBox="0 0 100 100" version="1.1" xmlns="http://www.w3.org/2000/svg" xmlns:xlink="http://www.w3.org/1999/xlink">
    <title>Random/stream</title>
    <g id="Random/stream" stroke="none" stroke-width="1" fill="none" fill-rule="evenodd">
        <path d="M62.1259944,14.1798 C82.1971859,14.1798 98.5265071,30.5097012 98.5265071,50.5814727 C98.5265071,70.6532442 82.1971859,86.9825654 62.1259944,86.9825654 C51.6778737,86.9825654 41.7085429,82.4249251 34.7740624,74.4786345 C34.6357324,74.3202945 34.6029624,74.0952544 34.6899624,73.9038544 C34.7769624,73.7124544 34.9677824,73.5894944 35.1783225,73.5894944 L35.1783225,73.5894944 L41.7836529,73.5894944 C41.912413,73.5894944 42.036823,73.6356044 42.134263,73.7197044 C47.7214034,78.5438548 54.8211839,81.200835 62.1259944,81.200835 C79.0080557,81.200835 92.7427467,67.465274 92.7427467,50.5817627 C92.7427467,33.6979615 79.0080557,19.9618204 62.1259944,19.9618204 C51.4041137,19.9618204 41.6418429,25.4451408 36.0112025,34.6297315 C35.4822425,35.4939316 34.5591724,36.0101316 33.5430123,36.0101316 L33.5430123,36.0101316 L20.4556014,36.0101316 C18.8606012,36.0101316 17.5628512,34.7126715 17.5628512,33.1179614 C17.5628512,31.5229613 18.8606012,30.2252112 20.4556014,30.2252112 L20.4556014,30.2252112 L31.7682122,30.2252112 C31.8981322,30.2252112 32.0187722,30.1622812 32.0906922,30.0573012 C38.8987327,20.1152305 50.1269536,14.1798 62.1259944,14.1798 Z M32.7968423,39.6484719 C32.9711323,39.6484719 33.1349823,39.7331519 33.2353223,39.8758319 C33.3356623,40.0185119 33.3606023,40.2009219 33.3023123,40.365062 C32.1109922,43.7125322 31.5069222,47.1499025 31.5069222,50.5814727 C31.5069222,55.3821331 32.6617023,60.1807634 34.8468524,64.4576837 C34.8633824,64.4913237 35.9923525,66.8098739 37.7387326,69.0875341 C37.8628527,69.2496441 37.8846027,69.4680141 37.7941226,69.6512941 C37.7039326,69.8345741 37.5171726,69.9505741 37.3130126,69.9505741 L37.3130126,69.9505741 L20.4558914,69.9505741 C18.8608912,69.9505741 17.5631412,68.653404 17.5631412,67.0586939 C17.5631412,65.4634038 18.8608912,64.1653637 20.4558914,64.1653637 L20.4558914,64.1653637 L28.359262,64.1653637 C27.7264819,62.5874736 27.1978119,60.9385335 26.7831118,59.2487033 L26.7831118,59.2487033 L5.05428023,59.2487033 C3.46044011,59.2487033 2.16385001,57.9515333 2.16385001,56.3568231 C2.16385001,54.761823 3.46044011,53.4640729 5.05428023,53.4640729 L5.05428023,53.4640729 L25.8438018,53.4640729 C25.7620218,52.4856128 25.7220018,51.5370228 25.7220018,50.5811827 C25.7220018,47.0533324 26.2585018,43.5028622 27.3164219,40.0286619 C27.3851519,39.8027519 27.5936619,39.6484719 27.8297219,39.6484719 L27.8297219,39.6484719 Z M53.8728838,31.3910113 L79.2771757,48.0062725 C80.0970058,48.5424826 80.5905858,49.4565626 80.589717,50.4361827 C80.5888458,51.4158028 80.0932358,52.3287228 79.2722457,52.8634829 L53.8679538,69.4056641 C53.3888738,69.7179941 52.8378738,69.8754641 52.2854237,69.8754641 C51.8109837,69.8754641 51.3359637,69.7594641 50.9032836,69.5248541 C49.9680335,69.0179341 49.3857135,68.039474 49.3857135,66.9754639 L49.3857135,33.8180215 C49.3857135,32.7531414 49.9694835,31.7738113 50.9061836,31.2671813 C51.8425937,30.7602612 52.9820038,30.8081112 53.8728838,31.3910113 Z M55.1857139,39.1798319 L55.1857139,61.6264135 L72.3835852,50.4277727 L55.1857139,39.1798319 Z M20.5600014,42.1752421 C22.1538415,42.1752421 23.4501416,43.4727022 23.4501416,45.0674123 C23.4501416,46.6621224 22.1538415,47.9595825 20.5600014,47.9595825 L20.5600014,47.9595825 L10.8287607,47.9595825 C9.23405054,47.9595825 7.93659044,46.6621224 7.93659044,45.0674123 C7.93659044,43.4727022 9.23405054,42.1752421 10.8287607,42.1752421 L10.8287607,42.1752421 Z" id="icon-stream" fill="#ED0000"></path>
    </g>
</svg>