<?xml version="1.0" encoding="UTF-8"?>
<svg width="100px" height="100px" viewBox="0 0 100 100" version="1.1" xmlns="http://www.w3.org/2000/svg" xmlns:xlink="http://www.w3.org/1999/xlink">
    <title>Network/Booster benefit</title>
    <g id="Network/Booster-benefit" stroke="none" stroke-width="1" fill="none" fill-rule="evenodd">
        <path d="M50.6350382,63.2285579 C59.5956779,63.2285579 66.8595576,70.4924376 66.8595576,79.4530773 C66.8595576,88.4137169 59.5956779,95.6775967 50.6350382,95.6775967 C41.6743985,95.6775967 34.4105188,88.4137169 34.4105188,79.4530773 C34.4105188,70.4924376 41.6743985,63.2285579 50.6350382,63.2285579 Z M50.6350382,68.8752377 C48.6247183,68.8752377 46.9950383,70.5049176 46.9950383,72.5152375 L46.9950383,72.5152375 L46.9950383,75.7797974 L43.7304784,75.7797974 C41.7201585,75.7797974 40.0904786,77.4094773 40.0904786,79.4197973 C40.0904786,81.4301172 41.7201585,83.0597971 43.7304784,83.0597971 L43.7304784,83.0597971 L46.9950383,83.0597971 L46.9950383,86.324357 C46.9950383,88.3346769 48.6247183,89.9643569 50.6350382,89.9643569 C52.6453581,89.9643569 54.275038,88.3346769 54.275038,86.324357 L54.275038,86.324357 L54.275038,83.0597971 L57.5395979,83.0597971 C59.5499179,83.0597971 61.1795978,81.4301172 61.1795978,79.4197973 C61.1795978,77.4094773 59.5499179,75.7797974 57.5395979,75.7797974 L57.5395979,75.7797974 L54.275038,75.7797974 L54.275038,72.5152375 C54.275038,70.5049176 52.6453581,68.8752377 50.6350382,68.8752377 Z M50.6261982,43.6703186 C58.4282779,43.6703186 65.8907976,46.7013985 71.6430374,52.2066383 C73.7178373,54.1925182 73.7901173,57.4841181 71.8047574,59.558918 C69.8188775,61.6347579 66.5272776,61.7059979 64.4524777,59.720638 C60.6455578,56.0769981 55.735198,54.0708382 50.6256782,54.0708382 L50.6209982,54.0708382 C45.5119984,54.0718782 40.6021585,56.0811581 36.7957587,59.727918 C35.7874787,60.693038 34.4921588,61.1729979 33.1989188,61.1729979 C31.8307989,61.1729979 30.4647589,60.636358 29.443479,59.570358 C27.456559,57.4965981 27.526759,54.2049982 29.601039,52.2180783 C35.3522387,46.7076385 42.8163185,43.6723986 50.6189182,43.6703186 L50.6261982,43.6703186 Z M50.6251582,24.4672393 C63.3968777,24.4672393 75.5752773,29.3911191 84.9196769,38.3335588 C86.9944768,40.3189187 87.0667568,43.6105186 85.0813969,45.6858385 C83.096037,47.7611584 79.8039171,47.8329184 77.7291172,45.8475585 C70.3300375,38.7677588 60.7043178,34.8677589 50.6251582,34.8677589 L50.6157982,34.8677589 L50.6157982,34.8677589 C40.5335185,34.8703589 30.9077989,38.7745188 23.5107992,45.8610785 C22.5030392,46.8261985 21.2077193,47.3061584 19.9144793,47.3061584 C18.5458394,47.3061584 17.1803194,46.7695185 16.1585194,45.7035185 C14.1721195,43.6297586 14.2423195,40.3381587 16.3160794,38.3512388 C25.6578791,29.4015191 37.8378386,24.4708793 50.6131982,24.4672393 L50.6251582,24.4672393 L50.6251582,24.4672393 Z M50.6261982,5.26363999 C68.3691175,5.26363999 85.2618369,12.0803197 98.1973564,24.4604793 C100.272156,26.4463592 100.344436,29.7379591 98.3590764,31.812759 C96.3737165,33.8880789 93.0815966,33.9598389 91.0067967,31.974479 C80.0171171,21.4564394 65.6755176,15.6641596 50.6261982,15.6641596 L50.6116382,15.6641596 L50.6116382,15.6641596 C35.5565987,15.6677996 21.2139593,21.4673594 10.2253197,31.993719 C9.2180797,32.959359 7.92223975,33.438799 6.62899979,33.438799 C5.26035984,33.438799 3.89431989,32.902159 2.87303993,31.835639 C0.886640004,29.7618791 0.956840002,26.4702792 3.03111993,24.4833593 C15.9645595,12.0938397 32.8609188,5.26831999 50.6085182,5.26363999 L50.6261982,5.26363999 L50.6261982,5.26363999 Z" id="icon-booster-benefit" fill="#ED0000"></path>
    </g>
</svg>