<?xml version="1.0" encoding="UTF-8"?>
<svg width="100px" height="100px" viewBox="0 0 100 100" version="1.1" xmlns="http://www.w3.org/2000/svg" xmlns:xlink="http://www.w3.org/1999/xlink">
    <title>Network/Bluetooth</title>
    <g id="Network/Bluetooth" stroke="none" stroke-width="1" fill="none" fill-rule="evenodd">
        <path d="M57.3050997,50.3004496 L77.3569695,30.2481697 C78.8227195,28.7828298 78.8227195,26.4064698 77.3569695,24.9407198 L54.6511697,2.23491999 C53.5777897,1.16154 51.9632097,0.841330001 50.5614198,1.42148 C49.1592198,2.00244999 48.2445098,3.37102998 48.2445098,4.88843997 L48.2445098,41.2394496 L28.7022699,21.6972098 C27.23652,20.2314598 24.86057,20.2314598 23.39482,21.6972098 C21.92907,23.1629598 21.92907,25.5389098 23.39482,27.0046598 L46.6906098,50.3000396 L23.39482,73.5958294 C21.92907,75.0615794 21.92907,77.4375293 23.39482,78.9032793 C24.12749,79.6359493 25.08812,80.0024893 26.04875,80.0024893 C27.00897,80.0024893 27.9695999,79.6359493 28.7026799,78.9032793 L48.2453298,59.3602195 L48.2453298,95.7116392 C48.2453298,97.2294592 49.1596298,98.5980391 50.5622398,99.1790091 C51.0267697,99.3708891 51.5138497,99.4643691 51.9972397,99.4643691 C52.9738597,99.4643691 53.9340797,99.0830691 54.6515797,98.3651592 L77.3573795,75.6593593 C78.8231295,74.1936094 78.8231295,71.8176594 77.3573795,70.3519094 L57.3050997,50.3004496 Z M55.7507897,13.9490299 L69.3959996,27.5946498 L55.7507897,41.2402696 L55.7507897,13.9490299 Z M55.7507897,86.6514593 L55.7507897,59.3606295 L69.3959996,73.0062494 L55.7507897,86.6514593 Z" id="icon-bluetooth" fill="#ED0000"></path>
    </g>
</svg>