<?xml version="1.0" encoding="UTF-8"?>
<svg width="100px" height="100px" viewBox="0 0 100 100" version="1.1" xmlns="http://www.w3.org/2000/svg" xmlns:xlink="http://www.w3.org/1999/xlink">
    <title>Paper/Terms of use</title>
    <g id="Paper/Terms-of-use" stroke="none" stroke-width="1" fill="none" fill-rule="evenodd">
        <path d="M89.2920792,32.3148515 C88.9420792,31.9653465 88.6311881,31.6960396 88.2866337,31.4866337 L58.7435644,1.83762376 C57.8356436,0.76980198 56.4841584,0.0900990099 54.9727723,0.0900990099 L20.5257426,0.0900990099 C13.8222772,0.0900990099 8.36930693,5.54356436 8.36930693,12.2465347 L8.36930693,87.7049505 C8.36930693,94.4084158 13.8227723,99.8618812 20.5257426,99.8618812 L78.5871287,99.8618812 C85.290099,99.8618812 90.7435644,94.4084158 90.7435644,87.7049505 L90.7435644,35.8168317 C90.7435644,34.5034653 90.2212871,33.2435644 89.2920792,32.3148515 Z M59.9232673,17.049505 L73.4455446,30.620297 C72.450495,30.6138614 71.399505,30.6079208 70.2935644,30.6024752 C66.5455446,30.5841584 62.7821782,30.5747525 59.9232673,30.569802 L59.9232673,17.049505 Z M80.8425743,87.7054455 C80.8425743,88.9282178 79.809901,89.9613861 78.5871287,89.9613861 L20.5257426,89.9613861 C19.3029703,89.9613861 18.270297,88.9282178 18.270297,87.7054455 L18.270297,12.2470297 C18.270297,11.0242574 19.3029703,9.99158416 20.5257426,9.99158416 L50.0222772,9.99158416 L50.0222772,35.5153465 C50.0222772,36.8282178 50.5440594,38.0876238 51.4722772,39.0158416 C52.4009901,39.9440594 53.659901,40.4658416 54.9727723,40.4658416 C64.5623762,40.4658416 75.0663366,40.5094059 80.8425743,40.5920792 L80.8425743,87.7054455 Z M71.7376238,71.0960396 L27.6257426,71.0960396 C25.7118812,71.0960396 24.160396,72.6475248 24.160396,74.5613861 C24.160396,76.4752475 25.7118812,78.0267327 27.6257426,78.0267327 L71.7376238,78.0267327 C73.6514851,78.0267327 75.2029703,76.4752475 75.2029703,74.5613861 C75.2029703,72.6475248 73.6514851,71.0960396 71.7376238,71.0960396 Z M24.160396,57.5222772 C24.160396,59.4361386 25.7118812,60.9876238 27.6257426,60.9876238 L71.7376238,60.9876238 C73.6514851,60.9876238 75.2029703,59.4361386 75.2029703,57.5222772 C75.2029703,55.6084158 73.6514851,54.0569307 71.7376238,54.0569307 L27.6257426,54.0569307 C25.7118812,54.0569307 24.160396,55.6084158 24.160396,57.5222772 Z" id="icon-terms-of-use" fill="#ED0000"></path>
    </g>
</svg>