<?xml version="1.0" encoding="UTF-8"?>
<svg width="100px" height="98px" viewBox="0 0 100 98" version="1.1" xmlns="http://www.w3.org/2000/svg" xmlns:xlink="http://www.w3.org/1999/xlink">
    <title>Devices/Sim exchange</title>
    <g id="Devices/Sim-exchange" stroke="none" stroke-width="1" fill="none" fill-rule="evenodd">
        <path d="M46.8148936,29.4393617 C51.2095745,29.4393617 54.7851064,33.0148936 54.7851064,37.4095745 L54.7851064,37.4095745 L54.7851064,85.7393617 C54.7851064,90.1340426 51.2095745,93.7095745 46.8148936,93.7095745 L46.8148936,93.7095745 L14.6634752,93.7095745 C10.2687943,93.7095745 6.69326241,90.1340426 6.69326241,85.7393617 L6.69326241,85.7393617 L6.69326241,48.2198582 C6.69326241,45.5648936 7.95460993,42.5198582 9.83191489,40.6425532 L9.83191489,40.6425532 L17.8964539,32.5780142 C19.7737589,30.7007092 22.8187943,29.4393617 25.4737589,29.4393617 L25.4737589,29.4393617 Z M94.6475177,69.970922 C95.8269504,68.791844 97.7386525,68.791844 98.9177305,69.970922 C98.922695,69.9758865 98.927305,69.9812057 98.9319149,69.9865248 C98.937234,69.9911348 98.9425532,69.9957447 98.9475177,70.0007092 C100.126596,71.1801418 100.126596,73.091844 98.9478723,74.2716312 L98.9478723,74.2716312 L88.4762411,84.7432624 L93.6514184,84.7432624 C94.4851064,84.7432624 95.2400709,85.0812057 95.7865248,85.6276596 C96.3329787,86.1741135 96.6712766,86.929078 96.6712766,87.762766 C96.6712766,89.4304965 95.3195035,90.7822695 93.651773,90.7822695 L93.651773,90.7822695 L81.1868794,90.7822695 C80.351773,90.7822695 79.6035461,90.437234 79.058156,89.8890071 L79.058156,89.8890071 C79.0524823,89.885461 79.048227,89.8801418 79.043617,89.8755319 C79.0390071,89.870922 79.0336879,89.8666667 79.029078,89.8620567 L79.029078,89.8620567 C78.4819149,89.3152482 78.1368794,88.5670213 78.1368794,87.7322695 L78.1368794,87.7322695 L78.1368794,75.2673759 C78.1368794,73.5996454 79.4886525,72.2478723 81.156383,72.2478723 C81.9900709,72.2478723 82.7450355,72.5858156 83.2914894,73.1322695 C83.8375887,73.6787234 84.1758865,74.4336879 84.1758865,75.2673759 L84.1758865,75.2673759 L84.1758865,80.4425532 Z M46.8148936,35.4680851 L25.4737589,35.4680851 C24.4056738,35.4680851 22.9141844,36.0858156 22.1588652,36.8411348 L22.1588652,36.8411348 L14.0943262,44.9056738 C13.3390071,45.6606383 12.7212766,47.1521277 12.7212766,48.2202128 L12.7212766,48.2202128 L12.7212766,85.7397163 C12.7212766,86.8078014 13.5950355,87.6815603 14.6631206,87.6815603 L14.6631206,87.6815603 L46.814539,87.6815603 C47.8826241,87.6815603 48.7567376,86.8078014 48.7567376,85.7397163 L48.7567376,85.7397163 L48.7567376,37.4099291 C48.7567376,36.341844 47.8829787,35.4680851 46.8148936,35.4680851 L46.8148936,35.4680851 Z M37.9131206,56.5099291 C41.2471631,56.5099291 43.9595745,59.2223404 43.9595745,62.5570922 L43.9595745,62.5570922 L43.9595745,76.8262411 C43.9595745,80.1606383 41.2471631,82.8730496 37.9131206,82.8730496 L37.9131206,82.8730496 L23.6549645,82.8730496 C20.320922,82.8730496 17.6085106,80.1602837 17.6085106,76.8262411 L17.6085106,76.8262411 L17.6085106,62.5570922 C17.6085106,59.2223404 20.320922,56.5099291 23.6549645,56.5099291 L23.6549645,56.5099291 Z M38.9950355,72.1723404 L22.5730496,72.1723404 L22.5730496,76.8262411 C22.5730496,77.4230496 23.058156,77.9085106 23.6549645,77.9085106 L23.6549645,77.9085106 L37.9131206,77.9085106 C38.5099291,77.9085106 38.9950355,77.4230496 38.9950355,76.8262411 L38.9950355,76.8262411 L38.9950355,72.1723404 Z M37.9131206,61.4744681 L33.2663121,61.4744681 L33.2663121,67.2078014 L38.9950355,67.2078014 L38.9950355,62.5570922 C38.9950355,61.9599291 38.5099291,61.4744681 37.9131206,61.4744681 L37.9131206,61.4744681 Z M28.301773,61.4744681 L23.6549645,61.4744681 C23.0585106,61.4744681 22.5730496,61.9599291 22.5730496,62.5570922 L22.5730496,62.5570922 L22.5730496,67.2078014 L28.301773,67.2078014 L28.301773,61.4744681 Z M78.6113475,2.84361702 C83.0060284,2.84361702 86.5815603,6.41914894 86.5815603,10.8138298 L86.5815603,10.8138298 L86.5815603,59.1439716 C86.5815603,63.5386525 83.006383,67.114539 78.6117021,67.114539 L78.6117021,67.114539 L58.1539007,67.114539 L58.1539007,61.0861702 L78.6117021,61.0861702 C79.6797872,61.0861702 80.5535461,60.2124113 80.5535461,59.1443262 L80.5535461,59.1443262 L80.5535461,10.8141844 C80.5535461,9.74609929 79.6797872,8.87234043 78.6117021,8.87234043 L78.6117021,8.87234043 L57.2705674,8.87234043 C56.2024823,8.87234043 54.7109929,9.49007092 53.9556738,10.2453901 L53.9556738,10.2453901 L45.8911348,18.3099291 C45.1358156,19.0648936 44.5180851,20.556383 44.5180851,21.6244681 L44.5180851,21.6244681 L44.5180851,26.070922 L38.4897163,26.070922 L38.4897163,21.6241135 C38.4897163,18.9691489 39.7510638,15.9241135 41.6283688,14.0468085 L41.6283688,14.0468085 L49.6929078,5.9822695 C51.5702128,4.10496454 54.6152482,2.84361702 57.2702128,2.84361702 L57.2702128,2.84361702 Z M69.7099291,29.9141844 C73.0443262,29.9141844 75.7567376,32.6269504 75.7567376,35.9613475 L75.7567376,35.9613475 L75.7567376,50.2308511 C75.7567376,53.5648936 73.0439716,56.277305 69.7099291,56.277305 L69.7099291,56.277305 L58.1539007,56.277305 L58.1539007,51.312766 L69.7099291,51.312766 C70.3067376,51.312766 70.7921986,50.8276596 70.7921986,50.2308511 L70.7921986,50.2308511 L70.7921986,45.5765957 L58.1539007,45.5765957 L58.1539007,40.6120567 L60.0985816,40.6120567 L60.0985816,34.8787234 L57.8656028,34.8787234 C57.4375887,33.0085106 56.5468085,31.3134752 55.3187943,29.920922 C55.3634752,29.9198582 55.4070922,29.9141844 55.4521277,29.9141844 L55.4521277,29.9141844 Z M69.7099291,34.879078 L65.0634752,34.879078 L65.0634752,40.6124113 L70.7921986,40.6124113 L70.7921986,35.9617021 C70.7921986,35.3648936 70.3067376,34.879078 69.7099291,34.879078 L69.7099291,34.879078 Z M18.9521277,2.29468085 C19.787234,2.29468085 20.535461,2.63971631 21.0808511,3.18794326 L21.0808511,3.18794326 C21.0858156,3.19113475 21.0900709,3.1964539 21.0946809,3.20106383 C21.0992908,3.20567376 21.1046099,3.20992908 21.1092199,3.21453901 L21.1092199,3.21453901 C21.656383,3.76134752 22.0014184,4.50957447 22.0014184,5.34432624 L22.0014184,5.34432624 L22.0014184,17.8095745 C22.0014184,19.477305 20.6496454,20.829078 18.9819149,20.829078 C18.148227,20.829078 17.3932624,20.4911348 16.8468085,19.9446809 C16.3007092,19.398227 15.9624113,18.6432624 15.9624113,17.8095745 L15.962766,17.8095745 L15.962766,12.6336879 L5.49113475,23.1053191 C4.31170213,24.2843972 2.4,24.2843972 1.22092199,23.1053191 L1.22092199,23.1053191 L1.20673759,23.0897163 C1.20141844,23.0851064 1.19609929,23.0804965 1.19113475,23.0755319 C0.0120567376,21.8960993 0.0120567376,19.9843972 1.19113475,18.8053191 L1.19113475,18.8053191 L11.662766,8.33368794 L6.48758865,8.33368794 C5.65390071,8.33368794 4.89893617,7.99574468 4.35248227,7.44929078 C3.80602837,6.90283688 3.4677305,6.14787234 3.4677305,5.3141844 C3.4677305,3.6464539 4.81950355,2.29468085 6.48723404,2.29468085 L6.48723404,2.29468085 Z" id="icon-sim-exchange" fill="#ED0000"></path>
    </g>
</svg>