<?xml version="1.0" encoding="UTF-8"?>
<svg width="100px" height="100px" viewBox="0 0 100 100" version="1.1" xmlns="http://www.w3.org/2000/svg" xmlns:xlink="http://www.w3.org/1999/xlink">
    <title>Devices/All cable</title>
    <g id="Devices/All-cable" stroke="none" stroke-width="1" fill="none" fill-rule="evenodd">
        <path d="M79.7297922,57.7733337 C80.8238181,57.7733337 81.7111249,58.6815746 81.7111249,59.8014118 L81.7111249,59.8014118 L81.7111249,62.6833108 C82.0727181,64.0782905 83.2892564,65.8724636 86.9884045,66.6728784 C88.5685173,67.0149476 89.7153787,68.4646854 89.7153787,70.1199352 L89.7153787,70.1199352 L89.7153787,76.0135301 C89.7153787,77.957443 88.1705996,79.5386679 86.2718225,79.5386679 L86.2718225,79.5386679 L61.0213887,79.5386679 C59.1226116,79.5386679 57.5775023,77.957443 57.5775023,76.0138681 L57.5775023,76.0138681 L57.5775023,70.1202732 C57.5775023,68.4650234 58.7243637,67.0149476 60.3044765,66.6732164 C64.0046153,65.8724636 65.2211536,64.0776144 65.5817561,62.6822967 L65.5817561,62.6822967 L65.5817561,59.8017498 C65.5817561,58.6819126 66.4690629,57.7736717 67.5630888,57.7736717 C68.6571146,57.7736717 69.5444214,58.6819126 69.5444214,59.8017498 L69.5444214,59.8017498 L69.5444214,62.7502373 C69.5444214,63.0351823 69.5120597,63.313367 69.448657,63.5760031 C68.9648816,65.597659 67.2916462,69.154908 61.5401677,70.5461696 L61.5401677,70.5461696 L61.5401677,75.4825117 L85.7527133,75.4825117 L85.7527133,70.5465076 C80.0012348,69.155246 78.3276692,65.597997 77.8425729,63.5705949 C77.7801609,63.3089728 77.7484596,63.0324782 77.7484596,62.7498993 L77.7484596,62.7498993 L77.7484596,59.8014118 C77.7484596,58.6815746 78.6357664,57.7733337 79.7297922,57.7733337 Z M69.3091724,15.913258 C70.4134034,14.8034812 72.2153957,14.7915267 73.3343586,15.8863604 C74.4529867,16.9811941 74.465375,18.768393 73.3614789,19.8781699 L73.3614789,19.8781699 L66.3426819,26.9343183 L87.4697196,26.9343183 C91.9020449,26.9343183 95.5073688,30.5103765 95.5073688,34.9059827 L95.5073688,34.9059827 L95.5073688,51.5032291 C94.1632078,50.5010764 92.2660154,49.7347758 89.8157917,49.2043273 L89.8157917,49.2043273 L89.8157917,34.9059827 C89.8157917,33.6212052 88.7654666,32.5795026 87.4700544,32.5795026 L87.4700544,32.5795026 L30.9088563,32.5795026 C29.6134441,32.5795026 28.5631189,33.6212052 28.5631189,34.9059827 L28.5631189,34.9059827 L28.5631189,38.6929052 L63.1952495,38.6929052 C67.2974439,38.6929052 70.6349132,42.0026436 70.6345784,46.0714933 L70.6345784,46.0714933 L70.6345784,47.6658839 C68.266681,47.6658839 66.3106513,47.8693424 64.766489,48.2762596 L64.766489,48.2762596 L64.7664106,45.963363 C64.7643709,44.5588446 64.7092979,43.9928447 63.2223268,43.9928447 L63.2223268,43.9928447 L10.7208111,43.9928447 C9.1766489,43.9928447 8.40456779,44.7558143 8.40456779,46.068122 L8.40456779,46.068122 L8.40456779,71.413972 C8.40456779,72.9856894 9.1766489,73.748659 10.7208111,73.748659 L10.7208111,73.748659 L54.217104,73.748659 L54.217104,79.0894461 C43.5785821,79.0894461 29.0783779,78.9920612 10.7164915,78.7972912 C6.61429709,78.7972912 3.27716263,75.4872208 3.27716263,71.4193673 L3.27716263,71.4193673 L3.27716263,46.0714933 C3.27716263,42.0026436 6.61429709,38.6929052 10.7164915,38.6929052 L10.7164915,38.6929052 L22.871207,38.6929052 L22.871207,34.9059827 C22.871207,30.5103765 26.476531,26.9343183 30.9088563,26.9343183 L30.9088563,26.9343183 L51.7914765,26.9343183 L44.7726795,19.8781699 C43.6691183,18.768393 43.6811717,16.9811941 44.7997998,15.8863604 C45.9190976,14.7921908 47.7210899,14.8038132 48.8246512,15.9135901 L48.8246512,15.9135901 L59.0664096,26.2107384 Z M73.6447093,50 C77.8199367,50 91.7135866,50.3724684 95.2095042,55.1672133 C95.6204831,55.73171 95.8368789,56.4031464 95.8368789,57.1119952 L95.8368789,57.1119952 L95.8368789,62.0941331 C95.8368789,63.9975297 94.2168533,65.5460051 92.2260118,65.5460051 L92.2260118,65.5460051 L87.3285418,65.5460051 C85.3377003,65.5460051 83.7183672,63.9971986 83.7183672,62.093471 L83.7183672,62.093471 L83.7183672,60.5284414 C83.7183672,59.4318943 84.6483498,58.541943 85.795767,58.541943 C86.9424917,58.541943 87.8731668,59.4318943 87.8731668,60.5284414 L87.8731668,60.5284414 L87.8731668,61.5726773 L91.6820793,61.5726773 L91.6820793,57.294422 C90.1565754,55.6376824 83.1529682,53.9726657 73.6447093,53.9726657 C64.1399128,53.9729967 57.1387292,55.6370202 55.6108017,57.2947531 L55.6108017,57.2947531 L55.6108017,61.5733395 L59.4197142,61.5733395 L59.4197142,60.5291035 C59.4197142,59.4325564 60.3500431,58.5426051 61.497114,58.5426051 C62.6441849,58.5426051 63.5745138,59.4325564 63.5745138,60.5291035 L63.5745138,60.5291035 L63.5745138,62.0941331 C63.5745138,63.9978608 61.9548344,65.5466673 59.963993,65.5466673 L59.963993,65.5466673 L55.0668692,65.5466673 C53.0760277,65.5466673 51.4560021,63.9978608 51.4560021,62.0941331 L51.4560021,62.0941331 L51.4560021,57.1113331 C51.4560021,56.4018221 51.6730904,55.7300545 52.0833768,55.1672133 C55.5789482,50.3727995 69.4705207,50 73.6447093,50 Z" id="icon-all-cable" fill="#ED0000"></path>
    </g>
</svg>