<?xml version="1.0" encoding="UTF-8"?>
<svg width="100px" height="100px" viewBox="0 0 100 100" version="1.1" xmlns="http://www.w3.org/2000/svg" xmlns:xlink="http://www.w3.org/1999/xlink">
    <title>Network/WiFi hotspot</title>
    <g id="Network/WiFi-hotspot" stroke="none" stroke-width="1" fill="none" fill-rule="evenodd">
        <path d="M90.9979079,15.9715481 C95.5439331,21.3259414 97.8514644,27.7238494 97.8514644,34.98159 C97.8514644,45.9995816 92.5740586,56.8430962 88.1468619,63.9995816 C88.1292887,64.0280335 88.1112971,64.0564854 88.092887,64.0845188 C80.2004184,76.183682 69.2008368,86.9179916 52.4280335,98.890795 C51.7020921,99.4087866 50.8502092,99.6690377 49.9974895,99.6690377 C49.192887,99.6690377 48.3878661,99.4376569 47.6866109,98.9728033 C46.7359623,98.3427657 24.4773657,83.4709318 12.1861154,64.622578 L11.8167364,64.0502092 C11.8167364,64.0502092 11.816318,64.0497908 11.816318,64.0493724 C8.18033473,58.3523013 2.07991632,47.0004184 2.07991632,34.98159 C2.07991632,27.7188285 4.38535565,21.3209205 8.93179916,15.9656904 C20.848251,1.87786611 41.2255495,0.230750502 49.7121803,0.199216972 L49.9656904,0.19874477 C58.2912134,0.19874477 78.9560669,1.73556485 90.9979079,15.9715481 Z M49.9656904,8.56694561 C35.0535565,8.56694561 22.1,13.3552301 15.3158996,21.3757322 C12.0841004,25.1824268 10.4481172,29.758159 10.4481172,34.98159 C10.4481172,45.2439331 16.3376569,55.5794979 18.8698745,59.5472803 L18.8694561,59.5464435 C27.9460251,73.760251 43.9610879,86.0405858 49.9564854,90.3523013 C64.4790795,79.7263598 74.1351464,70.1514644 81.0573222,59.5543933 C84.9079498,53.3213389 89.483682,44.0121339 89.483682,34.98159 C89.483682,29.7631799 87.8451883,25.1874477 84.6142259,21.38159 C77.8246862,13.3552301 64.8740586,8.56694561 49.9656904,8.56694561 Z M49.8945607,56.8740586 C52.2945607,56.8740586 54.2472803,58.8267782 54.2472803,61.2267782 C54.2472803,63.6267782 52.2945607,65.5794979 49.8945607,65.5794979 C47.4945607,65.5794979 45.541841,63.6267782 45.541841,61.2267782 C45.541841,58.8267782 47.4945607,56.8740586 49.8945607,56.8740586 Z M49.9041841,45.1368201 C54.7794979,45.1368201 59.4426778,47.0305439 63.0355649,50.4694561 C64.4543933,51.8276151 64.5037657,54.0790795 63.1456067,55.4983264 C61.7870293,56.9167364 59.5359833,56.9661088 58.1167364,55.6083682 C55.8548117,53.4426778 52.9376569,52.2506276 49.9041841,52.2506276 L49.9008368,52.2506276 C46.8669456,52.251046 43.9502092,53.4451883 41.6878661,55.6125523 C40.9987448,56.2723849 40.1129707,56.6004184 39.2280335,56.6004184 C38.2924686,56.6004184 37.358159,56.2334728 36.6594142,55.5041841 C35.3004184,54.0857741 35.348954,51.8343096 36.7669456,50.4757322 C40.3589958,47.0338912 45.0230126,45.1380753 49.8991632,45.1368201 L49.9041841,45.1368201 Z M49.9046025,33.3728033 C57.8238494,33.3728033 65.3748954,36.425523 71.1686192,41.9698745 C72.5878661,43.3280335 72.6372385,45.5790795 71.2794979,46.9983264 C69.9209205,48.4175732 67.6702929,48.4669456 66.2506276,47.1087866 C61.7874477,42.8376569 55.9820084,40.4853556 49.9041841,40.4853556 L49.8979079,40.4853556 C43.8175732,40.4870293 38.0117155,42.8422594 33.5497908,47.1171548 C32.8610879,47.7778243 31.9748954,48.1058577 31.0899582,48.1058577 C30.1543933,48.1058577 29.2200837,47.7389121 28.5213389,47.0096234 C27.1623431,45.5912134 27.2108787,43.3401674 28.6288703,41.9811715 C34.4205021,36.4317992 41.9736402,33.3748954 49.8962343,33.3728033 L49.9046025,33.3728033 Z M49.9041841,21.609205 C60.8694561,21.609205 71.309205,25.8217573 79.3029289,33.4719665 C80.7221757,34.8301255 80.7715481,37.0811715 79.4133891,38.5004184 C78.0556485,39.9196653 75.8041841,39.9686192 74.3849372,38.6108787 C67.7217573,32.2338912 59.0276151,28.7221757 49.9041841,28.7221757 L49.8953975,28.7221757 C40.7690377,28.7242678 32.0736402,32.2405858 25.4117155,38.6225941 C24.7221757,39.2828452 23.8364017,39.6108787 22.9518828,39.6108787 C22.0158996,39.6108787 21.08159,39.2439331 20.3832636,38.5146444 C19.0246862,37.0962343 19.0728033,34.8447699 20.4912134,33.4861925 C28.4832636,25.8301255 38.925523,21.6121339 49.8937238,21.609205 L49.9041841,21.609205 L49.9041841,21.609205 Z" id="icon-wifi-hotspot" fill="#ED0000"></path>
    </g>
</svg>