<?xml version="1.0" encoding="UTF-8"?>
<svg width="100px" height="100px" viewBox="0 0 100 100" version="1.1" xmlns="http://www.w3.org/2000/svg" xmlns:xlink="http://www.w3.org/1999/xlink">
    <title>Messaging/Message</title>
    <g id="Messaging/Message" stroke="none" stroke-width="1" fill="none" fill-rule="evenodd">
        <path d="M49.9599206,99.8678571 C22.5579365,99.8678571 0.26468254,77.5722222 0.26468254,50.1678571 C0.26468254,22.7642857 22.5579365,0.470238095 49.9599206,0.470238095 C77.3634921,0.470238095 99.6579365,22.7646825 99.6579365,50.1678571 C99.6579365,58.6519841 97.4912698,66.9710317 93.3761905,74.3460317 L99.2650794,92.3448413 C99.9376984,94.3980159 99.4031746,96.6190476 97.8686508,98.1400794 C96.3444444,99.6583333 94.1210317,100.180159 92.0722222,99.4968254 L74.209127,93.5436508 C66.8130952,97.6865079 58.4694444,99.8678571 49.9599206,99.8678571 Z M49.9599206,8.40674603 C26.934127,8.40674603 8.20119048,27.1404762 8.20119048,50.1678571 C8.20119048,73.1964286 26.934127,91.9313492 49.9599206,91.9313492 C57.6357143,91.9313492 65.1496032,89.8198413 71.6888889,85.8242063 C72.6873016,85.2146825 73.9031746,85.0753968 75.0126984,85.4456349 L90.3269841,90.5496032 L85.2793651,75.1214286 C84.9190476,74.0202381 85.0579365,72.8154762 85.6603175,71.8253968 C89.6253968,65.3063492 91.7210317,57.8170635 91.7210317,50.1674603 C91.7210317,27.1404762 72.9873016,8.40674603 49.9599206,8.40674603 Z" id="icon-message" fill="#ED0000"></path>
    </g>
</svg>