<?xml version="1.0" encoding="UTF-8"?>
<svg width="100px" height="100px" viewBox="0 0 100 100" version="1.1" xmlns="http://www.w3.org/2000/svg" xmlns:xlink="http://www.w3.org/1999/xlink">
    <title>Random/Lightning</title>
    <g id="Random/Lightning" stroke="none" stroke-width="1" fill="none" fill-rule="evenodd">
        <path d="M42.5157895,99.9251012 C41.9052632,99.9251012 41.3692308,99.8234818 40.9149798,99.7283401 C40.7809717,99.7004049 40.6481781,99.6651822 40.5178138,99.6234818 C37.2582996,98.58583 35.3825911,95.3639676 36.1546559,92.1299595 L45.4246964,54.1044534 L29.5757085,58.0453441 C28.8647773,58.2271255 28.251417,58.2271255 27.9194332,58.2271255 C26.3234818,58.2271255 24.7461538,57.6522267 23.5817814,56.6481781 C21.8311741,55.1659919 21.048583,52.842915 21.5388664,50.5708502 C21.5465587,50.5360324 21.554251,50.5012146 21.562753,50.4668016 L32.6336032,5.02145749 C32.6392713,4.99838057 32.6449393,4.97530364 32.6510121,4.95222672 C33.3906883,2.1340081 35.9975709,0.165991903 38.9906883,0.165991903 L57.0595142,0.165991903 C60.6591093,0.165991903 63.5870445,3.02064777 63.5870445,6.5291498 C63.5870445,7.37611336 63.3890688,8.23684211 62.9983806,9.09068826 L56.2898785,27.2591093 L70.6854251,23.694332 C71.0518219,23.605668 71.617004,23.4692308 72.3186235,23.4692308 C74.0781377,23.4692308 75.7607287,24.1838057 77.0566802,25.4813765 C77.0979757,25.5222672 77.1376518,25.5643725 77.1769231,25.6068826 C78.8975709,27.4846154 79.3165992,30.1805668 78.2449393,32.4761134 L48.5,96.21417 C48.4688259,96.2809717 48.4360324,96.3465587 48.4012146,96.411336 C47.2417004,98.5789474 44.9866397,99.9251012 42.5157895,99.9251012 Z M50.9433198,44.5117409 C52.0008097,44.5117409 53.0315789,44.9263158 53.7995951,45.6910931 C54.8036437,46.6906883 55.2121457,48.142915 54.8769231,49.5194332 L47.7910931,78.5850202 L69.3615385,32.3639676 L50.8174089,36.9562753 C49.3619433,37.3165992 47.8267206,36.8433198 46.8275304,35.7259109 C45.8279352,34.6089069 45.5275304,33.0303644 46.0465587,31.6238866 L54.6720648,8.26315789 L40.1777328,8.26315789 L30.1153846,49.5672065 L49.9663968,44.6311741 C50.2898785,44.5506073 50.6182186,44.5117409 50.9433198,44.5117409 Z" id="icon-lightning" fill="#ED0000"></path>
    </g>
</svg>