<?xml version="1.0" encoding="UTF-8"?>
<svg width="100px" height="98px" viewBox="0 0 100 98" version="1.1" xmlns="http://www.w3.org/2000/svg" xmlns:xlink="http://www.w3.org/1999/xlink">
    <title>Devices/Landline (phone)</title>
    <g id="Devices/Landline-(phone)" stroke="none" stroke-width="1" fill="none" fill-rule="evenodd">
        <path d="M63.9734358,46.9317706 C66.1732966,46.9317706 67.9565262,48.7107717 67.9565262,50.9045288 L67.9565262,50.9045288 L67.9565262,57.6792734 C68.8391791,61.126833 71.8440225,65.5981724 81.0919619,67.5480021 C84.5154282,68.269455 87.00008,71.3304653 87.00008,74.8260952 L87.00008,74.8260952 L87.00008,88.4896026 C87.00008,92.5934618 83.6526908,95.9317706 79.5381583,95.9317706 L79.5381583,95.9317706 L19.4620017,95.9317706 C15.3474692,95.9317706 12.00008,92.5934618 12.00008,88.4896026 L12.00008,88.4896026 L12.00008,74.8260952 C12.00008,71.3304653 14.4851301,68.269455 17.9089947,67.5480021 C27.1565358,65.5981724 30.1613792,61.126833 31.0436338,57.6784789 L31.0436338,57.6784789 L31.0436338,50.9045288 C31.0436338,48.7107717 32.8268634,46.9317706 35.0267242,46.9317706 C37.2265851,46.9317706 39.0098147,48.7107717 39.0098147,50.9045288 L39.0098147,50.9045288 L39.0098147,57.7388648 C39.0098147,58.3375595 38.9409072,58.9203631 38.8054821,59.4705901 C37.6766743,64.0682632 33.7270418,72.1901701 19.9662609,75.2333029 L19.9662609,75.2333029 L19.9662609,87.9862541 L79.0338991,87.9862541 L79.0338991,75.2333029 C65.2731182,72.1901701 61.3234857,64.0686605 60.1938812,59.4686037 C60.0588545,58.9179794 59.9903453,58.3363676 59.9903453,57.7388648 L59.9903453,57.7388648 L59.9903453,50.9045288 C59.9903453,48.7107717 61.7739732,46.9317706 63.9734358,46.9317706 Z M49.8344,26.2729706 C60.5116,26.2729706 70.8968,27.2165706 79.0772,28.9297706 C89.146,31.0389706 95.4568,34.0949706 98.3696,38.2729706 C99.2184,39.4905706 99.6668,40.9477706 99.6668,42.4877706 L99.6668,42.4877706 L99.6668,54.3597706 C99.6668,58.4917706 96.3052,61.8537706 92.1732,61.8537706 L92.1732,61.8537706 L81.012,61.8537706 C76.88,61.8537706 73.5188,58.4917706 73.5188,54.3597706 L73.5188,54.3597706 L73.5188,50.6313706 C73.5188,48.4225706 75.31,46.6313706 77.5188,46.6313706 C79.728,46.6313706 81.5188,48.4225706 81.5188,50.6313706 L81.5188,50.6313706 L81.5188,53.8537706 L91.6668,53.8537706 L91.6668,42.6593706 C88.4336,38.5585706 72.8612,34.2729706 49.8344,34.2729706 C26.8084,34.2729706 11.2352,38.5585706 8,42.6593706 L8,42.6593706 L8,53.8537706 L18.1484,53.8537706 L18.1484,50.6313706 C18.1484,48.4225706 19.9392,46.6313706 22.1484,46.6313706 C24.3576,46.6313706 26.1484,48.4225706 26.1484,50.6313706 L26.1484,50.6313706 L26.1484,54.3597706 C26.1484,58.4917706 22.7864,61.8537706 18.6544,61.8537706 L18.6544,61.8537706 L7.494,61.8537706 C3.3616,61.8537706 -4.26325641e-14,58.4921706 -4.26325641e-14,54.3601706 L-4.26325641e-14,54.3601706 L-4.26325641e-14,42.4857706 C-4.26325641e-14,40.9473706 0.4484,39.4905706 1.2972,38.2733706 C4.2104,34.0949706 10.5212,31.0385706 20.5908,28.9297706 C28.7708,27.2161706 39.1568,26.2729706 49.8336,26.2729706 L49.8336,26.2729706 Z M8.46218308,10.4894532 C9.96710954,9.46935443 11.996894,9.88784641 12.9962021,11.4250677 L12.9962021,11.4250677 L16.4539544,16.7440418 C17.4528778,18.2808701 17.0430729,20.3536825 15.5381465,21.3737813 C14.9817354,21.7510135 14.353368,21.9317706 13.7319269,21.9317706 C12.6729758,21.9317706 11.634034,21.407182 11.0041274,20.4385598 L11.0041274,20.4385598 L7.5463751,15.1195856 C6.54706699,13.5827573 6.95725661,11.5099449 8.46218308,10.4894532 Z M87.0043581,11.424517 C88.003243,9.88805862 90.0333342,9.46916741 91.5382027,10.4896744 C93.0430713,11.5097885 93.4528603,13.582632 92.4539755,15.1194834 L92.4539755,15.1194834 L88.9955866,20.4389303 C88.3660891,21.4071742 87.3268025,21.9317706 86.2678921,21.9317706 C85.6464749,21.9317706 85.0185165,21.7510108 84.4621268,21.3737729 C82.9572583,20.3536588 82.5470844,18.2804224 83.5463541,16.743571 L83.5463541,16.743571 Z M50.3352689,4 C52.1607133,4 53.6408244,5.56676471 53.6408244,7.5 L53.6408244,7.5 L53.6408244,14.136 C53.6408244,16.0688235 52.1607133,17.636 50.3352689,17.636 C48.5098244,17.636 47.0297133,16.0688235 47.0297133,14.136 L47.0297133,14.136 L47.0297133,7.5 C47.0297133,5.56676471 48.5098244,4 50.3352689,4 Z" id="icon-landline" fill="#ED0000"></path>
    </g>
</svg>