<?xml version="1.0" encoding="UTF-8"?>
<svg width="100px" height="100px" viewBox="0 0 100 100" version="1.1" xmlns="http://www.w3.org/2000/svg" xmlns:xlink="http://www.w3.org/1999/xlink">
    <title>Random/Lightbulb</title>
    <g id="Random/Lightbulb" stroke="none" stroke-width="1" fill="none" fill-rule="evenodd">
        <path d="M55.8565574,90.2172131 C57.8290984,90.2172131 59.4290984,91.8168033 59.4290984,93.7897541 C59.4290984,95.7627049 57.8295082,97.3622951 55.8565574,97.3622951 L55.8565574,97.3622951 L44.2680328,97.3622951 C42.295082,97.3622951 40.6954918,95.7627049 40.6954918,93.7897541 C40.6954918,91.8168033 42.295082,90.2172131 44.2680328,90.2172131 L44.2680328,90.2172131 Z M50.1016393,26.4840164 C57.9733607,26.5131148 65.1036885,28.6286885 70.1918033,32.4397541 C74.8709016,35.9754098 77.4487705,41.1713115 77.4618852,47.079918 C77.4295082,52.7557377 75.1405738,59.0483607 70.8418033,65.3057377 C68.9352459,68.0684426 65.8790984,71.3668033 64.2270492,73.0877049 C64.2106557,73.104918 64.1938525,73.1221311 64.1766393,73.1393443 C62.8602459,74.4680328 59.4286885,78.7 59.4286885,82.2016393 C59.4286885,84.1745902 57.8290984,85.7741803 55.8561475,85.7741803 L55.8561475,85.7741803 L44.267623,85.7741803 C42.2946721,85.7741803 40.695082,84.1745902 40.695082,82.2016393 C40.695082,78.679918 37.1790984,74.3709016 35.9471311,73.1393443 C35.929918,73.1221311 35.9131148,73.104918 35.8963115,73.0872951 C34.2442623,71.3663934 31.1889344,68.0688525 29.2864754,65.3118852 C24.9836066,59.0483607 22.6942623,52.7561475 22.6618852,47.1086066 C22.6754098,41.1713115 25.2528689,35.975 29.920082,32.4487705 C35.0209016,28.6286885 42.1508197,26.5131148 50.0094262,26.4840164 L50.0094262,26.4840164 Z M70.7131148,71.4782787 C72.1090164,70.0836066 74.3704918,70.0840164 75.7655738,71.4790984 L75.7655738,71.4790984 L83.9590164,79.6754098 C85.3536885,81.0709016 85.3532787,83.3331967 83.9581967,84.7278689 C83.2606557,85.4254098 82.3463115,85.7737705 81.432377,85.7737705 C80.5180328,85.7737705 79.6032787,85.425 78.9057377,84.7270492 L78.9057377,84.7270492 L70.7122951,76.5307377 C69.317623,75.1352459 69.3180328,72.8729508 70.7131148,71.4782787 Z M24.3590164,71.4790984 C25.7540984,70.0840164 28.0163934,70.0836066 29.4114754,71.4782787 C30.8065574,72.8733607 30.807377,75.1352459 29.4122951,76.5307377 L29.4122951,76.5307377 L21.2184426,84.7270492 C20.5209016,85.425 19.6061475,85.7737705 18.6918033,85.7737705 C17.777459,85.7737705 16.8635246,85.4254098 16.1659836,84.7278689 C14.7709016,83.3327869 14.770082,81.0709016 16.1651639,79.6754098 L16.1651639,79.6754098 Z M50.067623,63.1008197 C47.1020492,65.327459 44.6204918,67.7204918 42.7831967,70.1229508 C43.267623,70.7290984 43.8057377,71.4467213 44.3430328,72.252459 C45.8,74.4381148 46.8061475,76.5713115 47.3532787,78.6286885 L47.3532787,78.6286885 L52.7709016,78.6286885 C53.317623,76.5717213 54.3237705,74.4385246 55.7811475,72.2528689 C56.3184426,71.4467213 56.8569672,70.7282787 57.3409836,70.1217213 C55.5057377,67.7163934 53.0282787,65.3237705 50.067623,63.1008197 Z M50.0881148,33.6282787 L50.022541,33.6282787 C43.7020492,33.6516393 38.0836066,35.2602459 34.2155738,38.1577869 C31.3028689,40.3586066 29.8155738,43.3688525 29.8069672,47.0954918 C29.8311475,51.2782787 31.6864754,56.1856557 35.1717213,61.2594262 C36.0819672,62.5782787 37.5737705,64.3790984 39.3840164,66.3586066 C41.1741803,64.1532787 43.4016393,61.9864754 45.9713115,59.9479508 C44.7356557,58.8336066 43.6856557,57.667623 42.8766393,56.4942623 C41.457377,54.4577869 40.7032787,52.3528689 40.7032787,50.417623 C40.7032787,48.2237705 41.6561475,46.3028689 43.3868852,45.0090164 C45.120082,43.7188525 47.4889344,43.0069672 50.0614754,43 L50.0614754,43 C52.6364754,43 55.0053279,43.7135246 56.7377049,45.0090164 C58.4622951,46.2918033 59.4151639,48.2139344 59.4151639,50.417623 C59.4151639,52.3590164 58.667623,54.4627049 57.2545082,56.5 C56.4393443,57.6709016 55.3901639,58.8331967 54.1598361,59.9446721 C56.7266393,61.9815574 58.9520492,64.1491803 60.7418033,66.357377 C62.5516393,64.3782787 64.0438525,62.5766393 64.9569672,61.2536885 C68.4381148,56.1864754 70.2930328,51.2790984 70.3168033,47.0668033 C70.3086066,43.3688525 68.8213115,40.3590164 65.8963115,38.1487705 C62.0401639,35.2606557 56.4217213,33.6516393 50.0881148,33.6282787 L50.0881148,33.6282787 Z M50.0692623,48.0016393 C48.5844262,48.0061475 47.2393443,48.3766393 46.3778689,49.0180328 C45.920082,49.3602459 45.704918,49.8061475 45.704918,50.4180328 C45.704918,51.3127049 46.1602459,52.4586066 46.9872951,53.6454918 C47.7364754,54.7315574 48.7840164,55.8295082 50.0647541,56.8786885 C51.3438525,55.8278689 52.3942623,54.7286885 53.147541,53.6467213 C53.9631148,52.4704918 54.4139344,51.322541 54.4139344,50.4180328 C54.4139344,49.7930328 54.2086066,49.3614754 53.7479508,49.0188525 C52.8819672,48.3709016 51.5430328,48.0016393 50.0692623,48.0016393 Z M15.2971311,47.0463115 C17.270082,47.0463115 18.8696721,48.6459016 18.8696721,50.6188525 C18.8696721,52.5918033 17.270082,54.1909836 15.2971311,54.1909836 L15.2971311,54.1909836 L3.70860656,54.1909836 C1.73565574,54.1909836 0.136065574,52.5918033 0.136065574,50.6188525 C0.136065574,48.6459016 1.73565574,47.0463115 3.70860656,47.0463115 L3.70860656,47.0463115 Z M96.3536885,47.0463115 C98.3266393,47.0463115 99.9262295,48.6459016 99.9262295,50.6188525 C99.9262295,52.5918033 98.3266393,54.1909836 96.3536885,54.1909836 L96.3536885,54.1909836 L84.827459,54.1909836 C82.8545082,54.1909836 81.254918,52.5918033 81.254918,50.6188525 C81.254918,48.6459016 82.8545082,47.0463115 84.827459,47.0463115 L84.827459,47.0463115 Z M78.9057377,15.9397541 C80.3008197,14.5446721 82.5627049,14.5438525 83.9581967,15.9389344 C85.3532787,17.3336066 85.3536885,19.5954918 83.9590164,20.9909836 L83.9590164,20.9909836 L75.7655738,29.1872951 C75.0680328,29.8848361 74.1532787,30.2340164 73.2389344,30.2340164 C72.325,30.2340164 71.4106557,29.8856557 70.7131148,29.1881148 C69.3180328,27.7934426 69.317623,25.5315574 70.7122951,24.1360656 L70.7122951,24.1360656 Z M16.1663934,15.9389344 C17.5610656,14.5438525 19.8233607,14.5442623 21.2184426,15.9397541 L21.2184426,15.9397541 L29.4122951,24.1360656 C30.807377,25.5311475 30.8069672,27.7930328 29.4114754,29.1881148 C28.7139344,29.8852459 27.7995902,30.2340164 26.8856557,30.2340164 C25.9709016,30.2340164 25.0565574,29.8852459 24.3590164,29.1872951 L24.3590164,29.1872951 L16.1655738,20.9909836 C14.7704918,19.5959016 14.7709016,17.3340164 16.1663934,15.9389344 Z M50.0622951,3.30409836 C52.0352459,3.30409836 53.6348361,4.90368852 53.6348361,6.87663934 L53.6348361,6.87663934 L53.6348361,18.4680328 C53.6348361,20.4409836 52.0352459,22.0405738 50.0622951,22.0405738 C48.0889344,22.0405738 46.4897541,20.4409836 46.4897541,18.4680328 L46.4897541,18.4680328 L46.4897541,6.87663934 C46.4897541,4.90368852 48.0893443,3.30409836 50.0622951,3.30409836 Z" id="icon-lightbulb" fill="#ED0000"></path>
    </g>
</svg>