<?xml version="1.0" encoding="UTF-8"?>
<svg width="100px" height="100px" viewBox="0 0 100 100" version="1.1" xmlns="http://www.w3.org/2000/svg" xmlns:xlink="http://www.w3.org/1999/xlink">
    <title>Messaging/Chat</title>
    <g id="Messaging/Chat" stroke="none" stroke-width="1" fill="none" fill-rule="evenodd">
        <path d="M88.1145749,31.6801619 L88.1145749,23.7303644 C88.1145749,14.157085 80.3263158,6.36842105 70.7526316,6.36842105 L17.5016194,6.36842105 C7.92834008,6.36842105 0.139676113,14.157085 0.139676113,23.7303644 L0.139676113,54.4874494 C0.139676113,62.8635628 6.10242915,69.8736842 14.0060729,71.4963563 L10.1303644,87.0194332 C9.7097166,88.7036437 10.4097166,90.4688259 11.8708502,91.4064777 C12.5396761,91.8364372 13.3,92.048583 14.0578947,92.048583 C14.9550607,92.048583 15.8493927,91.7510121 16.5846154,91.1635628 L39.911336,72.4995951 C42.240081,76.0558704 46.2574899,78.4117409 50.8165992,78.4117409 L70.5769231,78.4117409 L86.5331984,91.1518219 C87.2684211,91.7388664 88.1623482,92.0368421 89.0595142,92.0368421 C89.8174089,92.0368421 90.5777328,91.8246964 91.2465587,91.3951417 C92.7072874,90.457085 93.4076923,88.6919028 92.9870445,87.0076923 L90.6882591,77.7991903 C95.9461538,76.1214575 99.7651822,71.1894737 99.7651822,65.3825911 L99.7651822,44.6356275 C99.7651822,37.917004 94.6530364,32.3712551 88.1145749,31.6801619 Z M52.5935223,58.7032389 C50.2902834,58.7032389 48.4230769,56.8360324 48.4230769,54.5327935 C48.4230769,52.2295547 50.2902834,50.3623482 52.5935223,50.3623482 C54.8967611,50.3623482 56.7639676,52.2295547 56.7639676,54.5327935 C56.7639676,56.8360324 54.8967611,58.7032389 52.5935223,58.7032389 Z M68.6319838,58.7032389 C66.3287449,58.7032389 64.4615385,56.8360324 64.4615385,54.5327935 C64.4615385,52.2295547 66.3287449,50.3623482 68.6319838,50.3623482 C70.9352227,50.3623482 72.8024291,52.2295547 72.8024291,54.5327935 C72.8024291,56.8360324 70.9352227,58.7032389 68.6319838,58.7032389 Z M80.0178138,31.6068826 L50.8161943,31.6068826 C43.6319838,31.6068826 37.7870445,37.4518219 37.7870445,44.6360324 L37.7870445,63.9991903 L20.8850202,77.3680162 L23.0287449,68.7817814 C23.3307692,67.5728745 23.0587045,66.2919028 22.291498,65.3093117 C21.5242915,64.3267206 20.3473684,63.7526316 19.1008097,63.7526316 L17.5012146,63.7526316 C12.3923077,63.7526316 8.23643725,59.5963563 8.23643725,54.4874494 L8.23643725,23.7303644 C8.23643725,18.6214575 12.3927126,14.465587 17.5012146,14.465587 L70.7530364,14.465587 C75.8615385,14.465587 80.0178138,18.6218623 80.0178138,23.7303644 L80.0178138,31.6068826 L80.0178138,31.6068826 Z M84.6704453,58.7032389 C82.3672065,58.7032389 80.5,56.8360324 80.5,54.5327935 C80.5,52.2295547 82.3672065,50.3623482 84.6704453,50.3623482 C86.9736842,50.3623482 88.8408907,52.2295547 88.8408907,54.5327935 C88.8408907,56.8360324 86.9736842,58.7032389 84.6704453,58.7032389 Z" id="icon-messaging-chat" fill="#ED0000"></path>
    </g>
</svg>