<?xml version="1.0" encoding="UTF-8"?>
<svg width="100px" height="100px" viewBox="0 0 100 100" version="1.1" xmlns="http://www.w3.org/2000/svg" xmlns:xlink="http://www.w3.org/1999/xlink">
    <title>Transport/Bike</title>
    <g id="Transport/Bike" stroke="none" stroke-width="1" fill="none" fill-rule="evenodd">
        <path d="M79.4789231,44.7391011 C77.746153,44.7391011 76.066423,44.9688112 74.4658629,45.3943012 L61.9195624,17.9882201 C61.3798024,16.80925 60.2023924,16.05304 58.9052523,16.05304 L51.104472,16.05304 C49.2738119,16.05304 47.7894719,17.5373801 47.7894719,19.3680401 C47.7894719,21.1987002 49.2738119,22.6830403 51.104472,22.6830403 L56.7770222,22.6830403 L61.3135024,32.5921607 L37.4408214,32.5921607 L35.4233514,28.2288405 L36.7111314,28.2288405 C38.5417915,28.2288405 40.0261316,26.7445004 40.0261316,24.9138404 C40.0261316,23.0831803 38.5417915,21.5988402 36.7111314,21.5988402 L22.9780609,21.5988402 C21.1474008,21.5988402 19.6630607,23.0831803 19.6630607,24.9138404 C19.6630607,26.7445004 21.1474008,28.2288405 22.9780609,28.2288405 L28.1186511,28.2288405 L31.6294312,35.8225308 L26.551631,45.6517012 C24.6889909,45.0600712 22.7070109,44.7387111 20.6513208,44.7387111 C9.88147035,44.7387111 1.11973,53.5004515 1.11973,64.2699119 C1.11973,75.0397623 9.88147035,83.8015027 20.6513208,83.8015027 C30.2695012,83.8015027 38.2801015,76.8115324 39.8845615,67.6453621 L48.4633919,67.6453621 C49.6045319,67.6453621 50.665332,67.058412 51.271782,66.091992 L65.9412426,42.7017411 L68.4427027,48.1660313 C63.3165425,51.6900714 59.9465523,57.5927217 59.9465523,64.2699119 C59.9465523,75.0397623 68.7082927,83.8015027 79.4781431,83.8015027 C90.2476035,83.8015027 99.0093439,75.0397623 99.0093439,64.2699119 C99.0093439,53.5008415 90.2487735,44.7391011 79.4789231,44.7391011 Z M35.1542514,43.4458611 L43.2779517,61.0161418 L39.9067915,61.0161418 C39.0640015,56.0151716 36.3172314,51.6538014 32.4363412,48.7077413 L35.1542514,43.4458611 Z M28.7668311,55.8108116 C30.2363512,57.2210516 31.3392712,59.0080317 31.9203712,61.0157518 L26.078171,61.0157518 L28.7668311,55.8108116 Z M20.6517108,76.0022824 C14.1831705,76.0022824 8.92012031,70.7396222 8.92012031,64.2706919 C8.92012031,57.8021517 14.1827805,52.5394915 20.6517108,52.5394915 C21.4149408,52.5394915 22.1602308,52.6151515 22.8832909,52.7551615 L17.6892707,62.8097519 C17.1584806,63.8374019 17.2017706,65.0674619 17.8031507,66.055332 C18.4045307,67.043202 19.4778107,67.6461421 20.6345508,67.6461421 L31.8860512,67.6461421 C30.4321312,72.4743422 25.947131,76.0022824 20.6517108,76.0022824 Z M48.9048719,57.3883616 L40.5058316,39.2225509 L60.2979424,39.2225509 L48.9048719,57.3883616 Z M79.4789231,76.0022824 C73.0099929,76.0022824 67.7473327,70.7396222 67.7473327,64.2706919 C67.7473327,60.7505518 69.3081127,57.5896017 71.7717428,55.4375816 L76.467733,65.695752 C77.025043,66.913332 78.2270231,67.6317121 79.4836031,67.6317121 C79.9453631,67.6317121 80.4145332,67.534992 80.8614732,67.330242 C82.5263832,66.568182 83.2580233,64.6010219 82.4955732,62.9361119 L77.7925631,52.6627315 C78.3432431,52.5831715 78.9060131,52.5398815 79.4785331,52.5398815 C85.9470734,52.5398815 91.2097336,57.8025417 91.2097336,64.2710819 C91.2101236,70.7392322 85.9474634,76.0022824 79.4789231,76.0022824 Z" id="icon-bike" fill="#ED0000"></path>
    </g>
</svg>