<?xml version="1.0" encoding="UTF-8"?>
<svg width="100px" height="98px" viewBox="0 0 100 98" version="1.1" xmlns="http://www.w3.org/2000/svg" xmlns:xlink="http://www.w3.org/1999/xlink">
    <title>Devices/Radio</title>
    <g id="Devices/Radio" stroke="none" stroke-width="1" fill="none" fill-rule="evenodd">
        <path d="M13.6162698,3.94325397 C14.3448413,1.87619048 16.6115079,0.792063492 18.6781746,1.52063492 L18.6781746,1.52063492 L90.0678571,26.6956349 C90.0849206,26.7015873 90.1003968,26.7095238 90.1174603,26.715873 C95.7206349,28.3694444 99.8230159,33.5583333 99.8230159,39.6900794 L99.8230159,39.6900794 L99.8230159,85.0154762 C99.8230159,92.4746032 93.7543651,98.543254 86.2952381,98.543254 L86.2952381,98.543254 L13.8115079,98.543254 C6.35198413,98.543254 0.283730159,92.4746032 0.283730159,85.0154762 L0.283730159,85.0154762 L0.283730159,39.6900794 C0.283730159,32.2305556 6.35238095,26.1623016 13.8115079,26.1623016 L13.8115079,26.1623016 L64.6924603,26.1623016 L16.0388889,9.00515873 C13.9718254,8.2765873 12.8873016,6.00992063 13.6162698,3.94325397 Z M86.2952381,34.0988095 L13.8115079,34.0988095 C10.7285714,34.0988095 8.2202381,36.6071429 8.2202381,39.6900794 L8.2202381,39.6900794 L8.2202381,85.0154762 C8.2202381,88.0988095 10.7285714,90.606746 13.8115079,90.606746 L13.8115079,90.606746 L86.2952381,90.606746 C89.3785714,90.606746 91.8865079,88.0988095 91.8865079,85.0154762 L91.8865079,85.0154762 L91.8865079,39.6900794 C91.8865079,36.6071429 89.3785714,34.0988095 86.2952381,34.0988095 L86.2952381,34.0988095 Z M37.6603175,37.9825397 C51.1388889,37.9825397 62.1043651,48.9480159 62.1043651,62.4265873 C62.1043651,75.9051587 51.1388889,86.8706349 37.6603175,86.8706349 C24.181746,86.8706349 13.2162698,75.9051587 13.2162698,62.4265873 C13.2162698,48.9480159 24.181746,37.9825397 37.6603175,37.9825397 Z M37.6603175,45.9194444 C28.5579365,45.9194444 21.1527778,53.3246032 21.1527778,62.4269841 C21.1527778,71.5293651 28.5579365,78.9345238 37.6603175,78.9345238 C46.7626984,78.9345238 54.1678571,71.5293651 54.1678571,62.4269841 C54.1678571,53.3246032 46.7626984,45.9194444 37.6603175,45.9194444 Z M79.2571429,58.7642857 C82.5857543,58.7642857 85.284127,61.4626584 85.284127,64.7912698 C85.284127,68.1198813 82.5857543,70.818254 79.2571429,70.818254 C75.9285314,70.818254 73.2301587,68.1198813 73.2301587,64.7912698 C73.2301587,61.4626584 75.9285314,58.7642857 79.2571429,58.7642857 Z M79.2571429,40.7206349 C82.5857543,40.7206349 85.284127,43.4190076 85.284127,46.747619 C85.284127,50.0762305 82.5857543,52.7746032 79.2571429,52.7746032 C75.9285314,52.7746032 73.2301587,50.0762305 73.2301587,46.747619 C73.2301587,43.4190076 75.9285314,40.7206349 79.2571429,40.7206349 Z" id="icon-radio" fill="#ED0000"></path>
    </g>
</svg>