<?xml version="1.0" encoding="UTF-8"?>
<svg width="100px" height="100px" viewBox="0 0 100 100" version="1.1" xmlns="http://www.w3.org/2000/svg" xmlns:xlink="http://www.w3.org/1999/xlink">
    <title>Random/Find the remote</title>
    <g id="Random/Find-the-remote" stroke="none" stroke-width="1" fill="none" fill-rule="evenodd">
        <path d="M65.9169118,41.7941176 C74.1882353,41.7941176 80.1238971,43.3702206 84.0632353,46.6121324 C87.3702206,49.3334559 89.1180147,53.2389706 89.1180147,57.9058824 C89.1180147,59.3047794 88.8481618,60.6680147 88.4761029,61.8882353 C88.6709559,61.8805147 88.8669118,61.8757353 89.0647059,61.8757353 C94.9139706,61.8757353 99.6727941,66.6345588 99.6727941,72.4838235 C99.6727941,77.4242647 96.275,81.6470588 91.5823529,82.7860294 C91.5918235,85.3968676 91.6162306,91.9518676 91.6200751,92.9839583 L91.6205882,93.1216912 C91.6235294,93.9525735 91.2955882,94.75 90.7091912,95.3389706 C90.1227941,95.9275735 89.3264706,96.2580882 88.4955882,96.2580882 L88.4955882,96.2580882 L11.1808824,96.2580882 C10.35,96.2580882 9.55367647,95.9275735 8.96727941,95.3389706 C8.38088235,94.7503676 8.05294118,93.9525735 8.05588235,93.1216912 C8.05588235,93.1216912 8.08382353,85.6305147 8.09411765,82.7860294 C3.40183824,81.6470588 0.00404411765,77.4242647 0.00404411765,72.4838235 C0.00404411765,66.6341912 4.76286765,61.8757353 10.6121324,61.8757353 C10.8099265,61.8757353 11.0058824,61.8805147 11.2007353,61.8882353 C10.8290441,60.6676471 10.5588235,59.3047794 10.5588235,57.9058824 C10.5588235,53.2386029 12.3066176,49.3334559 15.6136029,46.6121324 C19.5529412,43.3702206 25.4886029,41.7941176 33.7599265,41.7941176 C40.0580882,41.7941176 45.9029412,43.7088235 49.8386029,46.9316176 C53.7738971,43.7088235 59.61875,41.7941176 65.9169118,41.7941176 Z M89.0650735,68.1264706 C86.8845588,68.1264706 85.1830882,68.90625 84.3047794,70.2319853 L84.3047794,70.2319853 L84.0455882,70.6944853 C83.9040441,70.9911765 83.7941176,71.3069853 83.7283088,71.6455882 C83.7238971,71.6672794 83.7198529,71.6889706 83.7150735,71.7106618 C83.6551471,71.9867647 83.6227941,72.2647059 83.6183824,72.5363971 L83.6183824,72.5363971 L83.6194853,72.8272059 C83.632824,76.1435777 83.6558468,82.546568 83.6594032,87.4604279 L83.6591912,90.0080882 L85.3595588,90.0080882 C85.3479309,86.8726573 85.3312128,82.4280927 85.3289367,81.7932925 L85.3286765,81.7169118 C85.3286765,78.7944853 87.5341912,76.9408088 89.6731618,76.7955882 C91.8176471,76.4974265 93.4227941,74.6602941 93.4231618,72.4845588 C93.4231618,70.08125 91.4680147,68.1264706 89.0650735,68.1264706 Z M10.6121324,68.1253676 C8.20919118,68.1253676 6.25404412,70.0805147 6.25404412,72.4834559 C6.25404412,74.6599265 7.85919118,76.4970588 10.0036765,76.7952206 C12.1422794,76.9404412 14.3481618,78.7941176 14.3481618,81.7165441 C14.3481618,81.7536765 14.3301471,86.6371324 14.3176471,90.0077206 L14.3176471,90.0077206 L16.0180147,90.0077206 C16.0121324,84.7316176 16.0455882,75.8238971 16.0580882,72.7113971 L16.0580882,72.7113971 L16.0591912,72.5352941 C16.0544118,72.2628676 16.0220588,71.9852941 15.9625,71.7106618 L15.9625,71.7106618 L15.9488971,71.6444853 C15.8830882,71.3069853 15.7738971,70.9919118 15.6327206,70.6959559 L15.6327206,70.6959559 L15.3694853,70.2261029 C14.4904412,68.9033088 12.7897059,68.1253676 10.6121324,68.1253676 Z M46.7099265,85.4584559 L22.2702206,85.4584559 C22.269073,86.0776195 22.268269,86.6847369 22.2677706,87.2719755 L22.2676471,90.00625 L46.7099265,90.00625 L46.7099265,85.4584559 Z M77.4066176,85.4584559 L52.9669118,85.4584559 L52.9669118,90.00625 L77.4088235,90.00625 C77.4102941,88.6794118 77.4091912,87.1154412 77.4066176,85.4584559 L77.4066176,85.4584559 Z M77.3779412,75.1823529 L54.8525735,75.1823529 C53.8128676,75.1823529 52.9669118,76.0283088 52.9669118,77.0683824 L52.9669118,77.0683824 L52.9669118,79.2084559 L77.3915441,79.2084559 C77.3871324,77.7647059 77.3823529,76.3915441 77.3779412,75.1823529 L77.3779412,75.1823529 Z M44.8238971,75.1823529 L22.2985294,75.1823529 C22.2941176,76.3518382 22.2893382,77.7330882 22.2849265,79.2084559 L22.2849265,79.2084559 L46.7095588,79.2084559 L46.7095588,77.0683824 C46.7095588,76.0283088 45.8636029,75.1823529 44.8238971,75.1823529 L44.8238971,75.1823529 Z M65.9165441,48.0448529 C60.5639706,48.0448529 55.6213235,49.7845588 52.9595588,52.5352941 L52.9595588,52.5352941 L52.9595588,69.1573529 C53.5672794,69.0117647 54.2003676,68.9327206 54.8522059,68.9327206 L54.8522059,68.9327206 L77.8680147,68.9327206 L78.4720588,67.8551471 C78.6198529,67.5577206 78.78125,67.26875 78.9569853,66.9897059 L78.9569853,66.9897059 L81.1941176,62.9974265 C81.2058824,62.9768382 81.2176471,62.9566176 81.2294118,62.9360294 C81.9852941,61.6551471 82.8680147,59.5691176 82.8680147,57.90625 C82.8680147,55.4669118 82.8680147,48.0444853 65.9165441,48.0448529 Z M33.7599265,48.0444853 C17.317,48.0444853 16.8237122,55.0282464 16.808578,57.6735902 L16.8080882,57.90625 C16.8080882,59.5694853 17.6908088,61.6555147 18.4466912,62.9360294 C18.4588235,62.9566176 18.4705882,62.9768382 18.4819853,62.9974265 L18.4819853,62.9974265 L20.7191176,66.9889706 C20.8948529,67.2683824 21.05625,67.5573529 21.2044118,67.8547794 L21.2044118,67.8547794 L21.8084559,68.9323529 L44.8242647,68.9323529 C45.4735294,68.9323529 46.1044118,69.0110294 46.7099265,69.1555147 L46.7099265,69.1555147 L46.7099265,52.5279412 C44.0463235,49.78125 39.1077206,48.0444853 33.7599265,48.0444853 Z M49.8628676,4 C56.1775735,4 61.7327206,6.13823529 64.7235294,9.72095588 C65.7915441,11.0077206 67.0661765,13.2544118 67.0661765,16.6610294 C67.0661765,20.9466912 64.86875,29.7172794 50.1492647,40.3268382 L50.1492647,40.3268382 L49.8654412,40.5334559 L49.5702206,40.3198529 C34.8691176,29.75 32.6738971,20.9540441 32.6738971,16.6477941 C32.6738971,13.9845588 33.5025735,11.5264706 35.0044118,9.72132353 C37.9904412,6.13823529 43.5459559,4 49.8628676,4 Z M49.8702206,12.1132353 C46.4702206,12.1132353 43.7136029,14.8698529 43.7136029,18.2698529 C43.7136029,21.6698529 46.4698529,24.4264706 49.8702206,24.4264706 C53.2702206,24.4264706 56.0268382,21.6702206 56.0268382,18.2698529 C56.0268382,14.8698529 53.2702206,12.1132353 49.8702206,12.1132353 Z" id="icon-find-remote" fill="#ED0000"></path>
    </g>
</svg>