<?xml version="1.0" encoding="UTF-8"?>
<svg width="100px" height="98px" viewBox="0 0 100 98" version="1.1" xmlns="http://www.w3.org/2000/svg" xmlns:xlink="http://www.w3.org/1999/xlink">
    <title>Devices/Hub 3</title>
    <g id="Devices/Hub-3" stroke="none" stroke-width="1" fill="none" fill-rule="evenodd">
        <path d="M55.9337597,89.2210618 C57.6714599,89.2210618 59.080426,90.6216697 59.080426,92.3490615 C59.080426,94.0764533 57.6718301,95.4770611 55.9337597,95.4770611 L4.96331874,95.4770611 C3.22561856,95.4770611 1.81665245,94.0764533 1.81665245,92.3490615 C1.81665245,90.6216697 3.22561856,89.2210618 4.96331874,89.2210618 L55.9337597,89.2210618 Z M46.7373498,4.15198398 C48.6101716,4.15198398 50.1879471,5.54228782 50.4126561,7.3903836 L59.6094362,83.0460226 C59.7367836,84.0911425 59.4069389,85.1403103 58.704677,85.9285662 C58.0013046,86.7160861 56.9932608,87.1672541 55.9337597,87.1672541 L4.96331874,87.1672541 C3.90418789,87.1672541 2.89577389,86.7160861 2.19314182,85.9285662 C1.49050975,85.1403103 1.16103527,84.0911425 1.28838271,83.0460226 L10.4847926,7.3903836 C10.7095016,5.54228782 12.2872771,4.15198398 14.1600988,4.15198398 L46.7373498,4.15198398 Z M43.455562,11.5116151 L17.4415165,11.5116151 L9.13950021,79.807255 L51.7575783,79.807255 L43.455562,11.5116151 Z M86.2853432,10.1404562 C94.9835657,19.1946712 99.8385147,30.9792571 99.9960437,43.3844048 L100,43.9949851 L100,44.0075656 C100,56.6324798 95.1358071,68.6531594 86.3020408,77.8580243 C84.8849722,79.3347545 82.5361781,79.3858166 81.0556586,77.973099 C79.574397,76.5600115 79.5235622,74.2174461 80.9402597,72.7414559 C88.3116154,65.0611985 92.4301598,55.0802461 92.5749001,44.5811185 L92.5788497,44.0079356 L92.5788497,43.9975752 C92.5762523,33.2848988 88.4378479,23.0791432 80.9265306,15.2603547 C80.2378479,14.5432655 79.8953618,13.6211879 79.8953618,12.7009604 C79.8953618,11.7270808 80.2782931,10.7550512 81.038961,10.0283416 C82.5191095,8.61451401 84.8679035,8.66483606 86.2853432,10.1404562 Z M34.4457309,69.9625201 C35.4682124,69.9625201 36.2967111,70.786104 36.2967111,71.8025199 C36.2967111,72.8189358 35.4682124,73.6425197 34.4457309,73.6425197 L26.4509774,73.6425197 C25.4288661,73.6425197 24.5999972,72.8189358 24.5999972,71.8025199 C24.5999972,70.786104 25.4288661,69.9625201 26.4509774,69.9625201 L34.4457309,69.9625201 Z M76.3899814,19.5936012 C82.6538033,26.1130888 86.1582512,34.5755469 86.2928215,43.4747125 L86.296846,43.9986852 C86.296846,53.0955057 82.7833024,61.7605187 76.4029685,68.4100595 C74.9858998,69.8867897 72.6374768,69.9382218 71.1565863,68.5251342 C69.6756957,67.1120466 69.6244898,64.7694812 71.0411874,63.2934911 C75.9786811,58.1485661 78.74806,51.4900832 78.8713905,44.4963963 L78.8756957,44.0079356 C78.8742115,36.8263131 76.0879406,29.9769641 71.0311688,24.7131297 C70.3424861,23.9960405 70,23.0739629 70,22.1537355 C70,21.1798558 70.3829314,20.2081962 71.1435993,19.4814866 C72.6237477,18.067659 74.9725417,18.1179811 76.3899814,19.5936012 Z" id="icon-hub-3" fill="#ED0000"></path>
    </g>
</svg>