<?xml version="1.0" encoding="UTF-8"?>
<svg width="100px" height="100px" viewBox="0 0 100 100" version="1.1" xmlns="http://www.w3.org/2000/svg" xmlns:xlink="http://www.w3.org/1999/xlink">
    <title>Random/Gaming</title>
    <g id="Random/Gaming" stroke="none" stroke-width="1" fill="none" fill-rule="evenodd">
        <path d="M46.1610169,2.98474576 C46.6673729,0.959745763 48.7207627,-0.269915254 50.7432203,0.23559322 C52.7677966,0.741525424 53.9987288,2.79279661 53.4923729,4.81737288 L53.4923729,4.81737288 L48.9131356,23.134322 L54.7084746,20.2364407 C56.029661,19.5762712 57.6122881,19.7457627 58.7627119,20.6686441 C59.9139831,21.5919492 60.4220339,23.1008475 60.0639831,24.5322034 L60.0639831,24.5322034 L54.6610169,46.1436441 L67.5338983,46.1436441 C69.9665254,42.1190678 74.3728814,39.5588983 79.2067797,39.5588983 C85.6563559,39.5588983 91.2724576,44.1360169 92.5614407,50.4423729 C92.5788136,50.5275424 92.5932203,50.6122881 92.604661,50.6978814 L92.604661,50.6978814 L99.1114407,83.220339 C99.1377119,83.3194915 99.1597458,83.4207627 99.1779661,83.5233051 C99.2220339,83.7720339 99.259322,83.9889831 99.2898305,84.2144068 C99.3733051,84.8419492 99.4148305,85.4559322 99.4148305,86.0529661 C99.4148305,93.5720339 93.2974576,99.6889831 85.7788136,99.6889831 C82.4279661,99.6889831 79.215678,98.4635593 76.7152542,96.2355932 L76.7152542,96.2355932 L64.4466102,86.6868644 L35.0161017,86.6868644 L22.7474576,96.2355932 C20.2470339,98.4639831 17.0347458,99.6889831 13.6834746,99.6889831 C6.16440678,99.6889831 0.0474576271,93.5716102 0.0474576271,86.0529661 C0.0474576271,85.4580508 0.0889830508,84.8444915 0.170338983,84.2292373 C0.202118644,83.9949153 0.238135593,83.7868644 0.274576271,83.5783898 L0.274576271,83.5783898 L0.283474576,83.5271186 C0.301694915,83.4237288 0.323728814,83.3224576 0.35,83.2224576 L0.35,83.2224576 L6.86016949,50.684322 C6.87118644,50.6038136 6.88474576,50.5233051 6.90127119,50.4427966 C8.18940678,44.1364407 13.8050847,39.5588983 20.2550847,39.5588983 C25.0889831,39.5588983 29.4949153,42.1190678 31.9275424,46.1436441 L31.9275424,46.1436441 L46.8728814,46.1436441 L50.7415254,30.6690678 L44.9457627,33.5669492 C43.6258475,34.2262712 42.0423729,34.0580508 40.8915254,33.1347458 C39.7402542,32.2114407 39.2322034,30.7025424 39.5902542,29.2711864 L39.5902542,29.2711864 Z M79.2076271,47.1152542 C76.6305085,47.1152542 74.3262712,48.7457627 73.4741525,51.1728814 C72.9427966,52.6868644 71.5131356,53.7 69.9088983,53.7 L69.9088983,53.7 L29.5542373,53.7 C27.95,53.7 26.520339,52.6868644 25.9889831,51.1728814 C25.1372881,48.7461864 22.8330508,47.1152542 20.2555085,47.1152542 C17.4398305,47.1152542 14.9822034,49.0669492 14.3436441,51.7809322 C14.3351695,51.8364407 14.3254237,51.8915254 14.3144068,51.9466102 L14.3144068,51.9466102 L7.71694915,84.9199153 C7.70847458,84.9622881 7.69915254,85.004661 7.68940678,85.0461864 C7.67838983,85.1097458 7.66822034,85.1737288 7.65932203,85.2389831 C7.62288136,85.5122881 7.60423729,85.7847458 7.60423729,86.0529661 C7.60423729,89.404661 10.3313559,92.1322034 13.6834746,92.1322034 C15.1991525,92.1322034 16.6516949,91.5686441 17.7733051,90.545339 C17.8457627,90.479661 17.9211864,90.4161017 17.9987288,90.3555085 L17.9987288,90.3555085 L31.3983051,79.9266949 C32.0618644,79.4105932 32.8783898,79.1300847 33.7190678,79.1300847 L33.7190678,79.1300847 L65.7432203,79.1300847 C66.5838983,79.1300847 67.4004237,79.4105932 68.0639831,79.9266949 L68.0639831,79.9266949 L81.4635593,90.3555085 C81.5415254,90.415678 81.6165254,90.4792373 81.6894068,90.5457627 C82.8105932,91.5686441 84.2631356,92.1322034 85.7788136,92.1322034 C89.1305085,92.1322034 91.8584746,89.4050847 91.8584746,86.0525424 C91.8584746,85.7868644 91.8394068,85.5076271 91.8012712,85.2220339 C91.7936441,85.1665254 91.784322,85.109322 91.7745763,85.0508475 C91.7644068,85.0076271 91.754661,84.9639831 91.7457627,84.9199153 L91.7457627,84.9199153 L85.1487288,51.9466102 C85.1372881,51.8885593 85.1271186,51.8300847 85.1182203,51.7720339 C84.4754237,49.0627119 82.0194915,47.1152542 79.2076271,47.1152542 Z M72.3788136,70.6635593 C74.3233051,70.6635593 75.8957627,72.2364407 75.8957627,74.1805085 C75.8957627,76.125 74.3233051,77.6970339 72.3788136,77.6970339 C70.434322,77.6970339 68.8622881,76.125 68.8622881,74.1805085 C68.8622881,72.2360169 70.434322,70.6635593 72.3788136,70.6635593 Z M26.8266949,57.8851695 C28.2877119,57.8851695 29.4716102,59.0690678 29.4716102,60.5300847 L29.4716102,60.5300847 L29.4716102,64.4572034 L33.3983051,64.4572034 C34.8588983,64.4572034 36.0432203,65.6411017 36.0432203,67.1021186 C36.0432203,68.5631356 34.859322,69.7470339 33.3983051,69.7470339 L33.3983051,69.7470339 L29.4716102,69.7470339 L29.4716102,73.6669492 C29.4716102,75.1279661 28.2877119,76.3118644 26.8266949,76.3118644 C25.365678,76.3118644 24.1817797,75.1279661 24.1817797,73.6669492 L24.1817797,73.6669492 L24.1817797,69.7470339 L20.2550847,69.7470339 C18.7940678,69.7470339 17.6101695,68.5631356 17.6101695,67.1021186 C17.6101695,65.6411017 18.7940678,64.4572034 20.2550847,64.4572034 L20.2550847,64.4572034 L24.1817797,64.4572034 L24.1817797,60.5300847 C24.1817797,59.0690678 25.365678,57.8851695 26.8266949,57.8851695 Z M65.3449153,63.6300847 C67.2894068,63.6300847 68.8622881,65.2021186 68.8618645,67.1466102 C68.8618645,69.0911017 67.2894068,70.6635593 65.3449153,70.6635593 C63.4004237,70.6635593 61.8283898,69.0911017 61.8283898,67.1466102 C61.8283898,65.2021186 63.4004237,63.6300847 65.3449153,63.6300847 Z M79.4131356,63.6300847 C81.3576271,63.6300847 82.9292373,65.2021186 82.929661,67.1466102 C82.929661,69.0911017 81.3576271,70.6635593 79.4131356,70.6635593 C77.4682203,70.6635593 75.8957627,69.0911017 75.8957627,67.1466102 C75.8957627,65.2021186 77.4686441,63.6300847 79.4131356,63.6300847 Z M72.3788136,56.5966102 C74.3233051,56.5966102 75.8957627,58.1686441 75.8957627,60.1131356 C75.8957627,62.0576271 74.3233051,63.6300847 72.3788136,63.6300847 C70.4338983,63.6300847 68.8622881,62.0576271 68.8622881,60.1131356 C68.8622881,58.1686441 70.434322,56.5966102 72.3788136,56.5966102 Z" id="icon-gaming" fill="#ED0000"></path>
    </g>
</svg>