<?xml version="1.0" encoding="UTF-8"?>
<svg width="100px" height="100px" viewBox="0 0 100 100" version="1.1" xmlns="http://www.w3.org/2000/svg" xmlns:xlink="http://www.w3.org/1999/xlink">
    <title>Messaging/Add chat</title>
    <g id="Messaging/Add-chat" stroke="none" stroke-width="1" fill="none" fill-rule="evenodd">
        <path d="M78.9786957,0.340434783 C90.483913,0.340434783 99.843913,9.70043478 99.843913,21.2065217 C99.843913,28.6008696 95.9743478,35.1043478 90.1573913,38.8113043 L90.1573913,38.8113043 L90.1573913,55.21 C90.1573913,64.7656522 82.3834783,72.54 72.8278261,72.54 L72.8278261,72.54 L40.3773913,72.54 L16.8995652,91.2856522 C16.11,91.9165217 15.1495652,92.236087 14.186087,92.236087 C13.3721739,92.236087 12.5556522,92.0082609 11.8373913,91.5465217 C10.2682609,90.5395652 9.51652174,88.643913 9.96826087,86.8352174 L9.96826087,86.8352174 L13.6473913,72.0982609 C5.96217391,70.3252174 0.214347826,63.4256522 0.214347826,55.2095652 L0.214347826,55.2095652 L0.214347826,25.2178261 C0.214347826,15.6617391 7.98826087,7.88782609 17.5443478,7.88782609 L17.5443478,7.88782609 L62.93,7.88782609 C66.7604348,3.28 72.5321739,0.340434783 78.9786957,0.340434783 Z M58.6352174,16.5834783 L17.5443478,16.5834783 C12.7834783,16.5834783 8.91,20.4569565 8.91,25.2178261 L8.91,25.2178261 L8.91,55.2095652 C8.91,59.9704348 12.7830435,63.843913 17.5443478,63.843913 L17.5443478,63.843913 L19.103913,63.843913 C20.4426087,63.843913 21.7065217,64.4604348 22.5304348,65.5156522 C23.3543478,66.5708696 23.6465217,67.9465217 23.3221739,69.2447826 L23.3221739,69.2447826 L21.5182609,76.47 L36.1413043,64.7943478 C36.9117391,64.1791304 37.8682609,63.843913 38.8543478,63.843913 L38.8543478,63.843913 L72.8278261,63.843913 C77.5886957,63.843913 81.4617391,59.9704348 81.4617391,55.2095652 L81.4617391,55.2095652 L81.4617391,41.9186957 C80.6465217,42.016087 79.8191304,42.0717391 78.9782609,42.0717391 C67.4726087,42.0717391 58.1126087,32.7113043 58.1126087,21.206087 C58.1126087,19.6169565 58.2973913,18.0713043 58.6352174,16.5834783 L58.6352174,16.5834783 Z M78.9786957,7.73173913 C71.5486957,7.73173913 65.5043478,13.7765217 65.5043478,21.206087 C65.5043478,28.636087 71.5486957,34.6804348 78.9786957,34.6804348 C86.4082609,34.6804348 92.4530435,28.6356522 92.4530435,21.206087 C92.4530435,13.776087 86.4086957,7.73173913 78.9786957,7.73173913 Z M78.9895652,9.79217391 C81.0304348,9.79217391 82.6852174,11.4469565 82.6852174,13.4878261 L82.6852174,13.4878261 L82.6852174,17.0991304 L86.2969565,17.0991304 C88.3378261,17.0991304 89.9926087,18.753913 89.9926087,20.7947826 C89.9926087,22.8356522 88.3378261,24.4904348 86.2969565,24.4904348 L86.2969565,24.4904348 L82.6852174,24.4904348 L82.6852174,28.1017391 C82.6852174,30.1426087 81.0304348,31.7973913 78.9895652,31.7973913 C76.9486957,31.7973913 75.293913,30.1426087 75.293913,28.1017391 L75.293913,28.1017391 L75.293913,24.4904348 L71.6826087,24.4904348 C69.6417391,24.4904348 67.9869565,22.8356522 67.9869565,20.7947826 C67.9869565,18.753913 69.6417391,17.0991304 71.6826087,17.0991304 L71.6826087,17.0991304 L75.293913,17.0991304 L75.293913,13.4878261 C75.293913,11.4469565 76.9486957,9.79217391 78.9895652,9.79217391 Z" id="icon-messaging-add-chat" fill="#ED0000"></path>
    </g>
</svg>