<?xml version="1.0" encoding="UTF-8"?>
<svg width="100px" height="100px" viewBox="0 0 100 100" version="1.1" xmlns="http://www.w3.org/2000/svg" xmlns:xlink="http://www.w3.org/1999/xlink">
    <title>Transport/Car</title>
    <g id="Transport/Car" stroke="none" stroke-width="1" fill="none" fill-rule="evenodd">
        <path d="M97.6341463,40.1484321 C97.2878049,39.3261324 96.5891986,38.7038328 95.7324042,38.4543554 L77.2317073,33.0675958 L64.958885,22.3393728 C64.9184669,22.3038328 64.8770035,22.2696864 64.8344948,22.2362369 C58.966899,17.6477352 50.1703833,15.0160279 40.6996516,15.0160279 C35.5167247,15.0160279 30.4118467,15.812892 25.9376307,17.3198606 C20.4700348,19.1620209 16.1076655,21.9756098 12.9714286,25.6832753 C12.9188153,25.7456446 12.8686411,25.8097561 12.8212544,25.8763066 L3.09477352,39.5156794 C2.7369338,40.0174216 2.54425087,40.6188153 2.54425087,41.2355401 L2.54425087,56.3296167 C1.25017422,56.6466899 0.290243902,57.8146341 0.290243902,59.2062718 C0.290243902,60.8418118 1.61637631,62.1679443 3.25191638,62.1679443 L12.3226481,62.1679443 C13.7815331,66.045993 17.5275261,68.8132404 21.9094077,68.8132404 C26.2909408,68.8132404 30.0372822,66.045993 31.4961672,62.1679443 L69.471777,62.1679443 C70.930662,66.045993 74.6770035,68.8132404 79.0585366,68.8132404 C83.4400697,68.8132404 87.1864111,66.045993 88.6452962,62.1679443 L95.9501742,62.1679443 C97.21777,62.1679443 98.3445993,61.3616725 98.7533101,60.1616725 C98.8874564,59.7700348 101.973171,50.4522648 97.6341463,40.1484321 Z M47.5027875,21.4672474 C52.9010453,22.3181185 57.6714286,24.1763066 61.1240418,26.8543554 L69.3909408,34.0804878 L47.5031359,34.0804878 L47.5031359,21.4672474 L47.5027875,21.4672474 Z M21.9097561,62.8898955 C19.5296167,62.8898955 17.5933798,60.9536585 17.5933798,58.5735192 C17.5933798,56.1933798 19.5296167,54.2571429 21.9097561,54.2571429 C24.2898955,54.2571429 26.225784,56.1933798 26.225784,58.5735192 C26.225784,60.9536585 24.289547,62.8898955 21.9097561,62.8898955 Z M79.058885,62.8898955 C76.6787456,62.8898955 74.7425087,60.9536585 74.7425087,58.5735192 C74.7425087,56.1933798 76.6787456,54.2571429 79.058885,54.2571429 C81.4390244,54.2571429 83.3752613,56.1933798 83.3752613,58.5735192 C83.3752613,60.9536585 81.4390244,62.8898955 79.058885,62.8898955 Z M93.6156794,56.2445993 L89.0278746,56.2445993 C87.9703833,51.7174216 83.9034843,48.3341463 79.0585366,48.3341463 C74.2135889,48.3341463 70.1470383,51.7174216 69.0891986,56.2445993 L31.8787456,56.2445993 C30.8212544,51.7174216 26.7543554,48.3341463 21.9097561,48.3341463 C17.0648084,48.3341463 12.9982578,51.7174216 11.9404181,56.2445993 L8.46759582,56.2445993 L8.46759582,42.1836237 L17.5703833,29.4195122 C22.1296167,24.1073171 30.7637631,20.9393728 40.7,20.9393728 C41.3470383,20.9393728 41.9878049,20.9578397 42.6247387,20.984669 L42.6247387,36.5191638 C42.6247387,37.8662021 43.7167247,38.9581882 45.0637631,38.9581882 L76.2763066,38.9581882 L92.6707317,43.7317073 C94.4836237,48.8902439 94.0787456,53.6623693 93.6156794,56.2445993 Z" id="icon-car" fill="#ED0000"></path>
    </g>
</svg>