<?xml version="1.0" encoding="UTF-8"?>
<svg width="100px" height="100px" viewBox="0 0 100 100" version="1.1" xmlns="http://www.w3.org/2000/svg" xmlns:xlink="http://www.w3.org/1999/xlink">
    <title>Products/Quick Start Box</title>
    <g id="Products/Quick-Start-Box" stroke="none" stroke-width="1" fill="none" fill-rule="evenodd">
        <path d="M54.7952787,0.69484127 C55.8087869,0.115079365 57.0461639,0.107539683 58.0651803,0.675396825 L58.0651803,0.675396825 L96.1457049,21.8988095 C97.2233443,22.459127 97.9618361,23.5896825 97.9618361,24.897619 L97.9618361,24.897619 L97.9606557,64.2329365 C97.9606557,65.3992063 97.3634098,66.4821429 96.3821639,67.097619 L96.3821639,67.097619 L45.6001311,98.9400794 C45.4529836,99.0595238 45.2987541,99.1714286 45.1303607,99.2654762 C44.6251803,99.547619 44.0664918,99.6880952 43.5089836,99.6880952 C42.8928525,99.6880952 42.2779016,99.5162698 41.7365246,99.1753968 L41.7365246,99.1753968 L3.58911475,75.1305556 C2.61140984,74.5142857 2.01691803,73.4333333 2.01691803,72.2702381 L2.01691803,72.2702381 L2.01691803,33.9388889 C2.01691803,33.7623016 2.03029508,33.5888889 2.0562623,33.4198413 C2.05036066,33.3813492 2.048,33.3424603 2.04327869,33.3039683 C2.04052459,33.2829365 2.03816393,33.2623016 2.03619672,33.2412698 C2.00786885,32.9638889 2.01377049,32.6825397 2.05468852,32.4031746 C2.0562623,32.3948413 2.05744262,32.3861111 2.05862295,32.3777778 C2.10111475,32.1027778 2.17783607,31.8305556 2.2907541,31.5670635 C2.29390164,31.5595238 2.29744262,31.5515873 2.30098361,31.5440476 C2.35488525,31.4202381 2.4162623,31.2984127 2.48629508,31.1793651 C2.48786885,31.1769841 2.48904918,31.1742063 2.49062295,31.1718254 C2.50242623,31.1515873 2.5122623,31.1309524 2.52445902,31.1111111 C2.66570492,30.8829365 2.83213115,30.6805556 3.01390164,30.4992063 C3.01665574,30.4964286 3.01940984,30.4940476 3.02216393,30.4912698 C3.12327869,30.390873 3.22990164,30.2984127 3.3412459,30.2130952 L3.3412459,30.2130952 C3.48131148,30.1059524 3.62334426,30.0126984 3.77167213,29.9321429 L3.77167213,29.9321429 Z M8.70544262,38.9853175 L8.70583607,70.4 L40.1647213,90.2281746 L40.163541,58.8134921 L8.70544262,38.9853175 Z M91.2733115,30.9464286 L46.8520656,58.8202381 L46.8532459,90.2099206 L91.2721311,62.3575397 L91.2733115,30.9464286 Z M78.4852459,47.4190476 C80.0047213,46.5472222 81.2157377,46.8099206 81.9636721,47.1837302 C84.2019672,48.3011905 84.6225574,51.3849206 84.6744918,53.1238095 C84.7024262,54.0706349 84.6709508,57.3714286 83.0873443,60.0920635 C82.4637377,61.1634921 81.7071475,61.9436508 80.7739016,62.4789683 C79.9055738,62.977381 78.9101639,63.2345238 77.9104262,63.2345238 C77.4237377,63.2345238 76.9362623,63.1738095 76.4621639,63.05 C75.5808525,62.8202381 74.7758689,62.3857143 74.0885246,61.9075397 C73.0521967,64.2940476 71.3619672,67.8424603 69.3857049,70.668254 C68.4020984,72.075 66.4215082,74.6257937 64.2064262,75.8964286 C63.1563279,76.4988095 62.2254426,76.7119048 61.4338361,76.7119048 C60.6544262,76.7119048 60.0103607,76.5051587 59.5205246,76.2599206 C56.3997377,74.7031746 55.8052459,70.1607143 55.7293115,67.5904762 C55.6734426,65.7087302 55.8032787,60.8865079 58.2048525,56.7615079 C59.1428197,55.1480159 60.3156721,53.9289683 61.6899672,53.140873 C63.9526557,51.8428571 66.2287213,51.9619048 67.7403279,52.2904762 L67.7403279,52.2904762 L67.8142951,52.3083333 C69.5297049,52.752381 71.0999344,53.6297619 72.7024262,55.0626984 C73.472,53.4222222 74.2356721,52.0666667 75.0701639,50.8587302 C76.2611148,49.1880952 77.404459,48.0388889 78.4852459,47.4190476 Z M65.764459,56.0440476 C65.1019016,56.0440476 64.3563279,56.1777778 63.635541,56.5912698 C62.8687213,57.0309524 62.1833443,57.7642857 61.5982951,58.7710317 C60.2908852,61.0166667 59.5673443,64.2690476 59.6621639,67.472619 C59.7495082,70.425 60.536,72.3392857 61.2678033,72.7043651 C61.5298361,72.8357143 62.0499672,72.568254 62.2612459,72.4468254 C63.3766557,71.8071429 64.8379016,70.2873016 66.1700984,68.381746 C68.3548852,65.2571429 70.2300328,60.9702381 71.051541,58.9666667 C69.570623,57.4087302 68.253377,56.5293651 66.8731803,56.1626984 C66.5525246,56.0952381 66.1744262,56.0440476 65.764459,56.0440476 Z M80.308459,50.9452381 C79.9736393,51.1702381 79.2819672,51.7492063 78.2818361,53.1519841 C77.3780984,54.4607143 76.5455738,56.0253968 75.652459,58.1099206 C76.1607869,58.5634921 76.8225574,59.0452381 77.4477377,59.2083333 C77.6200656,59.2535714 78.2302951,59.3730159 78.8287213,59.0301587 C79.1462295,58.847619 79.4299016,58.5376984 79.6946885,58.0829365 C80.5299672,56.6480159 80.7829508,54.6416667 80.7416393,53.2428571 C80.7074098,52.0920635 80.4862951,51.3222222 80.308459,50.9452381 Z M31.2760656,21.9305556 L11.8919344,33.0376984 L43.5140984,52.9694444 L63.4541639,40.4575397 L31.2760656,21.9305556 Z M56.4705574,7.49404762 L38.0377705,18.0559524 L69.909377,36.406746 L87.9900328,25.0611111 L56.4705574,7.49404762 Z" id="icon-quickstart" fill="#ED0000"></path>
    </g>
</svg>