<?xml version="1.0" encoding="UTF-8"?>
<svg width="100px" height="100px" viewBox="0 0 100 100" version="1.1" xmlns="http://www.w3.org/2000/svg" xmlns:xlink="http://www.w3.org/1999/xlink">
    <title>Site/Check</title>
    <g id="Site/Check" stroke="none" stroke-width="1" fill="none" fill-rule="evenodd">
        <path d="M42.9484,9.4528 C51.534,9.4528 59.8188,11.984 66.9068,16.7724 C68.7372,18.0092 69.2184,20.4956 67.982,22.326 C66.7448,24.1568 64.2588,24.638 62.428,23.4012 C56.668,19.5096 49.932,17.4524 42.9488,17.4524 C23.7352,17.4524 8.104,33.084 8.104,52.2976 C8.104,71.5112 23.7356,87.1424 42.9488,87.1424 C62.1624,87.1424 77.7936,71.5112 77.7936,52.2976 C77.7936,49.4 77.4376,46.5212 76.736,43.7412 C76.1952,41.5992 77.494,39.4244 79.6356,38.884 C81.7776,38.3432 83.9524,39.6412 84.4932,41.7836 C85.356,45.2028 85.7936,48.7404 85.7936,52.2976 C85.7936,75.9228 66.5728,95.1428 42.9484,95.1428 C19.3236,95.1428 0.1036,75.9224 0.1036,52.298 C0.1036,28.6732 19.3236,9.4528 42.9484,9.4528 Z M98.5456,5.3928 C100.1112,6.9512 100.1168,9.4844 98.5576,11.0496 L43.8072,66.034 C43.1100286,66.7345143 42.1807408,67.1494531 41.1999647,67.205156 L40.9728,67.2116 L40.9728,67.2116 L40.934,67.2116 L40.934,67.2116 C39.8568,67.2012 38.8292,66.7564 38.084,65.9784 L22.6864,49.9028 C21.1584,48.3076 21.2128,45.7756 22.8084,44.2472 C23.606,43.4832 24.6378,43.1148 25.66125,43.13685 L25.8657568,43.1464645 C26.8189316,43.2156124 27.7507467,43.6245867 28.464,44.3692 L41.0284,57.4872 L92.8888,5.4048 C94.4472,3.8392 96.9804,3.834 98.5456,5.3928 Z" id="icon-check" fill="#ED0000"></path>
    </g>
</svg>