<?xml version="1.0" encoding="UTF-8"?>
<svg width="100px" height="100px" viewBox="0 0 100 100" version="1.1" xmlns="http://www.w3.org/2000/svg" xmlns:xlink="http://www.w3.org/1999/xlink">
    <title>Products/Boxsets</title>
    <g id="Products/Boxsets" stroke="none" stroke-width="1" fill="none" fill-rule="evenodd">
        <path d="M53.2770214,1.68757003 C54.2808815,1.11739 55.5078215,1.11037 56.5179216,1.66846003 L56.5179216,1.66846003 L82.1810926,15.8496406 C83.2376026,16.4038306 83.9594927,17.5094807 83.9594927,18.7840007 L83.9594927,18.7840007 L83.9587127,74.5360629 C83.9587127,75.682273 83.3666926,76.746583 82.3936426,77.351473 L82.3936426,77.351473 L47.9429912,98.7691039 C47.9156912,98.7862639 47.8860512,98.7975739 47.8583612,98.8139539 L47.8583612,98.8139539 L47.8064912,98.8478839 C47.7671012,98.8697239 47.7257612,98.8849339 47.6859812,98.9052139 C47.6079812,98.9446039 47.5307612,98.9839939 47.4512012,99.0167539 C47.4040112,99.0362539 47.3560412,99.0510739 47.3080712,99.0682339 C47.2156412,99.1013839 47.1236012,99.1345339 47.0296112,99.1591039 C47.0023112,99.1661239 46.9746212,99.1700239 46.9473212,99.1762639 C46.6988912,99.2343739 46.4473412,99.2698639 46.1961812,99.2698639 C46.0433012,99.2698639 45.8915911,99.2569939 45.7410511,99.2363239 C45.7379311,99.2355439 45.7348111,99.2347639 45.7316911,99.2343739 C45.5901211,99.2144839 45.4508911,99.1848439 45.3132211,99.1470139 C45.2867011,99.1396039 45.2605711,99.1298539 45.2340511,99.1216639 C45.1190011,99.0869539 45.0055111,99.0471739 44.8947511,98.9999839 L44.8947511,98.9999839 L44.8011511,98.9566939 C44.6950711,98.9079439 44.5921111,98.8541239 44.4914911,98.7940639 C44.4774511,98.7854839 44.4622411,98.7796339 44.4482011,98.7710539 L44.4482011,98.7710539 L18.7331601,82.8567133 C17.7566,82.2526032 17.16224,81.1859532 17.16224,80.0377931 L17.16224,80.0377931 L17.16224,24.8274409 C17.16224,24.7104409 17.16809,24.5953909 17.17979,24.4819009 C17.16575,24.3496909 17.16224,24.2163109 17.16419,24.0829309 L17.16419,24.0829309 L17.163995,24.0565572 L17.163995,24.0565572 C17.1716,23.7697609 17.21333,23.4901309 17.29211,23.2163509 C17.2925,23.2147909 17.29289,23.2132309 17.29328,23.2116709 C17.33189,23.0790709 17.37869,22.9476409 17.43485,22.8185509 C17.43719,22.8134809 17.43953,22.8088009 17.44187,22.8037309 C17.49452,22.6843909 17.55458,22.5666109 17.62244,22.4515609 L17.62244,22.4515609 L17.63492,22.4297209 C17.64584,22.4117809 17.65481,22.3934509 17.66573,22.3755108 C17.80379,22.1543808 17.96564,21.9578208 18.14309,21.7815408 L18.14309,21.7815408 L18.17273,21.7534608 C18.2643801,21.6645408 18.3607101,21.5814708 18.4609401,21.5046408 C18.4706901,21.4976208 18.4796601,21.4898208 18.4894101,21.4828008 C18.6157701,21.3880308 18.7475901,21.3018408 18.8848701,21.2265708 L18.8848701,21.2265708 Z M23.7926303,30.1150612 L23.7930203,78.1919231 L42.878061,90.0026835 L42.877281,42.0416516 L23.7926303,30.1150612 Z M77.3294924,24.7377409 L49.5068913,42.0471116 L49.5076713,89.9909835 L77.3287124,72.6948728 L77.3294924,24.7377409 Z M69.3329321,46.5149518 C70.4467721,45.8815918 71.3422122,46.0765918 71.8975722,46.3515418 C73.5156822,47.1526018 73.8183223,49.3093019 73.8545923,50.523762 C73.8791623,51.355632 73.8210523,53.4865921 72.7524522,55.3063322 C72.3176022,56.0477222 71.7641922,56.6132222 71.1066522,56.9868422 C70.4857721,57.3397922 69.7744121,57.5223122 69.0607121,57.5223122 C68.7132221,57.5223122 68.364952,57.4794122 68.026042,57.3912722 C67.501492,57.2555522 67.016332,57.0180422 66.586942,56.7477722 C65.8771419,58.3436523 64.7792919,60.5849824 63.5059418,62.3910724 C62.8320218,63.3473525 61.4717018,65.0824625 59.9390017,65.9537226 C59.1905917,66.3796026 58.5236917,66.5305326 57.9550716,66.5305326 C57.3884016,66.5305326 56.9188416,66.3807726 56.5612116,66.2033226 C54.3471815,65.1085925 53.9279315,61.9765024 53.8752815,60.2066824 C53.8370615,58.9290423 53.9263715,55.6534322 55.5760715,52.8442621 C56.2289316,51.730422 57.0487116,50.887242 58.0112316,50.339292 C59.6028217,49.4344919 61.1979218,49.5171719 62.2556018,49.7461019 C62.2747118,49.7503919 62.2942118,49.7546819 62.3137118,49.7597519 C63.4224818,50.0440619 64.4415519,50.589282 65.4695919,51.452742 C65.9500719,50.466042 66.431722,49.6345619 66.954322,48.8838119 C67.779562,47.7368219 68.575162,46.9462918 69.3329321,46.5149518 Z M60.8746117,52.7163421 C60.4616017,52.7163421 59.9990617,52.7982421 59.5540717,53.0513521 C59.0735917,53.3247421 58.6406917,53.7861121 58.2674616,54.4229821 C57.4071216,55.8878222 56.9313216,58.0148823 56.9941116,60.1138623 C57.0530016,62.0899924 57.5865216,63.2295725 57.9464916,63.4074125 C57.9753516,63.4105325 58.1305716,63.3933725 58.3965516,63.2416625 C59.1200017,62.8298225 60.0770617,61.8400024 60.9561217,60.5931724 C62.3659718,58.5936423 63.5855019,55.8694922 64.1627019,54.4881121 C63.2419118,53.5501621 62.4201818,53.0154721 61.5676418,52.7896621 C61.3667918,52.7479321 61.1300618,52.7163421 60.8746117,52.7163421 Z M70.5711821,49.4528219 C70.3313321,49.6610819 69.9698021,50.0343119 69.5014121,50.685612 C68.9261621,51.512412 68.391862,52.498332 67.822462,53.7974221 C68.127832,54.0501421 68.486242,54.2872621 68.8079921,54.3707221 C68.9027621,54.3949021 69.2362121,54.4608121 69.5645921,54.2743921 C69.7424321,54.1733821 69.9046721,53.9947621 70.0610621,53.7272221 C70.5996521,52.8111121 70.7626721,51.519432 70.7365421,50.615802 C70.7213321,50.105292 70.6484021,49.7156819 70.5711821,49.4528219 Z M54.9372515,8.37022029 L26.9508504,24.2697409 L46.1973512,36.2977314 L74.0823523,18.9493607 L54.9372515,8.37022029 Z" id="icon-boxsets" fill="#ED0000"></path>
    </g>
</svg>