<?xml version="1.0" encoding="UTF-8"?>
<svg width="100px" height="100px" viewBox="0 0 100 100" version="1.1" xmlns="http://www.w3.org/2000/svg" xmlns:xlink="http://www.w3.org/1999/xlink">
    <title>Transport/Truck</title>
    <g id="Transport/Truck" stroke="none" stroke-width="1" fill="none" fill-rule="evenodd">
        <path d="M31.6968754,33.4763462 C45.4472042,23.5583462 49.2715744,23.0065769 50.6163772,23.1502308 L50.6163772,23.1502308 L95.6137993,23.1502308 C97.254263,23.1502308 98.5843875,24.4676923 98.5843875,26.0925385 L98.5843875,26.0925385 L98.5843875,64.2009615 C99.871526,64.5235769 100.82526,65.6748846 100.82526,67.0501538 C100.82526,68.675 99.4951349,69.9924615 97.8546713,69.9924615 L97.8546713,69.9924615 L88.0527785,69.9924615 C86.58391,73.8891154 82.7881972,76.6718462 78.348391,76.6718462 C73.9085848,76.6718462 70.1132215,73.8891154 68.6440035,69.9924615 L68.6440035,69.9924615 L30.0613045,69.9924615 C28.592436,73.8891154 24.7967232,76.6718462 20.356917,76.6718462 C15.9171107,76.6718462 12.1217474,73.8891154 10.6525294,69.9924615 L10.6525294,69.9924615 L4.0896263,69.9924615 C2.81856401,69.9924615 1.68834256,69.1911154 1.2780519,67.9993077 C1.14280277,67.6060769 -1.98435294,58.2533462 2.41351557,47.9088846 C2.76124913,47.0919615 3.46195848,46.4737308 4.3209827,46.2258846 L4.3209827,46.2258846 L23.110827,40.8068462 L31.5043114,33.6279615 C31.5661696,33.5746538 31.6308235,33.5241154 31.6968754,33.4763462 Z M20.3576159,62.042 C17.923481,62.042 15.9429723,64.0036538 15.9429723,66.4146154 C15.9429723,68.8255769 17.923481,70.7872308 20.3576159,70.7872308 C22.7917509,70.7872308 24.7722595,68.8255769 24.7722595,66.4146154 C24.7722595,64.0036538 22.7917509,62.042 20.3576159,62.042 Z M78.3494394,62.042 C75.9153045,62.042 73.9347958,64.0036538 73.9347958,66.4146154 C73.9347958,68.8255769 75.9153045,70.7872308 78.3494394,70.7872308 C80.7835744,70.7872308 82.764083,68.8255769 82.764083,66.4146154 C82.764083,64.0036538 80.7835744,62.042 78.3494394,62.042 Z M92.6432111,29.0348462 L55.1253806,29.0348462 L55.127827,40.4146538 C55.127827,41.1561154 54.7853356,41.8574231 54.1975087,42.3167692 L54.1975087,42.3167692 L48.3014152,46.9285769 C47.8698062,47.2667692 47.3354498,47.4502308 46.7853668,47.4502308 L46.7853668,47.4502308 L21.3270761,47.4502308 L7.39152249,51.4690769 C5.53647751,56.6842308 5.95690311,61.5075385 6.43114879,64.1078462 L6.43114879,64.1078462 L10.2691488,64.1078462 C11.3291246,59.5597308 15.4484567,56.1573846 20.3576159,56.1573846 C25.2667751,56.1573846 29.3861073,59.5597308 30.446083,64.1078462 L30.446083,64.1078462 L68.2606228,64.1078462 C69.3205986,59.5597308 73.4399308,56.1573846 78.34909,56.1573846 C83.2582491,56.1573846 87.3775813,59.5597308 88.4375571,64.1078462 L88.4375571,64.1078462 L92.6432111,64.1078462 L92.6432111,29.0348462 Z M65.3372145,31.7912692 C67.7821834,31.7912692 70.1418789,32.9055385 71.691128,33.8405 L71.691128,33.8405 L71.7253772,33.8616154 C73.80409,35.1821923 75.6842976,36.9153846 77.660263,39.3536923 C78.688436,38.1985769 79.6991349,37.3183077 80.8003495,36.6190769 L80.8003495,36.6190769 L80.8349481,36.5976154 C81.864519,35.9769615 83.4340381,35.2372308 85.0664637,35.2372308 C86.2162561,35.2372308 87.2335952,35.5961923 88.090872,36.3033846 C89.5709239,37.5242692 90.4547612,39.7164615 90.4547612,42.1679231 C90.4547612,44.6193846 89.5705744,46.8115769 88.090173,48.0324615 C87.2332457,48.7396538 86.2159066,49.0982692 85.0664637,49.0982692 C83.242173,49.0982692 81.6090484,48.2318462 80.7982526,47.7153846 C79.5778651,46.9379231 78.4860865,45.8797308 77.669,44.9762692 C76.3409723,46.6028462 74.1878201,48.9414615 71.7113979,50.4821923 C70.4742353,51.2523846 68.000609,52.5442308 65.3372145,52.5442308 C63.6509689,52.5442308 62.160083,52.0187692 60.9061453,50.9823846 C57.7209758,48.3571538 57.3770865,43.9433462 57.3770865,42.1675769 C57.3770865,40.3918077 57.7213253,35.978 60.9078927,33.3513846 C62.1604325,32.3167308 63.6513183,31.7912692 65.3372145,31.7912692 Z M65.3368651,35.2531538 C64.4792388,35.2531538 63.7621038,35.501 63.1449204,36.0108846 C61.7211349,37.1846923 60.8718962,39.4859231 60.8718962,42.1679231 C60.8718962,44.8499231 61.7211349,47.1511538 63.143173,48.3235769 C63.7621038,48.8348462 64.4792388,49.0826923 65.3368651,49.0826923 C67.1912111,49.0826923 69.1119585,48.0116923 69.8518097,47.5513077 C72.2541419,46.0562692 74.3842284,43.5483846 75.4504948,42.1720769 C73.527301,39.6925769 71.7715087,38.0075 69.8553045,36.7866154 C68.2116955,35.7976538 66.6075779,35.2531538 65.3368651,35.2531538 Z M85.0657647,38.6994615 C84.4283114,38.6994615 83.5776747,38.9995769 82.6686747,39.5447692 C81.7027093,40.1609231 80.800699,40.9896154 79.8305398,42.1627308 C80.5043391,42.9651154 81.5503356,44.0790385 82.6878962,44.8038846 C83.3204567,45.2064615 84.2773356,45.6367308 85.0661142,45.6367308 C85.3977716,45.6367308 85.6259827,45.5602308 85.8534948,45.3726154 C86.5255467,44.8180769 86.9592526,43.5611923 86.9592526,42.1682692 C86.9592526,40.7753462 86.5251972,39.5177692 85.8534948,38.9639231 L85.8534948,38.9639231 C85.6259827,38.7759615 85.3977716,38.6994615 85.0657647,38.6994615 Z M50.2329965,29.0819231 C49.2859031,29.3598846 45.4849481,30.8192692 35.2937336,38.1618846 L35.2937336,38.1618846 L30.0997474,42.6040769 L45.936128,42.6040769 L50.2350934,39.2415385 Z" id="icon-truck" fill="#ED0000" transform="translate(50.449712, 49.902549) scale(-1, 1) translate(-50.449712, -49.902549) "></path>
    </g>
</svg>