<?xml version="1.0" encoding="UTF-8"?>
<svg width="100px" height="100px" viewBox="0 0 100 100" version="1.1" xmlns="http://www.w3.org/2000/svg" xmlns:xlink="http://www.w3.org/1999/xlink">
    <title>Random/Time</title>
    <g id="Random/Time" stroke="none" stroke-width="1" fill="none" fill-rule="evenodd">
        <path d="M50.5,6 C58.3346783,6 65.5846774,7.95867025 72.25,11.8760081 C78.9153226,15.7933459 84.2066541,21.0846774 88.1239919,27.75 C92.0413298,34.4153226 94,41.6653217 94,49.5 C94,57.3346783 92.0413298,64.5846774 88.1239919,71.25 C84.2066541,77.9153226 78.9153226,83.2066541 72.25,87.1239919 C65.5846774,91.0413298 58.3346783,93 50.5,93 C42.6653217,93 35.4153226,91.0413298 28.75,87.1239919 C22.0846774,83.2066541 16.7933459,77.9153226 12.8760081,71.25 C8.95867025,64.5846774 7,57.3346783 7,49.5 C7,41.6653217 8.95867025,34.4153226 12.8760081,27.75 C16.7933459,21.0846774 22.0846774,15.7933459 28.75,11.8760081 C35.4153226,7.95867025 42.6653217,6 50.5,6 Z M50.5,84.5806452 C56.8145161,84.5806452 62.6612894,83.0020161 68.0403226,79.8447581 C73.4193548,76.6875 77.6875,72.4193548 80.8447581,67.0403226 C84.0020161,61.6612894 85.5806452,55.8145161 85.5806452,49.5 C85.5806452,43.1854839 84.0020161,37.3387106 80.8447581,31.9596774 C77.6875,26.5806443 73.4193548,22.3125 68.0403226,19.1552419 C62.6612894,15.9979839 56.8145161,14.4193548 50.5,14.4193548 C44.1854839,14.4193548 38.3387106,15.9979839 32.9596774,19.1552419 C27.5806443,22.3125 23.3125,26.5806443 20.1552419,31.9596774 C16.9979839,37.3387106 15.4193548,43.1854839 15.4193548,49.5 C15.4193548,55.8145161 16.9979839,61.6612894 20.1552419,67.0403226 C23.3125,72.4193548 27.5806443,76.6875 32.9596774,79.8447581 C38.3387106,83.0020161 44.1854839,84.5806452 50.5,84.5806452 Z M46.4657258,55.4637097 C45.8810493,54.9959668 45.5887097,54.4112903 45.5887097,53.7096774 L45.5887097,24.9435484 C45.5887097,24.3588719 45.7933477,23.8618943 46.202621,23.452621 C46.6118943,23.0433477 47.1088719,22.8387097 47.6935484,22.8387097 L53.3064516,22.8387097 C53.8911281,22.8387097 54.3881057,23.0433477 54.797379,23.452621 C55.2066523,23.8618943 55.4112903,24.3588719 55.4112903,24.9435484 L55.4112903,49.8508065 L67.1633065,58.2701613 C67.6310493,58.6209677 67.8941541,59.0887106 67.952621,59.6733871 C68.0110878,60.2580636 67.8649194,60.7842733 67.5141129,61.2520161 L64.3568548,65.8125 C64.0060484,66.2802428 63.5383056,66.5725798 62.953629,66.6895161 C62.3689525,66.8064525 61.8427428,66.6895161 61.375,66.3387097 L46.4657258,55.4637097 Z" id="icon-time" fill="#ED0000" transform="translate(50.500000, 49.500000) scale(-1, 1) translate(-50.500000, -49.500000) "></path>
    </g>
</svg>