<?xml version="1.0" encoding="UTF-8"?>
<svg width="100px" height="100px" viewBox="0 0 100 100" version="1.1" xmlns="http://www.w3.org/2000/svg" xmlns:xlink="http://www.w3.org/1999/xlink">
    <title>Site/Basket</title>
    <g id="Site/Basket" stroke="none" stroke-width="1" fill="none" fill-rule="evenodd">
        <path d="M97.2663738,53.0889399 C96.5356745,52.0766528 95.3630577,51.4769658 94.1134842,51.4769658 L53.4166442,51.4769658 L53.4166442,7.29924875 C53.4166442,5.47728715 51.9377556,4 50.1129507,4 C48.2885346,4 46.8092572,5.47728715 46.8092572,7.29924875 L46.8092572,51.4765776 L5.88660011,51.4765776 C4.6374153,51.4765776 3.4640211,52.0762646 2.7337105,53.0885518 C2.0033999,54.1004508 1.80440095,55.4019073 2.19928949,56.5853673 L14.8030746,94.3458514 C15.3320542,95.9310434 16.8175502,97 18.4903852,97 L81.5096991,97 C83.1829227,97 84.6680301,95.9310434 85.1970098,94.3458514 L97.8007948,56.5853673 C98.1952947,55.4019073 97.9970731,54.101227 97.2663738,53.0889399 Z M86.5779536,65.6602421 L76.9132898,65.6602421 L76.9132898,59.239904 L88.7210791,59.239904 L86.5779536,65.6602421 Z M82.6294569,77.4890192 C82.555221,77.4828088 82.4805964,77.4777629 82.4044171,77.4777629 L76.9129011,77.4777629 L76.9129011,71.0942988 L84.7636429,71.0942988 L82.6294569,77.4890192 Z M15.2360527,71.0942988 L23.1524797,71.0942988 L23.1524797,77.4777629 L17.3667407,77.4777629 L15.2360527,71.0942988 Z M28.5934686,71.0942988 L35.3038531,71.0942988 L35.3038531,77.4777629 L28.5934686,77.4777629 L28.5934686,71.0942988 Z M28.5934686,65.6602421 L28.5934686,59.239904 L35.3038531,59.239904 L35.3038531,65.6602421 L28.5934686,65.6602421 Z M40.7452306,77.4777629 L40.7452306,71.0942988 L46.8096459,71.0942988 L46.8096459,77.4777629 L40.7452306,77.4777629 Z M53.4166442,71.0942988 L59.3197615,71.0942988 L59.3197615,77.4777629 L53.4166442,77.4777629 L53.4166442,71.0942988 Z M35.3038531,89.2374499 L28.5934686,89.2374499 L28.5934686,82.9118197 L35.3038531,82.9118197 L35.3038531,89.2374499 Z M40.7452306,82.9118197 L46.8096459,82.9118197 L46.8096459,89.2374499 L40.7452306,89.2374499 L40.7452306,82.9118197 Z M53.4166442,82.9118197 L59.3197615,82.9118197 L59.3197615,89.2374499 L53.4166442,89.2374499 L53.4166442,82.9118197 Z M64.7611391,82.9118197 L71.4719123,82.9118197 L71.4719123,89.2374499 L64.7611391,89.2374499 L64.7611391,82.9118197 Z M64.7611391,77.4777629 L64.7611391,71.0942988 L71.4719123,71.0942988 L71.4719123,77.4777629 L64.7611391,77.4777629 Z M64.7611391,65.6602421 L64.7611391,59.239904 L71.4719123,59.239904 L71.4719123,65.6602421 L64.7611391,65.6602421 Z M59.3197615,59.239904 L59.3197615,65.6602421 L53.4166442,65.6602421 L53.4166442,59.239904 L59.3197615,59.239904 Z M40.7452306,65.6602421 L40.7452306,59.239904 L46.8096459,59.239904 L46.8096459,65.6602421 L40.7452306,65.6602421 Z M23.152091,59.239904 L23.152091,65.6602421 L13.4221307,65.6602421 L11.2790053,59.239904 L23.152091,59.239904 Z M19.1802741,82.9118197 L23.152091,82.9118197 L23.152091,89.2374499 L21.2915286,89.2374499 L19.1802741,82.9118197 Z M76.9132898,89.2374499 L76.9132898,82.9118197 L80.8198102,82.9118197 L78.7085557,89.2374499 L76.9132898,89.2374499 Z" id="icon-basket" fill="#ED0000"></path>
    </g>
</svg>