<?xml version="1.0" encoding="UTF-8"?>
<svg width="100px" height="98px" viewBox="0 0 100 98" version="1.1" xmlns="http://www.w3.org/2000/svg" xmlns:xlink="http://www.w3.org/1999/xlink">
    <title>Devices/Remote</title>
    <g id="Devices/Remote" stroke="none" stroke-width="1" fill="none" fill-rule="evenodd">
        <path d="M74.8223207,0 C81.246391,0 87.2855189,2.50175401 91.8276047,7.04387618 L91.8899324,7.10777243 L91.8899324,7.10777243 C91.9165883,7.13325253 91.9428522,7.15873263 91.9683321,7.18499674 C96.498266,11.7149669 99,17.754143 99,24.1778727 C99,30.6016024 96.498266,36.6407786 91.9561802,41.1829007 C91.255679,41.8834075 90.4830501,42.5615702 89.6590694,43.1997488 C86.4742111,45.8948885 71.3730093,58.7232959 65.0340375,65.0029664 L64.7852009,65.250621 C57.9691321,72.0663523 44.4001064,88.4441778 43.8258287,89.1384126 C43.3272067,89.751503 42.7674329,90.3720415 42.1837473,90.9561238 C37.6408774,95.498638 31.6013576,98 25.1776793,98 C18.754001,98 12.7148731,95.498246 8.17239531,90.9561238 C8.15240339,90.9357397 8.13005948,90.9133957 8.10653957,90.8890916 C8.08537166,90.8683155 8.06459574,90.8483234 8.04381982,90.8275473 C3.50173399,86.2858171 1,80.246249 1,73.8225193 C1,67.3987896 3.50134199,61.3596134 8.04381982,56.8170993 C8.62358551,56.2373289 9.24372703,55.6779427 9.88621246,55.1546206 C10.5557458,54.6007224 26.9138403,41.0511882 33.749901,34.2150729 C39.9454362,28.0194881 53.0726797,12.5648263 55.8002048,9.34061336 C56.4383782,8.51662607 57.1161435,7.74477498 57.8166447,7.04426818 C62.3595146,2.50136201 68.3986424,0 74.8223207,0 Z M74.8227127,7.84003136 C70.49309,7.84003136 66.4225783,9.5260301 63.3614626,12.5875624 C62.8796965,13.0693323 62.4073384,13.6099024 61.9588922,14.1935928 L61.8436446,14.3366733 C58.1459234,18.7082748 45.5917816,33.4616458 39.2943268,39.759151 C32.1995472,46.8528114 15.5650937,60.6308825 14.8602806,61.2141809 C14.4004664,61.5889344 13.9802441,61.9683919 13.5878536,62.3603934 C10.5259539,65.4227097 8.83996864,69.492862 8.83996864,73.8225193 C8.83996864,78.1404166 10.5165459,82.1999848 13.5619818,85.258773 L13.739557,85.4359577 C16.8092968,88.4872979 20.8649125,90.1603606 25.1776793,90.1603606 C29.507302,90.1603606 33.5778137,88.4743619 36.6389294,85.4128297 C37.0340639,85.0176921 37.4127343,84.5978584 37.7647489,84.1654807 C38.3696025,83.4340057 52.1675553,66.7798191 59.241167,59.7065428 C65.5268619,53.4207977 80.2883468,40.8575394 84.6630493,37.1566526 L84.8065208,37.0410122 C85.3902064,36.5925624 85.9303803,36.1209845 86.4125383,35.6388226 C89.4744381,32.5772903 91.1600314,28.507138 91.1600314,24.1774807 C91.1600314,19.8599754 89.4834541,15.8000152 86.4380182,12.741619 L86.261227,12.5648263 L86.2839629,12.5875624 C83.2224551,9.5260301 79.1523354,7.84003136 74.8227127,7.84003136 Z M25.2518747,80.505521 C25.9759623,79.7814334 27.3961402,80.0276483 28.4239465,81.0554546 C29.4517529,82.083261 29.6979634,83.5034643 28.9738758,84.2275519 C28.2497882,84.9516395 26.8296103,84.7054245 25.8018039,83.6776182 C24.7739976,82.6498119 24.5277871,81.2296086 25.2518747,80.505521 Z M18.5692622,76.5298931 C19.2933498,75.8058055 20.7135277,76.0520204 21.741334,77.0798267 C22.7691404,78.1076331 23.0153509,79.5278364 22.2912633,80.251924 C21.5671757,80.9760115 20.1469978,80.7297966 19.1191915,79.7019903 C18.0913851,78.6741839 17.8451746,77.2539806 18.5692622,76.5298931 Z M29.3544911,76.402865 C30.0785786,75.6787774 31.4987566,75.9249924 32.5265629,76.9527987 C33.5543693,77.980605 33.8005798,79.4008083 33.0764922,80.1248959 C32.3524046,80.8489835 30.9322267,80.6027686 29.9044203,79.5749623 C28.876614,78.5471559 28.6304035,77.1269526 29.3544911,76.402865 Z M22.7142144,72.3848878 C23.438302,71.6608002 24.8584799,71.9070151 25.8862863,72.9348214 C26.9140926,73.9626278 27.1603031,75.3828311 26.4362155,76.1069187 C25.712128,76.8310062 24.29195,76.5847913 23.2641437,75.556985 C22.2363373,74.5291787 21.9901268,73.1089753 22.7142144,72.3848878 Z M33.4994433,72.2584141 C34.2235309,71.5343265 35.6437088,71.7805414 36.6715151,72.8083478 C37.6993215,73.8361541 37.945532,75.2563574 37.2214444,75.980445 C36.4973568,76.7045326 35.0771789,76.4583177 34.0493726,75.4305113 C33.0215662,74.402705 32.7753557,72.9825017 33.4994433,72.2584141 Z M14.6782537,69.9316315 C15.4023413,69.2075439 16.8225192,69.4537588 17.8503255,70.4815652 C18.8781319,71.5093715 19.1243424,72.9295748 18.4002548,73.6536624 C17.6761672,74.37775 16.2559893,74.1315351 15.228183,73.1037287 C14.2003766,72.0759224 13.9541661,70.6557191 14.6782537,69.9316315 Z M26.8591274,68.2398825 C27.583215,67.5157949 29.003393,67.7620098 30.0311993,68.7898161 C31.0590056,69.8176225 31.3052161,71.2378258 30.5811286,71.9619134 C29.857041,72.6860009 28.436863,72.439786 27.4090567,71.4119797 C26.3812504,70.3841734 26.1350399,68.96397 26.8591274,68.2398825 Z M37.6443563,68.113448 C38.3684439,67.3893604 39.7886218,67.6355753 40.8164282,68.6633817 C41.8442345,69.691188 42.090445,71.1113913 41.3663574,71.8354789 C40.6422698,72.5595665 39.2220919,72.3133516 38.1942856,71.2855452 C37.1664792,70.2577389 36.9202687,68.8375356 37.6443563,68.113448 Z M18.7806321,65.8292527 C19.5047197,65.1051651 20.9248976,65.35138 21.952704,66.3791864 C22.9805103,67.4069927 23.2267208,68.827196 22.5026332,69.5512836 C21.7785456,70.2753712 20.3583677,70.0291563 19.3305614,69.0013499 C18.302755,67.9735436 18.0565445,66.5533403 18.7806321,65.8292527 Z M31.0040405,64.0954707 C31.728128,63.3713832 33.148306,63.6175981 34.1761123,64.6454044 C35.2039187,65.6732108 35.4501292,67.0934141 34.7260416,67.8175016 C34.001954,68.5415892 32.5817761,68.2953743 31.5539697,67.267568 C30.5261634,66.2397616 30.2799529,64.8195583 31.0040405,64.0954707 Z M22.9258223,61.6845638 C23.6499099,60.9604762 25.0700878,61.2066911 26.0978942,62.2344975 C27.1257005,63.2623038 27.371911,64.6825071 26.6478234,65.4065947 C25.9237359,66.1306823 24.5035579,65.8844674 23.4757516,64.856661 C22.4479452,63.8288547 22.2017347,62.4086514 22.9258223,61.6845638 Z M27.0707353,57.5395585 C27.7948229,56.8154709 29.2150008,57.0616858 30.2428072,58.0894922 C31.2706135,59.1172985 31.516824,60.5375018 30.7927364,61.2615894 C30.0686489,61.985677 28.6484709,61.7394621 27.6206646,60.7116557 C26.5928583,59.6838494 26.3466477,58.2636461 27.0707353,57.5395585 Z M56.8444886,51.0942684 C57.7233491,51.4584378 58.2964508,52.3157453 58.2964508,53.2671331 L58.2964508,56.1236485 C58.2964508,57.4227417 57.243543,58.4756579 55.9444602,58.4756579 L53.0875756,58.4756579 C52.1361955,58.4756579 51.2788949,57.9025516 50.9147283,57.0236841 C50.5505618,56.1448166 50.751657,55.1330605 51.4247183,54.4603858 L54.2816029,51.6038704 C54.9542722,50.9308037 55.9664121,50.7300989 56.8444886,51.0942684 Z M44.7975928,51.503126 L47.6544774,54.3600334 C48.3271467,55.0327081 48.5282419,56.0440722 48.1644673,56.9229397 C47.8006928,57.8018072 46.9426082,58.3749135 45.991228,58.3749135 L43.1343435,58.3749135 C41.8356527,58.3749135 40.7823529,57.3216053 40.7823529,56.0229041 L40.7823529,53.1659967 C40.7823529,52.2146089 41.3554546,51.3573014 42.2343151,50.993132 C43.1131755,50.6285705 44.1249235,50.8300593 44.7975928,51.503126 Z M56.0452038,40.9614198 C57.3438946,40.9614198 58.3971944,42.0147281 58.3971944,43.3134293 L58.3971944,46.1703367 C58.3971944,47.1217245 57.8240927,47.9794239 56.9452322,48.3432014 C56.6543694,48.4639379 56.3490026,48.5223461 56.0455958,48.5223461 C55.4332943,48.5223461 54.8319687,48.2836171 54.3819545,47.8335993 L51.5254619,44.9766919 C50.8527926,44.3040172 50.6516974,43.2922612 51.0158639,42.4133937 C51.3800305,41.5345261 52.2373311,40.9614198 53.1887112,40.9614198 L56.0452038,40.9614198 Z M46.0923636,40.8610674 C47.0437438,40.8610674 47.9014364,41.4341737 48.2652109,42.3130413 C48.6289855,43.1919088 48.4278903,44.2036648 47.755221,44.8763395 L44.8983364,47.7328549 C44.4487142,48.1828727 43.8469966,48.4216017 43.2350871,48.4216017 C42.9320723,48.4216017 42.6267055,48.3631935 42.3354507,48.242457 C41.4565902,47.8782875 40.8834885,47.0205881 40.8834885,46.0695923 L40.8834885,43.2130769 C40.8834885,41.9143757 41.9367883,40.8610674 43.2354791,40.8610674 L46.0923636,40.8610674 Z M73.010504,13.9285997 C76.1629553,13.9285997 79.1268555,15.1563486 81.3557586,17.3852695 C83.5846617,19.6141905 84.8124008,22.5781143 84.8124008,25.7305909 C84.8124008,28.7663091 83.6739212,31.6268193 81.5989329,33.8252171 L81.3553666,34.0759123 L81.3553666,34.0759123 C79.1264635,36.3048332 76.1629553,37.5325821 73.010504,37.5325821 C69.8580526,37.5325821 66.8941524,36.3048332 64.6652493,34.0759123 C62.4363463,31.8469914 61.2086072,28.8830675 61.2086072,25.7305909 C61.2086072,22.5781143 62.4363463,19.6141905 64.6656413,17.3852695 C66.8945444,15.1559566 69.8580526,13.9285997 73.010504,13.9285997 Z M73.010504,19.4166217 C71.3237347,19.4166217 69.738493,20.0732243 68.5460338,21.2660851 C67.3531826,22.4585538 66.6961932,24.0442002 66.6961932,25.7309829 C66.6961932,27.4173737 67.3531826,29.00302 68.5456418,30.1954888 C69.738493,31.3879576 71.3237347,32.0449522 73.010504,32.0449522 C74.6972732,32.0449522 76.2825149,31.3883496 77.4749741,30.1954888 L77.4753661,30.1954888 C78.6678253,29.00302 79.3248147,27.4173737 79.3248147,25.7309829 C79.3248147,24.0445922 78.6678253,22.4589458 77.4753661,21.2660851 C76.2821229,20.0732243 74.6968812,19.4166217 73.010504,19.4166217 Z" id="icon-remote" fill="#ED0000"></path>
    </g>
</svg>