<?xml version="1.0" encoding="UTF-8"?>
<svg width="100px" height="100px" viewBox="0 0 100 100" version="1.1" xmlns="http://www.w3.org/2000/svg" xmlns:xlink="http://www.w3.org/1999/xlink">
    <title>Random/Film</title>
    <g id="Random/Film" stroke="none" stroke-width="1" fill="none" fill-rule="evenodd">
        <path d="M95.488755,50.984739 C94.339759,50.2457831 92.8939759,50.1413655 91.651004,50.7076305 L77.8939759,56.9730924 L77.8939759,52.0955823 C77.8939759,49.3425703 76.8606426,46.8273092 75.1638554,44.913253 C81.5823293,40.4694779 85.7975904,33.0582329 85.7975904,24.67751 C85.7975904,11.1128514 74.7618474,0.0767068273 61.1967871,0.0767068273 C51.5389558,0.0767068273 43.1674699,5.67309237 39.1437751,13.7907631 C35.2550201,9.5 29.6409639,6.80040161 23.4076305,6.80040161 C11.6963855,6.80040161 2.16907631,16.3281124 2.16907631,28.0393574 C2.16907631,35.5702811 6.11204819,42.1927711 12.0389558,45.9650602 C10.8381526,47.7100402 10.1333333,49.8212851 10.1333333,52.0951807 L10.1333333,89.1437751 C10.1333333,95.1216867 14.9967871,99.9851406 20.9746988,99.9851406 L67.053012,99.9851406 C73.0309237,99.9851406 77.8943775,95.1216867 77.8943775,89.1437751 L77.8943775,84.2168675 L91.6514056,90.4823293 C92.1819277,90.7240964 92.7497992,90.8433735 93.3156627,90.8433735 C94.0751004,90.8433735 94.8305221,90.6281124 95.4891566,90.2048193 C96.637751,89.4654618 97.3321285,88.1931727 97.3321285,86.8273092 L97.3321285,54.362249 C97.3321285,52.9963855 96.6373494,51.7240964 95.488755,50.984739 Z M61.1967871,8.10923695 C70.3329317,8.10923695 77.7654618,15.5417671 77.7654618,24.6779116 C77.7654618,33.8140562 70.3329317,41.2465863 61.1967871,41.2465863 C52.0606426,41.2465863 44.6281124,33.8140562 44.6281124,24.6779116 C44.6281124,15.5417671 52.0606426,8.10923695 61.1967871,8.10923695 Z M43.0365462,41.2542169 L40.0168675,41.2542169 C40.5188755,40.6248996 40.9859438,39.9670683 41.4148594,39.2823293 C41.9216867,39.9674699 42.4626506,40.6261044 43.0365462,41.2542169 Z M23.4076305,14.8333333 C30.6899598,14.8333333 36.6144578,20.7578313 36.6144578,28.0401606 C36.6144578,35.3220884 30.6899598,41.2465863 23.4076305,41.2465863 C16.1257028,41.2465863 10.2012048,35.3220884 10.2012048,28.0401606 C10.2012048,20.7578313 16.1257028,14.8333333 23.4076305,14.8333333 Z M69.8618474,89.1441767 C69.8618474,90.6955823 68.6040161,91.9534137 67.0526104,91.9534137 L20.9742972,91.9534137 C19.4228916,91.9534137 18.1650602,90.6955823 18.1650602,89.1441767 L18.1650602,52.0955823 C18.1650602,50.5441767 19.4228916,49.2863454 20.9742972,49.2863454 L67.0526104,49.2863454 C68.6040161,49.2863454 69.8618474,50.5441767 69.8618474,52.0955823 L69.8618474,89.1441767 Z M89.2991968,80.5851406 L77.9289157,75.4068273 L77.9289157,65.7823293 L89.2991968,60.6040161 L89.2991968,80.5851406 Z" id="icon-film" fill="#ED0000"></path>
    </g>
</svg>