<?xml version="1.0" encoding="UTF-8"?>
<svg width="100px" height="100px" viewBox="0 0 100 100" version="1.1" xmlns="http://www.w3.org/2000/svg" xmlns:xlink="http://www.w3.org/1999/xlink">
    <title>Site/User</title>
    <g id="Site/User" stroke="none" stroke-width="1" fill="none" fill-rule="evenodd">
        <path d="M49.9481633,0.00204081633 C22.4212245,0.00204081633 0.026122449,22.3967347 0.026122449,49.9236735 C0.026122449,77.4506122 22.4208163,99.8453061 49.9481633,99.8453061 C77.4755102,99.8453061 99.8702041,77.4506122 99.8702041,49.9236735 C99.8702041,22.3967347 77.4755102,0.00204081633 49.9481633,0.00204081633 Z M49.9481633,8.16530612 C72.9742857,8.16530612 91.7069388,26.8983673 91.7069388,49.9240816 C91.7069388,57.2804082 89.7922449,64.1971429 86.4387755,70.2065306 C80.9346939,66.2322449 74.0367347,63.284898 66.3461224,61.5567347 C71.424898,57.002449 74.6273469,50.3959184 74.6273469,43.0534694 C74.6273469,29.3473469 63.4767347,18.1967347 49.7706122,18.1967347 C36.0644898,18.1967347 24.9134694,29.3469388 24.9134694,43.0530612 C24.9134694,50.4208163 28.1383673,57.0465306 33.2473469,61.6020408 C25.6730612,63.3285714 18.8820408,66.2404082 13.4322449,70.16 C10.0946939,64.1616327 8.18979592,57.2612245 8.18979592,49.9236735 C8.18979592,26.8979592 26.922449,8.16530612 49.9481633,8.16530612 Z M33.0767347,43.0530612 C33.0767347,33.8481633 40.5657143,26.3595918 49.7702041,26.3595918 C58.9746939,26.3595918 66.4636735,33.8485714 66.4636735,43.0530612 C66.4636735,52.257551 58.9746939,59.7465306 49.7702041,59.7465306 C40.5657143,59.7465306 33.0767347,52.257551 33.0767347,43.0530612 Z M49.9481633,91.6820408 C37.184898,91.6820408 25.7432653,85.9244898 18.0771429,76.8726531 C25.9044898,71.1718367 37.3171429,67.9420408 49.904898,67.9420408 C62.4922449,67.9420408 73.9628571,71.1914286 81.7861224,76.9118367 C74.1204082,85.9412245 62.6930612,91.6820408 49.9481633,91.6820408 Z" id="icon-user" fill="#ED0000"></path>
    </g>
</svg>