<?xml version="1.0" encoding="UTF-8"?>
<svg width="100px" height="100px" viewBox="0 0 100 100" version="1.1" xmlns="http://www.w3.org/2000/svg" xmlns:xlink="http://www.w3.org/1999/xlink">
    <title>Random/Update</title>
    <g id="Random/Update" stroke="none" stroke-width="1" fill="none" fill-rule="evenodd">
        <path d="M73.3432594,0.292329997 C87.7568092,0.292329997 99.4832191,12.0183299 99.4832191,26.4318798 L99.4832191,26.4318798 L99.4832191,73.2526494 C99.4832191,87.6661992 87.7568092,99.3926091 73.3432594,99.3926091 L73.3432594,99.3926091 L26.5228998,99.3926091 C12.1093499,99.3926091 0.382939997,87.6661992 0.382939997,73.2526494 L0.382939997,73.2526494 L0.382939997,26.4322898 C0.382939997,12.0187399 12.1093499,0.292329997 26.5228998,0.292329997 L26.5228998,0.292329997 Z M73.3432594,8.49191993 L26.5228998,8.49191993 C16.6558399,8.49191993 8.58293993,16.5648199 8.58293993,26.4318798 L8.58293993,26.4318798 L8.58293993,73.2526494 C8.58293993,83.1197093 16.6558399,91.1926092 26.5228998,91.1926092 L26.5228998,91.1926092 L73.3432594,91.1926092 C83.2103193,91.1926092 91.2832192,83.1197093 91.2832192,73.2526494 L91.2832192,73.2526494 L91.2832192,26.4322898 C91.2832192,16.5652299 83.2103193,8.49191993 73.3432594,8.49191993 L73.3432594,8.49191993 Z M23.2955772,19.1035574 L23.4872598,19.1059998 L36.8811397,19.7045998 C38.5736197,19.7800398 39.9663897,21.0621098 40.1820496,22.7422898 L40.1820496,22.7422898 L41.9864596,36.7987297 C42.2316396,38.7076897 40.8827396,40.4538796 38.9737797,40.6990596 C38.8233097,40.7183296 38.6736597,40.7277596 38.5256497,40.7277596 C36.7987297,40.7277596 35.2989497,39.4448697 35.0734497,37.6863797 L35.0734497,37.6863797 L34.2374597,31.1743497 C29.7836297,34.9410197 26.8599198,40.1184997 25.9509498,45.9392696 C24.9505498,52.3463395 26.5052698,58.7599695 30.3285197,63.9973094 C35.2091597,70.6835894 43.0635296,74.3903994 51.3406096,73.9250494 C53.2655595,73.8081994 54.9080195,75.2850193 55.0174895,77.2070993 C55.1265495,79.1283593 53.6575195,80.7749193 51.7350295,80.8839793 C51.1327396,80.9180093 50.5308596,80.9352293 49.9322596,80.9352293 C39.9540897,80.9352293 30.6245397,76.2251493 24.6988098,68.1071494 C19.7779898,61.3655195 17.7771898,53.1109895 19.0645898,44.8642496 C20.1957798,37.6174997 23.7488398,31.1403197 29.1682197,26.3367598 L29.1682197,26.3367598 L23.1760698,26.0690298 C21.2531698,25.9829298 19.7644598,24.3544098 19.8501498,22.4319198 C19.9362498,20.5094298 21.5598498,19.0301498 23.4872598,19.1059998 Z M47.7809896,18.5192898 C58.4327895,17.9161798 68.5368294,22.6918598 74.8176193,31.2961197 C79.7384393,38.0381597 81.7396493,46.2926896 80.4518393,54.5394295 C79.3206493,61.7865895 75.7671793,68.2637694 70.3469794,73.0669194 L70.3469794,73.0669194 L76.3407693,73.3350594 C78.2632593,73.4207494 79.7523793,75.0496793 79.6662793,76.9721693 C79.5826393,78.8417693 78.0410393,80.3013693 76.1878393,80.3013693 C76.1349493,80.3013693 76.0824693,80.3001393 76.0291693,80.2976793 L76.0291693,80.2976793 L62.6348795,79.6986693 C60.9423995,79.6232293 59.5496295,78.3415693 59.3339695,76.6609793 L59.3339695,76.6609793 L57.5295595,62.6049495 C57.2847895,60.6955795 58.6336895,58.9497995 60.5426495,58.7046195 C62.4548895,58.4627195 64.1977994,59.8091595 64.4429794,61.7177095 L64.4429794,61.7177095 L65.2789694,68.2293294 C69.7327994,64.4626594 72.6565094,59.2847695 73.5654794,53.4644095 C74.5654693,47.0569296 73.0107494,40.6437096 69.1879094,35.4055497 C64.3072694,28.7196797 56.4545395,25.0083598 48.1758196,25.4782198 C46.2525096,25.5872798 44.6079996,24.1178398 44.4989396,22.1961698 C44.3898796,20.2744998 45.8593196,18.6283498 47.7809896,18.5192898 Z" id="icon-update" fill="#ED0000"></path>
    </g>
</svg>