<?xml version="1.0" encoding="UTF-8"?>
<svg width="100px" height="98px" viewBox="0 0 100 98" version="1.1" xmlns="http://www.w3.org/2000/svg" xmlns:xlink="http://www.w3.org/1999/xlink">
    <title>Devices/TV</title>
    <g id="Devices/TV" stroke="none" stroke-width="1" fill="none" fill-rule="evenodd">
        <path d="M71.5230546,88.6769477 C73.4453977,88.6769477 75.0040763,90.2035029 75.0040763,92.0862276 C75.0040763,93.9689523 73.4453977,95.4955075 71.5230546,95.4955075 L29.7810996,95.4955075 C27.858347,95.4955075 26.3000779,93.9689523 26.3000779,92.0862276 C26.3000779,90.2035029 27.858347,88.6769477 29.7810996,88.6769477 L71.5230546,88.6769477 Z M63.7157933,5.21787535 C65.2926434,3.60924073 67.8630472,3.59246707 69.4602071,5.17900956 C71.057367,6.76555205 71.0744272,9.35605928 69.4992018,10.9642848 L69.4992018,10.9642848 L60.3569644,20.2978022 L88.6687762,20.2978022 C94.9164659,20.2978022 100,25.4174496 100,31.7104348 L100,31.7104348 L100,74.3142964 C100,80.6072816 94.9164659,85.726929 88.6687762,85.726929 L88.6687762,85.726929 L11.3312238,85.726929 C5.08312787,85.726929 0,80.6072816 0,74.3142964 L0,74.3142964 L0,31.7104348 C0,25.4174496 5.08312787,20.2978022 11.3312238,20.2978022 L11.3312238,20.2978022 L39.3075183,20.2978022 L30.1664994,10.9642848 C28.5908679,9.35565017 28.6083343,6.76555205 30.2054942,5.17860045 C31.8022479,3.59164884 34.3742765,3.60964984 35.949908,5.21828446 L35.949908,5.21828446 L49.8320382,19.3920247 Z M88.6687762,28.4800739 L11.3312238,28.4800739 C9.55980616,28.4800739 8.12390581,29.9262904 8.12390581,31.7104348 L8.12390581,31.7104348 L8.12390581,74.3142964 C8.12390581,76.0984407 9.55980616,77.5446573 11.3312238,77.5446573 L11.3312238,77.5446573 L88.6687762,77.5446573 C90.4401938,77.5446573 91.8760942,76.0984407 91.8760942,74.3142964 L91.8760942,74.3142964 L91.8760942,31.7104348 C91.8760942,29.9262904 90.4401938,28.4800739 88.6687762,28.4800739 L88.6687762,28.4800739 Z" id="icon-tv" fill="#ED0000"></path>
    </g>
</svg>