<?xml version="1.0" encoding="UTF-8"?>
<svg width="100px" height="100px" viewBox="0 0 100 100" version="1.1" xmlns="http://www.w3.org/2000/svg" xmlns:xlink="http://www.w3.org/1999/xlink">
    <title>Refer a friend /Earn Money</title>
    <g id="Refer-a-friend-/Earn-Money" stroke="none" stroke-width="1" fill="none" fill-rule="evenodd">
        <path d="M80.3764706,67.4353856 C83.3098039,70.8867409 85.0823529,75.3572179 85.0823529,80.2374448 C85.0823529,91.1325909 76.2562092,100 65.4117647,100 C56.4810458,100 48.930719,93.9903341 46.5359477,85.7900819 C47.8849673,85.9581845 49.254902,86.0527422 50.6457516,86.0527422 C50.8810458,86.0527422 51.1163399,86.0422358 51.351634,86.0369826 C53.6313725,91.5948729 59.0745098,95.5137634 65.4117647,95.5137634 C73.7934641,95.5137634 80.6117647,88.6635848 80.6117647,80.242698 C80.6117647,77.0434965 79.6287582,74.0701828 77.945098,71.6116831 C78.8496732,70.2826224 79.6653595,68.8905232 80.3764706,67.4353856 Z M12.9620915,67.8188695 C19.4562092,67.8188695 24.7372549,73.124606 24.73203,79.6490859 C24.73203,86.1683127 19.4509804,91.4740492 12.9620915,91.4740492 C6.46797386,91.4740492 1.1869281,86.1683127 1.1869281,79.6490859 C1.1869281,73.124606 6.46797386,67.8188695 12.9620915,67.8188695 Z M65.0614379,82.7537298 C64.8313725,83.5579078 64.3904139,84.3047019 63.6539851,84.8686766 L63.4457516,85.0178609 L67.2575163,85.0178609 C68.4228474,85.0178609 69.3250602,84.2392347 69.4013106,83.0221872 L69.4065359,82.8535407 L73.2444444,83.0846817 C73.2444444,86.3051461 71.1616617,88.6946097 68.0613335,88.806568 L67.8326797,88.8106745 L58.1176471,88.8106745 L58.1176471,85.3645724 C58.4156863,85.2595083 58.6875817,85.1334314 58.9542484,85.0073545 C61.0823529,84.455768 63.1215686,83.6940534 65.0614379,82.7537298 Z M12.9620915,71.4068082 C8.43921569,71.4068082 4.76339869,75.1050641 4.76339869,79.6438327 C4.76339869,84.1826014 8.44444444,87.8756041 12.9620915,87.8756041 C17.4849673,87.8756041 21.1607843,84.1826014 21.1555611,79.6438327 C21.1555611,75.0998109 17.4849673,71.4068082 12.9620915,71.4068082 Z M13.2287582,73.4555579 C15.7918301,73.4555579 16.7159416,75.1810611 16.7854567,76.549755 L16.7895425,76.6810254 L14.5934641,76.9962177 C14.5777778,76.1136793 14.1281046,75.5253204 13.2653595,75.5253204 C12.6013072,75.5253204 11.9843137,75.9403236 11.9843137,76.8281152 C11.9843137,77.2439938 12.0641975,77.5796152 12.1876543,77.9322609 L12.2666667,78.1466695 L15.1947712,78.1466695 L15.1947712,79.985291 L12.8470588,79.985291 C12.8627451,80.0851019 12.8627451,80.1849128 12.8627451,80.2847237 C12.8627451,81.01642 12.6192877,81.7571754 11.9858477,82.2630414 L11.8326797,82.3754991 L14.0130719,82.3754991 C14.6650327,82.3754991 15.1745302,81.9507282 15.2399791,81.2873124 L15.2470588,81.1515024 L17.4431373,81.2828325 C17.4431373,83.1087739 16.2781625,84.4645879 14.5364991,84.5559212 L14.3477124,84.5608321 L8.78954248,84.5608321 L8.78954248,82.5856272 C9.83529412,82.2231561 10.5202614,81.5349863 10.5202614,80.5473839 C10.5202614,80.4248091 10.5039942,80.3022344 10.4838538,80.1796596 L10.4522876,79.9957974 L8.83660131,79.9957974 L8.83660131,78.1571759 L9.78300654,78.1571759 C9.65228758,77.7526791 9.56862745,77.3009036 9.56862745,76.7493171 C9.56862745,75.1103173 10.896732,73.4555579 13.2287582,73.4555579 Z M50.5,23 C58.8806222,23 66.4483556,26.5193305 71.8239111,32.1471124 C71.8228956,32.1479564 71.8218802,32.1488005 71.8208649,32.1496446 C72.6484739,33.0139069 73.4240151,33.9206226 74.1419556,34.8797074 L74.136,34.873 C75.3644356,36.5024806 76.4169956,38.2674433 77.2805196,40.1373407 L77.5613333,40.7644896 L77.5613333,40.7749794 C79.1294222,44.3729835 80,48.3381308 80,52.5025845 C80,52.6441969 79.9895111,52.7805644 79.9895111,52.9221768 C79.9632889,54.8470566 79.7535111,56.735222 79.3706667,58.5604485 C79.3132789,58.5458677 79.2560563,58.5308831 79.1989999,58.5155014 L79.3654222,58.5604485 C79.1682311,59.5045313 78.9206933,60.4318303 78.6335495,61.3396602 L78.411,62.014 C78.2077111,62.6265603 77.9815444,63.2274296 77.7354653,63.8172354 L77.4826667,64.4032715 L77.2090993,65.0018175 C76.6497633,66.1911415 76.017219,67.3336743 75.3114667,68.4261128 L75.308511,68.4235403 C74.2605926,70.0492935 73.0604948,71.563714 71.7242667,72.9524649 C71.4358222,72.0503414 70.9061333,71.1691976 70.0827556,70.4768702 C70.0817777,70.4760444 70.0807993,70.4752188 70.0798206,70.4743935 C69.2049333,71.4280757 68.2618667,72.3134534 67.256,73.1307916 C66.8888889,72.8580566 66.4168889,72.7059544 65.8347556,72.7059544 C64.8160222,72.7059544 63.8615333,73.2641269 63.6388288,74.4402044 L63.635,74.463 L63.6388288,74.4454493 C63.8615333,73.2693718 64.8160222,72.7111993 65.8347556,72.7111993 C66.4168889,72.7111993 66.8888889,72.8685464 67.256,73.1360365 C66.2805333,73.9272677 65.2511238,74.6491378 64.1710741,75.2983437 L63.6268444,75.6168761 C63.6270554,75.6185792 63.6272672,75.6202816 63.6274797,75.6219835 C64.72432,74.9968361 65.7746712,74.2988338 66.7655669,73.5310023 L67.256,73.1412814 L67.7541979,72.7261327 C68.5757062,72.0242626 69.3529037,71.2732215 70.0827556,70.4821151 C70.9061333,71.1744425 71.4305778,72.0555863 71.7242667,72.9577098 C71.14528,73.5577268 70.5427982,74.1376034 69.9141362,74.6892834 L69.4376889,75.0976306 L68.1685333,75.2812022 C68.1656287,75.1059417 68.1527144,74.9372954 68.1298892,74.7760553 L68.108,74.656 L68.1372982,74.8587332 C68.1451422,74.9274088 68.1512365,74.9974212 68.1555714,75.0687227 L68.1632889,75.2864471 L69.4324444,75.1028755 C68.6772444,75.7364599 67.88848,76.3331202 67.0715214,76.8901709 L66.4536,77.3004902 C64.5746773,78.5141011 62.5510431,79.5159152 60.4159998,80.2822982 L59.7721778,80.5051265 L59.1853796,80.6923719 C56.4351028,81.5391187 53.5197511,82.0048219 50.4947556,81.9999623 L50.3525,81.9973208 L50.3525,81.9973208 L50.2063111,81.9946792 L49.5448995,81.9805807 C48.2254095,81.9377346 46.9262857,81.8073612 45.6541333,81.5960665 L45.664,81.597 C32.4405982,79.4100955 22.1618401,68.3874484 21.1026892,54.8184397 L21.0734222,54.4064846 C21.0262222,53.7770962 21,53.1424628 21,52.5025845 C21,51.6266856 21.0472,50.7612764 21.1206222,49.9063571 C21.7919111,49.9797857 22.4736889,50.0165001 23.1607111,50.0165001 L23.1637147,50.0164999 C22.4776069,50.0164286 21.7965026,49.9797143 21.1258667,49.9063571 C21.3644889,47.1400449 21.9920027,44.4822701 22.9454232,41.9876245 L23.1712,41.4148576 C23.7465464,40.0025891 24.4281425,38.6470087 25.2036264,37.3545933 L25.5416889,36.8045871 L25.8204885,36.3714368 C29.3040768,31.061251 34.4482582,26.9417857 40.5185954,24.7520213 L41.0128,24.5787161 L41.6180364,24.3803119 C42.8342277,23.9958895 44.084546,23.6863331 45.3656889,23.4615515 L45.5481116,24.0122665 L45.5481116,24.0122665 L45.66,24.38 L45.5481116,24.0095391 C45.4894578,23.8242891 45.4286222,23.6398783 45.3656889,23.4563066 C47.0334222,23.162592 48.7483556,23 50.5,23 Z M69.3176471,80.2689641 L69.3176471,80.8363101 L68.4496732,80.8363101 C68.7424837,80.652448 69.0352941,80.4633326 69.3176471,80.2689641 Z M41.959,28.426 L41.9783302,28.5596157 C42.0543356,29.1528578 42.1026407,29.7545906 42.1246222,30.3638451 C38.1021333,31.8901121 34.6040889,34.4863396 31.9713778,37.7958739 C31.4888889,38.4042828 31.0326222,39.0336713 30.6130667,39.6892843 C28.7145778,42.6211855 27.4506667,45.9989037 27.0101333,49.6231323 C26.0451556,49.8224386 25.0487111,49.9483163 24.0365333,49.9955205 L24.0365333,50.0007654 C25.0487111,49.9535612 26.0451556,49.8276835 27.0101333,49.6283772 C26.8947556,50.567215 26.8265778,51.5270324 26.8265778,52.5025845 C26.8265778,53.0742791 26.8580444,53.6407287 26.8947556,54.2071783 C27.6656889,64.9592313 35.6477333,73.7496903 46.0212444,75.7427538 C45.8219556,76.6815916 45.6856,77.6466539 45.6226667,78.6326958 C42.71868,78.094729 39.980799,77.0851225 37.4914094,75.6861896 L37.03,75.421 L37.4946365,75.6891535 C39.9860434,77.0900455 42.7239244,78.0999739 45.6279111,78.6379407 L45.622,78.636 C46.8678476,78.8664687 48.14,79.0116134 49.4358212,79.0615241 L50.0856889,79.0785127 C48.5700444,79.0522881 47.0753778,78.9001859 45.6279111,78.6326958 C45.6908444,77.6466539 45.8219556,76.6815916 46.0264889,75.7427538 C47.2671746,75.9810223 48.5425379,76.1268092 49.8459734,76.1636 L50.5,76.1728359 L50.5314667,76.1728359 C50.4528,76.4857818 50.3834568,76.8022244 50.3240198,77.1219692 L50.294,77.3 L50.3243035,77.1255945 C50.3836898,76.806406 50.4529322,76.4905009 50.5314667,76.1780808 C53.4667167,76.1731637 56.2729042,75.6289025 58.8679247,74.6446955 L59.3840889,74.4420176 C62.3472,73.2356897 65.0166222,71.4471775 67.2455111,69.2128484 C67.2472115,69.2131393 67.2489114,69.2134307 67.2506107,69.2137226 C68.3760088,68.0815803 69.3865251,66.8401926 70.2663111,65.4942115 C70.2673184,65.4945604 70.2683256,65.4949094 70.2693327,65.4952586 C70.9782794,64.4219834 71.6029199,63.2870249 72.133125,62.1004071 L72.3903111,61.5028396 L72.6401021,60.8697603 C72.8017086,60.4451174 72.9532148,60.0150352 73.0930667,59.5779599 C73.4156,58.5377206 73.6668963,57.468343 73.8477811,56.3758975 L73.945,55.729 L73.9374222,55.7229555 C74.0548978,54.8837709 74.1287396,54.0278026 74.1535772,53.1604214 L74.1629333,52.5078294 C74.1629333,47.8031506 72.7784,43.4236558 70.4079111,39.7364884 L70.4116308,39.7284063 C69.8173254,38.8025845 69.1651404,37.9205293 68.4518079,37.0881848 L68.018,36.596 C63.7787053,31.9360621 57.7040475,28.963607 50.951183,28.8365739 L50.5,28.8323332 C49.3447238,28.8323332 48.2087129,28.9171079 47.0985726,29.0833546 L46.5456889,29.1732519 C45.0143111,29.4250073 43.5406222,29.8288649 42.1298667,30.36909 C42.10784,29.7585832 42.0574933,29.155629 41.9799595,28.5613604 L41.959,28.426 Z M51.8086897,37 C58.7233394,37 61.1455247,41.6452604 61.2691164,45.2480843 L61.2734304,45.4303527 L55.4344859,46.2620235 C55.3926297,43.947809 54.194495,42.4187745 51.8976342,42.4187745 C50.1292084,42.4187745 48.4915833,43.5138938 48.4915833,45.8281083 C48.4915833,47.0209055 48.7510227,47.9575545 49.1283892,48.9718241 L49.2449955,49.2787674 L57.0302548,49.2787674 L57.0302548,54.0828286 L50.7936761,54.0828286 C50.8355323,54.3462772 50.8355323,54.60456 50.8355323,54.8680086 C50.8355323,56.8417029 50.1411876,58.8534826 48.3266335,60.1675385 L48.093949,60.3281083 L53.8858053,60.3281083 C55.6791284,60.3281083 57.0627481,59.1434837 57.1560378,57.2949777 L57.1610555,57.0944068 L63,57.4456715 C63,58.7680798 62.7540946,59.9923406 62.3093722,61.0822943 C62.3077,61.0825965 62.306028,61.082899 62.304356,61.0832016 C61.1294773,63.9681377 58.5188245,65.8879073 55.075946,65.9952534 L54.7700182,66 L52.4365332,66 L52.4375239,65.9990865 L40,66 L40,60.844674 C42.7834395,59.8838618 44.5989536,58.0965444 44.5989536,55.5188814 C44.5989536,55.1345565 44.5420291,54.7502316 44.4737197,54.3659067 L44.4210646,54.077663 L40.1308007,54.077663 L40.1308007,49.2736017 L42.6526388,49.2736017 C42.4054254,48.5458897 42.2263101,47.7469886 42.1398284,46.8457529 L42.1085077,46.4531528 L42.093393,46.1772685 C42.0840916,45.9916874 42.0771156,45.80228 42.0771156,45.605985 C42.0771156,42.9194989 43.4802702,40.2233587 46.0502758,38.5814396 L46.3202912,38.4153901 L46.6020799,38.254778 C48.0318187,37.4721734 49.7731034,37 51.8086897,37 Z M82.8496732,28.4250893 C92.3084967,28.4250893 100,36.1578063 100,45.6555999 C100,55.1586468 92.303268,62.8861105 82.8496732,62.8861105 C82.6352941,62.8861105 82.4261438,62.8808573 82.2117647,62.8703509 C82.5777778,61.7041395 82.8862745,60.5064089 83.1267974,59.2876655 C90.4836601,59.1405758 96.4235294,53.083631 96.4235294,45.6608531 C96.4235294,38.1435175 90.3320261,32.0235344 82.8496732,32.0235344 C80.9098039,32.0235344 79.0640523,32.4385375 77.3960784,33.1739861 C76.669281,32.1758773 75.8901961,31.2197941 75.0640523,30.3109897 C77.4013072,29.1080059 80.0470588,28.4250893 82.8496732,28.4250893 Z M75.384,43.15 L75.4857886,43.4214767 C76.2055321,45.400092 76.6968277,47.4882499 76.9267556,49.6546017 L76.925,49.649 C77.0014889,50.3534851 77.0496722,51.063514 77.0690931,51.7816561 L77.0788444,52.5025845 L77.0683556,52.9221768 L76.3446222,52.9221768 L76.3446222,52.9274217 L77.0631111,52.9274217 C77.0406349,54.2671201 76.9218322,55.583698 76.7100056,56.8705497 L76.597,57.506 L76.598,57.502 L76.6068444,57.5062229 L76.7204945,56.8653048 C76.8970167,55.7929284 77.0089389,54.6999087 77.05435,53.5900687 L77.0736,52.9221768 L77.0736,52.9169319 L77.0788444,52.7136919 L77.0840889,52.5130743 C77.0840889,51.548012 77.0316444,50.5986844 76.932,49.6598466 C78.1492632,49.0884281 78.9381961,48.187496 79.0178698,46.9659694 L79.017,46.955 L78.9965043,47.1677134 C78.8438984,48.281858 78.0776594,49.1115512 76.932,49.6493568 C76.6996308,47.4852287 76.2069633,45.3981915 75.4864812,43.4202157 L75.384,43.15 Z M23.3882353,7.785249 C32.2980392,7.785249 40.0522876,12.8125657 44.0052288,20.1933179 C42.4888889,20.503257 41.0091503,20.9235133 39.5712418,21.4383274 C36.2509804,15.9487287 30.2431373,12.2767388 23.3934641,12.2767388 C12.9568627,12.2767388 4.47058824,20.8026896 4.47058824,31.2880857 C4.47058824,39.7825173 10.0444444,46.9899138 17.7045752,49.4221475 C17.5947712,50.5305736 17.5372549,51.6547594 17.5372549,52.7894516 C17.5372549,53.2149611 17.5529412,53.6352175 17.5686275,54.0554738 C7.47712418,51.4446312 0,42.2305106 0,31.2880857 C0,18.3284303 10.4941176,7.785249 23.3882353,7.785249 Z M86.3529412,47.9617567 L89.7359477,48.1666316 C89.7359477,50.9931396 87.919319,53.0935772 85.2011319,53.2050497 L84.972549,53.2097079 L83.7490196,53.2097079 C83.7542484,53.0678714 83.7594771,52.9312881 83.7594771,52.7947048 C83.7594771,52.0540029 83.7300654,51.3221659 83.6800654,50.5947612 L83.6235294,49.8686699 L84.4601307,49.8686699 C85.5320261,49.8686699 86.3529412,49.1174617 86.3529412,47.9617567 Z M86.2849673,43.3494432 L86.2849673,46.1809204 L83.1111111,46.1809204 C82.9660131,45.4599181 82.7944444,44.7507354 82.6030229,44.0489402 L82.4052288,43.3494432 L86.2849673,43.3494432 Z M23.9633987,18.1550746 C29.4699588,18.1550746 31.4053614,21.9099232 31.50976,24.830361 L31.5137255,24.9947468 L26.854902,25.667157 C26.8183007,23.7865098 25.8666667,22.5467535 24.0313725,22.5467535 C22.6196078,22.5467535 21.3124183,23.4292919 21.3124183,25.3099391 C21.3124183,26.2531811 21.5107238,27.0054919 21.8008374,27.8066884 L21.9137255,28.109897 L28.1150327,28.109897 L28.1150327,28.4198361 C27.0931839,29.3744184 26.1327998,30.3946121 25.237173,31.4704929 L24.7947712,32.0130279 L23.1424837,32.0130279 C23.179085,32.2231561 23.179085,32.4385375 23.179085,32.6486657 C23.179085,33.3946207 23.048366,34.1405758 22.7764706,34.8392519 C22.4784314,35.3067871 22.1908497,35.7848287 21.9137255,36.2681236 C21.7045752,36.5076697 21.4686536,36.7304055 21.2006065,36.9336415 L21,37.077 L21.469281,37.077117 C20.7970121,38.3378861 20.201574,39.6488286 19.6928448,41.0033284 L19.4457516,41.6841773 L14.5464052,41.6841773 L14.5464052,37.5026266 C16.7686275,36.7251523 18.2169935,35.2700147 18.2169935,33.1792393 C18.2169935,32.8876865 18.175817,32.5961336 18.1265523,32.3045808 L18.075817,32.0130279 L14.6509804,32.0130279 L14.6509804,28.1151502 L16.6640523,28.1151502 C16.3816993,27.2641311 16.2039216,26.3080479 16.2039216,25.1365833 C16.2039216,21.6642152 19.0222222,18.1550746 23.9633987,18.1550746 Z M83.2575163,36.1157806 C87.2381462,36.1157806 88.6519689,38.8200169 88.7385789,40.9385025 L88.7424837,41.085312 L85.3594771,41.5738601 C85.3333333,40.2132801 84.6431373,39.3097289 83.3098039,39.3097289 C82.4888889,39.3097289 81.730719,39.7299853 81.448366,40.5915108 C80.9777778,39.388527 80.4444444,38.2223156 79.8431373,37.0928767 C80.7372549,36.4887581 81.8823529,36.1157806 83.2575163,36.1157806 Z M46.003,25.656 L46.0148252,25.7021745 L46.0148252,25.7021745 L46.1418667,26.2780649 L46.142891,26.2830515 C47.5585496,26.0472302 49.0161698,25.9214115 50.5,25.9214115 C57.9169835,25.9214115 64.6256322,28.9609864 69.4459226,33.8649267 L69.755,34.185 L69.7576,34.1821351 L69.445602,33.8600025 C64.6206085,28.9607656 57.9169835,25.9161666 50.5,25.9161666 C49.0158222,25.9161666 47.5578667,26.0420443 46.1418667,26.27282 L46.0148252,25.6994471 L46.0148252,25.6994471 L46.003,25.656 Z M64.820915,0 C71.3098039,0 76.5908497,5.3057365 76.5908497,11.8302164 C76.5908497,17.7978567 72.1620915,22.7463753 66.4366013,23.5396092 C63.3411765,21.8533305 59.9424837,20.6503467 56.345098,20.0252154 C54.3058824,17.8976676 53.0457516,15.0084051 53.0457516,11.8302164 C53.0457516,5.3057365 58.3267974,0 64.820915,0 Z M64.820915,3.59319185 C60.2980392,3.59319185 56.6222222,7.29144778 56.6222222,11.8302164 C56.6222222,16.3689851 60.2980392,20.0619878 64.820915,20.0619878 C69.3385621,20.0619878 73.0143791,16.3742383 73.0143791,11.8302164 C73.0143791,7.28619458 69.3385621,3.59319185 64.820915,3.59319185 Z M65.0875817,5.63668838 C67.6506536,5.63668838 68.5747651,7.36219162 68.6442802,8.73088544 L68.648366,8.86215592 L66.4522876,9.17734818 C66.4366013,8.29480983 65.9869281,7.70645094 65.124183,7.70645094 C64.4601307,7.70645094 63.8431373,8.12145409 63.8431373,9.00924564 C63.8431373,9.42512433 63.9230211,9.76074572 64.0464779,10.1133914 L64.1254902,10.3278 L67.0535948,10.3278 L67.0535948,12.1664215 L64.7058824,12.1664215 C64.7215686,12.2662324 64.7215686,12.3660433 64.7215686,12.4658542 C64.7215686,13.1975505 64.4781112,13.9383059 63.8446712,14.4441719 L63.6915033,14.5566295 L65.8718954,14.5566295 C66.5238562,14.5566295 67.0333538,14.1318587 67.0944942,13.4597858 L67.1006536,13.3221265 L69.296732,13.4534566 C69.296732,15.279398 68.1317572,16.635212 66.3900939,16.7360018 L66.2013072,16.7419626 L60.6431373,16.7419626 L60.6431373,14.7667577 C61.6888889,14.4042866 62.3738562,13.7161168 62.3738562,12.7285144 C62.3738562,12.6059396 62.357589,12.4833649 62.3374486,12.3607901 L62.3058824,12.1769279 L60.6901961,12.1769279 L60.6901961,10.3383064 L61.6418301,10.3383064 C61.5111111,9.93380962 61.427451,9.48203404 61.427451,8.93044757 C61.427451,7.29144778 62.7555556,5.63668838 65.0875817,5.63668838 Z" id="icon-money" fill="#ED0000"></path>
    </g>
</svg>