<?xml version="1.0" encoding="UTF-8"?>
<svg width="100px" height="98px" viewBox="0 0 100 98" version="1.1" xmlns="http://www.w3.org/2000/svg" xmlns:xlink="http://www.w3.org/1999/xlink">
    <title>Devices/Mobile/Unavilable</title>
    <g id="Devices/Mobile/Unavilable" stroke="none" stroke-width="1" fill="none" fill-rule="evenodd">
        <path d="M76.5450113,34.8440833 L76.5450113,88.6564713 C76.5450113,93.8086541 72.370808,98 67.2405725,98 L67.2405725,98 L34.7817855,98 C29.6511575,98 25.4773467,93.80826 25.4773467,88.6564713 L25.4773467,88.6564713 L25.4773467,79.5009325 L32.1491646,73.6665475 L32.1491646,78.7056211 C32.1491646,80.1657938 33.3277217,81.3493022 34.7817855,81.3493022 L34.7817855,81.3493022 L67.2405725,81.3493022 C68.6946363,81.3493022 69.8731933,80.1657938 69.8731933,78.7056211 L69.8731933,78.7056211 L69.8731933,40.6784683 L76.5450113,34.8440833 Z M50.9562346,84.605034 C49.4939291,84.605034 48.242767,85.1284104 47.2031408,86.1731925 C46.158805,87.2199451 45.6395806,88.4755754 45.6395806,89.9456008 C45.6395806,91.4136557 46.1591975,92.6712565 47.2031408,93.7160386 C48.242767,94.7627913 49.4939291,95.2841971 50.9562346,95.2841971 C52.419325,95.2841971 53.6708796,94.7627913 54.7120757,93.7160386 C55.7536642,92.6712565 56.2756358,91.4140498 56.2756358,89.9456008 C56.2756358,88.4755754 55.7532717,87.2199451 54.7120757,86.1731925 C53.6704871,85.1284104 52.419325,84.605034 50.9562346,84.605034 Z M96.1797792,9.83512849 C97.389733,11.2302732 97.2441304,13.3462428 95.8548224,14.5612798 L9.52699218,90.051616 C8.89513177,90.6041564 8.11452907,90.8753032 7.3374585,90.8753032 C6.40615121,90.8753032 5.47994589,90.4863179 4.82022083,89.7252941 C3.61026701,88.3301493 3.75586963,86.2141798 5.14517761,84.9991427 L91.4734003,9.5088065 C92.8631007,8.29416353 94.9698254,8.43998375 96.1797792,9.83512849 Z M67.2405725,1 C72.370808,1 76.5446189,5.19134586 76.5446189,10.3435287 L76.5446189,10.3435287 L76.5446189,19.1664398 L69.8728009,25.0008248 L69.8728009,20.7054342 C69.8728009,19.2452616 68.6942439,18.0617532 67.24018,18.0617532 L67.24018,18.0617532 L34.3375209,18.0617532 C33.5212044,18.0617532 32.1491646,19.2452616 32.1491646,20.7054342 L32.1491646,20.7054342 L32.1491646,57.9881158 L25.4773467,63.8225008 L25.4773467,10.3435287 C25.4773467,5.19134586 29.65155,1 34.7817855,1 L34.7817855,1 Z M56.2756358,9.47373083 L45.6403655,9.47373083 C44.931583,9.47373083 44.5760143,9.83158151 44.5760143,10.5425536 C44.5760143,11.2539198 44.931583,11.6105881 45.6403655,11.6105881 L45.6403655,11.6105881 L56.2756358,11.6105881 C56.9836335,11.6105881 57.3372398,11.2535256 57.3372398,10.5425536 C57.3372398,9.83158151 56.9836335,9.47373083 56.2756358,9.47373083 L56.2756358,9.47373083 Z" id="icon-mobile-unavilable" fill="#ED0000"></path>
    </g>
</svg>