<?xml version="1.0" encoding="UTF-8"?>
<svg width="100px" height="98px" viewBox="0 0 100 98" version="1.1" xmlns="http://www.w3.org/2000/svg" xmlns:xlink="http://www.w3.org/1999/xlink">
    <title>Devices/Cable</title>
    <g id="Devices/Cable" stroke="none" stroke-width="1" fill="none" fill-rule="evenodd">
        <path d="M99.8660015,47.0044007 C99.8000015,46.9372007 99.7096015,46.8992007 99.6156015,46.8992007 L99.2356015,46.8992007 L99.2356015,41.5596006 C99.2356015,41.3660006 99.0788015,41.2092006 98.8852015,41.2092006 L97.5224014,41.2092006 L97.5224014,37.5512005 L96.8216014,37.5512005 L96.8216014,41.2092006 L95.4716014,41.2092006 C95.2780014,41.2092006 95.1212014,41.3660006 95.1212014,41.5596006 L95.1212014,46.8992007 L94.7076014,46.8992007 C94.5172014,46.8992007 94.3616014,47.0512007 94.3572014,47.2416007 C94.1128014,57.7744008 90.7740013,67.401201 84.7012012,75.0812011 C78.5328012,82.8820012 69.803601,88.3608013 59.4576009,90.9256013 C57.9588008,91.2968013 56.3680008,91.4720013 55.0892008,91.6124013 L55.0508008,91.6168013 C54.5804008,91.6688013 54.1732008,91.7140013 53.8048008,91.7648013 C43.4084006,92.4036013 33.5900005,89.8308013 25.4108004,84.3240012 C17.2936002,78.8588011 11.5148002,71.005201 8.69840011,61.6116009 C4.95840006,49.1384007 7.02600009,36.0772005 14.3704002,25.7780003 C21.7316003,15.4552002 33.4392005,9.23200009 46.4920007,8.70400008 C61.5716009,8.09560008 76.3044011,17.3088002 82.3240012,31.1176004 C85.5172013,38.4424005 86.6640013,45.5452006 85.7328013,52.2284007 C84.7848012,59.0336008 81.6660012,65.4800009 76.4624011,71.388801 C71.9300011,76.5360011 66.698801,80.0864011 60.9136009,81.9416012 C55.1508008,83.7900012 48.8248007,83.9612012 42.1104006,82.4504012 C35.5692005,80.9788012 30.0880004,78.1744011 25.8200004,74.1160011 C21.5488003,70.054401 18.4552003,64.7024009 16.6260002,58.2076008 C14.0400002,49.0272007 15.6976002,38.8464005 21.0600003,30.9744004 C26.3596004,23.1952003 34.6796005,18.3680002 44.4876006,17.3820002 C50.5836007,16.7692002 56.5380008,17.9344002 61.7068009,20.7496003 C66.845601,23.5492003 71.092001,27.9100004 73.9860011,33.3616005 C76.8208011,38.7012005 77.9292011,44.6060006 77.1908011,50.4384007 C76.4532011,56.2644008 73.9196011,61.6380009 69.863201,65.9776009 C62.8256009,73.5072011 54.3140008,76.2864011 44.5652006,74.2376011 C39.5744006,73.189201 35.3944005,71.140001 32.1404005,68.148001 C28.9008004,65.1692009 26.4720004,61.1584009 24.9212004,56.2276008 C23.4740003,51.6252007 23.6672003,46.3444006 25.4656004,41.3584006 C27.2588004,36.3860005 30.4484004,32.2592004 34.4468005,29.7384004 C43.8100006,23.8356003 54.6968008,24.6464003 62.1828009,31.8040004 C66.668801,36.0936005 68.910801,41.0404006 68.833601,46.5124006 C68.833601,46.5236006 68.831201,46.5744006 68.831201,46.5876006 C68.831201,48.1348007 70.085601,49.3892007 71.6328011,49.3892007 C73.1800011,49.3892007 74.4344011,48.1348007 74.4344011,46.5876006 C74.4344011,46.5724006 74.4324011,46.5576006 74.4320011,46.5424006 C74.4324011,46.5360006 74.4360011,46.5304006 74.4360011,46.5240006 C74.5160011,39.4592005 71.6972011,33.1428004 66.058401,27.7512004 C61.4416009,23.3372003 55.6932008,20.7592003 49.4336007,20.2960003 C43.2712006,19.8404003 37.0540005,21.4656003 31.4560005,24.9952003 C21.0504003,31.5552004 15.8300002,46.0136006 19.5716003,57.9104008 C21.4208003,63.7908009 24.3724003,68.624401 28.3444004,72.276801 C32.3508005,75.9608011 37.4204005,78.4672011 43.4120006,79.7260011 C49.2964007,80.9620012 54.9136008,80.7148012 60.1068009,78.9904011 C65.176801,77.3072011 69.837601,74.2172011 73.9596011,69.807201 C78.8260012,64.6008009 81.8668012,58.1468008 82.7536012,51.1432007 C83.6380012,44.1572006 82.3184012,37.0992005 78.9384012,30.7324004 C71.9596011,17.5880002 58.5440009,10.3340001 43.9260006,11.8028001 C32.4400005,12.9568001 22.6732003,18.6444002 16.4244002,27.8172004 C13.3400002,32.3448004 11.2312002,37.6308005 10.3252001,43.1032006 C9.40960013,48.6340007 9.72160013,54.3828008 11.2272002,59.7276008 C15.4620002,74.7596011 25.7152004,84.5088012 40.8788006,87.9208013 C45.2660007,88.9084013 49.5684007,89.2692013 53.6660008,88.9928013 C64.0820009,88.2908013 73.1676011,83.6152012 80.6704012,75.0952011 C92.4596014,61.7076009 94.8088014,45.7252006 87.4640013,28.8764004 C84.0252012,20.9880003 78.1976012,14.3388002 70.611601,9.6476001 C63.2380009,5.08760003 54.5912008,2.7632 46.2636007,3.1004 C31.4668005,3.70000001 18.1780003,10.7788001 9.80400013,22.5220003 C1.44640001,34.2428005 -0.914800029,49.0772007 3.32640003,63.2220009 C4.92120006,68.542001 7.3884001,73.4760011 10.6588001,77.8872011 C13.8660002,82.2132012 17.7756002,85.9440012 22.2784003,88.9756013 C30.5756004,94.5620014 40.3360006,97.4684014 50.6952007,97.4684014 C51.8780008,97.4684014 53.0688008,97.4304014 54.2660008,97.3544014 L54.3648008,97.3484014 C54.3744008,97.3480014 54.3836008,97.3468014 54.3932008,97.3456014 L54.4916008,97.3312014 C54.8012008,97.2860014 55.2132008,97.2408014 55.7024008,97.1868014 C57.0712008,97.0360014 58.9460009,96.8296014 60.8064009,96.3684014 C72.3700011,93.5016013 82.1536012,87.3432013 89.0996013,78.5592011 C95.9576014,69.886001 99.7152015,59.0620008 99.9660806,47.2572007 C99.9680015,47.1628007 99.9320015,47.0720007 99.8660015,47.0044007 Z M98.5348015,46.8700007 L95.8220014,46.8700007 L95.8220014,44.7404006 L98.5348015,44.7404006 L98.5348015,46.8700007 Z M98.5348015,44.0396006 L95.8220014,44.0396006 L95.8220014,41.9100006 L98.5348015,41.9100006 L98.5348015,44.0396006 Z" id="icon-cable" fill="#ED0000"></path>
    </g>
</svg>