<?xml version="1.0" encoding="UTF-8"?>
<svg width="100px" height="100px" viewBox="0 0 100 100" version="1.1" xmlns="http://www.w3.org/2000/svg" xmlns:xlink="http://www.w3.org/1999/xlink">
    <title>App/Credit card</title>
    <g id="App/Credit-card" stroke="none" stroke-width="1" fill="none" fill-rule="evenodd">
        <path d="M81.2437018,9 L81.4364199,9.00670706 C81.8200025,9.03187795 82.3423935,9.10089401 82.9626279,9.23782684 C83.9515053,9.45614717 84.9367475,9.79595741 85.8764507,10.2950212 C88.6268507,11.7557221 90.4039757,14.2763235 90.5091546,17.7517915 L90.5140956,18.0804108 L90.5156912,59.713662 C95.5804429,62.6027771 99,68.0384635 99,74.2543501 C99,83.487952 91.4539644,91 82.1784484,91 C74.5326477,91 68.0618236,85.8956432 66.0241231,78.9302484 L7.55279365,78.6424839 L6.9429619,78.4245585 C6.6929153,78.3274052 6.37849363,78.1840263 6.01708932,77.9872835 C5.33245219,77.6145779 4.65322388,77.1408645 4.01451843,76.5487872 C2.23607434,74.9001769 1.11984079,72.6658352 1.03338762,69.9117464 L1.027971,69.5647831 L1.0280292,18.2069039 L1.01453199,18.0297567 C1.00286569,17.8293142 0.997477415,17.605358 1.00113132,17.3607672 L1.00790167,17.1094049 L1.0213144,16.8449262 C1.08514999,15.8242921 1.29214152,14.8008279 1.69910103,13.8125763 C2.88408885,10.9349775 5.46650165,9.10664151 9.22357602,9.00451423 L9.55812534,9 L81.2437018,9 Z M82.1784484,61.8300391 C75.2967196,61.8300391 69.6979423,67.4035095 69.6979423,74.2542817 C69.6979423,81.1050539 75.2967196,86.6785243 82.1784484,86.6785243 C89.0602991,86.6785243 94.6589544,81.1049324 94.6589544,74.2542817 C94.6589544,67.4035095 89.0602991,61.8300391 82.1784484,61.8300391 Z M82.0254776,79.5798644 C83.220308,79.5798644 84.1907018,80.54595 84.1907018,81.7353275 C84.1907018,82.924705 83.220308,83.8907906 82.0254776,83.8907906 C80.8306473,83.8907906 79.8602535,82.924705 79.8602535,81.7353275 C79.8602535,80.54595 80.8306473,79.5798644 82.0254776,79.5798644 Z M82.0351801,63.6657898 C83.128952,63.6657898 84.1027292,64.3765591 84.1889945,65.4000459 L84.1951978,65.5483426 L84.1951978,76.539714 C84.1951978,77.6421744 83.1810333,78.4223579 82.0351801,78.4223579 C80.9413547,78.4223579 79.9676261,77.7115297 79.8813653,76.6880938 L79.8751624,76.539805 L79.8751624,65.5483426 C79.8751624,64.4458499 80.8892366,63.6657898 82.0351801,63.6657898 Z M81.1333433,14.833992 L9.55812534,14.833992 C8.02581608,14.833992 7.44964931,15.2287472 7.12157007,16.0254477 C6.9804181,16.3682181 6.89713431,16.7800126 6.8703992,17.2074664 C6.85644537,17.4305669 6.85928251,17.6063803 6.86559098,17.7031765 L6.86968607,17.7515182 L6.88775488,17.91273 L6.88838238,69.5647478 C6.88838238,70.775202 7.29429675,71.6174058 8.00827729,72.2792628 C8.20294228,72.4597165 8.39637447,72.6063963 8.56579807,72.7188264 L8.68800829,72.7967198 L8.71819145,72.8141511 L37.5968786,72.9654028 L65.3966053,73.097462 C65.9954891,64.4013946 73.2935234,57.5085634 82.1784484,57.5085634 C83.019163,57.5085634 83.8456695,57.5702768 84.6536368,57.6893919 L84.6536842,18.0804108 C84.6536842,16.0231559 83.1430558,15.0814478 81.4278104,14.8641287 L81.2433107,14.8435986 L81.1333433,14.833992 Z M24.4649646,57.3795161 C26.0832726,57.3795161 27.3951703,58.6854997 27.3951703,60.2965121 C27.3951703,61.8455625 26.1822471,63.1125966 24.6502755,63.2077693 L24.4649646,63.2135081 L14.9450519,63.2135081 C13.326744,63.2135081 12.0148463,61.9075245 12.0148463,60.2965121 C12.0148463,58.7474617 13.2277695,57.4804276 14.7597411,57.3852549 L14.9450519,57.3795161 L24.4649646,57.3795161 Z M46.8647593,57.3795161 C48.4830672,57.3795161 49.7949649,58.6854997 49.7949649,60.2965121 C49.7949649,61.8455625 48.5820417,63.1125966 47.0500701,63.2077693 L46.8647593,63.2135081 L34.5448722,63.2135081 C32.9265643,63.2135081 31.6146665,61.9075245 31.6146665,60.2965121 C31.6146665,58.7474617 32.8275898,57.4804276 34.3595614,57.3852549 L34.5448722,57.3795161 L46.8647593,57.3795161 Z M80.1164514,36.2252962 C81.7347593,36.2252962 83.0466571,37.5312798 83.0466571,39.1422922 C83.0466571,40.6913426 81.8337338,41.9583767 80.3017622,42.0535494 L80.1164514,42.0592882 L17.6053967,42.0592882 C15.9870887,42.0592882 14.675191,40.7533046 14.675191,39.1422922 C14.675191,37.5932418 15.8881142,36.3262077 17.4200858,36.231035 L17.6053967,36.2252962 L80.1164514,36.2252962 Z M24.5327034,17.7509881 C26.0989209,17.7509881 27.3727489,18.9999927 27.3727489,20.5353933 L27.3727489,20.5353933 L27.3727489,26.6345668 C27.3727489,28.1699675 26.0989209,29.4189721 24.5327034,29.4189721 L24.5327034,29.4189721 L12.6315603,29.4189721 C11.0657486,29.4189721 9.79151481,28.1699675 9.79151481,26.6345668 L9.79151481,26.6345668 L9.79151481,20.5353933 C9.79151481,18.9999927 11.0657486,17.7509881 12.6315603,17.7509881 L12.6315603,17.7509881 Z M26.0203463,24.0490476 L20.996982,24.0490476 L20.1264404,25.5275668 L20.1264404,28.0930648 L24.5327034,28.0930648 C25.3532061,28.0930648 26.0203463,27.4387296 26.0203463,26.6345668 L26.0203463,26.6345668 L26.0203463,24.0490476 Z M19.1797586,25.8672643 L17.9849109,25.8672643 L17.9849109,28.0930648 L19.1797586,28.0930648 L19.1797586,25.8672643 Z M16.1675522,24.0490476 L11.1439174,24.0490476 L11.1439174,26.6345668 C11.1439174,27.4387296 11.8115986,28.0930648 12.6315603,28.0930648 L12.6315603,28.0930648 L17.038229,28.0930648 L17.038229,25.5275668 L16.1675522,24.0490476 Z M19.3796437,22.230831 L17.7847553,22.230831 L16.9873787,23.5849801 L17.7847553,24.9391292 L19.3796437,24.9391292 L20.1772908,23.5849801 L19.3796437,22.230831 Z M24.5327034,19.0768953 L20.1264404,19.0768953 L20.1264404,21.6423933 L20.996982,23.1209125 L26.0203463,23.1209125 L26.0203463,20.5353933 C26.0203463,19.7312306 25.3532061,19.0768953 24.5327034,19.0768953 L24.5327034,19.0768953 Z M17.038229,19.0768953 L12.6315603,19.0768953 C11.8115986,19.0768953 11.1439174,19.7312306 11.1439174,20.5353933 L11.1439174,20.5353933 L11.1439174,23.1209125 L16.1675522,23.1209125 L17.038229,21.6423933 L17.038229,19.0768953 Z M19.1797586,19.0768953 L17.9849109,19.0768953 L17.9849109,21.3026959 L19.1797586,21.3026959 L19.1797586,19.0768953 Z" id="icon-credit-card" fill="#ED0000"></path>
    </g>
</svg>