<?xml version="1.0" encoding="UTF-8"?>
<svg width="100px" height="100px" viewBox="0 0 100 100" version="1.1" xmlns="http://www.w3.org/2000/svg" xmlns:xlink="http://www.w3.org/1999/xlink">
    <title>Devices/Mobile/Data free</title>
    <g id="Devices/Mobile/Data-free" stroke="none" stroke-width="1" fill="none" fill-rule="evenodd">
        <path d="M48.3888,0.182 C75.5796,0.182 97.7008,22.3032 97.7008,49.494 C97.7008,58.104 95.48,66.2048 91.5852,73.2568 L91.5852,73.2568 L98.6116,94.3368 C99.0892,95.7704 98.7184,97.3508 97.6528,98.4228 C96.89,99.1896 95.864,99.602 94.816,99.602 C94.4,99.602 93.9808,99.5372 93.5724,99.4036 L93.5724,99.4036 L72.4872,92.5028 C65.3572,96.5136 57.136,98.806 48.3888,98.806 C21.198,98.806 -0.9232,76.6848 -0.9232,49.494 C-0.9232,22.3032 21.198,0.182 48.3888,0.182 Z M48.3884,8.182 C25.6088,8.182 7.0764,26.7144 7.0764,49.494 C7.0764,72.2736 25.6088,90.806 48.3884,90.806 C56.1212,90.806 63.3632,88.6684 69.5584,84.956 L69.5584,84.956 L88.4832,89.4016 L82.986,72.044 C87.2292,65.5556 89.7004,57.8084 89.7004,49.494 C89.7004,26.7148 71.168,8.182 48.3884,8.182 Z M58.6404,18.6948 C61.906,18.6948 64.5628,21.3516 64.5628,24.6172 L64.5628,24.6172 L64.5628,74.2552 C64.5628,77.5208 61.906,80.1776 58.6404,80.1776 L58.6404,80.1776 L37.9804,80.1776 C34.7148,80.1776 32.058,77.5208 32.058,74.2552 L32.058,74.2552 L32.058,24.6172 C32.058,21.3516 34.7148,18.6948 37.9804,18.6948 L37.9804,18.6948 Z M48.4756,71.6872 C47.5448,71.6872 46.7484,72.0188 46.0868,72.6812 C45.422,73.3448 45.0916,74.1404 45.0916,75.0724 C45.0916,76.0032 45.4224,76.8 46.0868,77.4624 C46.7484,78.126 47.5448,78.4564 48.4756,78.4564 C49.4068,78.4564 50.2032,78.126 50.866,77.4624 C51.5288,76.8 51.8612,76.0032 51.8612,75.0724 C51.8612,74.1404 51.5288,73.3448 50.866,72.6812 C50.2032,72.0188 49.4068,71.6872 48.4756,71.6872 Z M58.8404,29.5092 L37.8976,29.5092 C37.378,29.5092 36.5048,30.2592 36.5048,31.1848 L36.5048,31.1848 L36.5048,67.948 C36.5048,68.8736 37.2548,69.6236 38.1804,69.6236 L38.1804,69.6236 L58.8404,69.6236 C59.766,69.6236 60.516,68.8736 60.516,67.948 L60.516,67.948 L60.516,31.1848 C60.516,30.2592 59.7656,29.5092 58.8404,29.5092 L58.8404,29.5092 Z M51.8612,24.066 L45.0916,24.066 C44.6404,24.066 44.414,24.2928 44.414,24.7436 C44.414,25.1944 44.6404,25.4204 45.0916,25.4204 L45.0916,25.4204 L51.8612,25.4204 C52.3116,25.4204 52.5368,25.1944 52.5368,24.7436 C52.5368,24.2928 52.312,24.066 51.8612,24.066 L51.8612,24.066 Z" id="icon-data-free" fill="#ED0000"></path>
    </g>
</svg>