<?xml version="1.0" encoding="UTF-8"?>
<svg width="100px" height="100px" viewBox="0 0 100 100" version="1.1" xmlns="http://www.w3.org/2000/svg" xmlns:xlink="http://www.w3.org/1999/xlink">
    <title>Random/4g</title>
    <g id="Random/4g" stroke="none" stroke-width="1" fill="none" fill-rule="evenodd">
        <path d="M49.6682196,0.403849996 C77.0111193,0.403849996 99.1769491,22.5696798 99.1769491,49.9125796 C99.1769491,77.2554793 77.0111193,99.4213091 49.6682196,99.4213091 C22.3253198,99.4213091 0.159489999,77.2554793 0.159489999,49.9125796 C0.159489999,22.5696798 22.3253198,0.403849996 49.6682196,0.403849996 Z M38.4202797,71.2059294 L33.3678497,71.2059294 C32.8951197,71.2059294 32.5269397,71.5905094 32.5269397,72.0853794 L32.5269397,72.0853794 L32.5269397,77.3612593 C32.5269397,77.8565393 32.8951197,78.2407093 33.3678497,78.2407093 L33.3678497,78.2407093 L38.4202797,78.2407093 C38.8913697,78.2407093 39.2595497,77.8561293 39.2595497,77.3612593 L39.2595497,77.3612593 L39.2595497,72.0853794 C39.2595497,71.5900994 38.8909597,71.2059294 38.4202797,71.2059294 L38.4202797,71.2059294 Z M48.5189896,67.6885394 L43.4665596,67.6885394 C42.9938296,67.6885394 42.6256496,68.0751694 42.6256496,68.5679894 L42.6256496,68.5679894 L42.6256496,77.3612593 C42.6256496,77.8565393 42.9938296,78.2407093 43.4665596,78.2407093 L43.4665596,78.2407093 L48.5189896,78.2407093 C48.9900796,78.2407093 49.3582596,77.8561293 49.3582596,77.3612593 L49.3582596,77.3612593 L49.3582596,68.5679894 C49.3582596,68.0747594 48.9896696,67.6885394 48.5189896,67.6885394 L48.5189896,67.6885394 Z M58.6168795,60.6562195 L53.5644495,60.6562195 C53.0917195,60.6562195 52.7235395,61.0407995 52.7235395,61.5356695 L52.7235395,61.5356695 L52.7235395,77.3612593 C52.7235395,77.8565393 53.0917195,78.2407093 53.5644495,78.2407093 L53.5644495,78.2407093 L58.6168795,78.2407093 C59.0879695,78.2407093 59.4561495,77.8561293 59.4561495,77.3612593 L59.4561495,77.3612593 L59.4561495,61.5356695 C59.4561495,61.0403895 59.0875595,60.6562195 58.6168795,60.6562195 L58.6168795,60.6562195 Z M68.7151794,50.1040496 L63.6627494,50.1040496 C63.1896094,50.1040496 62.8234795,50.4886296 62.8234795,50.9834996 L62.8234795,50.9834996 L62.8234795,77.3612593 C62.8234795,77.8565393 63.1900194,78.2407093 63.6627494,78.2407093 L63.6627494,78.2407093 L68.7151794,78.2407093 C69.1862694,78.2407093 69.5544494,77.8561293 69.5544494,77.3612593 L69.5544494,77.3612593 L69.5544494,50.9834996 C69.5544494,50.4882196 69.1858594,50.1040496 68.7151794,50.1040496 L68.7151794,50.1040496 Z M78.8138893,36.0369497 L73.7614594,36.0369497 C73.2887294,36.0369497 72.9205494,36.4235797 72.9205494,36.9163997 L72.9205494,36.9163997 L72.9205494,77.3612593 C72.9205494,77.8565393 73.2887294,78.2407093 73.7614594,78.2407093 L73.7614594,78.2407093 L78.8138893,78.2407093 C79.2849793,78.2407093 79.6531593,77.8561293 79.6531593,77.3612593 L79.6531593,77.3612593 L79.6531593,36.9163997 C79.6531593,36.4231697 79.2845693,36.0369497 78.8138893,36.0369497 L78.8138893,36.0369497 Z M39.0069897,12.5599399 C26.6007998,12.5599399 16.5434999,22.6172398 16.5434999,35.0234297 C16.5434999,47.4296196 26.6007998,57.4869195 39.0069897,57.4869195 C51.4131796,57.4869195 61.4704795,47.4296196 61.4704795,35.0234297 C61.4704795,22.6172398 51.4131796,12.5599399 39.0069897,12.5599399 Z M46.9618096,24.0186198 C50.9863696,24.0186198 54.3151595,26.3019098 55.4463495,29.8348797 C55.5574595,30.1854297 55.3848495,30.5618097 55.0474195,30.7065397 L55.0474195,30.7065397 L52.8350595,31.6503597 C52.6513795,31.7303097 52.4381795,31.7245697 52.2565495,31.6429797 C52.0749195,31.5576997 51.9359295,31.4002597 51.8764795,31.2091997 C51.1716896,28.9669097 49.3799896,27.6799198 46.9618096,27.6799198 C44.2094796,27.6799198 41.4333696,29.6048697 41.4333696,33.9057697 C41.4333696,38.2398797 44.1598696,40.1795896 46.8617696,40.1795896 C49.8494396,40.1795896 51.0974796,38.3862497 51.4701696,37.0045497 L51.4701696,37.0045497 L46.1901896,37.0045497 C45.7969996,37.0045497 45.4780196,36.6855697 45.4780196,36.2923797 L45.4780196,36.2923797 L45.4780196,34.1037997 C45.4780196,33.7106097 45.7969996,33.3916297 46.1901896,33.3916297 L46.1901896,33.3916297 L54.6189695,33.3916297 C55.0121595,33.3916297 55.3311395,33.7106097 55.3311395,34.1037997 L55.3311395,34.1037997 L55.3311395,42.7318396 C55.3311395,43.1250296 55.0121595,43.4440096 54.6189695,43.4440096 L54.6189695,43.4440096 L52.6550695,43.4440096 C52.2860695,43.4440096 51.9781595,43.1619296 51.9465895,42.7966196 L51.9465895,42.7966196 L51.8781195,42.0360696 C50.7543096,43.0319596 49.0556796,43.8162896 46.7875596,43.8162896 C42.1824396,43.8162896 37.5219697,40.4112396 37.5219697,33.9053597 C37.5219697,27.4142398 42.2718196,24.0186198 46.9618096,24.0186198 Z M32.3424397,23.9185798 C32.7356297,23.9185798 33.0546097,24.2375598 33.0546097,24.6307498 L33.0546097,24.6307498 L33.0546097,35.3981697 L35.4432697,35.3981697 C35.8364597,35.3981697 36.1554397,35.7171497 36.1554397,36.1107497 L36.1554397,36.1107497 L36.1554397,38.6531597 C36.1554397,39.0463497 35.8364597,39.3653297 35.4432697,39.3653297 L35.4432697,39.3653297 L33.0546097,39.3653297 L33.0546097,42.7314296 C33.0546097,43.1246196 32.7356297,43.4435996 32.3424397,43.4435996 L32.3424397,43.4435996 L29.6885097,43.4435996 C29.2953197,43.4435996 28.9763397,43.1246196 28.9763397,42.7314296 L28.9763397,42.7314296 L28.9763397,39.3653297 L20.8050398,39.3653297 C20.4118498,39.3653297 20.0928698,39.0463497 20.0928698,38.6531597 L20.0928698,38.6531597 L20.0928698,35.4965697 C20.0928698,35.3481497 20.1391998,35.2034197 20.2265298,35.0828797 L20.2265298,35.0828797 L27.9935698,24.2170598 C28.1268198,24.0296898 28.3420698,23.9185798 28.5720798,23.9185798 L28.5720798,23.9185798 Z M28.9763397,29.4654697 L24.7090598,35.3981697 L28.9763397,35.3981697 L28.9763397,29.4654697 Z" id="icon-4g" fill="#ED0000"></path>
    </g>
</svg>