<?xml version="1.0" encoding="UTF-8"?>
<svg width="100px" height="100px" viewBox="0 0 100 100" version="1.1" xmlns="http://www.w3.org/2000/svg" xmlns:xlink="http://www.w3.org/1999/xlink">
    <title>Paper/Secure file</title>
    <g id="Paper/Secure-file" stroke="none" stroke-width="1" fill="none" fill-rule="evenodd">
        <path d="M55.8259754,1 C57.3218244,1 58.6602964,1.68102275 59.5533269,2.75263625 L88.5824682,32.1514544 C88.9219664,32.3595309 89.2279671,32.6278046 89.5727301,32.9754787 C90.486436,33.8965163 91,35.1466714 91,36.4503694 L91,87.9376002 C91,94.5887198 85.6375153,100 79.0463713,100 L21.9536287,100 C15.3619979,100 10,94.5887198 10,87.9371089 L10,13.0623998 C10,6.41078898 15.3624847,1 21.9536287,1 L55.8259754,1 Z M50.9580699,10.8244012 L21.9536287,10.8244012 C20.751256,10.8244012 19.735811,11.8490863 19.735811,13.0623998 L19.735811,87.9371089 C19.735811,89.1504225 20.751256,90.1755988 21.9536287,90.1755988 L79.0463713,90.1755988 C80.248744,90.1755988 81.264189,89.1504225 81.264189,87.9371089 L81.264189,41.1881869 C75.5843169,41.1061532 65.2555951,41.0629258 55.8259754,41.0629258 C54.5350069,41.0629258 53.2970985,40.5451798 52.3838794,39.6241422 C51.4711471,38.7031046 50.9580699,37.4534408 50.9580699,36.1507252 L50.9580699,10.8244012 Z M41.5,44.0571017 C47.4350112,44.0571017 52.2845825,48.7459386 52.4394764,54.5759387 L52.4432932,54.8635644 L52.443,57.854 L52.4765732,57.8615618 C54.8938993,58.4307371 56.7169188,60.4873989 56.9233803,62.9783369 L56.9382797,63.2207158 L56.9428983,63.4511239 L56.9428983,78.1920863 C56.9428983,81.2931277 54.4513504,83.8227634 51.3481805,83.9387437 L51.1255107,83.9428983 L31.8744893,83.9428983 C28.7434266,83.9428983 26.1789008,81.4853062 26.0613139,78.4125874 L26.0571017,78.1920863 L26.0571017,63.4513695 C26.0571017,60.8328121 27.8415047,58.6054875 30.2919108,57.9212409 L30.556,57.854 L30.5569557,54.8635644 C30.5569557,49.0933145 35.1561754,44.3707736 40.9198756,44.072098 L41.2090151,44.0608664 L41.5,44.0571017 Z M51.1255107,63.0234894 L31.8744893,63.0234894 C31.6537519,63.0234894 31.4725576,63.1780176 31.4350173,63.3753402 L31.4278769,63.4511239 L31.4278769,78.1918407 C31.4278769,78.3981161 31.5845448,78.5755638 31.7937697,78.61245 L31.8744893,78.6194753 L51.1255107,78.6194753 C51.3462481,78.6194753 51.5274424,78.4649471 51.5649827,78.2676245 L51.5721231,78.1918407 L51.5721231,63.4511239 C51.5721231,63.2190642 51.3738402,63.0234894 51.1255107,63.0234894 Z M41.5,49.3800337 C38.4985588,49.3800337 36.0467552,51.7278638 35.9317042,54.6488375 L35.927482,54.8635644 L35.927,57.7 L47.072,57.7 L47.072518,54.8633189 C47.072518,51.915411 44.692383,49.4976575 41.7186255,49.3841975 L41.5,49.3800337 Z M60.693,17.827 L60.6938809,31.2434368 C63.5050963,31.248349 67.205678,31.2576821 70.8911693,31.2758573 C71.9790974,31.2812096 73.0132334,31.2870739 73.9921063,31.293443 L60.693,17.827 Z" id="icon-secure-file" fill="#ED0000"></path>
    </g>
</svg>