<?xml version="1.0" encoding="UTF-8"?>
<svg width="100px" height="100px" viewBox="0 0 100 100" version="1.1" xmlns="http://www.w3.org/2000/svg" xmlns:xlink="http://www.w3.org/1999/xlink">
    <title>Data/Download</title>
    <g id="Data/Download" stroke="none" stroke-width="1" fill="none" fill-rule="evenodd">
        <path d="M53.3561644,48.1578941 C55.0773258,48.1578941 56.4958802,49.4495323 56.6897494,51.1135602 L56.7123288,51.5037587 L56.7134197,64.328367 C56.769808,64.5871543 56.7995941,64.8566056 56.7995941,65.133378 L56.7995941,65.133378 L56.7995941,82.7480533 L60.9437568,78.3951056 C61.6111597,77.6936568 62.4865739,77.3431432 63.3615866,77.3431432 C64.2365992,77.3431432 65.1116118,77.6936568 65.7794163,78.3951056 C67.1146238,79.7980033 67.1146238,82.0723341 65.7794163,83.47481 L65.7794163,83.47481 L55.7984897,93.9590026 C55.1298821,94.6612951 54.2544679,95.0004201 53.3786521,94.9999987 L53.3786521,94.9999987 L53.3449205,94.9993657 L53.3449205,94.9993657 L53.3336767,94.9983111 C52.4582625,95.0004201 51.5824467,94.6612951 50.9142406,93.9590026 L50.9142406,93.9590026 L40.9329124,83.47481 C39.597705,82.0723341 39.597705,79.7980033 40.9329124,78.3951056 C41.6003154,77.6936568 42.4757296,77.3431432 43.3507422,77.3431432 C44.2257549,77.3431432 45.1007675,77.6936568 45.768572,78.3951056 L45.768572,78.3951056 L49.9127347,82.7480533 L49.9127347,65.133378 C49.9127347,64.8548084 49.9429088,64.5836552 50.0000109,64.3233271 L50,51.5037587 C50,49.6558887 51.502606,48.1578941 53.3561644,48.1578941 Z M52.7690706,6 C65.1856359,6 76.1332936,13.8442851 80.7931288,25.8047805 L80.7931288,25.8047805 L80.9975342,26.3528944 L81.1669846,26.378735 C91.0250392,27.9152135 98.6215861,36.81828 98.986285,47.3932622 L98.986285,47.3932622 L99,48.1894317 C99,59.1020938 91.5938932,68.285355 81.1317207,69.9932871 L81.1317207,69.9932871 L70.2366083,70.2406005 C68.3542053,70.2406005 66.8829936,68.6760879 66.8829936,66.8081912 C66.8829936,64.9402946 68.3542053,63.3757819 70.2366083,63.3757819 L70.2366083,63.3757819 L78.6516209,63.3851548 L79.4294127,63.3099623 C86.7414763,62.6014893 92.2927706,56.1287589 92.2927706,48.1894317 C92.2927706,39.9822901 86.0462406,33.1911163 78.4535822,33.0133456 L78.4535822,33.0133456 L76.016906,32.9556992 L75.3184613,30.5675305 C72.2107851,19.9544881 63.1459009,12.8648186 52.7690706,12.8648186 C42.2733706,12.8648186 32.9125808,20.3994828 30.0443508,31.2285409 L30.0443508,31.2285409 L29.1383289,34.6470679 L25.8264657,33.6119851 C24.5358238,33.2081073 23.2020426,33.0036514 21.8614942,33.0036514 C14.0884619,33.0036514 7.70722943,39.7895672 7.70722943,48.1894317 C7.70722943,56.5894236 14.088586,63.3757819 21.8614942,63.3757819 L21.8614942,63.3757819 L35.2854538,63.3757819 C37.1678569,63.3757819 38.6390686,64.9402946 38.6390686,66.8081912 C38.6390686,68.6760879 37.1678569,70.2406005 35.2854538,70.2406005 L35.2854538,70.2406005 L21.8614942,70.2406005 C10.3262433,70.2406005 1,60.3227133 1,48.1894317 C1,36.0566236 10.3263358,26.1388328 21.8614942,26.1388328 C22.6181276,26.1388328 23.3733699,26.1822809 24.1242275,26.2688032 L24.1242275,26.2688032 L24.5569178,26.3294734 L24.9618638,25.2975301 C29.6064251,14.0217509 40.1007079,6.38952323 51.8607998,6.01447501 L51.8607998,6.01447501 Z" id="icon-data-download" fill="#ED0000"></path>
    </g>
</svg>