<?xml version="1.0" encoding="UTF-8"?>
<svg width="100px" height="100px" viewBox="0 0 100 100" version="1.1" xmlns="http://www.w3.org/2000/svg" xmlns:xlink="http://www.w3.org/1999/xlink">
    <title>Random/Clock</title>
    <g id="Random/Clock" stroke="none" stroke-width="1" fill="none" fill-rule="evenodd">
        <path d="M49.9995885,0.224691358 C77.4213992,0.224691358 99.7308642,22.5341564 99.7308642,49.9559671 C99.7308642,77.3777778 77.4213992,99.6872428 49.9995885,99.6872428 C22.5777778,99.6872428 0.268312757,77.3777778 0.268312757,49.9559671 C0.268312757,22.5341564 22.5777778,0.224691358 49.9995885,0.224691358 Z M49.9995885,8.45514403 C27.1160494,8.45514403 8.49876543,27.072428 8.49876543,49.9559671 C8.49876543,72.8395062 27.1160494,91.4567901 49.9995885,91.4567901 C72.8831276,91.4567901 91.5004115,72.8395062 91.5004115,49.9559671 C91.5004115,27.072428 72.8831276,8.45514403 49.9995885,8.45514403 Z M49.5366255,14.8337449 C51.8090535,14.8337449 53.6518519,16.6761317 53.6518519,18.9489712 L53.6518519,47.6111111 L71.3604938,58.1041152 C73.3156379,59.2625514 73.9617284,61.7872428 72.8032922,63.7423868 C72.0345679,65.0395062 70.6646091,65.7604938 69.2588477,65.7604938 C68.545679,65.7604938 67.8234568,65.5748971 67.1650206,65.1851852 L47.4386831,53.4967078 C46.1880658,52.7555556 45.4213992,51.4102881 45.4213992,49.9563786 L45.4213992,18.9489712 C45.4213992,16.6761317 47.263786,14.8337449 49.5366255,14.8337449 Z" id="icon-clock" fill="#ED0000"></path>
    </g>
</svg>