<?xml version="1.0" encoding="UTF-8"?>
<svg width="100px" height="100px" viewBox="0 0 100 100" version="1.1" xmlns="http://www.w3.org/2000/svg" xmlns:xlink="http://www.w3.org/1999/xlink">
    <title>Transport/Train</title>
    <g id="Transport/Train" stroke="none" stroke-width="1" fill="none" fill-rule="evenodd">
        <path d="M67.3120332,0.278423237 C75.1116183,0.278423237 81.4572614,6.62406639 81.4572614,14.4236515 L81.4572614,14.4236515 L81.4572614,61.1215768 C81.4572614,68.4684647 75.8257261,74.5232365 68.653112,75.2012448 L68.653112,75.2012448 L94.3576763,93.3518672 C95.9485477,94.4755187 96.3278008,96.6763485 95.2037344,98.2676349 C94.5165975,99.2406639 93.426556,99.7605809 92.319917,99.7605809 C91.6165975,99.7605809 90.906639,99.5506224 90.2883817,99.1141079 L90.2883817,99.1141079 L86.6921162,96.5746888 L14.3954357,96.5746888 L10.7991701,99.1141079 C10.1809129,99.5506224 9.47053942,99.7605809 8.76763485,99.7605809 C7.66058091,99.7605809 6.57053942,99.2406639 5.88340249,98.2676349 C4.75975104,96.6763485 5.13900415,94.4755187 6.73029046,93.3518672 L6.73029046,93.3518672 L32.4145228,75.2153527 C25.1522822,74.6261411 19.4219917,68.5323651 19.4219917,61.1211618 L19.4219917,61.1211618 L19.4219917,14.4236515 C19.4219917,6.62365145 25.7676349,0.278423237 33.5672199,0.278423237 L33.5672199,0.278423237 Z M71.6161826,85.9286307 L29.4717842,85.9286307 L24.3850622,89.520332 L76.7029046,89.520332 L71.6161826,85.9286307 Z M56.5161826,75.26639 L44.5709544,75.26639 L39.4609959,78.8746888 L61.626556,78.8746888 L56.5161826,75.26639 Z M73.1585062,48.6879668 L27.7207469,48.6879668 L27.7207469,61.1211618 C27.7207469,64.3452282 30.3435685,66.9676349 33.5672199,66.9676349 L33.5672199,66.9676349 L67.3120332,66.9676349 C70.5360996,66.9676349 73.1585062,64.3452282 73.1585062,61.1211618 L73.1585062,61.1211618 L73.1585062,48.6879668 Z M63.0912863,52.3792531 C66.0990611,52.3792531 68.5373444,54.8175364 68.5373444,57.8253112 C68.5373444,60.833086 66.0990611,63.2713693 63.0912863,63.2713693 C60.0835115,63.2713693 57.6452282,60.833086 57.6452282,57.8253112 C57.6452282,54.8175364 60.0835115,52.3792531 63.0912863,52.3792531 Z M37.9182573,52.3792531 C40.9260321,52.3792531 43.3643154,54.8175364 43.3643154,57.8253112 C43.3643154,60.833086 40.9260321,63.2713693 37.9182573,63.2713693 C34.9104824,63.2713693 32.4721992,60.833086 32.4721992,57.8253112 C32.4721992,54.8175364 34.9104824,52.3792531 37.9182573,52.3792531 Z M73.1585062,24.6215768 L27.7207469,24.6215768 L27.7207469,40.3892116 L73.1585062,40.3892116 L73.1585062,24.6215768 Z M67.3120332,8.57717842 L33.5672199,8.57717842 C30.3435685,8.57717842 27.7207469,11.2 27.7207469,14.4236515 L27.7207469,14.4236515 L27.7207469,16.3228216 L73.1585062,16.3228216 L73.1585062,14.4236515 C73.1585062,11.2 70.5360996,8.57717842 67.3120332,8.57717842 L67.3120332,8.57717842 Z" id="icon-train" fill="#ED0000"></path>
    </g>
</svg>