<?xml version="1.0" encoding="UTF-8"?>
<svg width="100px" height="100px" viewBox="0 0 100 100" version="1.1" xmlns="http://www.w3.org/2000/svg" xmlns:xlink="http://www.w3.org/1999/xlink">
    <title>Paper/Notebook</title>
    <g id="Paper/Notebook" stroke="none" stroke-width="1" fill="none" fill-rule="evenodd">
        <path d="M67.7546559,0.0939271255 C69.9902834,0.0939271255 71.8032389,1.90647773 71.8032389,4.14251012 L71.8032389,4.14251012 L71.8032389,8.82145749 L76.2368421,8.82145749 C83.6121457,8.82145749 89.6121457,14.8214575 89.6121457,22.1963563 L89.6121457,22.1963563 L89.6121457,86.3805668 C89.6121457,93.7558704 83.6121457,99.7558704 76.237247,99.7558704 L76.237247,99.7558704 L23.4101215,99.7558704 C16.0352227,99.7558704 10.0352227,93.7554656 10.0352227,86.3805668 L10.0352227,86.3805668 L10.0352227,22.1967611 C10.0352227,14.8214575 16.0352227,8.82145749 23.4101215,8.82145749 L23.4101215,8.82145749 L28.0797571,8.82145749 L28.0797571,4.14251012 C28.0797571,1.90647773 29.8923077,0.0939271255 32.1283401,0.0939271255 C34.3643725,0.0939271255 36.1769231,1.90647773 36.1769231,4.14251012 L36.1769231,4.14251012 L36.1769231,8.82145749 L45.8927126,8.82145749 L45.8927126,4.14251012 C45.8927126,1.90647773 47.7052632,0.0939271255 49.9412955,0.0939271255 C52.1769231,0.0939271255 53.9898785,1.90647773 53.9898785,4.14251012 L53.9898785,4.14251012 L53.9898785,8.82145749 L63.7060729,8.82145749 L63.7060729,4.14251012 C63.7060729,1.90647773 65.5190283,0.0939271255 67.7546559,0.0939271255 Z M28.0797571,16.9182186 L23.4101215,16.9182186 C20.5072874,16.9182186 18.1323887,19.2935223 18.1323887,22.1963563 L18.1323887,22.1963563 L18.1323887,86.3801619 C18.1323887,89.2834008 20.5072874,91.6582996 23.4101215,91.6582996 L23.4101215,91.6582996 L76.237247,91.6582996 C79.140081,91.6582996 81.5149798,89.282996 81.5149798,86.3801619 L81.5149798,86.3801619 L81.5149798,22.1967611 C81.5149798,19.2939271 79.140081,16.9182186 76.237247,16.9182186 L76.237247,16.9182186 L71.8036437,16.9182186 L71.8036437,22.1680162 C71.8036437,24.4040486 69.9906883,26.2165992 67.7550607,26.2165992 C65.5194332,26.2165992 63.7064777,24.4040486 63.7064777,22.1680162 L63.7064777,22.1680162 L63.7064777,16.9182186 L53.9902834,16.9182186 L53.9902834,22.1680162 C53.9902834,24.4040486 52.1773279,26.2165992 49.9417004,26.2165992 C47.705668,26.2165992 45.8931174,24.4040486 45.8931174,22.1680162 L45.8931174,22.1680162 L45.8931174,16.9182186 L36.1769231,16.9182186 L36.1769231,22.1676113 C36.1769231,24.4036437 34.3643725,26.2161943 32.1283401,26.2161943 C29.8923077,26.2161943 28.0797571,24.4036437 28.0797571,22.1676113 L28.0797571,22.1676113 L28.0797571,16.9182186 Z M68.8145749,64.0206478 C70.3797571,64.0206478 71.648583,65.2894737 71.648583,66.8546559 C71.648583,68.4198381 70.3797571,69.688664 68.8145749,69.688664 L68.8145749,69.688664 L31.6481781,69.688664 C30.082996,69.688664 28.81417,68.4198381 28.81417,66.8546559 C28.81417,65.2894737 30.082996,64.0206478 31.6481781,64.0206478 L31.6481781,64.0206478 Z M68.8145749,53.6295547 C70.3797571,53.6295547 71.648583,54.8983806 71.648583,56.4635628 C71.648583,58.0287449 70.3797571,59.2975709 68.8145749,59.2975709 L68.8145749,59.2975709 L31.6481781,59.2975709 C30.082996,59.2975709 28.81417,58.0287449 28.81417,56.4635628 C28.81417,54.8983806 30.082996,53.6295547 31.6481781,53.6295547 L31.6481781,53.6295547 Z M68.8145749,43.4506073 C70.3797571,43.4506073 71.648583,44.7194332 71.648583,46.2846154 C71.648583,47.8497976 70.3797571,49.1186235 68.8145749,49.1186235 L68.8145749,49.1186235 L31.6481781,49.1186235 C30.082996,49.1186235 28.81417,47.8497976 28.81417,46.2846154 C28.81417,44.7194332 30.082996,43.4506073 31.6481781,43.4506073 L31.6481781,43.4506073 Z" id="icon-notebook" fill="#ED0000"></path>
    </g>
</svg>