<?xml version="1.0" encoding="UTF-8"?>
<svg width="100px" height="100px" viewBox="0 0 100 100" version="1.1" xmlns="http://www.w3.org/2000/svg" xmlns:xlink="http://www.w3.org/1999/xlink">
    <title>Network/Coverage</title>
    <g id="Network/Coverage" stroke="none" stroke-width="1" fill="none" fill-rule="evenodd">
        <path d="M50.3055988,17.5903986 C52.0128213,17.5903986 53.3967985,18.9743758 53.3967985,20.6815983 C53.3967985,21.1370642 53.298293,21.5695229 53.1214241,21.9588324 L54.0015985,21.9583982 C54.9423984,21.9583982 55.6815983,22.6303981 55.7487983,23.571198 L62.5359977,96.0127915 C62.6031977,97.0207914 61.9311977,97.8943913 60.9231978,97.9615913 L60.8559978,97.9615913 L60.8559978,97.9615913 C59.9151979,97.9615913 59.175998,97.2895913 59.108798,96.3487914 L59.072,95.9718 L50.037,88.7998 L40.9647996,96.6175914 C40.9206396,96.6617514 40.8764796,96.6986565 40.8299359,96.7283068 C40.5989259,97.5203533 39.824591,98.0199774 38.9487998,97.9615913 C37.9407999,97.8943913 37.2688,97.0207914 37.336,96.0127915 L44.1231994,23.571198 C44.1903993,22.6303981 44.9967993,21.9583982 45.8703992,21.9583982 L47.4897735,21.9588324 C47.3129046,21.5695229 47.2143991,21.1370642 47.2143991,20.6815983 C47.2143991,18.9743758 48.5983763,17.5903986 50.3055988,17.5903986 Z M42.191,82.5718 L41.037,94.8568 L48.994,87.9728 L42.191,82.5718 Z M57.761,82.1438 L51.072,87.9068 L58.896,94.1178 L57.761,82.1438 Z M49.987,75.0098 L42.735,81.2888 L50.028,87.0778 L57.294,80.7908 L49.987,75.0098 Z M43.392,69.7908 L42.455,79.7668 L48.923,74.1668 L43.392,69.7908 Z M56.545,69.3318 L51.021,74.1148 L57.484,79.2288 L56.545,69.3318 Z M49.949,62.2978 L43.585,67.7308 L43.541,68.1958 L49.956,73.2718 L56.39,67.7018 L56.358,67.3638 L49.949,62.2978 Z M44.5,57.9898 L43.752,65.9498 L48.924,61.4868 L44.5,57.9898 Z M55.432,57.6168 L51.023,61.3808 L56.176,65.4548 L55.432,57.6168 Z M50.356,51.0468 L45.1983993,55.4911951 C45.0639993,55.5583951 44.9295993,55.6255951 44.7279993,55.6255951 L44.722,55.6248 L44.654,56.3468 L49.992,60.5658 L55.279,56.0038 L55.172,54.8708 L50.356,51.0468 Z M45.513,47.2008 L44.874,54.0098 L49.293,50.2018 L45.513,47.2008 Z M54.473,47.5008 L51.411,50.1388 L54.992,52.9658 L54.473,47.5008 Z M50.353,41.6728 L45.714,45.6418 L50.344,49.2968 L54.319,45.8728 L54.213,44.7608 L50.353,41.6728 Z M46.335,38.4578 L45.829,43.8458 L49.315,40.8418 L46.335,38.4578 Z M53.653,38.8498 L51.433,40.7488 L54.027,42.7968 L53.653,38.8498 Z M50.333,32.2798 L46.611,35.5138 L46.486,36.8428 L50.384,39.9208 L53.5,37.2368 L53.249,34.5948 L50.333,32.2798 Z M47.152,29.7528 L46.792,33.5898 L49.271,31.4358 L47.152,29.7528 Z M52.824,30.1158 L51.382,31.3678 L53.069,32.6998 L52.824,30.1158 Z M52.3887986,25.5199979 L47.550399,25.5199979 L47.303,28.1478 L50.316,30.5268 L52.669,28.4828 L52.3887986,25.5199979 Z M50.3055988,12.1471991 C52.1871986,12.1471991 54.0015985,12.886399 55.3455983,14.2303989 L53.5311985,16.0447987 C52.6575986,15.1711988 51.5151987,14.7007988 50.3055988,14.7007988 C49.0959989,14.7007988 47.953599,15.1711988 47.0799991,16.0447987 L45.2655992,14.2303989 C46.5388623,12.9571358 48.2343126,12.2266849 50.0091213,12.1533224 L50.3055988,12.1471991 Z M50.3055988,7.03999954 C53.7999985,7.03999954 57.0255982,8.38399942 59.444798,10.8703992 L57.6303981,12.684799 C55.6815983,10.7359992 53.0607985,9.6607993 50.2383988,9.6607993 C47.550399,9.59359931 44.9295993,10.7359992 42.9135995,12.684799 L41.0991996,10.8703992 C43.5183994,8.45119941 46.8111991,7.03999954 50.3055988,7.03999954 Z M63.6111976,7.5103995 L61.7967977,9.32479933 C55.4799983,3.00799991 45.1311993,3.00799991 38.8143998,9.32479933 L37,7.5103995 C44.3247993,0.185600165 56.2863982,0.185600165 63.6111976,7.5103995 Z" id="icon-coverage" fill="#ED0000"></path>
    </g>
</svg>