<?xml version="1.0" encoding="UTF-8"?>
<svg width="100px" height="100px" viewBox="0 0 100 100" version="1.1" xmlns="http://www.w3.org/2000/svg" xmlns:xlink="http://www.w3.org/1999/xlink">
    <title>Random/UHD</title>
    <g id="Random/UHD" stroke="none" stroke-width="1" fill="none" fill-rule="evenodd">
        <path d="M50.2568007,1.3332 C77.2336011,1.3332 99.1800015,23.2800003 99.1800015,50.2568007 C99.1800015,77.2336011 77.2332011,99.1800015 50.2568007,99.1800015 C23.2800003,99.1800015 1.3332,77.2332011 1.3332,50.2568007 C1.3332,23.2804003 23.2800003,1.3332 50.2568007,1.3332 Z M50.2568007,9.33320012 C27.6916004,9.33320012 9.33320012,27.6916004 9.33320012,50.2568007 C9.33320012,72.8220011 27.6916004,91.1800013 50.2568007,91.1800013 C72.8220011,91.1800013 91.1800013,72.8220011 91.1800013,50.2568007 C91.1800013,27.6916004 72.8220011,9.33320012 50.2568007,9.33320012 Z M20.6628003,37.5636005 C21.1044003,37.5636005 21.5640003,37.9112006 21.5640003,38.3528006 L21.5640003,38.3528006 L21.5640003,54.1780008 C21.5640003,57.3792008 23.2220003,59.1420009 26.1808004,59.1420009 C29.9456004,59.1420009 30.7640004,56.4424008 30.7640004,54.1780008 L30.7640004,54.1780008 L30.7640004,38.3528006 C30.7640004,37.9108006 30.9644004,37.5636005 31.4060005,37.5636005 L31.4060005,37.5636005 L34.7484005,37.5636005 C35.1904005,37.5636005 35.5636005,37.9112006 35.5640005,38.3528006 L35.5640005,38.3528006 L35.5640005,54.2804008 C35.5640005,60.0912009 31.7336005,63.8460009 25.9640004,63.8460009 C20.1944003,63.8460009 16.3640002,60.0912009 16.3640002,54.2804008 L16.3640002,54.2804008 L16.3640002,38.3528006 C16.3640002,37.9108006 16.9128002,37.5636005 17.3544002,37.5636005 L17.3544002,37.5636005 Z M43.8908006,37.5636005 C44.3328006,37.5636005 44.7640007,37.9112006 44.7640007,38.3528006 L44.7640007,38.3528006 L44.7640007,47.9636007 L55.5640006,47.9636007 L55.5640006,38.3528006 C55.5640006,37.9108006 55.7956008,37.5636005 56.2372008,37.5636005 L56.2372008,37.5636005 L59.5792009,37.5636005 C60.0212009,37.5636005 60.3636009,37.9112006 60.3636009,38.3528006 L60.3636009,38.3528006 L60.3636009,62.5344009 C60.3636009,62.9764009 60.0208009,63.1640009 59.5792009,63.1640009 L59.5792009,63.1640009 L56.2372008,63.1640009 C55.7956008,63.1640009 55.5640006,62.9760009 55.5640006,62.5344009 L55.5640006,62.5344009 L55.5640006,52.7640008 L44.7640007,52.7640008 L44.7640007,62.5344009 C44.7640007,62.9764009 44.3324006,63.1640009 43.8908006,63.1640009 L43.8908006,63.1640009 L40.5484006,63.1640009 C40.1064006,63.1640009 39.5640006,62.9760009 39.5640006,62.5344009 L39.5640006,62.5344009 L39.5640006,38.3528006 C39.5640006,37.9108006 40.1068006,37.5636005 40.5484006,37.5636005 L40.5484006,37.5636005 Z M74.1788011,37.5636005 C77.5228011,37.5636005 80.5792012,38.7360006 82.7848012,40.8748006 C85.1972013,43.2144006 86.4728013,46.4972007 86.4728013,50.4552007 C86.4728013,54.3928008 85.1840013,57.6552008 82.7456012,59.9764009 C80.5280012,62.0868009 77.4616011,63.1640009 74.1108011,63.1640009 L74.1108011,63.1640009 L65.720401,63.1640009 C65.278801,63.1640009 64.764001,62.9760009 64.764001,62.5344009 L64.764001,62.5344009 L64.764001,38.3528006 C64.764001,37.9108006 65.278801,37.5636005 65.720401,37.5636005 L65.720401,37.5636005 Z M74.0764011,41.9636006 L69.963601,41.9636006 L69.963601,58.7636009 L74.0080011,58.7636009 C77.5948011,58.7636009 81.4276012,56.5140008 81.4276012,50.4148007 C81.4276012,44.2400006 77.6304011,41.9636006 74.0764011,41.9636006 L74.0764011,41.9636006 Z" id="icon-uhd" fill="#ED0000"></path>
    </g>
</svg>