<?xml version="1.0" encoding="UTF-8"?>
<svg width="100px" height="100px" viewBox="0 0 100 100" version="1.1" xmlns="http://www.w3.org/2000/svg" xmlns:xlink="http://www.w3.org/1999/xlink">
    <title>Devices/Mobile/calls</title>
    <g id="Devices/Mobile/calls" stroke="none" stroke-width="1" fill="none" fill-rule="evenodd">
        <path d="M53.0825911,-2.84217094e-14 C58.3748988,-2.84217094e-14 62.6809717,4.30566802 62.6809717,9.59838057 L62.6809717,9.59838057 L62.6809717,90.0469636 C62.6809717,95.3396761 58.3748988,99.6453441 53.0825911,99.6453441 L53.0825911,99.6453441 L19.5983806,99.6453441 C14.305668,99.6453441 10,95.3392713 10,90.0469636 L10,90.0469636 L10,9.59838057 C10,4.30566802 14.3060729,-2.84217094e-14 19.5983806,-2.84217094e-14 L19.5983806,-2.84217094e-14 Z M36.2838057,85.8854251 C34.7753036,85.8854251 33.4846154,86.4230769 32.4121457,87.4963563 C31.3348178,88.5716599 30.7991903,89.8615385 30.7991903,91.3716599 C30.7991903,92.8797571 31.3352227,94.1716599 32.4121457,95.2449393 C33.4846154,96.3202429 34.7753036,96.8558704 36.2838057,96.8558704 C37.7931174,96.8558704 39.0842105,96.3202429 40.1582996,95.2449393 C41.2327935,94.1716599 41.7712551,92.8801619 41.7712551,91.3716599 C41.7712551,89.8615385 41.2323887,88.5716599 40.1582996,87.4963563 C39.0838057,86.4230769 37.7931174,85.8854251 36.2838057,85.8854251 Z M53.0821862,17.5271255 L19.140081,17.5271255 C18.2979757,17.5271255 16.8825911,18.742915 16.8825911,20.242915 L16.8825911,20.242915 L16.8825911,79.8246964 C16.8825911,81.3246964 18.0983806,82.5404858 19.5983806,82.5404858 L19.5983806,82.5404858 L53.0825911,82.5404858 C54.5825911,82.5404858 55.7983806,81.3246964 55.7983806,79.8246964 L55.7983806,79.8246964 L55.7979757,79.8246964 L55.7979757,20.242915 C55.7979757,18.742915 54.5821862,17.5271255 53.0821862,17.5271255 L53.0821862,17.5271255 Z M81.9417004,29.9866397 C87.002834,35.2898785 89.782996,42.2137652 89.7712921,49.4825911 C89.759919,56.751417 86.9562753,63.6663968 81.8773279,68.9534413 C81.0821862,69.7809717 80.0202429,70.1975709 78.957085,70.1975709 C77.9481781,70.1975709 76.9380567,69.8226721 76.1526316,69.0688259 C74.5404858,67.5198381 74.488664,64.957085 76.0376518,63.3441296 C79.6639676,59.5692308 81.665587,54.6417004 81.6740891,49.4692308 C81.6825911,44.2967611 79.697166,39.3631579 76.0838057,35.5765182 C74.5404858,33.9591093 74.6,31.3963563 76.2174089,29.8526316 C77.8348178,28.3093117 80.3975709,28.3684211 81.9417004,29.9866397 Z M73.6093117,40.2105263 C76.065587,42.7846154 77.4153846,46.1283401 77.4101368,49.6251012 C77.4044534,53.1222672 76.0437247,56.4615385 73.5785425,59.0279352 C72.7834008,59.8554656 71.7214575,60.2720648 70.6578947,60.2720648 C69.6489879,60.2720648 68.6388664,59.897166 67.8538462,59.1433198 C66.2412955,57.5947368 66.1894737,55.0315789 67.7384615,53.4190283 C68.7510121,52.3647773 69.3101215,51.0125506 69.3125506,49.6117409 C69.3149798,48.211336 68.7603239,46.8578947 67.751417,45.8004049 C66.2080972,44.1825911 66.2676113,41.6198381 67.8854251,40.0765182 C69.5020243,38.5327935 72.0651822,38.5927126 73.6093117,40.2105263 Z M41.7712551,8.7048583 L30.8,8.7048583 C30.0684211,8.7048583 29.7020243,9.07246964 29.7020243,9.80283401 C29.7020243,10.5336032 30.0688259,10.9 30.8,10.9 L30.8,10.9 L41.7712551,10.9 C42.5016194,10.9 42.8663968,10.5331984 42.8663968,9.80283401 C42.8663968,9.07246964 42.5016194,8.7048583 41.7712551,8.7048583 L41.7712551,8.7048583 Z" id="icon-calls" fill="#ED0000"></path>
    </g>
</svg>