<?xml version="1.0" encoding="UTF-8"?>
<svg width="100px" height="100px" viewBox="0 0 100 100" version="1.1" xmlns="http://www.w3.org/2000/svg" xmlns:xlink="http://www.w3.org/1999/xlink">
    <title>App/Pound dots</title>
    <g id="App/Pound-dots" stroke="none" stroke-width="1" fill="none" fill-rule="evenodd">
        <path d="M50,0 C51.9265747,0 53.4883721,1.56179738 53.4883721,3.48837209 C53.4883721,5.4149468 51.9265747,6.97674419 50,6.97674419 C26.2389119,6.97674419 6.97674419,26.2389119 6.97674419,50 C6.97674419,73.7610881 26.2389119,93.0232558 50,93.0232558 C73.7610881,93.0232558 93.0232558,73.7610881 93.0232558,50 C93.0232558,48.0734253 94.5850532,46.5116279 96.5116279,46.5116279 C98.4382026,46.5116279 100,48.0734253 100,50 C100,77.6142375 77.6142375,100 50,100 C22.3857625,100 0,77.6142375 0,50 C0,22.3857625 22.3857625,0 50,0 Z M49.8286654,27.9069767 C52.4786403,27.9069767 54.7174122,28.2846353 56.544981,29.0399523 C58.3725499,29.7952693 59.834605,30.7727384 60.9311463,31.9723596 C62.0276877,33.1719808 62.8272491,34.4937856 63.3298305,35.937774 C63.8324119,37.3817625 64.1065473,38.7702129 64.1522365,40.1031253 L64.1522365,40.1031253 L56.6135149,41.3027465 C56.5678256,39.0812258 55.9510212,37.4039777 54.7631014,36.2710021 C53.5751816,35.1380266 51.9760588,34.5715388 49.9657331,34.5715388 C48.3209211,34.5715388 46.8474437,35.0824886 45.5453009,36.1043881 C44.243158,37.1262876 43.5920866,38.6591369 43.5920866,40.7029359 C43.5920866,41.9469875 43.7748435,43.1243935 44.1403573,44.2351538 C44.5058711,45.3459142 44.9399187,46.4566745 45.4425001,47.5674348 L45.4425001,47.5674348 L58.3268607,47.5674348 L58.3268607,53.8987688 L47.4299813,53.8987688 C47.4756705,54.1653513 47.5099374,54.4319338 47.532782,54.6985163 C47.5556266,54.9650987 47.5670489,55.2316812 47.5670489,55.4982637 C47.5670489,57.5420627 47.0987344,59.4192477 46.1621054,61.1298187 C45.2254763,62.8403896 43.7976881,64.2066248 41.8787408,65.2285243 L41.8787408,65.2285243 L54.0092292,65.2285243 C56.019555,65.2285243 57.5272993,64.6064985 58.5324622,63.3624469 C59.5376251,62.1183954 60.0402065,60.6521917 60.0402065,58.963836 L60.0402065,58.963836 L67.4418605,59.7635834 C67.4418605,61.5408 67.1677251,63.1847253 66.6194545,64.6953594 C66.0711838,66.2059934 65.2830447,67.505583 64.2550372,68.5941282 C63.2270297,69.6826733 61.9819984,70.5379588 60.5199433,71.1599846 C59.0578882,71.7820104 57.4130763,72.0930233 55.5855074,72.0930233 L55.5855074,72.0930233 L32.5581395,72.0930233 L32.5581395,65.1618787 C34.8426006,64.3177008 36.6359026,63.1069721 37.9380454,61.5296924 C39.2401882,59.9524127 39.8912597,58.2085189 39.8912597,56.2980112 C39.8912597,55.8981374 39.868415,55.4982637 39.8227258,55.09839 C39.7770366,54.6985163 39.7085028,54.2986425 39.6171243,53.8987688 L39.6171243,53.8987688 L32.9008087,53.8987688 L32.9008087,47.5674348 L37.286974,47.5674348 C36.8300818,46.5455353 36.4531457,45.4792054 36.1561658,44.3684451 C35.8591858,43.2576847 35.7106958,41.9914179 35.7106958,40.5696447 C35.7106958,38.8368585 36.053365,37.2040408 36.7387033,35.6711916 C37.4240417,34.1383423 38.3835153,32.7943223 39.6171243,31.6391315 C40.8507333,30.4839407 42.335633,29.5731173 44.0718235,28.9066611 C45.8080139,28.2402048 47.7269612,27.9069767 49.8286654,27.9069767 Z M95.818688,31.5456739 C96.4205489,33.0782395 96.9459984,34.6414918 97.3926641,36.2305175 C97.8271172,37.7760961 96.9263719,39.3812288 95.3807933,39.8156818 C93.8352147,40.2501348 92.230082,39.3493896 91.795629,37.803811 C91.401592,36.4020134 90.9380551,35.0229561 90.4070796,33.6708913 C89.820217,32.1765169 90.5559007,30.489341 92.0502751,29.9024784 C93.5446495,29.3156158 95.2318254,30.0512995 95.818688,31.5456739 Z M88.353437,18.658106 C89.3829964,19.9436877 90.3484054,21.2795319 91.2457194,22.6606354 C92.1204103,24.0069185 91.7381093,25.8073738 90.3918261,26.6820647 C89.045543,27.5567556 87.2450877,27.1744546 86.3703968,25.8281714 C85.5778139,24.6082651 84.7249794,23.4281911 83.8153866,22.2924084 C82.8118017,21.0392604 83.0141126,19.2098169 84.2672606,18.206232 C85.5204086,17.2026471 87.3498521,17.404958 88.353437,18.658106 Z M77.5389125,8.63443234 C78.8993219,9.56367544 80.2129662,10.5599569 81.4748758,11.6192203 C82.7045543,12.6514284 82.8646356,14.4850497 81.8324275,15.7147282 C80.8002194,16.9444066 78.9665981,17.1044879 77.7369197,16.0722798 C76.6219581,15.1363666 75.4613824,14.2561739 74.2596252,13.4353 C72.9339022,12.5297498 72.5932849,10.7209455 73.4988351,9.39522252 C74.4043852,8.06949953 76.2131895,7.72888217 77.5389125,8.63443234 Z M64.188639,2.19644604 C65.7659769,2.68244511 67.3159493,3.24667717 68.8335924,3.88663649 C70.3129266,4.51044171 71.0064698,6.21537305 70.3826646,7.69470724 C69.7588594,9.17404142 68.0539281,9.86758468 66.5745939,9.24377946 C65.2356038,8.67915452 63.8682021,8.18138313 62.4766999,7.75264255 C60.9423986,7.27990362 60.0818323,5.65287604 60.5545712,4.11857474 C61.0273102,2.58427344 62.6543377,1.72370711 64.188639,2.19644604 Z" id="icon-pound-dots" fill="#ED0000"></path>
    </g>
</svg>