<?xml version="1.0" encoding="UTF-8"?>
<svg width="100px" height="100px" viewBox="0 0 100 100" version="1.1" xmlns="http://www.w3.org/2000/svg" xmlns:xlink="http://www.w3.org/1999/xlink">
    <title>Products/websafe</title>
    <g id="Products/websafe" stroke="none" stroke-width="1" fill="none" fill-rule="evenodd">
        <path d="M52.1358566,0.593625498 L94.0832669,23.1207171 C95.2294821,23.736255 96.0023904,24.87251 96.1549801,26.1645418 C96.2243028,26.7545817 97.8047809,40.8051793 93.1984064,56.876494 C86.9992032,78.5055777 72.5462151,93.3115538 51.4023904,99.6936255 C51.0270916,99.8067729 50.6390438,99.8633466 50.250996,99.8633466 C49.8629482,99.8633466 49.4752988,99.8063745 49.0996016,99.6932271 C27.9553785,93.3111554 13.5023904,78.5051793 7.30278884,56.8760956 C2.69641434,40.8047809 4.27689243,26.7545817 4.34661355,26.1641434 C4.49880478,24.8721116 5.27211155,23.7358566 6.41832669,23.1203187 L48.3657371,0.593625498 C49.5430279,-0.0386454183 50.9585657,-0.0386454183 52.1358566,0.593625498 Z M50.250996,8.62589641 L12.1099602,29.1091633 C11.8816733,33.3434263 11.774502,43.7099602 15.0334661,54.9247012 C20.4486056,73.559761 32.2932271,85.9286853 50.250996,91.7063745 C68.2896414,85.9023904 80.1589641,73.450996 85.5390438,54.6808765 C88.7414343,43.5079681 88.6278884,33.3031873 88.3960159,29.110757 L50.250996,8.62589641 Z M50.2717131,14.6458167 C59.0976096,14.6458167 66.2772908,21.825498 66.2772908,30.650996 L66.2772908,30.650996 L66.2772908,36.814741 C70.2988048,37.1227092 73.4788845,40.4864542 73.4788845,44.5856574 L73.4788845,44.5856574 L73.4788845,68.5051793 C73.4788845,72.8071713 69.9792829,76.3067729 65.6772908,76.3067729 L65.6772908,76.3067729 L34.8661355,76.3067729 C30.5645418,76.3067729 27.0645418,72.8071713 27.0645418,68.5051793 L27.0645418,68.5051793 L27.0645418,44.5860558 C27.0645418,40.4864542 30.2450199,37.1231076 34.2665339,36.814741 L34.2665339,36.814741 L34.2665339,30.650996 C34.2665339,21.825498 41.4462151,14.6458167 50.2717131,14.6458167 Z M65.6772908,42.361753 L34.8661355,42.361753 C33.6398406,42.361753 32.6422311,43.3593625 32.6422311,44.5856574 L32.6422311,44.5856574 L32.6422311,68.5047809 C32.6422311,69.7310757 33.6398406,70.7286853 34.8661355,70.7286853 L34.8661355,70.7286853 L65.6772908,70.7286853 C66.9035857,70.7286853 67.9011952,69.7310757 67.9011952,68.5047809 L67.9011952,68.5047809 L67.9011952,44.5856574 C67.9011952,43.3593625 66.9035857,42.361753 65.6772908,42.361753 L65.6772908,42.361753 Z M50.2717131,43.3458167 C57.5386454,43.3458167 63.4505976,49.2577689 63.4505976,56.5247012 C63.4505976,63.7916335 57.5390438,69.7039841 50.2717131,69.7039841 C43.0043825,69.7039841 37.0924303,63.7916335 37.0924303,56.5247012 C37.0924303,49.2577689 43.0047809,43.3458167 50.2717131,43.3458167 Z M48.8772908,61.7920319 L46.5087649,61.7920319 C47.0749004,63.8832669 47.9434263,65.4701195 48.8772908,66.2912351 L48.8772908,66.2912351 L48.8772908,61.7920319 Z M54.0346614,61.7920319 L51.6661355,61.7920319 L51.6661355,66.2912351 C52.6,65.4701195 53.4681275,63.8832669 54.0346614,61.7920319 L54.0346614,61.7920319 Z M43.6119522,61.7920319 L41.3207171,61.7920319 C42.1832669,63.2525896 43.3916335,64.4848606 44.8342629,65.374502 C44.3266932,64.3270916 43.9123506,63.1219124 43.6119522,61.7920319 L43.6119522,61.7920319 Z M59.2227092,61.7916335 L56.9314741,61.7916335 C56.6310757,63.1219124 56.2167331,64.3266932 55.7091633,65.3741036 C57.1513944,64.4848606 58.359761,63.2521912 59.2227092,61.7916335 L59.2227092,61.7916335 Z M43.1916335,53.8418327 L40.2346614,53.8418327 C40.0055777,54.698008 39.8816733,55.5972112 39.8816733,56.5247012 C39.8816733,57.3788845 39.987251,58.2083665 40.1824701,59.0031873 L40.1824701,59.0031873 L43.1729084,59.0031873 C43.0960159,58.2039841 43.0541833,57.3768924 43.0541833,56.5247012 C43.0541833,55.6 43.1015936,54.7035857 43.1916335,53.8418327 L43.1916335,53.8418327 Z M48.8772908,53.8418327 L46.0063745,53.8418327 C45.9007968,54.6912351 45.8426295,55.589243 45.8426295,56.5247012 C45.8426295,57.3856574 45.8928287,58.2139442 45.9832669,59.0031873 L45.9832669,59.0031873 L48.8772908,59.0031873 L48.8772908,53.8418327 Z M54.5370518,53.8418327 L51.6661355,53.8418327 L51.6661355,59.0031873 L54.5601594,59.0031873 C54.6505976,58.2139442 54.7007968,57.3856574 54.7007968,56.5247012 C54.7007968,55.5896414 54.6426295,54.6912351 54.5370518,53.8418327 L54.5370518,53.8418327 Z M60.3087649,53.8418327 L57.3521912,53.8418327 C57.4422311,54.7035857 57.4896414,55.6 57.4896414,56.5247012 C57.4896414,57.3772908 57.4478088,58.2039841 57.3709163,59.0031873 L57.3709163,59.0031873 L60.3609562,59.0031873 C60.5561753,58.2083665 60.661753,57.3788845 60.661753,56.5247012 C60.661753,55.5972112 60.5378486,54.6984064 60.3087649,53.8418327 L60.3087649,53.8418327 Z M55.7095618,47.6756972 C56.1908367,48.6685259 56.5868526,49.8043825 56.8824701,51.052988 L56.8824701,51.052988 L59.0988048,51.052988 C58.2458167,49.6820717 57.0836653,48.523506 55.7095618,47.6756972 Z M51.6661355,46.7589641 L51.6661355,51.052988 L53.9792829,51.052988 C53.4123506,49.061753 52.5697211,47.5521912 51.6661355,46.7589641 L51.6661355,46.7589641 Z M48.8772908,46.7589641 C47.9733068,47.5521912 47.1306773,49.061753 46.5641434,51.052988 L46.5641434,51.052988 L48.8772908,51.052988 Z M44.8342629,47.6756972 C43.459761,48.5231076 42.2972112,49.6820717 41.4446215,51.052988 L41.4446215,51.052988 L43.6613546,51.052988 C43.9569721,49.8043825 44.352988,48.6685259 44.8342629,47.6756972 Z M50.2717131,20.2231076 C44.5219124,20.2231076 39.8438247,24.9011952 39.8438247,30.650996 L39.8438247,30.650996 L39.8438247,36.7840637 L60.6996016,36.7840637 L60.6996016,30.6505976 C60.6996016,24.9007968 56.0219124,20.2231076 50.2717131,20.2231076 Z" id="icon-websafe" fill="#ED0000"></path>
    </g>
</svg>