<?xml version="1.0" encoding="UTF-8"?>
<svg width="100px" height="100px" viewBox="0 0 100 100" version="1.1" xmlns="http://www.w3.org/2000/svg" xmlns:xlink="http://www.w3.org/1999/xlink">
    <title>Devices/Mobile/Apps</title>
    <g id="Devices/Mobile/Apps" stroke="none" stroke-width="1" fill="none" fill-rule="evenodd">
        <path d="M66.9604006,1.0184 C72.0994421,1.0184 76.2970076,5.12697497 76.4402235,10.2320108 L76.4440008,10.5016001 L76.4440008,89.9848013 C76.4440008,95.1238428 72.3350395,99.3210219 67.23037,99.4642246 L66.9608006,99.4680015 L33.8784001,99.4680015 C28.7393587,99.4680015 24.5421796,95.3590402 24.3989769,90.2543707 L24.3952,89.9848013 L24.3952,10.5016001 C24.3952,5.36255869 28.5041613,1.16537955 33.6088307,1.02217689 L33.8784001,1.0184 L66.9604006,1.0184 Z M50.3636004,85.8732013 C48.8732004,85.8732013 47.5980004,86.4044013 46.5384003,87.4648013 C45.4744003,88.5272013 44.9448003,89.8016013 44.9448003,91.2936013 C44.9448003,92.7840014 45.4740003,94.0600014 46.5384003,95.1204014 C47.5980004,96.1828014 48.8732004,96.7120014 50.3636004,96.7120014 C51.8548004,96.7120014 53.1300004,96.1828014 54.1916004,95.1204014 C55.2528005,94.0600014 55.7852005,92.7836014 55.7852005,91.2936013 C55.7852005,89.8016013 55.2532005,88.5272013 54.1916004,87.4648013 C53.1304004,86.4044013 51.8548004,85.8732013 50.3636004,85.8732013 Z M66.9604006,18.3352003 L33.4256001,18.3352003 C32.6268801,18.3352003 31.3061659,19.4422262 31.2017867,20.841967 L31.1952001,21.0184003 L31.1952001,79.8852012 C31.1952001,81.3102012 32.305777,82.4755858 33.7086987,82.5631228 L33.8784001,82.5684012 L66.9604006,82.5684012 C68.3854007,82.5684012 69.5507853,81.4578243 69.6383223,80.0549027 L69.6436007,79.8852012 L69.6436007,21.0184003 C69.6436007,19.5364003 68.4424007,18.3352003 66.9604006,18.3352003 Z M62.4916006,70.140801 C62.9508006,70.140801 63.3104006,70.517601 63.3104006,70.998801 L63.3104006,75.8744011 C63.3104006,76.3572011 62.9512006,76.7324011 62.4916006,76.7324011 L57.5624005,76.7324011 C57.1012005,76.7324011 56.7420005,76.3576011 56.7420005,75.8744011 L56.7420005,70.998801 C56.7420005,70.518001 57.1012005,70.140801 57.5624005,70.140801 L62.4916006,70.140801 Z M52.5852004,70.140801 C53.0444004,70.140801 53.4040004,70.517601 53.4040004,70.998801 L53.4040004,75.8744011 C53.4040004,76.3572011 53.0448004,76.7324011 52.5852004,76.7324011 L47.6560004,76.7324011 C47.1948003,76.7324011 46.8356003,76.3576011 46.8356003,75.8744011 L46.8356003,70.998801 C46.8356003,70.518001 47.1948003,70.140801 47.6560004,70.140801 L52.5852004,70.140801 Z M42.8476003,70.140801 C43.3068003,70.140801 43.6664003,70.517601 43.6664003,70.998801 L43.6664003,75.8744011 C43.6664003,76.3572011 43.3072003,76.7324011 42.8476003,76.7324011 L37.9184002,76.7324011 C37.4572002,76.7324011 37.0980002,76.3576011 37.0980002,75.8744011 L37.0980002,70.998801 C37.0980002,70.518001 37.4572002,70.140801 37.9184002,70.140801 L42.8476003,70.140801 Z M62.4916006,61.2816009 C62.9508006,61.2816009 63.3104006,61.6584009 63.3104006,62.1396009 L63.3104006,67.015201 C63.3104006,67.498001 62.9512006,67.873201 62.4916006,67.873201 L57.5624005,67.873201 C57.1012005,67.873201 56.7420005,67.498401 56.7420005,67.015201 L56.7420005,62.1396009 C56.7420005,61.6588009 57.1012005,61.2816009 57.5624005,61.2816009 L62.4916006,61.2816009 Z M52.5852004,61.2816009 C53.0444004,61.2816009 53.4040004,61.6584009 53.4040004,62.1396009 L53.4040004,67.015201 C53.4040004,67.498001 53.0448004,67.873201 52.5852004,67.873201 L47.6560004,67.873201 C47.1948003,67.873201 46.8356003,67.498401 46.8356003,67.015201 L46.8356003,62.1396009 C46.8356003,61.6588009 47.1948003,61.2816009 47.6560004,61.2816009 L52.5852004,61.2816009 Z M42.8476003,61.2816009 C43.3068003,61.2816009 43.6664003,61.6584009 43.6664003,62.1396009 L43.6664003,67.015201 C43.6664003,67.498001 43.3072003,67.873201 42.8476003,67.873201 L37.9184002,67.873201 C37.4572002,67.873201 37.0980002,67.498401 37.0980002,67.015201 L37.0980002,62.1396009 C37.0980002,61.6588009 37.4572002,61.2816009 37.9184002,61.2816009 L42.8476003,61.2816009 Z M62.4916006,52.4224008 C62.9508006,52.4224008 63.3104006,52.7992008 63.3104006,53.2804008 L63.3104006,58.1560009 C63.3104006,58.6388009 62.9512006,59.0140009 62.4916006,59.0140009 L57.5624005,59.0140009 C57.1012005,59.0140009 56.7420005,58.6392009 56.7420005,58.1560009 L56.7420005,53.2804008 C56.7420005,52.7996008 57.1012005,52.4224008 57.5624005,52.4224008 L62.4916006,52.4224008 Z M52.5852004,52.4224008 C53.0444004,52.4224008 53.4040004,52.7992008 53.4040004,53.2804008 L53.4040004,58.1560009 C53.4040004,58.6388009 53.0448004,59.0140009 52.5852004,59.0140009 L47.6560004,59.0140009 C47.1948003,59.0140009 46.8356003,58.6392009 46.8356003,58.1560009 L46.8356003,53.2804008 C46.8356003,52.7996008 47.1948003,52.4224008 47.6560004,52.4224008 L52.5852004,52.4224008 Z M42.8476003,52.4224008 C43.3068003,52.4224008 43.6664003,52.7992008 43.6664003,53.2804008 L43.6664003,58.1560009 C43.6664003,58.6388009 43.3072003,59.0140009 42.8476003,59.0140009 L37.9184002,59.0140009 C37.4572002,59.0140009 37.0980002,58.6392009 37.0980002,58.1560009 L37.0980002,53.2804008 C37.0980002,52.7996008 37.4572002,52.4224008 37.9184002,52.4224008 L42.8476003,52.4224008 Z M62.4916006,43.5632006 C62.9508006,43.5632006 63.3104006,43.9400006 63.3104006,44.4212006 L63.3104006,49.2968007 C63.3104006,49.7796007 62.9512006,50.1548007 62.4916006,50.1548007 L57.5624005,50.1548007 C57.1012005,50.1548007 56.7420005,49.7800007 56.7420005,49.2968007 L56.7420005,44.4212006 C56.7420005,43.9404006 57.1012005,43.5632006 57.5624005,43.5632006 L62.4916006,43.5632006 Z M52.5852004,43.5632006 C53.0444004,43.5632006 53.4040004,43.9400006 53.4040004,44.4212006 L53.4040004,49.2968007 C53.4040004,49.7796007 53.0448004,50.1548007 52.5852004,50.1548007 L47.6560004,50.1548007 C47.1948003,50.1548007 46.8356003,49.7800007 46.8356003,49.2968007 L46.8356003,44.4212006 C46.8356003,43.9404006 47.1948003,43.5632006 47.6560004,43.5632006 L52.5852004,43.5632006 Z M42.8476003,43.5632006 C43.3068003,43.5632006 43.6664003,43.9400006 43.6664003,44.4212006 L43.6664003,49.2968007 C43.6664003,49.7796007 43.3072003,50.1548007 42.8476003,50.1548007 L37.9184002,50.1548007 C37.4572002,50.1548007 37.0980002,49.7800007 37.0980002,49.2968007 L37.0980002,44.4212006 C37.0980002,43.9404006 37.4572002,43.5632006 37.9184002,43.5632006 L42.8476003,43.5632006 Z M62.4916006,34.5356005 C62.9508006,34.5356005 63.3104006,34.9124005 63.3104006,35.3936005 L63.3104006,40.2692006 C63.3104006,40.7520006 62.9512006,41.1272006 62.4916006,41.1272006 L57.5624005,41.1272006 C57.1012005,41.1272006 56.7420005,40.7524006 56.7420005,40.2692006 L56.7420005,35.3936005 C56.7420005,34.9128005 57.1012005,34.5356005 57.5624005,34.5356005 L62.4916006,34.5356005 Z M52.5852004,34.5356005 C53.0444004,34.5356005 53.4040004,34.9124005 53.4040004,35.3936005 L53.4040004,40.2692006 C53.4040004,40.7520006 53.0448004,41.1272006 52.5852004,41.1272006 L47.6560004,41.1272006 C47.1948003,41.1272006 46.8356003,40.7524006 46.8356003,40.2692006 L46.8356003,35.3936005 C46.8356003,34.9128005 47.1948003,34.5356005 47.6560004,34.5356005 L52.5852004,34.5356005 Z M42.8476003,34.5356005 C43.3068003,34.5356005 43.6664003,34.9124005 43.6664003,35.3936005 L43.6664003,40.2692006 C43.6664003,40.7520006 43.3072003,41.1272006 42.8476003,41.1272006 L37.9184002,41.1272006 C37.4572002,41.1272006 37.0980002,40.7524006 37.0980002,40.2692006 L37.0980002,35.3936005 C37.0980002,34.9128005 37.4572002,34.5356005 37.9184002,34.5356005 L42.8476003,34.5356005 Z M62.4916006,25.6764004 C62.9508006,25.6764004 63.3104006,26.0532004 63.3104006,26.5344004 L63.3104006,31.4100005 C63.3104006,31.8928005 62.9512006,32.2680005 62.4916006,32.2680005 L57.5624005,32.2680005 C57.1012005,32.2680005 56.7420005,31.8932005 56.7420005,31.4100005 L56.7420005,26.5344004 C56.7420005,26.0536004 57.1012005,25.6764004 57.5624005,25.6764004 L62.4916006,25.6764004 Z M52.5852004,25.6764004 C53.0444004,25.6764004 53.4040004,26.0532004 53.4040004,26.5344004 L53.4040004,31.4100005 C53.4040004,31.8928005 53.0448004,32.2680005 52.5852004,32.2680005 L47.6560004,32.2680005 C47.1948003,32.2680005 46.8356003,31.8932005 46.8356003,31.4100005 L46.8356003,26.5344004 C46.8356003,26.0536004 47.1948003,25.6764004 47.6560004,25.6764004 L52.5852004,25.6764004 Z M42.8476003,25.6764004 C43.3068003,25.6764004 43.6664003,26.0532004 43.6664003,26.5344004 L43.6664003,31.4100005 C43.6664003,31.8928005 43.3072003,32.2680005 42.8476003,32.2680005 L37.9184002,32.2680005 C37.4572002,32.2680005 37.0980002,31.8932005 37.0980002,31.4100005 L37.0980002,26.5344004 C37.0980002,26.0536004 37.4572002,25.6764004 37.9184002,25.6764004 L42.8476003,25.6764004 Z M55.7848005,9.61880013 L44.9452003,9.61880013 C44.2228003,9.61880013 43.8604003,9.98200013 43.8604003,10.7036001 C43.8604003,11.4252002 44.2228003,11.7876002 44.9452003,11.7876002 L55.7848005,11.7876002 C56.5064005,11.7876002 56.8668005,11.4252002 56.8668005,10.7036001 C56.8668005,9.98200013 56.5064005,9.61880013 55.7848005,9.61880013 Z" id="icon-apps" fill="#ED0000"></path>
    </g>
</svg>