<?xml version="1.0" encoding="UTF-8"?>
<svg width="100px" height="100px" viewBox="0 0 100 100" version="1.1" xmlns="http://www.w3.org/2000/svg" xmlns:xlink="http://www.w3.org/1999/xlink">
    <title>Random/Fastest-box</title>
    <g id="Random/Fastest-box" stroke="none" stroke-width="1" fill="none" fill-rule="evenodd">
        <path d="M43.9474529,10.1666 C54.1377036,10.1666 62.9255042,17.4207005 64.8435043,27.4153012 C65.2075044,29.3137013 63.9639543,31.1480514 62.0655542,31.5120515 C60.164004,31.8774515 58.3328039,30.6321514 57.9684539,28.7341013 C56.6822038,22.0312508 50.7857534,17.1662505 43.9474529,17.1662505 C40.1867027,17.1662505 36.6384024,18.6163006 33.9553022,21.2490008 C31.3128021,23.8418009 29.795552,27.3043512 29.682152,30.9986014 C29.650652,32.0335515 29.1620519,33.0013016 28.3483019,33.6418016 C27.5345518,34.2823017 26.4786017,34.5287017 25.4660517,34.3173017 C24.4909516,34.1129016 23.4997515,34.0093016 22.5201015,34.0093016 C14.6475509,34.0093016 8.24290002,40.4139521 8.24290002,48.2865026 C8.24290002,54.602953 12.4775508,60.2411034 18.5406012,61.9970535 C20.2531513,62.4933536 21.3192514,64.1975037 21.0158014,65.9545038 C20.8744014,66.7731539 20.8030013,67.5949539 20.8030013,68.396804 C20.8030013,76.2693545 27.2076518,82.674355 35.0802023,82.674355 C41.0022027,82.674355 46.3771531,78.9503547 48.4544032,73.4074043 C49.1327033,71.5975542 51.1504534,70.6812541 52.9603035,71.3585042 C54.7701537,72.0368042 55.6875037,74.0542044 55.0092037,75.8644045 C51.9131035,84.124055 43.9040529,89.6740054 35.0798523,89.6740054 C23.3475015,89.6740054 13.8026509,80.1291548 13.8026509,68.396454 C13.8026509,68.164754 13.8065009,67.9320039 13.8145509,67.6985539 C6.28780036,64.3095037 1.24290002,56.7019032 1.24290002,48.2865026 C1.24290002,36.5541518 10.7877507,27.0093012 22.5201015,27.0093012 C22.7248515,27.0093012 22.9303015,27.0124512 23.1357515,27.0184012 C23.9939516,22.9517509 26.0292017,19.2197006 29.0525019,16.2527504 C33.0523022,12.3282002 38.3418525,10.1666 43.9474529,10.1666 Z M89.9742061,62.6491036 C91.6171062,62.6491036 92.9492063,63.9812037 92.9492063,65.6241038 C92.9492063,67.2670039 91.6171062,68.599104 89.9742061,68.599104 L37.5781525,68.599104 C35.9352524,68.599104 34.6031523,67.2670039 34.6031523,65.6241038 C34.6031523,63.9812037 35.9352524,62.6491036 37.5781525,62.6491036 L89.9742061,62.6491036 Z M95.1594564,49.5451027 C96.8023565,49.5451027 98.1344566,50.8772028 98.1344566,52.5201029 C98.1344566,54.163353 96.8023565,55.4951031 95.1594564,55.4951031 L49.2940533,55.4951031 C47.6511532,55.4951031 46.3190531,54.163003 46.3190531,52.5201029 C46.3190531,50.8772028 47.6511532,49.5451027 49.2940533,49.5451027 L95.1594564,49.5451027 Z M81.9606055,36.9927018 C83.6035056,36.9927018 84.9356057,38.3248019 84.9356057,39.967702 C84.9356057,41.6106022 83.6038556,42.9427022 81.9609555,42.9427022 L29.875702,42.9427022 C28.2328019,42.9427022 26.9007018,41.6106022 26.9007018,39.967702 C26.9007018,38.3248019 28.2328019,36.9927018 29.875702,36.9927018 L81.9606055,36.9927018 Z" id="icon-fastest-box" fill="#ED0000"></path>
    </g>
</svg>