<?xml version="1.0" encoding="UTF-8"?>
<svg width="91px" height="98px" viewBox="0 0 91 98" version="1.1" xmlns="http://www.w3.org/2000/svg" xmlns:xlink="http://www.w3.org/1999/xlink">
    <title>icon-bill</title>
    <g id="📷-Icons" stroke="none" stroke-width="1" fill="none" fill-rule="evenodd">
        <g id="Paper/Billing" transform="translate(-5.000000, -1.000000)" fill="#ED0000">
            <path d="M28.2675213,1.27734402 C36.0123445,1.27734402 42.8747075,5.12774254 47.0409041,11.0148336 L64.5663233,11.0150565 C65.8993991,11.0150565 67.0916325,11.6190333 67.8841376,12.5683273 L93.6351099,38.4104909 C93.9367201,38.5935515 94.2084919,38.829632 94.5147249,39.1356661 C95.3255889,39.9456661 95.781349,41.0451062 95.781349,42.1916343 L95.781349,87.4717167 C95.781349,93.320997 91.0224367,98.0799093 85.1731564,98.0799093 L34.5064656,98.0799093 C28.6567533,98.0799093 23.898273,93.320997 23.898273,87.4712847 L23.8976282,46.8288944 C13.3066306,44.782227 5.28339202,35.4412601 5.28339202,24.2614733 C5.28339202,11.5878886 15.5939366,1.27734402 28.2675213,1.27734402 Z M60.246323,19.655057 L50.7878559,19.6546589 C51.0919453,21.1434474 51.2516505,22.6841592 51.2516505,24.2614733 C51.2516505,35.4760159 43.1781107,44.8402878 32.5384471,46.8477709 L32.5382735,87.4712847 C32.5382735,88.5383248 33.4394256,89.4399088 34.5064656,89.4399088 L85.1731564,89.4399088 C86.2401964,89.4399088 87.1413485,88.5383248 87.1413485,87.4712847 L87.1413485,46.3582745 C82.1007722,46.2861305 72.9345957,46.2481145 64.5663233,46.2481145 C63.4206592,46.2481145 62.3220831,45.7927864 61.5116511,44.9827864 C60.701651,44.1727864 60.246323,43.0737783 60.246323,41.9281142 L60.246323,19.655057 Z M79.1960041,72.9772519 C80.8661161,72.9772519 82.2200042,74.33114 82.2200042,76.0012521 C82.2200042,77.6713642 80.8661161,79.0252523 79.1960041,79.0252523 L40.70221,79.0252523 C39.0320979,79.0252523 37.6782098,77.6713642 37.6782098,76.0012521 C37.6782098,74.33114 39.0320979,72.9772519 40.70221,72.9772519 L79.1960041,72.9772519 Z M79.1960041,58.1082431 C80.8661161,58.1082431 82.2200042,59.4621312 82.2200042,61.1322433 C82.2200042,62.8023554 80.8661161,64.1562435 79.1960041,64.1562435 L40.70221,64.1562435 C39.0320979,64.1562435 37.6782098,62.8023554 37.6782098,61.1322433 C37.6782098,59.4621312 39.0320979,58.1082431 40.70221,58.1082431 L79.1960041,58.1082431 Z M28.2675213,8.62134442 C19.6435048,8.62134442 12.6273924,15.6374568 12.6273924,24.2614733 C12.6273924,32.8854897 19.6435048,39.9016021 28.2675213,39.9016021 C36.8915377,39.9016021 43.9076501,32.8854897 43.9076501,24.2614733 C43.9076501,15.6374568 36.8911057,8.62134442 28.2675213,8.62134442 Z M68.885392,25.812344 L68.8863235,37.612434 C71.3811236,37.616754 74.6651878,37.624962 77.93586,37.640946 C78.9010329,37.6456516 79.8184983,37.6508072 80.6869519,37.6564063 L68.885392,25.812344 Z M27.8981613,11.8000006 C32.7236015,11.8000006 35.6866897,15.5756808 35.6866897,18.2821609 C35.6866897,19.529777 34.8520656,20.4011211 33.6567216,20.4011211 C32.7153935,20.4011211 31.9956815,19.861121 31.6820495,18.920225 C30.9549934,16.8198409 29.8132174,15.9186888 27.8683532,15.9186888 C26.6142572,15.9186888 25.1191051,16.3493928 25.1191051,18.400961 C25.1191051,19.091297 25.3649131,19.805393 26.1779372,21.3873771 L29.1449133,21.3873771 C30.3830254,21.3873771 31.3528654,22.2919852 31.3528654,23.4471532 C31.3528654,24.6023213 30.3830254,25.5069293 29.1449133,25.5069293 L27.4501772,25.5069293 C27.4998572,25.9039374 27.5236172,26.3195214 27.5236172,26.7718254 C27.5236172,28.2937615 27.0466892,29.6770256 25.9761931,31.1536016 L33.9530736,31.1536016 C35.1911856,31.1536016 36.1610257,32.0582097 36.1610257,33.2129458 C36.1610257,34.3676818 35.1916176,35.2722899 33.9535056,35.2722899 L21.8726249,35.2722899 C20.4232648,35.2722899 19.6646728,34.2510418 19.6646728,33.2423218 C19.6646728,32.5424817 19.9342408,32.0150097 20.6250089,31.3600977 C21.9352649,30.0774896 23.226513,28.6471375 23.226513,26.6525934 C23.226513,26.3847534 23.212689,26.0076174 23.122833,25.5064973 L20.7446729,25.5064973 C19.5065608,25.5064973 18.5367207,24.6018893 18.5367207,23.4467212 C18.5367207,22.2915532 19.5065608,21.3869451 20.7446729,21.3869451 L21.5443049,21.3869451 C20.9503049,20.208017 20.6444489,19.289153 20.6444489,18.1331209 C20.6444489,14.4045287 23.626977,11.8000006 27.8981613,11.8000006 Z" id="icon-bill"></path>
        </g>
    </g>
</svg>