<?xml version="1.0" encoding="UTF-8"?>
<svg width="100px" height="98px" viewBox="0 0 100 98" version="1.1" xmlns="http://www.w3.org/2000/svg" xmlns:xlink="http://www.w3.org/1999/xlink">
    <title>Devices/Mobile/Default</title>
    <g id="Devices/Mobile/Default" stroke="none" stroke-width="1" fill="none" fill-rule="evenodd">
        <path d="M66.5260181,0 C71.7499558,0 76,4.23459002 76,9.43993044 L76,9.43993044 L76,88.5600696 C76,93.76541 71.7499558,98 66.5260181,98 L66.5260181,98 L33.4743815,98 C28.2504438,98 24,93.76541 24,88.5600696 L24,88.5600696 L24,9.43993044 C24,4.23459002 28.2504438,0 33.4743815,0 L33.4743815,0 Z M49.9326627,84.4473211 C46.9410472,84.4473211 44.515305,86.8638445 44.515305,89.8453781 C44.515305,92.8261154 46.9410472,95.2426388 49.9326627,95.2426388 C52.9250774,95.2426388 55.35042,92.8261154 55.35042,89.8453781 C55.35042,86.8638445 52.9250774,84.4473211 49.9326627,84.4473211 Z M66.5260181,17.2377876 L33.0220026,17.2377876 C32.1907763,17.2377876 30.7936767,18.4335068 30.7936767,19.9087448 L30.7936767,19.9087448 L30.7936767,78.5069498 C30.7936767,79.9821878 31.9937597,81.177907 33.4743815,81.177907 L33.4743815,81.177907 L66.5260181,81.177907 C68.0062403,81.177907 69.2063233,79.9821878 69.2063233,78.5069498 L69.2063233,78.5069498 L69.2063233,19.9087448 C69.2063233,18.4335068 68.0062403,17.2377876 66.5260181,17.2377876 L66.5260181,17.2377876 Z M55.3608103,8.56115845 L44.5308905,8.56115845 C43.8091622,8.56115845 43.4470992,8.92270125 43.4470992,9.64100876 C43.4470992,10.3597145 43.8091622,10.7200627 44.5308905,10.7200627 L44.5308905,10.7200627 L55.3608103,10.7200627 C56.0813397,10.7200627 56.4418042,10.3597145 56.4418042,9.64100876 C56.4418042,8.92270125 56.0813397,8.56115845 55.3608103,8.56115845 L55.3608103,8.56115845 Z" id="icon-mobile" fill="#ED0000"></path>
    </g>
</svg>