<?xml version="1.0" encoding="UTF-8"?>
<svg width="100px" height="100px" viewBox="0 0 100 100" version="1.1" xmlns="http://www.w3.org/2000/svg" xmlns:xlink="http://www.w3.org/1999/xlink">
    <title>Site/Info</title>
    <g id="Site/Info" stroke="none" stroke-width="1" fill="none" fill-rule="evenodd">
        <path d="M49.9113821,0.00203252033 C77.3268293,0.00203252033 99.6300813,22.3056911 99.6300813,49.7207317 C99.6300813,77.1357724 77.3264228,99.4394309 49.9113821,99.4394309 C22.4963415,99.4394309 0.192276423,77.1357724 0.192276423,49.7207317 C0.192276423,22.3056911 22.495935,0.00203252033 49.9113821,0.00203252033 Z M49.9113821,8.13211382 C26.9792683,8.13211382 8.32235772,26.7890244 8.32235772,49.7211382 C8.32235772,72.653252 26.9792683,91.3097561 49.9113821,91.3097561 C72.8434959,91.3097561 91.5,72.6528455 91.5,49.7207317 C91.5,26.7886179 72.8434959,8.13211382 49.9113821,8.13211382 Z M53,45.125 L53.1640624,45.1328735 C53.5407983,45.1696167 53.875,45.3349609 54.1666667,45.6289063 C54.5,45.9648438 54.6666667,46.3567713 54.6666667,46.8046875 L54.6666667,46.8046875 L54.6666667,64.609375 L56.3333333,64.609375 L56.4973957,64.6172485 C56.8741316,64.6539917 57.2083333,64.8193359 57.5,65.1132813 C57.8333333,65.4492188 58,65.8411463 58,66.2890625 L58,66.2890625 L58,70.3203125 L57.9921875,70.4856566 C57.9557292,70.8653358 57.7916667,71.2021484 57.5,71.4960938 C57.1666667,71.8320313 56.7777774,72 56.3333333,72 L56.3333333,72 L43.6666667,72 L43.5026043,71.9921265 C43.1258684,71.9553833 42.7916667,71.7900391 42.5,71.4960938 C42.1666667,71.1601563 42,70.7682287 42,70.3203125 L42,70.3203125 L42,66.2890625 L42.0078125,66.1237184 C42.0442708,65.7440392 42.2083333,65.4072266 42.5,65.1132813 C42.8333333,64.7773438 43.2222226,64.609375 43.6666667,64.609375 L43.6666667,64.609375 L45.3333333,64.609375 L45.3333333,52.515625 L43.6666667,52.515625 L43.5026043,52.5077515 C43.1258684,52.4710083 42.7916667,52.3056641 42.5,52.0117188 C42.1666667,51.6757813 42,51.2838537 42,50.8359375 L42,50.8359375 L42,46.8046875 L42.0078125,46.6393434 C42.0442708,46.2596642 42.2083333,45.9228516 42.5,45.6289063 C42.8333333,45.2929688 43.2222226,45.125 43.6666667,45.125 L43.6666667,45.125 L53,45.125 Z M50,29 C51.6666667,29 53.0833333,29.5878906 54.25,30.7636719 C55.4166667,31.9394531 56,33.3671875 56,35.046875 C56,36.7265625 55.4166667,38.1542969 54.25,39.3300781 C53.0833333,40.5058594 51.6666667,41.09375 50,41.09375 C48.3333333,41.09375 46.9166667,40.5058594 45.75,39.3300781 C44.5833333,38.1542969 44,36.7265625 44,35.046875 C44,33.3671875 44.5833333,31.9394531 45.75,30.7636719 C46.9166667,29.5878906 48.3333333,29 50,29 Z" id="icon-info" fill="#ED0000"></path>
    </g>
</svg>