<?xml version="1.0" encoding="UTF-8"?>
<svg width="100px" height="100px" viewBox="0 0 100 100" version="1.1" xmlns="http://www.w3.org/2000/svg" xmlns:xlink="http://www.w3.org/1999/xlink">
    <title>Network/WiFi hotspot unavilable</title>
    <g id="Network/WiFi-hotspot-unavilable" stroke="none" stroke-width="1" fill="none" fill-rule="evenodd">
        <path d="M88.6027888,17.9462151 C88.6239044,17.9709163 88.6462151,17.9940239 88.6669323,18.0191235 C92.9956175,23.1175299 95.1928287,29.2095618 95.1928287,36.1203187 C95.1928287,46.6115538 90.1677291,56.9366534 85.9521912,63.750996 C85.9354582,63.7780876 85.9183267,63.8051793 85.9007968,63.8318725 C78.3856574,75.3525896 67.9119522,85.5741036 51.9410359,96.9741036 C51.2494024,97.4673307 50.438247,97.7151394 49.6262948,97.7151394 C48.8605578,97.7151394 48.0936255,97.4948207 47.4258964,97.0521912 C46.7203187,96.5844622 33.6916335,87.8788845 22.436255,75.5645418 L22.436255,75.5645418 L28.4517928,70.3258964 C36.425498,79.0011952 45.4780876,85.8884462 49.5876494,88.8438247 C63.4159363,78.7262948 72.6103586,69.6087649 79.2015936,59.5183267 C82.8681275,53.5828685 87.2250996,44.7191235 87.2250996,36.1203187 C87.2250996,31.1545817 85.6669323,26.8003984 82.5948207,23.1780876 L82.5948207,23.1780876 Z M89.9219124,4.38247012 C91.3326693,3.15418327 93.4717131,3.30199203 94.6996016,4.7123506 C95.9278884,6.12270916 95.7800797,8.26175299 94.3701195,9.49003984 L94.3701195,9.49003984 L9.97968127,82.9772908 C9.33824701,83.5358566 8.54541833,83.8099602 7.75697211,83.8099602 C6.81155378,83.8099602 5.87131474,83.4167331 5.20159363,82.6474104 C3.97330677,81.2370518 4.12111554,79.098008 5.5314741,77.8697211 L5.5314741,77.8697211 Z M49.8794134,3.00062207 C56.0182076,3.02752587 68.6081704,3.95010113 79.2792829,10.2163347 L79.2792829,10.2163347 L72.8203187,15.8406375 C66.4179283,12.7099602 58.363745,10.9685259 49.5960159,10.9685259 C35.3968127,10.9685259 23.0629482,15.5278884 16.6027888,23.1649402 C13.5258964,26.7896414 11.9677291,31.1466135 11.9677291,36.1203187 C11.9677291,45.8920319 17.5756972,55.7338645 19.9868526,59.5115538 L19.9868526,59.5115538 C20.3039841,60.0079681 20.6330677,60.501992 20.9677291,60.9940239 L20.9677291,60.9940239 L14.9187251,66.2613546 C14.350996,65.449004 13.8003984,64.6278884 13.2709163,63.7988048 C9.80836653,58.3729084 4,47.5641434 4,36.1199203 C4,29.2043825 6.19482072,23.1123506 10.5243028,18.0131474 C21.9856574,4.46334661 41.6669323,3 49.5964143,3 Z M49.5286853,56.9657371 C51.8176965,56.9657371 53.6733068,58.8213473 53.6733068,61.1103586 C53.6733068,63.3993698 51.8176965,65.2549801 49.5286853,65.2549801 C47.239674,65.2549801 45.3840637,63.3993698 45.3840637,61.1103586 C45.3840637,58.8213473 47.239674,56.9657371 49.5286853,56.9657371 Z M55.4633466,46.8035857 C57.8804781,47.6557769 60.1211155,49.0294821 62.0410359,50.8669323 C63.3920319,52.1605578 63.4390438,54.3039841 62.1458167,55.6553785 C60.8521912,57.0059761 58.7091633,57.052988 57.3577689,55.759761 C55.2039841,53.698008 52.4262948,52.5625498 49.5378486,52.5625498 L49.5378486,52.5625498 C49.2956175,52.5625498 49.0573705,52.5733068 48.8199203,52.5888446 L48.8199203,52.5888446 Z M49.5386454,34.5884462 C50.1047809,34.5884462 50.6681275,34.6099602 51.2294821,34.6426295 L51.2294821,34.6426295 L42.0003984,42.6792829 C39.0466135,43.7430279 36.310757,45.4294821 33.9657371,47.6760956 C33.3095618,48.3047809 32.4661355,48.6171315 31.623506,48.6171315 C30.7322709,48.6171315 29.8426295,48.2677291 29.1776892,47.5733068 C27.8836653,46.2227092 27.9294821,44.0792829 29.2800797,42.785259 C34.7948207,37.5011952 41.9864542,34.5900398 49.5306773,34.5884462 L49.5306773,34.5884462 Z M64.6290837,38.8223108 C66.4645418,39.9366534 68.1964143,41.2537849 69.7856574,42.774502 C71.1370518,44.0677291 71.1840637,46.2111554 69.8912351,47.5625498 C68.5976096,48.9139442 66.4545817,48.9609562 65.1027888,47.6677291 C63.3282869,45.9697211 61.3290837,44.5956175 59.1832669,43.5645418 L59.1832669,43.5645418 Z M49.5378486,23.3868526 C53.7896414,23.3868526 57.9581673,24.0521912 61.9203187,25.3326693 L61.9203187,25.3326693 L55.7143426,30.7366534 C53.6932271,30.3581673 51.6278884,30.159761 49.5378486,30.159761 L49.5378486,30.159761 C40.8394422,30.161753 32.559761,33.5099602 26.2163347,39.5868526 C25.5601594,40.2155378 24.7163347,40.5278884 23.8741036,40.5278884 C22.9828685,40.5278884 22.0932271,40.1784861 21.4282869,39.4840637 C20.1346614,38.1334661 20.1804781,35.9900398 21.5310757,34.6960159 C29.1410359,27.4055777 39.0840637,23.3896414 49.5278884,23.3868526 L49.5278884,23.3868526 Z M73.3796813,31.201992 C74.8262948,32.2625498 76.2139442,33.4219124 77.5306773,34.6820717 C78.8820717,35.9752988 78.9290837,38.1187251 77.6358566,39.4701195 C76.3430279,40.8219124 74.1992032,40.8685259 72.8478088,39.5752988 C71.3693227,38.1601594 69.7816733,36.9 68.1123506,35.7888446 L68.1123506,35.7888446 Z" id="icon-wifi-hotspot-unavilable" fill="#ED0000"></path>
    </g>
</svg>