<?xml version="1.0" encoding="UTF-8"?>
<svg width="100px" height="100px" viewBox="0 0 100 100" version="1.1" xmlns="http://www.w3.org/2000/svg" xmlns:xlink="http://www.w3.org/1999/xlink">
    <title>Site/Settings</title>
    <g id="Site/Settings" stroke="none" stroke-width="1" fill="none" fill-rule="evenodd">
        <path d="M49.8573705,10.0884462 C52.0573705,10.0884462 53.8414343,11.8721116 53.8414343,14.07251 L53.8414343,14.07251 L53.8414343,24.3756972 C60.2657371,26.1294821 65.0031873,32.0135458 65.0035857,38.9860558 C65.0035857,45.9589641 60.2657371,51.8430279 53.8414343,53.5968127 L53.8414343,53.5968127 L53.8414343,86.6585657 C53.8414343,88.8585657 52.0573705,90.6426295 49.8573705,90.6426295 C47.6569721,90.6426295 45.8733068,88.8585657 45.8733068,86.6585657 L45.8733068,86.6585657 L45.8733068,53.5968127 C39.449004,51.8430279 34.7111554,45.9589641 34.7111554,38.9860558 C34.7111554,32.0135458 39.449004,26.1294821 45.8733068,24.3756972 L45.8733068,24.3756972 L45.8733068,14.07251 C45.8733068,11.8721116 47.6569721,10.0884462 49.8573705,10.0884462 Z M15.2023904,10.0884462 C17.4027888,10.0884462 19.1864542,11.8721116 19.1864542,14.07251 L19.1864542,14.07251 L19.1864542,45.0796813 C25.6111554,46.8334661 30.3486056,52.7163347 30.3486056,59.6896414 C30.3486056,66.6629482 25.610757,72.5466135 19.1864542,74.3003984 L19.1864542,74.3003984 L19.1864542,86.6581673 C19.1864542,88.8581673 17.4027888,90.6422311 15.2023904,90.6422311 C13.001992,90.6422311 11.2183267,88.8581673 11.2183267,86.6581673 L11.2183267,86.6581673 L11.2183267,74.3003984 C4.7940239,72.5466135 0.0561752988,66.6629482 0.0561752988,59.6900398 C0.0561752988,52.7171315 4.7940239,46.8334661 11.2183267,45.0796813 L11.2183267,45.0796813 L11.2183267,14.07251 C11.2183267,11.8721116 13.001992,10.0884462 15.2023904,10.0884462 Z M84.5119522,10.0884462 C86.7119522,10.0884462 88.4960159,11.8721116 88.4960159,14.07251 L88.4960159,14.07251 L88.4960159,49.1549801 C94.9203187,50.9087649 99.6581673,56.7924303 99.6581673,63.7653386 C99.6581673,70.738247 94.9203187,76.6219124 88.4960159,78.3756972 L88.4960159,78.3756972 L88.4960159,86.6581673 C88.4960159,88.8581673 86.7119522,90.6422311 84.5119522,90.6422311 C82.3119522,90.6422311 80.5278884,88.8581673 80.5278884,86.6581673 L80.5278884,86.6581673 L80.5278884,78.3756972 C74.1031873,76.6219124 69.3657371,70.738247 69.3657371,63.7653386 C69.3657371,56.7924303 74.1035857,50.9087649 80.5278884,49.1549801 L80.5278884,49.1549801 L80.5278884,14.07251 C80.5278884,11.8721116 82.3119522,10.0884462 84.5119522,10.0884462 Z M84.5119522,56.587251 C80.5537849,56.587251 77.3338645,59.8071713 77.3338645,63.7653386 C77.3338645,67.723506 80.5537849,70.9434263 84.5119522,70.9434263 C88.4701195,70.9434263 91.6900398,67.723506 91.6900398,63.7653386 C91.6900398,59.8071713 88.4701195,56.587251 84.5119522,56.587251 Z M15.2023904,52.5119522 C11.2442231,52.5119522 8.02430279,55.7318725 8.02430279,59.6900398 C8.02430279,63.6482072 11.2442231,66.8681275 15.2023904,66.8681275 C19.1605578,66.8681275 22.3804781,63.6482072 22.3804781,59.6900398 C22.3804781,55.7318725 19.1605578,52.5119522 15.2023904,52.5119522 Z M49.8573705,31.8083665 C45.8992032,31.8083665 42.6792829,35.0286853 42.6792829,38.9864542 C42.6792829,42.9442231 45.8992032,46.1645418 49.8573705,46.1645418 C53.8151394,46.1645418 57.0354582,42.9446215 57.0354582,38.9864542 C57.0354582,35.0282869 53.8155378,31.8083665 49.8573705,31.8083665 Z" id="icon-settings" fill="#ED0000"></path>
    </g>
</svg>