<?xml version="1.0" encoding="UTF-8"?>
<svg width="100px" height="100px" viewBox="0 0 100 100" version="1.1" xmlns="http://www.w3.org/2000/svg" xmlns:xlink="http://www.w3.org/1999/xlink">
    <title>Paper/Document</title>
    <g id="Paper/Document" stroke="none" stroke-width="1" fill="none" fill-rule="evenodd">
        <path d="M63.1643207,8.60016002 C63.8859207,8.60016002 64.5755207,8.88816003 65.0811207,9.39376004 L65.0811207,9.39376004 L86.804321,31.1169604 C87.316321,31.6273604 87.6027211,32.3185604 87.6027211,33.0401604 L87.6027211,33.0401604 L87.6027211,87.3505612 C87.6027211,88.8497612 86.388321,90.0673612 84.887521,90.0673612 L84.887521,90.0673612 L19.71632,90.0673612 C18.21552,90.0673612 16.99952,88.8497612 16.99952,87.3505612 L16.99952,87.3505612 L16.99952,11.3153601 C16.99952,9.81616004 18.21552,8.60016002 19.71632,8.60016002 L19.71632,8.60016002 Z M60.4491206,14.0305601 L22.4315201,14.0305601 L22.4315201,84.6353612 L82.172321,84.6353612 L82.172321,35.7553604 L63.1643207,35.7553604 C61.6651207,35.7553604 60.4491206,34.5377604 60.4491206,33.0401604 L60.4491206,33.0401604 L60.4491206,14.0305601 Z M33.3315202,65.1649609 C35.0643203,65.1649609 36.4707203,66.5713609 36.4707203,68.3041609 C36.4707203,70.0369609 35.0643203,71.443361 33.3315202,71.443361 C31.5987202,71.443361 30.1923202,70.0369609 30.1923202,68.3041609 C30.1923202,66.5713609 31.5987202,65.1649609 33.3315202,65.1649609 Z M74.0256008,65.7281609 L74.0256008,71.160161 L41.4400004,71.160161 L41.4400004,65.7281609 L74.0256008,65.7281609 Z M33.3315202,54.3024007 C35.0643203,54.3024007 36.4707203,55.7088007 36.4707203,57.4416008 C36.4707203,59.1744008 35.0643203,60.5808008 33.3315202,60.5808008 C31.5987202,60.5808008 30.1923202,59.1744008 30.1923202,57.4416008 C30.1923202,55.7088007 31.5987202,54.3024007 33.3315202,54.3024007 Z M74.0256008,54.8657607 L74.0256008,60.2977608 L41.4400004,60.2977608 L41.4400004,54.8657607 L74.0256008,54.8657607 Z M33.3315202,43.4400005 C35.0643203,43.4400005 36.4707203,44.8464006 36.4707203,46.5792006 C36.4707203,48.3120006 35.0643203,49.7184006 33.3315202,49.7184006 C31.5987202,49.7184006 30.1923202,48.3120006 30.1923202,46.5792006 C30.1923202,44.8464006 31.5987202,43.4400005 33.3315202,43.4400005 Z M74.0256008,44.0049606 L74.0256008,49.4353606 L41.4400004,49.4353606 L41.4400004,44.0049606 L74.0256008,44.0049606 Z M65.8795207,17.8705602 L65.8795207,30.3249603 L78.3323209,30.3249603 L65.8795207,17.8705602 Z" id="icon-document" fill="#ED0000"></path>
    </g>
</svg>