<?xml version="1.0" encoding="UTF-8"?>
<svg width="100px" height="100px" viewBox="0 0 100 100" version="1.1" xmlns="http://www.w3.org/2000/svg" xmlns:xlink="http://www.w3.org/1999/xlink">
    <title>Network/WiFi unavilable</title>
    <g id="Network/WiFi-unavilable" stroke="none" stroke-width="1" fill="none" fill-rule="evenodd">
        <path d="M98.3518135,3.4 C100.071503,5.11968912 100.071503,7.90829016 98.3518135,9.62849741 L10.7243523,97.2564767 C9.8642487,98.1160622 8.7373057,98.546114 7.60984456,98.546114 C6.48290155,98.546114 5.35544041,98.1160622 4.49585492,97.2564767 C2.77564767,95.5367876 2.77564767,92.7476684 4.49585492,91.0279793 L92.1233161,3.4 C93.8435233,1.68031088 96.6316062,1.68031088 98.3518135,3.4 Z M49.4093264,79.4849741 C52.980829,79.4849741 55.8860104,82.3901554 55.8860104,85.961658 C55.8860104,89.5331606 52.980829,92.438342 49.4093264,92.438342 C45.838342,92.438342 42.9331606,89.5331606 42.9331606,85.961658 C42.9331606,82.3901554 45.838342,79.4849741 49.4093264,79.4849741 Z M52.2165803,60.526943 C58.965285,61.1595855 65.3253886,64.0746114 70.3673575,68.8989637 C72.4352332,70.8782383 72.5067358,74.1580311 70.5284974,76.2248705 C68.5492228,78.2937824 65.2694301,78.3642487 63.2025907,76.3860104 C59.4093264,72.7554404 54.5165803,70.7564767 49.4253886,70.7564767 L49.4253886,70.7564767 C45.6870466,70.757513 42.0621762,71.838342 38.8974093,73.846114 L38.8974093,73.846114 Z M49.4248705,41.2601036 C49.4497409,41.2601036 49.4746114,41.261658 49.4994819,41.261658 L49.4994819,41.261658 L37.1181347,53.6430052 C31.6989637,55.465285 26.6792746,58.4839378 22.407772,62.5761658 C21.4036269,63.5378238 20.1124352,64.0160622 18.8238342,64.0160622 C17.4601036,64.0160622 16.0994819,63.4813472 15.0818653,62.4202073 C13.1020725,60.3533679 13.1725389,57.0735751 15.2388601,55.0943005 C24.5471503,46.1766839 36.6839378,41.2632124 49.4129534,41.2601036 L49.4129534,41.2601036 Z M67.8787565,44.8642487 C73.6331606,47.2041451 78.9647668,50.6435233 83.5963731,55.0751295 C85.6642487,57.053886 85.7357513,60.3336788 83.757513,62.4010363 C81.7787565,64.4694301 78.4984456,64.5404145 76.4316062,62.5621762 C71.6373057,57.9746114 65.9015544,54.7373057 59.7160622,53.026943 L59.7160622,53.026943 Z M49.4253886,22.1243523 C55.2367876,22.1243523 60.9554404,22.8632124 66.4735751,24.2865285 L66.4735751,24.2865285 L57.6829016,33.0777202 C54.9658031,32.6870466 52.2082902,32.4875648 49.4259067,32.4875648 L49.4259067,32.4875648 L49.411399,32.4875648 C34.4103627,32.4911917 20.119171,38.2699482 9.16994819,48.7585492 C8.16632124,49.7207254 6.87512953,50.1984456 5.5865285,50.1984456 C4.22279793,50.1984456 2.86165803,49.6637306 1.84352332,48.6010363 C-0.135751295,46.534715 -0.0652849741,43.2544041 2.00103627,41.2751295 C14.8880829,28.9300518 31.7243523,22.1290155 49.407772,22.1243523 L49.407772,22.1243523 Z M82.2186528,30.5243523 C87.4720207,33.407772 92.3834197,37.0005181 96.8259067,41.2523316 C98.8937824,43.2310881 98.965285,46.5108808 96.9870466,48.5782383 C95.0082902,50.646114 91.7279793,50.7176166 89.6611399,48.7393782 C85.1264249,44.3994819 80.0170984,40.8694301 74.5233161,38.2196891 L74.5233161,38.2196891 Z" id="icon-wifi-unavilable" fill="#ED0000"></path>
    </g>
</svg>