<?xml version="1.0" encoding="UTF-8"?>
<svg width="100px" height="100px" viewBox="0 0 100 100" version="1.1" xmlns="http://www.w3.org/2000/svg" xmlns:xlink="http://www.w3.org/1999/xlink">
    <title>Products/websafe child</title>
    <g id="Products/websafe-child" stroke="none" stroke-width="1" fill="none" fill-rule="evenodd">
        <path d="M49.6869388,1.91846539e-13 C63.844898,1.91846539e-13 75.3628571,11.5179592 75.3628571,25.6755102 L75.3628571,25.6755102 L75.3628571,36.1844898 C81.8963265,36.4506122 87.1293878,41.8461224 87.1293878,48.4432653 L87.1293878,48.4432653 L87.1293878,87.5240816 C87.1293878,94.2910204 81.6244898,99.7959184 74.857551,99.7959184 L74.857551,99.7959184 L24.5167347,99.7959184 C17.7497959,99.7959184 12.244898,94.2910204 12.244898,87.5240816 L12.244898,87.5240816 L12.244898,48.4432653 C12.244898,41.8461224 17.4783673,36.4506122 24.0114286,36.1840816 L24.0114286,36.1840816 L24.0114286,25.6755102 C24.0114286,11.5179592 35.5293878,1.91846539e-13 49.6869388,1.91846539e-13 Z M74.857551,44.3346939 L24.5167347,44.3346939 C22.2514286,44.3346939 20.4081633,46.1779592 20.4081633,48.4432653 L20.4081633,48.4432653 L20.4081633,87.5240816 C20.4081633,89.7893878 22.2514286,91.6326531 24.5167347,91.6326531 L24.5167347,91.6326531 L74.857551,91.6326531 C77.1228571,91.6326531 78.9661224,89.7897959 78.9661224,87.5240816 L78.9661224,87.5240816 L78.9661224,48.4432653 C78.9661224,46.1779592 77.1232653,44.3346939 74.857551,44.3346939 L74.857551,44.3346939 Z M41.9714286,49.1187755 C47.0142857,47.0391837 52.5657143,47.0489796 57.6008163,49.1440816 C62.6367347,51.2395918 66.5542857,55.1710204 68.6334694,60.2134694 C70.7126531,65.2559184 70.7036735,70.8065306 68.6081633,75.842449 C66.5126531,80.8783673 62.5812245,84.7967347 57.5387755,86.8759184 C55.0281633,87.9110204 52.3910204,88.4285714 49.7546939,88.4285714 C47.0963265,88.4285714 44.4383673,87.902449 41.9097959,86.8506122 C36.8738776,84.755102 32.9555102,80.8236735 30.8763265,75.7812245 C28.7971429,70.7387755 28.8057143,65.1881633 30.9016327,60.1522449 C32.997551,55.1163265 36.9285714,51.1979592 41.9714286,49.1187755 Z M49.7742857,53.2918367 C44.0093878,53.2918367 38.5269388,56.7020408 36.177551,62.3481633 C34.6685714,65.9746939 34.6620408,69.9722449 36.1591837,73.6032653 C37.6567347,77.2346939 40.4787755,80.0661224 44.1053061,81.575102 C47.7322449,83.0844898 51.7293878,83.0910204 55.3608163,81.5934694 C58.9922449,80.0963265 61.8236735,77.2742857 63.3326531,73.6473469 C64.8416327,70.0208163 64.8485714,66.0232653 63.3506122,62.3922449 C61.8534694,58.7612245 59.0314286,55.9297959 55.404898,54.4208163 C53.5640816,53.6546939 51.6534694,53.2918367 49.7742857,53.2918367 Z M41.297551,69.277551 C42.3395918,68.8465306 43.5322449,69.3444898 43.9620408,70.3861224 C44.6,71.9338776 45.802449,73.14 47.3477551,73.7832653 C48.1220408,74.1053061 48.9297959,74.2685714 49.7485714,74.2685714 C52.2906122,74.2685714 54.5640816,72.7518367 55.5408163,70.404898 C55.9734694,69.3640816 57.1681633,68.8714286 58.2089796,69.304898 C59.2497959,69.737551 59.7420408,70.9322449 59.3093878,71.9730612 C57.697551,75.8469388 53.9444898,78.3502041 49.7489796,78.3502041 C48.3885714,78.3502041 47.0534694,78.0816327 45.7795918,77.5514286 C43.2277551,76.4897959 41.2420408,74.497551 40.1885714,71.9420408 C39.7587755,70.9 40.2555102,69.7069388 41.297551,69.277551 Z M44.2942857,60.2502041 C45.4861224,60.2502041 46.4559184,61.22 46.4559184,62.4122449 C46.4559184,63.6040816 45.4861224,64.5738776 44.2942857,64.5738776 C43.1020408,64.5738776 42.1326531,63.6040816 42.1326531,62.4122449 C42.1326531,61.22 43.102449,60.2502041 44.2942857,60.2502041 Z M55.4016327,60.2502041 C56.5934694,60.2502041 57.5632653,61.22 57.5632653,62.4122449 C57.5632653,63.6040816 56.5934694,64.5738776 55.4016327,64.5738776 C54.2093878,64.5738776 53.2395918,63.6040816 53.2395918,62.4122449 C53.2395918,61.22 54.2093878,60.2502041 55.4016327,60.2502041 Z M49.6869388,8.16326531 C40.0306122,8.16326531 32.1746939,16.0191837 32.1746939,25.6755102 L32.1746939,25.6755102 L32.1746939,36.1714286 L67.1995918,36.1714286 L67.1995918,25.6755102 C67.1995918,16.0191837 59.3432653,8.16326531 49.6869388,8.16326531 Z" id="icon-websafe-child" fill="#ED0000"></path>
    </g>
</svg>