<?xml version="1.0" encoding="UTF-8"?>
<svg width="100px" height="100px" viewBox="0 0 100 100" version="1.1" xmlns="http://www.w3.org/2000/svg" xmlns:xlink="http://www.w3.org/1999/xlink">
    <title>Random/Moving home</title>
    <g id="Random/Moving-home" stroke="none" stroke-width="1" fill="none" fill-rule="evenodd">
        <path d="M74.8540268,59.3955307 C74.9023729,59.4304816 74.9496958,59.4674586 74.9949724,59.5064618 L81.1385116,64.7589728 L94.8915776,68.7238727 C95.520333,68.9052121 96.0332113,69.3575475 96.2877319,69.9552584 C99.5067141,77.5238991 97.2178192,84.3669288 97.1188248,84.6546405 C96.8185161,85.5266399 95.9912601,86.1129538 95.0609169,86.1129538 L90.2572561,86.1129538 C89.1818745,88.963984 86.4038908,91 83.1542125,91 C79.9045343,91 77.1262947,88.963984 76.051169,86.1129538 L47.8108921,86.1129538 C46.7355105,88.963984 43.9575268,91 40.7078485,91 C37.4581703,91 34.6799307,88.963984 33.604805,86.1129538 L26.4303933,86.1129538 C25.22967,86.1129538 24.2560967,85.1490183 24.2560967,83.9601815 C24.2560967,82.9539504 24.9541738,82.1115833 25.8962838,81.8755382 L25.8962838,53.9930854 C25.8962838,52.8042486 26.8698571,51.8403132 28.0705804,51.8403132 L61.0060591,51.8403132 C61.990376,51.7352073 64.7895912,52.1389154 74.8540268,59.3955307 Z M83.3840912,80.377055 C81.552527,80.377055 80.0622938,81.866334 80.0622938,83.6967253 C80.0622938,85.5271167 81.552527,87.0163956 83.3840912,87.0163956 C85.2156554,87.0163956 86.7058887,85.5271167 86.7058887,83.6967253 C86.7058887,81.866334 85.2156554,80.377055 83.3840912,80.377055 Z M40.8650839,80.377055 C39.0335197,80.377055 37.5432865,81.866334 37.5432865,83.6967253 C37.5432865,85.5271167 39.0335197,87.0163956 40.8650839,87.0163956 C42.6966481,87.0163956 44.1868813,85.5271167 44.1868813,83.6967253 C44.1868813,81.866334 42.6966481,80.377055 40.8650839,80.377055 Z M57.3845143,56.4754289 L29.9031523,56.4754289 L29.9031523,82.0368902 L32.9837436,82.0368902 C33.7601631,78.7221901 36.7775247,76.2425351 40.373425,76.2425351 C43.9693254,76.2425351 46.986687,78.7221901 47.7631065,82.0368902 L75.4618046,82.0368902 C76.2382242,78.7221901 79.2555857,76.2425351 82.8514861,76.2425351 C86.4473865,76.2425351 89.464748,78.7221901 90.2411676,82.0368902 L93.0524567,82.0368902 C93.399836,80.1417667 93.7077927,76.6265045 92.3489944,72.8256619 L82.1413681,69.8966971 L63.4934747,69.8966971 C63.0905455,69.8966971 62.6991358,69.762989 62.3829874,69.516512 L58.0641695,66.1553925 C57.6335932,65.8206176 57.3827224,65.3094994 57.3827224,64.7691167 L57.3845143,56.4754289 Z M49.5602457,10.0005285 L49.6794956,10.0046615 C49.6898117,10.0052069 49.7001263,10.0058003 49.7104391,10.0064417 C49.7564137,10.0094934 49.8024988,10.0133535 49.8484897,10.0181681 C49.8659519,10.0197252 49.8832954,10.0216674 49.9006274,10.0237465 C49.9302755,10.0276137 49.9600025,10.0316032 49.9896759,10.035993 C50.0253106,10.0409044 50.0606787,10.0467051 50.0959713,10.0530822 C50.1296778,10.0595722 50.1636622,10.0662685 50.1975477,10.0734955 C50.2193779,10.0777311 50.2406586,10.0824887 50.2619029,10.087459 C50.2907537,10.0946333 50.3201853,10.1019394 50.3495259,10.1096501 C50.5601894,10.1646212 50.7665625,10.24107 50.9656045,10.3388417 C51.1925232,10.4505116 51.4035957,10.585193 51.5998614,10.7453274 L51.6173142,10.7603104 L51.6173142,10.7603104 L51.6932207,10.8249509 L95.2087672,49.0011594 C96.5874702,50.2106961 96.7239783,52.3081633 95.5136665,53.6859835 C94.3253603,55.0387524 92.2805701,55.1948532 90.9017469,54.055328 L90.8258404,53.9906875 L85.875,49.647 L85.8754393,56.4754289 C85.8754393,58.3088322 84.3882199,59.7950992 82.5536419,59.7950992 C80.7501583,59.7950992 79.2823584,58.3587871 79.2331206,56.5683481 L79.2318444,56.4754289 L79.231,43.818 L49.485,17.722 L19.771,43.398 L19.7716701,77.0573847 C19.7716701,78.890788 18.2844507,80.377055 16.4498727,80.377055 C14.6463891,80.377055 13.1785892,78.940743 13.1293514,77.1503039 L13.1280752,77.0573847 L13.128,49.139 L7.4945193,54.0070523 C6.10677249,55.2062153 4.00904478,55.0540584 2.80911333,53.6672002 C1.63099881,52.3055577 1.75634679,50.2599553 3.07471382,49.0510837 L3.14918312,48.9847946 L47.2757918,10.8552256 C47.2859528,10.8460369 47.2961592,10.8369212 47.3064101,10.8278786 L47.3290892,10.8085862 L47.3518266,10.7885404 C47.3889534,10.7569661 47.4266372,10.7263282 47.464845,10.6966288 L47.3290892,10.8085862 C47.3865942,10.7588956 47.4453184,10.7115253 47.5051473,10.6664671 C47.5451031,10.6357026 47.5859036,10.6064171 47.6272247,10.5781567 C47.6385156,10.5710288 47.6494661,10.5636273 47.6604484,10.556299 C47.6984368,10.5304095 47.7374141,10.5056035 47.7768001,10.48168 C47.7985789,10.4688557 47.8198577,10.4562339 47.8412384,10.4438728 C47.8748205,10.4241622 47.9089979,10.4052505 47.9434414,10.3869802 C47.9632766,10.3766222 47.9832091,10.3662809 48.0032177,10.3561573 C48.0374646,10.3387703 48.0718731,10.322155 48.1065112,10.3061615 C48.1322778,10.294199 48.1585497,10.2824479 48.1849319,10.2710584 C48.2161768,10.2577315 48.2472301,10.2449229 48.2784402,10.2326007 C48.3152331,10.2178144 48.3526398,10.2037879 48.3902253,10.190465 C48.4055743,10.1853488 48.4206315,10.1801457 48.4357197,10.1750531 C48.539417,10.1396391 48.6446346,10.1098254 48.7507383,10.0853153 C48.7688784,10.0815496 48.7875477,10.0774021 48.8062468,10.0734162 C48.8370291,10.0664421 48.867287,10.0604433 48.8976009,10.0548704 C48.9277023,10.0497271 48.9581203,10.0445584 48.9885969,10.0398129 C49.0220477,10.0342493 49.0557523,10.0295433 49.0895014,10.0253568 C49.114789,10.0225211 49.1401387,10.019656 49.1655159,10.0170814 C49.2057609,10.0127588 49.2458131,10.009456 49.2858931,10.0068778 C49.307421,10.0056573 49.3294456,10.0044394 49.3514809,10.0034394 C49.3924968,10.0014835 49.4330545,10.0004214 49.4736071,10.0000976 C49.4884727,10.0000009 49.5031831,9.99996899 49.5178944,10.0000342 L49.5602457,10.0005285 L49.5602457,10.0005285 Z M61.4617502,56.1434619 L61.4602281,63.625977 L64.5807747,66.1024728 L76.0761368,66.1024728 L72.3059097,62.8308163 C64.9082786,57.4230102 62.1492293,56.3481794 61.4617502,56.1434619 Z" id="icon-moving-home" fill="#ED0000"></path>
    </g>
</svg>