<?xml version="1.0" encoding="UTF-8"?>
<svg width="99px" height="98px" viewBox="0 0 99 98" version="1.1" xmlns="http://www.w3.org/2000/svg" xmlns:xlink="http://www.w3.org/1999/xlink">
    <title>Devices/laptop</title>
    <g id="Devices/laptop" stroke="none" stroke-width="1" fill="none" fill-rule="evenodd">
        <path d="M95.5372082,77.6837513 C97.2647398,77.6837513 98.665461,79.0270454 98.665461,80.6837513 C98.665461,82.3404572 97.2647398,83.6837513 95.5372082,83.6837513 L3.12825279,83.6837513 C1.40035316,83.6837513 -2.13162821e-14,82.3404572 -2.13162821e-14,80.6837513 C-2.13162821e-14,79.0270454 1.40035316,77.6837513 3.12825279,77.6837513 L95.5372082,77.6837513 Z M86.5403162,17 C92.305239,17 96.9954514,21.754141 96.9954514,27.597641 L96.9954514,27.597641 L96.9954514,64.0045385 C96.9954514,69.8480385 92.305239,74.6021795 86.5403162,74.6021795 L86.5403162,74.6021795 L12.7891386,74.6021795 C7.02384905,74.6021795 2.33400349,69.8480385 2.33400349,64.0045385 L2.33400349,64.0045385 L2.33400349,27.597641 C2.33400349,21.754141 7.02384905,17 12.7891386,17 L12.7891386,17 Z M86.5403162,24.4358974 L12.7891386,24.4358974 C11.0663008,24.4358974 9.66991083,25.8516923 9.66991083,27.597641 L9.66991083,27.597641 L9.66991083,64.0045385 C9.66991083,65.7504872 11.0663008,67.1662821 12.7891386,67.1662821 L12.7891386,67.1662821 L86.5403162,67.1662821 C88.2627873,67.1662821 89.659544,65.7504872 89.659544,64.0045385 L89.659544,64.0045385 L89.659544,27.597641 C89.659544,25.8516923 88.2627873,24.4358974 86.5403162,24.4358974 L86.5403162,24.4358974 Z" id="icon-laptop" fill="#ED0000"></path>
    </g>
</svg>