<?xml version="1.0" encoding="UTF-8"?>
<svg width="100px" height="100px" viewBox="0 0 100 100" version="1.1" xmlns="http://www.w3.org/2000/svg" xmlns:xlink="http://www.w3.org/1999/xlink">
    <title>Random/Award</title>
    <g id="Random/Award" stroke="none" stroke-width="1" fill="none" fill-rule="evenodd">
        <path d="M85.8080011,1.3204 C83.9748011,0.505999993 81.831601,1.3312 81.018001,3.16280003 L60.0808007,50.2732007 L54.6996006,38.1652006 L68.9460008,6.11000008 C69.7596008,4.27840005 68.9352008,2.13360002 67.1036008,1.32 C65.2704008,0.505599993 63.1276007,1.3308 62.3132007,3.16240003 L50.7280006,29.2300004 L39.1432004,3.16320003 C38.3288004,1.3312 36.1840003,0.506799993 34.3528003,1.3208 C32.5216003,2.13480002 31.6964003,4.27960005 32.5104003,6.11080008 L51.9228006,49.7896007 C48.3752005,49.8256007 45.0052005,50.6064007 41.9560004,51.9804008 L20.2600001,3.16320003 C19.4456001,1.3312 17.3008001,0.506799993 15.4696,1.3208 C13.6384,2.13480002 12.8132,4.27960005 13.6272,6.11080008 L35.7768003,55.9496008 C30.5324003,60.5300009 27.2096002,67.258001 27.2096002,74.7516011 C27.2096002,88.5192013 38.4104004,99.7200015 52.1780006,99.7200015 C65.9456008,99.7200015 77.146401,88.5192013 77.146401,74.7516011 C77.146401,66.218401 72.8412009,58.6748009 66.2916008,54.1696008 L87.6500011,6.11080008 C88.4640011,4.27920005 87.6392011,2.13480002 85.8080011,1.3204 Z M69.8880008,74.7516011 C69.8880008,84.5168012 61.9432007,92.4616014 52.1780006,92.4616014 C42.4128004,92.4616014 34.4680003,84.5168012 34.4680003,74.7516011 C34.4680003,70.257601 36.1536003,66.152001 38.9220004,63.0260009 L38.9220004,63.0260009 C40.5720004,61.1628009 42.6076004,59.6504009 44.9028005,58.6116009 L44.9028005,58.6116009 C47.1240005,57.6064008 49.5856005,57.0420008 52.1780006,57.0420008 C53.2324006,57.0420008 54.2640006,57.1400008 55.2680006,57.3176008 C59.6432007,58.0912009 63.4672008,60.4744009 66.1064008,63.8340009 L66.1064008,63.8340009 C68.4720008,66.844401 69.8880008,70.634401 69.8880008,74.7516011 Z" id="icon-award" fill="#ED0000"></path>
    </g>
</svg>