<?xml version="1.0" encoding="UTF-8"?>
<svg width="100px" height="100px" viewBox="0 0 100 100" version="1.1" xmlns="http://www.w3.org/2000/svg" xmlns:xlink="http://www.w3.org/1999/xlink">
    <title>Logos/Virgin simple</title>
    <g id="Logos/Virgin-simple" stroke="none" stroke-width="1" fill="none" fill-rule="evenodd">
        <path d="M92.7351905,33.3434973 C90.3575493,31.3882175 87.3479653,30.3412854 84.2544284,30.3933281 C80.063365,30.6109791 76.0030619,31.9086874 72.4774996,34.1573371 C67.934525,37.1731983 63.9701765,40.9621681 60.7692409,45.3476343 C55.6007394,37.9878641 49.092501,31.640689 41.5759371,26.629319 C36.3333501,23.2559346 30.2797781,21.3137584 24.0307166,21 C19.499702,20.9765992 15.1116667,22.5656262 11.6700916,25.4763793 C4.97024082,31.7505047 1.40403238,40.6176572 1.91893188,49.7220231 C1.44582778,58.76991 5.00935656,67.5684382 11.6700916,73.798117 C15.1160005,76.6629435 19.4925858,78.2040785 23.9963815,78.1385959 C30.2486543,77.8149462 36.3024714,75.8609909 41.541602,72.4756273 C49.0658316,67.4735032 55.5756688,61.124769 60.7349058,53.7573121 C63.9263129,58.1509098 67.8922732,61.9414201 72.4431645,64.9476092 C75.9567802,67.2258029 80.0222413,68.5368656 84.2200933,68.7455283 C87.3200368,68.8003733 90.3343496,67.7397436 92.7008555,65.761449 C97.1891621,61.5705596 99.5869576,55.6440851 99.2588537,49.5524732 C99.5910798,43.4669292 97.2069259,37.5431573 92.7351905,33.3434973 Z M38.8978017,68.2368784 C34.4651963,71.131651 29.335868,72.8163598 24.0307166,73.1199172 C20.7703132,73.1485882 17.6059281,72.030725 15.1035985,69.966288 C9.26663674,65.1510692 7.17219751,56.6735714 7.17219751,49.6202932 C7.17219751,42.567015 9.26663674,34.0216972 15.1035985,29.2742984 C17.6419253,27.1792606 20.8606148,26.0594415 24.1680569,26.1206692 C29.468915,26.4462119 34.5926429,28.1290812 39.0351419,31.0037079 C46.408144,35.987731 52.7480945,42.3182514 57.7134197,49.6542032 C52.5943637,56.890973 46.2252879,63.1811978 38.8978017,68.2368784 L38.8978017,68.2368784 Z M63.9280673,49.5524732 C66.9383036,45.1767955 70.7594412,41.4029648 75.1899701,38.429996 C77.8908527,36.6505696 81.0154201,35.5985636 84.2544284,35.3780968 C86.1618811,35.3400103 88.0177637,35.9911743 89.4733589,37.2092363 C92.68954,40.5057632 94.3585176,44.9832762 94.0742582,49.5524732 C94.3234228,54.152062 92.6040569,58.6433598 89.3360187,61.92962 C87.8770849,63.1382265 86.0206203,63.7775323 84.1170881,63.7268496 C80.876835,63.5388236 77.7467962,62.4966848 75.0526298,60.7088603 C70.7393055,57.6300858 66.9790201,53.8590431 63.9280673,49.5524732 L63.9280673,49.5524732 Z" id="icon-virgin-simple" fill="#ED0000" fill-rule="nonzero"></path>
    </g>
</svg>