<?xml version="1.0" encoding="UTF-8"?>
<svg width="100px" height="100px" viewBox="0 0 100 100" version="1.1" xmlns="http://www.w3.org/2000/svg" xmlns:xlink="http://www.w3.org/1999/xlink">
    <title>Network/WiFi</title>
    <g id="Network/WiFi" stroke="none" stroke-width="1" fill="none" fill-rule="evenodd">
        <path d="M49.49974,73 C53.0842434,73 56,75.91564 56,79.5 C56,83.08436 53.0842434,86 49.49974,86 C45.9157566,86 43,83.08436 43,79.5 C43,75.91564 45.9157566,73 49.49974,73 Z M50.003336,53 C57.9348003,53 65.5210737,56.1172049 71.3687049,61.7788704 C73.4779119,63.8211771 73.5513906,67.2063044 71.5331067,69.3400576 C69.5142942,71.4748804 66.1681086,71.5481446 64.0589015,69.5063727 C60.1888502,65.7592026 55.1970602,63.6960397 50.0028074,63.6960397 L49.9980498,63.6960397 C44.8043256,63.6971092 39.8130642,65.7634808 35.9435415,69.5138596 C34.9185409,70.5069372 33.6017402,71 32.287054,71 C30.896246,71 29.5075525,70.4481119 28.4693363,69.3518227 C26.4494666,67.219139 26.5208308,63.8340117 28.6295092,61.7906355 C34.4760831,56.1236222 42.0639423,53.0021391 49.9959353,53 L50.003336,53 Z M50.5063095,34 C63.4895276,34 75.8696004,38.9586075 85.3687425,47.9641174 C87.4779009,49.9634799 87.5513778,53.2782951 85.5331405,55.3682521 C83.5149032,57.4582091 80.1682661,57.5304752 78.0591077,55.5311127 C70.5374999,48.4013798 60.7523791,44.4738735 50.5063095,44.4738735 L50.4967945,44.4738735 L50.4967945,44.4738735 C40.2475532,44.4764919 30.4624325,48.4081874 22.9429391,55.544728 C21.9184908,56.5171786 20.6017204,57 19.2870645,57 C17.89576,57 16.5076272,56.4595751 15.4689063,55.3860568 C13.4496118,53.2976708 13.5209743,49.9828556 15.6290755,47.9819221 C25.1255745,38.9690808 37.5072331,34.0036657 50.4941515,34 L50.5063095,34 L50.5063095,34 Z M50.0113007,14 C68.0475034,14 85.2194526,21.0162413 98.3687911,33.7588358 C100.477887,35.8028533 100.551361,39.1908163 98.5331843,41.326357 C96.5150071,43.4624329 93.1684698,43.5362937 91.0593743,41.4928114 C79.8880397,30.6668512 65.3093793,24.7049997 50.0113007,24.7049997 L49.9965,24.7049997 L49.9965,24.7049997 C34.6926068,24.7087463 20.1128892,30.6780909 8.9426118,41.5126147 C7.91819397,42.5065242 6.6009343,43 5.28684621,43 C3.89558319,43 2.50696315,42.4476496 1.46880183,41.3499068 C-0.550432489,39.2154366 -0.479072113,35.8274736 1.62949483,33.7823856 C14.7767189,21.0301571 31.9523684,14.004817 49.9933284,14 L50.0113007,14 L50.0113007,14 Z" id="icon-wifi" fill="#ED0000"></path>
    </g>
</svg>