<?xml version="1.0" encoding="UTF-8"?>
<svg width="100px" height="100px" viewBox="0 0 100 100" version="1.1" xmlns="http://www.w3.org/2000/svg" xmlns:xlink="http://www.w3.org/1999/xlink">
    <title>Random/cake</title>
    <g id="Random/cake" stroke="none" stroke-width="1" fill="none" fill-rule="evenodd">
        <path d="M99.7855372,43.6545455 C99.781405,43.6227273 99.7780992,43.5909091 99.7731405,43.5590909 C99.746281,43.3826446 99.7086777,43.2099174 99.6599174,43.0409091 C99.6520661,43.0132231 99.6429752,42.9863636 99.6342975,42.9590909 C99.5793388,42.7822314 99.5157025,42.6095041 99.4384298,42.4429752 C99.4334711,42.4318182 99.4272727,42.4214876 99.4219008,42.4107438 C99.3400826,42.238843 99.2466942,42.0731405 99.142562,41.9144628 C99.1376033,41.9066116 99.1342975,41.8983471 99.1293388,41.8904959 L73.3239669,3.1822314 C72.6904959,2.23181818 71.6917355,1.58595041 70.5652893,1.39834711 C49.4731405,-2.11694215 32.1144628,3.61157025 21.2657025,9.03595041 C9.51033058,14.9136364 2.73264463,21.6239669 2.44958678,21.9066116 C2.44628099,21.9099174 2.44380165,21.9136364 2.44049587,21.9173554 C2.31900826,22.0396694 2.20661157,22.1698347 2.10206612,22.3049587 C2.07024793,22.3458678 2.04338843,22.3896694 2.01322314,22.4318182 C1.94380165,22.5293388 1.8768595,22.6285124 1.8161157,22.731405 C1.7838843,22.7859504 1.75454545,22.8417355 1.72520661,22.8979339 C1.67396694,22.9942149 1.6268595,23.0921488 1.58347107,23.192562 C1.55826446,23.2508264 1.53347107,23.3090909 1.51115702,23.368595 C1.47107438,23.4752066 1.43677686,23.5834711 1.4053719,23.6929752 C1.39008264,23.7471074 1.37231405,23.8004132 1.35867769,23.8549587 C1.32396694,23.9983471 1.29752066,24.1438017 1.27809917,24.2913223 C1.27520661,24.3128099 1.26942149,24.3342975 1.26694215,24.3557851 C1.24917355,24.5115702 1.23966942,24.6694215 1.23966942,24.8285124 L1.23966942,76.4392562 C1.23966942,78.3880165 2.60082645,80.0714876 4.50619835,80.4797521 L94.8252066,99.8338843 C95.1123967,99.8950413 95.4024793,99.9256198 95.6909091,99.9256198 C96.627686,99.9256198 97.5466942,99.6070248 98.288843,99.0066116 C99.2595041,98.222314 99.8231405,97.0409091 99.8231405,95.7933884 L99.8231405,44.1830579 C99.8231405,44.0041322 99.8078512,43.8285124 99.7855372,43.6545455 Z M9.50413223,29.9400826 L91.5586777,47.5231405 L91.5586777,64.8764463 L9.50413223,47.2933884 L9.50413223,29.9400826 Z M9.50413223,73.0991736 L9.50413223,55.7458678 L91.5586777,73.3289256 L91.5586777,90.6822314 L9.50413223,73.0991736 Z" id="icon-cake" fill="#ED0000"></path>
    </g>
</svg>