<?xml version="1.0" encoding="UTF-8"?>
<svg width="100px" height="100px" viewBox="0 0 100 100" version="1.1" xmlns="http://www.w3.org/2000/svg" xmlns:xlink="http://www.w3.org/1999/xlink">
    <title>Random/Popcorn</title>
    <g id="Random/Popcorn" stroke="none" stroke-width="1" fill="none" fill-rule="evenodd">
        <path d="M43.048583,-7.10542736e-15 C44.1360324,-7.10542736e-15 46.0595142,0.15465587 47.9473684,1.06477733 C48.7595142,0.911336032 49.5991903,0.839676113 50.4210526,0.853846154 C51.9380567,0.88097166 55.7165992,1.25587045 58.0295547,4.14089069 C58.9255061,5.2582996 59.4271255,6.59919028 59.4931174,8.0417004 C60.917004,8.14129555 62.2323887,8.66518219 63.3226721,9.57165992 C64.4672065,10.5230769 65.3271255,11.8295547 65.8587045,13.4076923 C67.3947368,13.9688259 68.6587045,14.8404858 69.5712551,15.9785425 C70.4676113,17.0963563 70.9692308,18.437247 71.0348178,19.8793522 C72.4587045,19.9789474 73.7740891,20.502834 74.8643725,21.4093117 C77.7080972,23.7732794 78.0153846,27.5578947 78.0153846,29.0753036 C78.0153846,30.5927126 77.7080972,34.3777328 74.8643725,36.7417004 C74.5688259,36.9874494 74.2562753,37.2036437 73.9299595,37.3923077 L73.9299595,37.3923077 L63.1538462,96.6445344 C62.8562753,98.2805668 61.4307692,99.4700405 59.7680162,99.4700405 L59.7680162,99.4700405 L25.0016194,99.4700405 C23.3384615,99.4700405 21.9133603,98.2805668 21.6157895,96.6445344 L21.6157895,96.6445344 L10.8,37.1765182 C10.5765182,37.0319838 10.3582996,36.8781377 10.1506073,36.705668 C7.30688259,34.3425101 7,30.5574899 7,29.040081 L7.00085315,28.900401 C7.02024677,27.3012531 7.39053346,23.6681234 10.1510121,21.3736842 C11.2412955,20.4676113 12.5566802,19.9437247 13.9805668,19.8441296 C14.0461538,18.4024291 14.5477733,17.0619433 15.4437247,15.9437247 C16.3562753,14.8052632 17.6206478,13.9336032 19.1566802,13.3724696 C19.688664,11.7939271 20.548583,10.4870445 21.6927126,9.53603239 C22.7834008,8.62955466 24.0983806,8.10566802 25.5222672,8.00607287 C25.5878543,6.56396761 26.0894737,5.22388664 26.9854251,4.10566802 C29.2987854,1.2194332 33.0773279,0.84534413 34.594332,0.818218623 C34.9647773,0.811740891 36.5522267,0.627935223 37.7117409,0.493927126 C40.2923077,0.195546559 42.0582996,-7.10542736e-15 43.048583,-7.10542736e-15 Z M83.7668016,76.4502024 C85.0101215,76.7708502 88.0510121,77.8267206 89.408502,80.7020243 C89.7546559,81.4356275 89.9425101,82.2137652 89.9692308,83.0072874 C90.7866397,83.4287449 91.4874494,84.0315789 92.0348178,84.7894737 L92.0356275,84.7902834 C93.8951417,87.3688259 93.3489879,90.5404858 93.0283401,91.7846154 C92.7072874,93.0287449 91.6506073,96.0692308 88.7769231,97.4263158 C87.9821862,97.8012146 87.1356275,97.9902834 86.2744939,97.9902834 C85.7688259,97.9902834 85.2578947,97.9251012 84.7497976,97.794332 C82.9712551,97.3356275 81.542915,96.154251 80.6578947,95.2445344 C80.642915,95.2287449 80.6275304,95.2125506 80.6125506,95.1963563 C80.1574899,94.7060729 79.737247,94.1761134 79.3421053,93.591498 C78.7137652,93.9121457 78.0894737,94.1728745 77.454251,94.3817814 C77.4331984,94.388664 77.4125506,94.3951417 77.3923077,94.4012146 C76.1777328,94.7704453 74.3566802,95.1137652 72.5761134,94.6550607 C71.2016194,94.3004049 70.0445344,93.5161943 69.2291498,92.38583 C67.3700405,89.8097166 67.9153846,86.6368421 68.2360324,85.3923077 C68.557085,84.1473684 69.61417,81.1072874 72.4874494,79.7502024 C73.3360324,79.3493927 74.2489879,79.1651822 75.1676113,79.188664 C75.5744939,78.5076923 76.1145749,77.9178138 76.7716599,77.4437247 C79.3510121,75.5825911 82.5226721,76.1295547 83.7668016,76.4502024 Z M17.991498,38.2554656 L27.8728745,92.5870445 L30.9963563,92.5870445 L24.8769231,38.259919 L17.991498,38.2554656 Z M30.5809717,38.2635628 L36.7,92.5870445 L39.6319838,92.5870445 L39.6319838,38.2692308 L30.5809717,38.2635628 Z M45.2995951,39.405668 L45.2995951,92.5870445 L48.2388664,92.5870445 L53.7753036,43.4319838 C51.7716599,43.3408907 48.0554656,42.7595142 45.6566802,39.8740891 C45.5299595,39.7214575 45.4125506,39.5647773 45.2995951,39.405668 L45.2995951,39.405668 Z M64.1874494,38.2850202 C63.9218623,38.8473684 63.582996,39.3777328 63.1700405,39.8740891 C62.140081,41.1129555 60.8663968,41.9246964 59.5894737,42.4578947 L59.5894737,42.4578947 L53.942915,92.5870445 L56.8955466,92.5870445 L66.7724696,38.2866397 Z M80.0882591,82.040081 C80.048583,82.0684211 80.0222672,82.0878543 79.9919028,82.2048583 C79.9720648,82.2813765 79.9489879,82.4259109 79.9530364,82.6643725 C79.9712551,83.7036437 79.4186235,84.6700405 78.5129555,85.1813765 C77.6089069,85.6931174 76.4955466,85.6676113 75.61417,85.1149798 C75.3635628,84.9578947 75.1963563,84.8955466 75.0995951,84.8704453 C74.9821862,84.8404858 74.9530364,84.8538462 74.9089069,84.8748988 C74.4562753,85.0882591 73.9582996,85.9008097 73.7246964,86.8068826 C73.491498,87.7121457 73.5336032,88.6639676 73.8263158,89.0688259 C73.8554656,89.1097166 73.8744939,89.1360324 73.991498,89.1659919 C74.2834008,89.2408907 74.8874494,89.2336032 75.7133603,88.9870445 C76.6279352,88.6813765 77.5651822,88.1522267 78.659919,87.3251012 C79.6417004,86.582996 80.9526316,86.5765182 81.9275304,87.2182186 C82.3817814,87.5133603 82.745749,87.9360324 82.9704453,88.440081 C83.5287449,89.6927126 84.0931174,90.6072874 84.7441296,91.3157895 C85.3477733,91.9307692 85.8728745,92.2303644 86.1647773,92.3052632 C86.282996,92.3360324 86.3121457,92.3214575 86.357085,92.3004049 C86.8080972,92.0874494 87.3060729,91.2744939 87.5396761,90.3684211 C87.7732794,89.4635628 87.7307692,88.5121457 87.4384615,88.1060729 C87.4105263,88.0672065 87.3902834,88.0392713 87.2728745,88.0093117 C87.1777328,87.9846154 87.0012146,87.9595142 86.7076923,87.9740891 C85.6700405,88.0348178 84.6874494,87.5121457 84.1437247,86.6275304 C83.6,85.742915 83.5838057,84.6319838 84.1012146,83.7319838 C84.2194332,83.5263158 84.2680162,83.3906883 84.2882591,83.3133603 C84.3186235,83.1959514 84.3044534,83.1663968 84.2834008,83.1218623 C84.0700405,82.6696356 83.2578947,82.1720648 82.3518219,81.9384615 C81.445749,81.7048583 80.4939271,81.7469636 80.0882591,82.040081 Z M43.048583,5.66963563 C42.3105263,5.66963563 40.0287449,5.93319838 38.362753,6.12591093 C36.4331984,6.34898785 35.3117409,6.4757085 34.6955466,6.48663968 C33.2672065,6.51174089 31.9461538,6.97975709 31.4080972,7.651417 C31.242915,7.85789474 31.1777328,8.06396761 31.182996,8.36396761 C31.1927126,8.90647773 31.4417004,9.63805668 31.8842105,10.4230769 C32.5032389,11.5214575 32.3222672,12.8967611 31.4396761,13.7979757 C30.557085,14.6991903 29.18583,14.908502 28.0744939,14.311336 C27.2894737,13.8898785 26.5615385,13.6574899 26.0242915,13.6574899 C25.7246964,13.6574899 25.5190283,13.7267206 25.3157895,13.8955466 C24.8352227,14.2947368 24.4659919,15.1040486 24.3024291,16.1157895 C24.111336,17.2959514 23.2008097,18.2291498 22.0259109,18.4489879 C21.0348178,18.634413 20.2477733,19.0137652 19.8663968,19.4890688 C19.7012146,19.6955466 19.6360324,19.9016194 19.6412955,20.2016194 C19.6510121,20.7441296 19.9,21.4757085 20.342915,22.2607287 C20.9619433,23.3591093 20.7809717,24.7348178 19.8987854,25.6356275 C19.0161943,26.5364372 17.6449393,26.7465587 16.5336032,26.1497976 C15.7477733,25.7279352 15.0194332,25.4955466 14.4825911,25.4955466 C14.1825911,25.4955466 13.9773279,25.5643725 13.7740891,25.7331984 C13.1125506,26.282996 12.6680162,27.6125506 12.6680162,29.0404858 C12.6680162,30.4684211 13.1125506,31.7975709 13.7740891,32.3473684 C13.9777328,32.5165992 14.1825911,32.5854251 14.4825911,32.5854251 L14.4825911,32.5854251 L46.7842105,32.6060729 C48.2663968,32.6068826 49.4975709,33.7493927 49.608502,35.2271255 C49.6388664,35.6271255 49.7684211,35.9526316 50.0161943,36.2510121 C50.7862348,37.1773279 52.505668,37.7761134 54.3991903,37.7793522 L54.3991903,37.7793522 L54.4131579,37.7797571 L54.4131579,37.7797571 L54.6971947,37.7752881 C56.482836,37.7188957 58.0778745,37.132915 58.811336,36.2506073 C59.0582996,35.9530364 59.1882591,35.6291498 59.2186235,35.2315789 C59.3323887,33.7550607 60.5635628,32.6153846 62.0441296,32.6153846 L62.0441296,32.6153846 L62.0461538,32.6153846 L70.5327935,32.6206478 C70.8327935,32.6206478 71.0380567,32.5518219 71.2412955,32.382996 C71.9032389,31.8327935 72.3477733,30.5036437 72.3477733,29.0757085 C72.3477733,27.6477733 71.9036437,26.3186235 71.2417004,25.7688259 L71.2417004,25.7688259 L71.1390801,25.6921971 C70.9670153,25.578565 70.782861,25.5307692 70.5331984,25.5307692 C69.9959514,25.5307692 69.2680162,25.762753 68.4834008,26.1846154 C67.3724696,26.7813765 66.0012146,26.5724696 65.1182186,25.6716599 C64.2352227,24.7708502 64.0538462,23.3951417 64.6728745,22.2967611 C65.1153846,21.5109312 65.3651822,20.7793522 65.3744939,20.237247 C65.3797571,19.937247 65.3145749,19.7307692 65.1493927,19.5246964 C64.7680162,19.0489879 63.9805668,18.6700405 62.9898785,18.4846154 C61.8149798,18.2647773 60.9040486,17.3311741 60.7133603,16.1510121 C60.5497976,15.1396761 60.1805668,14.3307692 59.7,13.9311741 C59.4967611,13.7623482 59.291498,13.6935223 58.991498,13.6935223 C58.4546559,13.6935223 57.7263158,13.9259109 56.9404858,14.3477733 C55.8299595,14.9437247 54.4582996,14.734413 53.5757085,13.8340081 C52.6931174,12.9331984 52.5121457,11.5578947 53.1307692,10.4595142 C53.5732794,9.67368421 53.8230769,8.94210526 53.8323887,8.4 C53.8376518,8.1 53.7724696,7.89352227 53.6072874,7.68785425 C53.0688259,7.01619433 51.7477733,6.54777328 50.3198381,6.52226721 C49.6587045,6.50931174 48.9647773,6.60688259 48.3578947,6.79352227 C47.5327935,7.04736842 46.6388664,6.91133603 45.9263158,6.42469636 C45.2340081,5.95182186 44.1582996,5.66963563 43.048583,5.66963563 Z" id="icon-popcorn" fill="#ED0000"></path>
    </g>
</svg>