<?xml version="1.0" encoding="UTF-8"?>
<svg width="100px" height="100px" viewBox="0 0 100 100" version="1.1" xmlns="http://www.w3.org/2000/svg" xmlns:xlink="http://www.w3.org/1999/xlink">
    <title>App/Fingerprint</title>
    <g id="App/Fingerprint" stroke="none" stroke-width="1" fill="none" fill-rule="evenodd">
        <path d="M99.0101895,80.3826973 C99.5179849,80.3826973 99.9361501,80.7643881 99.9932972,81.2571368 L99.9999529,81.3726963 L99.9999529,90.1000094 C99.9999529,95.4524845 95.6946941,99.8486909 90.3759562,99.9961773 L90.0999622,100 L81.2088277,100 C80.7008134,100 80.2826326,99.6174962 80.2254844,99.1251975 L80.2188286,99.0097652 L80.2188286,95.0500047 C80.2188286,94.5424282 80.6007227,94.1236689 81.0933117,94.0664358 L81.2088277,94.0597699 L90.0999622,94.0597699 C92.1808745,94.0597699 93.9499326,92.3544348 94.0552374,90.2941589 L94.0601942,90.1000094 L94.0601942,81.3726963 C94.0601942,80.8644631 94.4416817,80.4464699 94.9344014,80.3893496 L95.0499575,80.3826973 L99.0101895,80.3826973 Z M5.8917601,80.3827915 C6.39293257,80.3827915 6.80713606,80.7644824 6.86375098,81.2572311 L6.87034506,81.3727906 L6.87034506,90.099868 C6.87034506,92.1792049 8.55145311,93.9461902 10.5856089,94.0545962 L10.7835202,94.0598642 L19.7263565,94.0598642 C20.2281779,94.0598642 20.6416243,94.442368 20.6981278,94.934478 L20.7047085,95.0498633 L20.7047085,99.0098595 C20.7047085,99.5172172 20.3271065,99.9359608 19.8404704,99.9931928 L19.7263565,99.9998586 L10.7835202,99.9998586 C5.49401539,99.9998586 1.14952896,95.6945998 1.00377777,90.3758621 L1,90.099868 L1,81.3727906 C1,80.8645574 1.37699949,80.4465642 1.8642955,80.3894439 L1.97858496,80.3827915 L5.8917601,80.3827915 Z M52.5478912,84.5999204 C55.3391433,84.5999204 57.5046033,85.5132074 59.4148484,86.31991 C60.014002,86.571837 60.5796425,86.8103637 61.1192889,86.9998244 C62.2894536,87.4107005 62.8903258,88.6542552 62.4617452,89.7774128 C62.1287627,90.6552404 61.2632232,91.1999141 60.3439768,91.1999141 C60.086184,91.1999141 59.8240946,91.1566206 59.56845,91.0671473 C58.8949662,90.8310946 58.2363054,90.5538099 57.5997719,90.2847716 C55.9483938,89.5879521 54.3906804,88.9309214 52.5478912,88.9309214 C51.749163,88.9309214 49.5605016,89.4323016 47.6292034,89.8753386 C45.4201335,90.3826974 42.9148166,90.9562334 40.9229371,91.1844521 C39.6881093,91.3240222 38.5628435,90.4767062 38.4159015,89.2890207 C38.2696041,88.1007167 39.1527595,87.0233266 40.3914541,86.883138 C42.1221035,86.6860495 44.4907902,86.1424066 46.5802013,85.6639101 C49.4548065,85.0033747 51.2804096,84.5999204 52.5478912,84.5999204 Z M55.9113671,75.7999288 C58.3450551,75.7999288 61.1128656,76.9957365 64.044857,78.2618738 C65.9658398,79.0931533 67.9519632,79.9518287 69.673536,80.3778953 C70.9167464,80.6837473 71.6525693,81.8611548 71.3202193,83.0074864 C71.0419316,83.9661362 70.1011596,84.5999204 69.0737551,84.5999204 C68.873902,84.5999204 68.6718332,84.5755912 68.4704291,84.5252974 C66.3513657,84.0021188 64.1738088,83.0618692 62.0691472,82.1522866 C59.729625,81.1408897 57.3085663,80.0951457 55.9113671,80.0951457 C54.6987328,80.0951457 50.8997511,81.1124716 47.5489988,82.0106052 C43.9359115,82.9780461 39.8404737,84.0749017 36.7214801,84.5678223 C35.4492444,84.7685888 34.2518982,83.9829008 34.0336551,82.8146934 C33.8174061,81.6456681 34.6677788,80.5355235 35.9344753,80.3349615 C38.7949007,79.8821125 42.7558476,78.8214439 46.2506183,77.8856922 C51.0781123,76.5925679 54.1262046,75.7999288 55.9113671,75.7999288 Z M55.6331538,64.7999392 C58.3993757,64.7999392 60.7516951,66.2229125 63.4746043,67.8721061 C66.2273924,69.5387012 69.3496123,71.4270344 73.8715038,72.5212236 C75.1864031,72.8378793 76.0255576,74.308575 75.7464571,75.8043184 C75.5034891,77.10759 74.4945581,77.999552 73.3700494,77.999552 C73.2025891,77.999552 73.0311912,77.9803048 72.8625728,77.9391738 C67.667829,76.683361 64.0768129,74.5097476 61.1903809,72.7622089 C58.9527128,71.4083145 57.1852306,70.3391731 55.6331538,70.3391731 C54.1832208,70.3391731 51.7725336,71.2150517 48.4374562,72.4249877 C44.1990659,73.9639713 38.3947016,76.0706151 30.3193162,77.9433924 C29.0014059,78.2495017 27.7170803,77.2818693 27.4497924,75.7826983 C27.1806515,74.2840546 28.0311553,72.8220597 29.3462861,72.5156867 C37.1661961,70.7030239 42.8262619,68.6477939 46.9588025,67.1475683 C50.8537023,65.7343504 53.4274491,64.7999392 55.6331538,64.7999392 Z M51.3473302,27.3999749 C54.4637277,27.3999749 57.4249192,28.607192 59.5445116,30.7129079 C61.6056561,32.7614186 62.6886595,35.4346943 62.5943571,38.2394 C61.7682294,62.8321658 43.9531922,67.0272869 32.1644181,69.8031536 C30.0858375,70.2924701 28.1231701,70.7550752 26.5507278,71.2680302 C26.2756793,71.3571473 25.9971927,71.399933 25.7231266,71.399933 C24.6467538,71.399933 23.6440548,70.7475109 23.2788788,69.7128546 C22.8221019,68.4136837 23.5450865,67.0050667 24.8947886,66.5649182 C26.6796568,65.9819933 28.7484142,65.495277 30.9384877,64.9794853 C42.4330582,62.2726429 56.7399994,58.9043959 57.4394084,38.0796039 C57.4877875,36.6310378 56.917553,35.2427499 55.8377422,34.1683809 C54.68524,33.0223874 53.0737506,32.3659468 51.4178114,32.3659468 C49.6690434,32.3659468 48.1083889,33.0223874 46.9514662,34.2158943 C46.0190028,35.1767985 45.6587384,36.7125906 45.2832481,38.6204523 C43.2225947,49.0762249 35.4546855,54.9059469 23.4080534,55.0369041 C21.9679782,55.0681069 20.8162127,53.9530798 20.8000745,52.5827571 C20.7837962,51.2112525 21.9264753,50.0865336 23.3503423,50.0709322 C33.0777264,49.9662137 38.5946585,45.9174148 40.214252,37.6964241 C40.6096342,35.6791162 41.1540828,32.9157779 43.1801096,30.8261362 C45.2925801,28.6485594 48.2694887,27.3999749 51.3473302,27.3999749 Z M59.07347,58.7262553 C60.1258118,57.9460753 61.7184999,58.0446763 62.6329321,58.9462587 C64.2513281,60.5452373 66.524915,62.0022716 68.5714556,62.7502009 C71.2217713,63.7191606 73.5042478,64.4613381 76.0190565,64.9342118 C77.3808541,65.1903688 78.2400263,66.3403023 77.9404212,67.5039988 C77.6826215,68.5123989 76.637968,69.199935 75.4789504,69.199935 C75.2994757,69.199935 75.1180789,69.1830907 74.9350002,69.1485804 C71.8644686,68.5721757 69.109159,67.6393697 66.5864218,66.7186834 C63.8412031,65.7143917 60.9357306,63.8641861 58.8151897,61.7697377 C57.9029199,60.8687716 58.0187255,59.5064353 59.07347,58.7262553 Z M51.6127564,18.5999832 C61.9315699,18.5999832 70.4441071,27.1004171 70.5892795,37.5491077 C70.6341296,40.7782873 70.4828197,42.4915275 70.3492138,44.0027524 C70.2521961,45.0932104 70.1632042,46.1219088 70.1495131,47.6727353 C70.0900278,54.6532225 74.0358869,56.4235078 78.4370919,57.7541684 C79.7483654,58.1494771 80.4895713,59.5310539 80.0932386,60.8402636 C79.7696102,61.9104494 78.785742,62.5999413 77.7213798,62.5999413 C77.4827304,62.5999413 77.2412483,62.5650542 77.0028349,62.4933942 C73.4398535,61.4163724 65.0942057,58.8979 65.1909874,47.6303051 C65.2060947,45.8833564 65.3085417,44.7056806 65.4095723,43.5676063 C65.5394013,42.1068263 65.6708828,40.5946585 65.6307538,37.6167605 C65.5238219,29.861685 59.2344302,23.5520676 51.6127564,23.5520676 C44.5519442,23.5520676 39.2185665,28.2818645 37.692721,35.8966843 C36.7046039,40.8247249 33.7324627,46.5174533 25.2333805,45.6704979 C23.8701754,45.5340138 22.876157,44.3198008 23.0125955,42.9594391 C23.1495061,41.5990774 24.3625816,40.6024374 25.7276752,40.7424573 C28.5452017,41.027683 31.6459917,40.830618 32.8300327,34.9240881 C34.8166533,25.0081332 42.1883472,18.5999832 51.6127564,18.5999832 Z M51.2680995,34.0011046 C52.7235053,34.0572607 53.855655,35.2497232 53.7979307,36.6651011 C52.9762375,56.8566373 35.8356274,60.2164811 25.5945797,62.2241838 C25.0344028,62.3335661 24.4933,62.4395302 23.9720243,62.5457385 C23.792075,62.5826062 23.6121257,62.5999413 23.4334313,62.5999413 C22.2106796,62.5999413 21.1146704,61.7673661 20.8559148,60.5568359 C20.559262,59.171001 21.474067,57.8117793 22.9001087,57.5234299 C23.4299176,57.4164892 23.9828163,57.3083276 24.5532831,57.1962596 C34.3942762,55.2674196 47.8729054,52.6244206 48.5294569,36.462695 C48.5869302,35.0475613 49.8152034,33.959842 51.2680995,34.0011046 Z M50.4892761,9.79999162 C65.6694095,9.79999162 78.0203545,22.0373258 78.0203545,37.0802442 L78.0203545,37.0802442 L78.0184477,37.1633517 C78.0105822,37.3852863 77.8291995,42.6184578 77.4828802,45.8121916 C77.244294,48.0180803 78.2413029,48.8111424 78.4624897,48.9594137 C79.6747266,49.3435495 80.4155116,50.5823697 80.1440334,51.8403141 C79.8916231,53.0031099 78.8536184,53.7999497 77.6978699,53.7999497 C77.523876,53.7999497 77.3474986,53.7820061 77.1699295,53.7451744 C75.4612141,53.380871 71.9105468,50.7459875 72.5047479,45.2833261 C72.8162685,42.4099809 72.9957444,37.5411128 73.0131438,37.03751 C72.9897857,24.7498864 62.8950411,14.7599946 50.4892761,14.7599946 C41.2983464,14.7599946 32.8679845,20.4752837 29.5099023,28.9824632 C29.1426083,29.9178941 28.8139267,31.2117258 28.5243341,32.3537448 C28.2693019,33.3616586 28.067183,34.1587345 27.8355089,34.7463891 C27.33188,36.0206244 25.8774817,36.6500688 24.5915953,36.1514242 C23.3040405,35.6518351 22.6690819,34.2130376 23.1729492,32.9373857 C23.2887862,32.6448569 23.4901901,31.8489616 23.6679976,31.1458537 C23.9942957,29.8609939 24.3627814,28.4044888 24.8468658,27.1774736 C28.9493082,16.7829052 39.2537989,9.79999162 50.4892761,9.79999162 Z M90.0905718,1 C95.4483813,1 99.8485546,5.24049031 99.9961738,10.4792128 L100,10.7510548 L100,19.8248757 C100,20.325463 99.6177419,20.7371679 99.1248722,20.7934288 L99.0092931,20.7999811 L95.0452859,20.7999811 C94.5365682,20.7999811 94.11838,20.4240325 94.0612343,19.9386967 L94.054579,19.8248757 L94.054579,10.7510548 C94.054579,8.70322448 92.3502861,6.96261086 90.2909277,6.85582234 L90.0905718,6.85063289 L81.1907255,6.85063289 C80.682446,6.85063289 80.2638822,6.47368331 80.2066806,5.98913395 L80.2000186,5.87552741 L80.2000186,1.97510548 C80.2000186,1.47538051 80.5822768,1.06293647 81.0751465,1.00656551 L81.1907255,1 L90.0905718,1 Z M19.7263565,1 C20.2281779,1 20.6416243,1.37360835 20.6981278,1.85427391 L20.7047085,1.96697582 L20.7047085,5.83487912 C20.7047085,6.33022399 20.3271065,6.73941264 19.8404704,6.79534089 L19.7263565,6.80185494 L10.7835202,6.80185494 C8.72796912,6.80185494 6.98262511,8.46449554 6.87554848,10.4742286 L6.87034506,10.6697582 L6.87034506,19.6679287 C6.87034506,20.1643425 6.49193961,20.572615 6.00574828,20.6284069 L5.8917601,20.6349046 L1.97858496,20.6349046 C1.47589838,20.6349046 1.0629927,20.2620903 1.0065709,19.7808008 L1,19.6679287 L1,10.6697582 C1,5.44308719 5.25230456,1.15033542 10.5060976,1.00386321 L10.7835202,1 L19.7263565,1 Z" id="icon-fingerprint" fill="#ED0000"></path>
    </g>
</svg>