<?xml version="1.0" encoding="UTF-8"?>
<svg width="100px" height="98px" viewBox="0 0 100 98" version="1.1" xmlns="http://www.w3.org/2000/svg" xmlns:xlink="http://www.w3.org/1999/xlink">
    <title>Devices/Wall Box - Internal</title>
    <g id="Devices/Wall-Box---Internal" stroke="none" stroke-width="1" fill="none" fill-rule="evenodd">
        <path d="M72.8167032,3.00058954 C75.651581,3.00058954 77.9497035,5.29871207 77.9497035,8.13358986 L77.9497035,84.1019946 C77.9497035,86.9368724 75.651581,89.2349949 72.8167032,89.2349949 L60.552,89.2345895 L60.3031568,90.953564 C59.793211,94.475078 56.7747822,97.0878954 53.2165375,97.0878954 L46.6481764,97.0878954 C43.126991,97.0878954 40.1283795,94.5278233 39.5762247,91.0501988 L39.288,89.2345895 L27.1330003,89.2349949 C24.2981225,89.2349949 22,86.9368724 22,84.1019946 L22,8.13358986 C22,5.29871207 24.2981225,3.00058954 27.1330003,3.00058954 L72.8167032,3.00058954 Z M55.3707713,89.2356513 L44.8391133,89.2355096 C45.5634631,91.3110797 47.4935309,92.7803122 49.7437783,92.8748725 L49.9748517,92.8797201 C52.3804657,92.8797201 54.4984157,91.4059029 55.3707713,89.2356513 Z M67.3769026,9.39028993 L32.5728006,9.39028993 C30.6523996,9.39028993 29.0838776,10.8968635 28.9846809,12.7925644 L28.9797004,12.9833902 L28.9797004,79.2521945 C28.9797004,81.1725955 30.486274,82.7411175 32.3819749,82.8403142 L32.5728006,82.8452947 L67.3769026,82.8452947 C69.2973037,82.8452947 70.8658256,81.3387211 70.9650223,79.4430202 L70.9700028,79.2521945 L70.9700028,12.9833902 C70.9700028,10.9989757 69.361317,9.39028993 67.3769026,9.39028993 Z M41.4898994,57.9943507 C43.4200495,58.0915407 45.2898187,58.6931509 46.9090987,59.7380934 C49.2307428,61.2904198 51.240945,63.2565262 52.8373422,65.5362951 C53.8260164,64.1778493 55.0504864,63.0041747 56.4536768,62.0699789 C57.5426186,61.3734352 58.7967261,60.9714559 60.0912215,60.9040362 C61.0467235,60.8879154 61.9762949,61.212214 62.7106779,61.8178831 C64.0918647,63.1187735 64.8282592,64.9537262 64.7256444,66.8387896 C64.826986,68.7257327 64.0863779,70.5615226 62.7000729,71.8596961 C61.9691292,72.4724944 61.0380972,72.801036 60.0806164,72.7840471 C58.7840242,72.7194116 57.5283236,72.3132957 56.4430717,71.6076004 C55.037436,70.6764006 53.8124683,69.5022489 52.8267371,68.1412842 C51.2332015,70.4234341 49.2225054,72.3900235 46.8984936,73.9394859 C45.2802812,74.988139 43.4104363,75.5933979 41.4792943,75.6936519 C40.0882051,75.7139359 38.7364074,75.2365526 37.6720681,74.3491414 C35.6147642,72.4194307 34.5140956,69.6939909 34.6602235,66.8913096 C34.5011863,64.0711332 35.6026825,61.3244364 37.6720681,59.3809578 C38.7350688,58.4793204 40.090403,57.987102 41.4898994,57.9943507 Z M41.6709579,60.4499349 C40.7917621,60.4336122 39.9361589,60.7321446 39.261412,61.2906604 C37.7098105,62.5562687 37.1530594,64.8343636 37.1530594,66.714696 C37.1530594,68.5950283 37.7098105,70.8550432 39.261412,72.1387316 C39.92659,72.6890895 40.7677578,72.9871005 41.6344496,72.9794571 C43.0446834,72.8985318 44.4081793,72.4494055 45.5864699,71.6776886 C47.5342878,70.3298954 49.2273377,68.6529854 50.588103,66.723736 C49.268203,64.7680458 47.5828952,63.0803934 45.6229782,61.7517034 C44.4420576,60.9853571 43.0800504,60.5367212 41.6709579,60.4499349 Z M59.9311749,63.3175123 C59.164258,63.3698639 58.424438,63.6196709 57.7849359,64.0422097 C56.7358966,64.7481644 55.8311459,65.64429 55.1183966,66.6833289 C55.8407866,67.7059576 56.7311289,68.6014212 57.7524172,69.3325003 C58.390329,69.7570332 59.1314445,70.0044972 59.8986561,70.0491454 C60.3493653,70.0611804 60.7889301,69.9093722 61.1343695,69.6223792 C61.9081599,68.842031 62.3152631,67.7755372 62.2562671,66.6833289 C62.3235727,65.5983373 61.9284001,64.5351168 61.1668882,63.7523307 C60.8222394,63.4630924 60.3828124,63.3084684 59.9311749,63.3175123 Z" id="icon-wall-box-internal" fill="#ED0000"></path>
    </g>
</svg>