<?xml version="1.0" encoding="UTF-8"?>
<svg width="100px" height="100px" viewBox="0 0 100 100" version="1.1" xmlns="http://www.w3.org/2000/svg" xmlns:xlink="http://www.w3.org/1999/xlink">
    <title>Paper/Email to read</title>
    <g id="Paper/Email-to-read" stroke="none" stroke-width="1" fill="none" fill-rule="evenodd">
        <path d="M79.4259574,10.3331915 C90.686383,10.3331915 99.8476596,19.4940426 99.8476596,30.7548936 C99.8476596,39.4987234 94.3229787,46.973617 86.5817021,49.8795745 L86.5817021,49.8795745 L86.5817021,75.8153191 C86.5817021,83.2212766 80.5565957,89.246383 73.1506383,89.246383 L73.1506383,89.246383 L13.4914894,89.246383 C6.08553191,89.246383 0.0604255319,83.2212766 0.0604255319,75.8153191 L0.0604255319,75.8153191 L0.0604255319,38.912766 C0.0604255319,31.5068085 6.08553191,25.4817021 13.4914894,25.4817021 L13.4914894,25.4817021 L59.6982979,25.4817021 C62.0293617,16.7693617 69.9885106,10.3331915 79.4259574,10.3331915 Z M8.57106383,41.0310638 L8.57106383,75.8153191 C8.57106383,78.5217021 10.7851064,80.7357447 13.4914894,80.7357447 L13.4914894,80.7357447 L73.1502128,80.7357447 C75.8565957,80.7357447 78.0706383,78.5212766 78.0706383,75.8153191 L78.0706383,75.8153191 L78.0706383,51.1268085 C74.3476596,50.8817021 70.8970213,49.6310638 67.9808511,47.6502128 L67.9808511,47.6502128 L47.6187234,62.9761702 C46.2544681,64.0025532 44.6140426,64.5170213 42.9731915,64.5170213 C41.3578723,64.5170213 39.7425532,64.0187234 38.3897872,63.0208511 L38.3897872,63.0208511 L8.57106383,41.0310638 Z M59.2634043,33.9923404 L13.4914894,33.9923404 C13.4519149,33.9923404 13.4131915,33.9974468 13.3740426,33.9982979 L13.3740426,33.9982979 L42.9693617,55.8234043 L62.0502128,41.4621277 C60.6638298,39.2212766 59.6961702,36.6957447 59.2634043,33.9923404 L59.2634043,33.9923404 Z M79.4259574,17.567234 C72.1540426,17.567234 66.2382979,23.4834043 66.2382979,30.7548936 C66.2382979,38.0268085 72.1540426,43.9425532 79.4259574,43.9425532 C86.6974468,43.9425532 92.613617,38.026383 92.613617,30.7548936 C92.613617,23.4829787 86.6978723,17.567234 79.4259574,17.567234 Z M79.4365957,19.5838298 C81.4340426,19.5838298 83.053617,21.2034043 83.053617,23.2008511 L83.053617,23.2008511 L83.053617,26.7353191 L86.5885106,26.7353191 C88.5859574,26.7353191 90.2055319,28.3548936 90.2055319,30.3523404 C90.2055319,32.3497872 88.5859574,33.9693617 86.5885106,33.9693617 L86.5885106,33.9693617 L83.053617,33.9693617 L83.053617,37.5038298 C83.053617,39.5012766 81.4340426,41.1208511 79.4365957,41.1208511 C77.4391489,41.1208511 75.8195745,39.5012766 75.8195745,37.5038298 L75.8195745,37.5038298 L75.8195745,33.9693617 L72.2851064,33.9693617 C70.2876596,33.9693617 68.6680851,32.3497872 68.6680851,30.3523404 C68.6680851,28.3548936 70.2876596,26.7353191 72.2851064,26.7353191 L72.2851064,26.7353191 L75.8195745,26.7353191 L75.8195745,23.2008511 C75.8195745,21.2034043 77.4391489,19.5838298 79.4365957,19.5838298 Z" id="icon-email-to-read" fill="#ED0000"></path>
    </g>
</svg>