<?xml version="1.0" encoding="UTF-8"?>
<svg width="100px" height="100px" viewBox="0 0 100 100" version="1.1" xmlns="http://www.w3.org/2000/svg" xmlns:xlink="http://www.w3.org/1999/xlink">
    <title>Site/Alert</title>
    <g id="Site/Alert" stroke="none" stroke-width="1" fill="none" fill-rule="evenodd">
        <path d="M50.1229823,0.00163836736 C77.7466752,0.00163836736 100.219751,22.4747139 100.219751,50.0984068 C100.219751,77.7216901 77.7466752,100.194766 50.1229823,100.194766 C22.499699,100.194766 0.0262138778,77.7216901 0.0262138778,50.0984068 C0.0262138778,22.4751235 22.4992894,0.00163836736 50.1229823,0.00163836736 Z M50.1229823,8.19388476 C27.0166778,8.19388476 8.21805068,26.9921023 8.21805068,50.0984068 C8.21805068,73.2047112 27.0166778,92.0029287 50.1229823,92.0029287 C73.2296963,92.0029287 92.0279138,73.2043016 92.0279138,50.0984068 C92.0279138,26.9921023 73.2296963,8.19388476 50.1229823,8.19388476 Z M50.1139404,71.8227206 C52.3826696,71.8227206 54.2278809,73.6683415 54.2278809,75.9366611 C54.2278809,78.2049807 52.3826696,80.0506015 50.1139404,80.0506015 C47.8452112,80.0506015 46,78.2049807 46,75.9366611 C46,73.6683415 47.8452112,71.8227206 50.1139404,71.8227206 Z M50.147527,20 C52.4092931,20 54.2434454,21.5267271 54.2434454,23.4101566 L54.2434454,64.5895024 C54.2434454,66.4729319 52.4092931,68 50.147527,68 C47.8853512,68 46.0516086,66.4729319 46.0516086,64.5898434 L46.0516086,23.4101566 C46.0516086,21.5267271 47.8853512,20 50.147527,20 Z" id="icon-alert" fill="#ED0000"></path>
    </g>
</svg>