<?xml version="1.0" encoding="UTF-8"?>
<svg width="100px" height="98px" viewBox="0 0 100 98" version="1.1" xmlns="http://www.w3.org/2000/svg" xmlns:xlink="http://www.w3.org/1999/xlink">
    <title>Devices/Booster</title>
    <g id="Devices/Booster" stroke="none" stroke-width="1" fill="none" fill-rule="evenodd">
        <path d="M68.341632,3.55271368e-14 C75.4462622,3.55271368e-14 81.2260625,5.77980023 81.2260625,12.8844305 L81.2260625,12.8844305 L81.2260625,84.6576934 C81.2260625,91.7623236 75.4458722,97.5421239 68.341632,97.5421239 L68.341632,97.5421239 L31.8844305,97.5421239 C24.7798002,97.5421239 19,91.7619336 19,84.6576934 L19,84.6576934 L19,12.8844305 C19,5.77980023 24.7801902,3.55271368e-14 31.8844305,3.55271368e-14 L31.8844305,3.55271368e-14 Z M68.341632,7.80000031 L31.8844305,7.80000031 C29.0877404,7.80000031 26.8000003,10.0881304 26.8000003,12.8844305 L26.8000003,12.8844305 L26.8000003,84.6576934 C26.8000003,87.4543835 29.0881304,89.7421236 31.8844305,89.7421236 L31.8844305,89.7421236 L68.341632,89.7421236 C71.1383221,89.7421236 73.4260622,87.4539935 73.4260622,84.6576934 L73.4260622,84.6576934 L73.4260622,12.8844305 C73.4260622,10.0877404 71.1379321,7.80000031 68.341632,7.80000031 L68.341632,7.80000031 Z M43.259951,76.533213 C44.552021,76.533213 45.5999511,77.5811431 45.5999511,78.8732131 C45.5999511,80.1652832 44.552021,81.2132132 43.259951,81.2132132 L36.3160007,81.2132132 C35.0239306,81.2132132 33.9760006,80.1652832 33.9760006,78.8732131 C33.9760006,77.5811431 35.0239306,76.533213 36.3160007,76.533213 L43.259951,76.533213 Z M64.1077918,76.533213 C65.3998618,76.533213 66.4477919,77.5811431 66.4477919,78.8732131 C66.4477919,80.1652832 65.4002518,81.2132132 64.1077918,81.2132132 L57.1638415,81.2132132 C55.8717715,81.2132132 54.8238414,80.1652832 54.8238414,78.8732131 C54.8238414,77.5811431 55.8717715,76.533213 57.1638415,76.533213 L64.1077918,76.533213 Z M50.2280812,60.0026724 C51.5205413,60.0026724 52.5680813,61.0506024 52.5680813,62.3426725 L52.5680813,69.2870128 C52.5680813,70.5794728 51.5205413,71.6270128 50.2280812,71.6270128 C48.9360112,71.6270128 47.8880811,70.5790828 47.8880811,69.2870128 L47.8880811,62.3426725 C47.8880811,61.0506024 48.9360112,60.0026724 50.2280812,60.0026724 Z M41.1929509,27.1245011 C43.840271,27.1245011 46.3491411,28.3140011 47.9875312,29.3116212 C48.0031312,29.3209812 48.0183412,29.3307312 48.0339412,29.3404812 C50.0658412,30.6434712 51.9148313,32.3368513 53.8316814,34.6745114 C54.8339814,33.5735413 55.8202915,32.7338713 56.9087815,32.0357713 C56.9239915,32.0260213 56.9395915,32.0162713 56.9551915,32.0065213 C58.0842416,31.3193412 59.8201316,30.4999512 61.6796517,30.4999512 C62.9689397,30.4999512 64.1678587,30.8974392 65.1644778,31.6524626 L65.3749018,31.8197113 C65.3752918,31.8197113 65.3756818,31.8201013 65.3756818,31.8201013 C67.1049419,33.2607613 68.096712,35.6885114 68.096712,38.4820815 C68.096712,41.2756516 67.1049419,43.7037917 65.3752918,45.1444518 C64.3390618,46.0079118 63.0610318,46.4642118 61.6796517,46.4642118 C59.8197416,46.4642118 58.0838516,45.6448218 56.9551915,44.9576418 C56.9395915,44.9482818 56.9239915,44.9385318 56.9087815,44.9283918 C55.8202915,44.2302918 54.8343714,43.3906217 53.8316814,42.2896517 C51.9148313,44.6273118 50.0658412,46.3206918 48.0339412,47.6236819 C48.0183412,47.6334319 48.0031312,47.6431819 47.9875312,47.6525419 C46.3499211,48.6517219 43.840661,49.840832 41.1933409,49.840832 C39.3022308,49.840832 37.5530807,49.217612 36.1346507,48.0382519 C32.6570205,45.1475718 32.2814505,40.3926916 32.2814505,38.4828615 C32.2814505,36.5730315 32.6570205,31.8177613 36.1346507,28.9270811 C37.5526907,27.7481111 39.3022308,27.1245011 41.1929509,27.1245011 Z M41.1933409,31.8048913 C40.3864308,31.8048913 39.7105608,32.0408413 39.1267308,32.5263913 C37.5304607,33.8531713 36.9614507,36.4735814 36.9614507,38.4832515 C36.9614507,40.4929216 37.5300707,43.1133317 39.1263408,44.4397218 C39.7101708,44.9252718 40.3860408,45.1612218 41.1929509,45.1612218 C42.4058509,45.1612218 43.945181,44.6323818 45.5301411,43.6710317 C47.3514411,42.4983017 49.0389712,40.8677116 50.8817213,38.4828615 C49.0389712,36.0980114 47.3514411,34.4674214 45.5301411,33.2946913 C43.945571,32.3337313 42.4066309,31.8048913 41.1933409,31.8048913 Z M61.6800417,35.1803414 C61.0895817,35.1803414 60.2643416,35.4751814 59.4125816,35.9899814 C58.4995916,36.5796615 57.6536815,37.3588815 56.7243115,38.4828615 C57.6536815,39.6064516 58.4995916,40.3856716 59.4125816,40.9757416 C60.2647316,41.4905416 61.0899717,41.7853817 61.6800417,41.7853817 C61.9725417,41.7853817 62.1815817,41.7147917 62.3797017,41.5498217 C63.0095517,41.0248816 63.4167118,39.8209516 63.4167118,38.4828615 C63.4167118,37.1447715 63.0095517,35.9408414 62.3800917,35.4162914 C62.3797017,35.4162914 62.3797017,35.4159014 62.3793117,35.4155114 C62.1811917,35.2509314 61.9721517,35.1803414 61.6800417,35.1803414 Z" id="icon-booster" fill="#ED0000"></path>
    </g>
</svg>