<?xml version="1.0" encoding="UTF-8"?>
<svg width="100px" height="100px" viewBox="0 0 100 100" version="1.1" xmlns="http://www.w3.org/2000/svg" xmlns:xlink="http://www.w3.org/1999/xlink">
    <title>Devices/Mobile/Connection</title>
    <g id="Devices/Mobile/Connection" stroke="none" stroke-width="1" fill="none" fill-rule="evenodd">
        <path d="M69.4821862,0.0190283401 L69.7864236,0.0237815877 C73.6256221,0.143898245 76.903405,2.52919132 78.3251012,5.88461538 C78.5072874,6.31497976 78.6591093,6.76153846 78.7777328,7.22105263 C78.8566802,7.52753036 78.9210526,7.83967611 78.9696356,8.15708502 C79.042915,8.63319838 79.0809717,9.12064777 79.0809717,9.61700405 L79.0809717,9.61700405 L79.0809717,90.065587 C79.0809717,90.5619433 79.042915,91.0493927 78.9700405,91.5255061 C78.9214575,91.842915 78.857085,92.1550607 78.7781377,92.4615385 C78.659919,92.9210526 78.5080972,93.3676113 78.3255061,93.7979757 C76.8663968,97.2417004 73.4518219,99.6635628 69.4825911,99.6635628 L69.4825911,99.6635628 L35.9983806,99.6635628 L35.6941432,99.6588095 C31.8549447,99.5386928 28.5771618,97.1533998 27.1554656,93.7979757 C26.9732794,93.3676113 26.8214575,92.9210526 26.702834,92.4615385 C26.6238866,92.1550607 26.5595142,91.842915 26.5109312,91.5255061 C26.4380567,91.0493927 26.4,90.5619433 26.4,90.065587 L26.4,90.065587 L26.4,9.61700405 C26.4,9.12064777 26.4380567,8.63319838 26.5109312,8.15708502 C26.5595142,7.83967611 26.6238866,7.52753036 26.702834,7.22105263 C26.8210526,6.76153846 26.9728745,6.31497976 27.1554656,5.88461538 C28.6145749,2.44089069 32.0291498,0.0190283401 35.9983806,0.0190283401 L35.9983806,0.0190283401 L69.4821862,0.0190283401 Z M52.6838057,85.9040486 C51.1753036,85.9040486 49.8846154,86.4417004 48.8121457,87.5149798 C47.7348178,88.5902834 47.1991903,89.8801619 47.1991903,91.3902834 C47.1991903,92.8983806 47.7352227,94.1902834 48.8121457,95.2635628 C49.8846154,96.3388664 51.1753036,96.8744939 52.6838057,96.8744939 C54.1931174,96.8744939 55.4842105,96.3388664 56.5582996,95.2635628 C57.6323887,94.1902834 58.1708502,92.8987854 58.1712551,91.3902834 C58.1712551,89.8801619 57.6323887,88.5902834 56.5582996,87.5149798 C55.4838057,86.4417004 54.1931174,85.9040486 52.6838057,85.9040486 Z M69.4821862,17.545749 L35.540081,17.545749 C34.6979757,17.545749 33.2825911,18.7615385 33.2825911,20.2615385 L33.2825911,20.2615385 L33.2825911,79.8433198 C33.2825911,81.3433198 34.4983806,82.5591093 35.9983806,82.5591093 L35.9983806,82.5591093 L69.4821862,82.5591093 C70.9821862,82.5591093 72.1979757,81.3433198 72.1979757,79.8433198 L72.1979757,79.8433198 L72.1979757,20.2615385 C72.1979757,18.7615385 70.9821862,17.545749 69.4821862,17.545749 L69.4821862,17.545749 Z M45.0153846,59.2882591 C45.4801619,59.2882591 45.8441296,59.6676113 45.8441296,60.1566802 L45.8441296,60.1566802 L45.8441296,75.7838057 C45.8441296,76.2728745 45.4801619,76.6522267 45.0153846,76.6522267 L45.0153846,76.6522267 L40.0263158,76.6522267 C39.5595142,76.6522267 39.1959514,76.2724696 39.1959514,75.7838057 L39.1959514,75.7838057 L39.1959514,60.1566802 C39.1959514,59.6676113 39.5595142,59.2882591 40.0263158,59.2882591 L40.0263158,59.2882591 Z M54.9874494,48.8688259 C55.4522267,48.8688259 55.8157895,49.2481781 55.8161943,49.7368421 L55.8161943,49.7368421 L55.8161943,75.7842105 C55.8161943,76.2732794 55.4522267,76.6526316 54.9874494,76.6526316 L54.9874494,76.6526316 L49.9983806,76.6526316 C49.5311741,76.6526316 49.1696356,76.2728745 49.1696356,75.7842105 L49.1696356,75.7842105 L49.1696356,49.737247 C49.1696356,49.2481781 49.5315789,48.8688259 49.9983806,48.8688259 L49.9983806,48.8688259 Z M64.9591093,34.9777328 C65.4242915,34.9777328 65.7878543,35.3595142 65.7878543,35.8461538 L65.7878543,35.8461538 L65.7878543,75.7838057 C65.7878543,76.2728745 65.4238866,76.6522267 64.9591093,76.6522267 L64.9591093,76.6522267 L59.9700405,76.6522267 C59.5032389,76.6522267 59.1396761,76.2724696 59.1396761,75.7838057 L59.1396761,75.7838057 L59.1396761,35.8461538 C59.1396761,35.3591093 59.5032389,34.9777328 59.9700405,34.9777328 L59.9700405,34.9777328 Z M58.1708502,8.72348178 L47.1995951,8.72348178 C46.4684211,8.72348178 46.1016194,9.09109312 46.1016194,9.82145749 C46.1016194,10.5522267 46.4684211,10.9186235 47.1995951,10.9186235 L47.1995951,10.9186235 L58.1708502,10.9186235 C58.9012146,10.9186235 59.2659919,10.5518219 59.2659919,9.82145749 C59.2659919,9.09109312 58.9012146,8.72348178 58.1708502,8.72348178 L58.1708502,8.72348178 Z" id="icon-connection" fill="#ED0000"></path>
    </g>
</svg>