<?xml version="1.0" encoding="UTF-8"?>
<svg width="100px" height="100px" viewBox="0 0 100 100" version="1.1" xmlns="http://www.w3.org/2000/svg" xmlns:xlink="http://www.w3.org/1999/xlink">
    <title>Network/WiFi at home</title>
    <g id="Network/WiFi-at-home" stroke="none" stroke-width="1" fill="none" fill-rule="evenodd">
        <path d="M48.0357568,6.8925005 C49.5153844,5.74242621 51.6468839,5.76306204 53.1063745,7.04621514 L53.1063745,7.04621514 L98.5223108,46.9944223 C100.1749,48.4478088 100.335857,50.9653386 98.8832669,52.6171315 C98.0956175,53.512749 96.9952191,53.9701195 95.8900398,53.9701195 C94.9553785,53.9701195 94.0167331,53.6434263 93.2601594,52.9776892 L93.2601594,52.9776892 L89.0824701,49.3027888 L89.0824701,80.5231076 C89.0824701,88.0119522 82.9896414,94.1047809 75.5007968,94.1047809 L75.5007968,94.1047809 L25.4374502,94.1047809 C17.9482072,94.1047809 11.8557769,88.0119522 11.8557769,80.5231076 L11.8557769,80.5231076 L11.8557769,48.5505976 L6.71992032,52.97251 C5.96772908,53.6203187 5.04262948,53.9374502 4.12231076,53.9374502 C3.00199203,53.9374502 1.88924303,53.4681275 1.10119522,52.5525896 C-0.334262948,50.8848606 -0.146613546,48.3697211 1.52111554,46.9338645 L1.52111554,46.9338645 L47.7537849,7.12868526 C47.7916335,7.09322709 47.8318725,7.06175299 47.8709163,7.02788845 L47.8709163,7.02788845 L47.8737052,7.02549801 Z M50.4498008,15.3219124 L19.823506,41.6900398 L19.823506,80.5227092 C19.823506,83.6183267 22.3418327,86.136255 25.4370518,86.136255 L25.4370518,86.136255 L75.5003984,86.136255 C78.5960159,86.136255 81.1139442,83.6183267 81.1139442,80.5227092 L81.1139442,80.5227092 L81.1139442,42.2940239 L50.4498008,15.3219124 Z M50.4466135,72.9039841 C52.7322709,72.9039841 54.5908367,74.7629482 54.5908367,77.0482072 C54.5908367,79.3334661 52.7318725,81.1928287 50.4466135,81.1928287 C48.1613546,81.1928287 46.301992,79.3334661 46.301992,77.0482072 C46.301992,74.7629482 48.1613546,72.9039841 50.4466135,72.9039841 Z M50.4549801,61.7278884 C55.0972112,61.7278884 59.5378486,63.5306773 62.9593625,66.8055777 C64.310757,68.0988048 64.3577689,70.2422311 63.0645418,71.5936255 C61.7713147,72.9454183 59.6278884,72.9916335 58.276494,71.6988048 C56.1219124,69.6370518 53.3438247,68.5011952 50.4553785,68.5011952 L50.4553785,68.5011952 C47.5645418,68.501992 44.787251,69.6390438 42.6330677,71.7027888 C41.9768924,72.3314741 41.1334661,72.6438247 40.2908367,72.6438247 C39.3996016,72.6438247 38.5099602,72.2944223 37.8450199,71.6 C36.550996,70.2494024 36.5968127,68.1055777 37.9474104,66.8119522 C41.3677291,63.5346614 45.8083665,61.7294821 50.4513944,61.7278884 L50.4513944,61.7278884 Z M50.4549801,50.5262948 C57.9964143,50.5262948 65.1864542,53.4330677 70.7035857,58.7119522 C72.0549801,60.0055777 72.101992,62.149004 70.8091633,63.5003984 C69.5151394,64.8513944 67.3721116,64.8988048 66.0207171,63.6059761 C61.7705179,59.5386454 56.2426295,57.2992032 50.4549801,57.2992032 L50.4549801,57.2992032 C44.6605578,57.3007968 39.1322709,59.5434263 34.8836653,63.6139442 C34.22749,64.2426295 33.3840637,64.5549801 32.5414343,64.5549801 C31.6501992,64.5549801 30.7605578,64.2055777 30.0956175,63.5111554 C28.8015936,62.1605578 28.8474104,60.0171315 30.198008,58.7231076 C35.7131474,53.4394422 42.9043825,50.5286853 50.4482072,50.5262948 L50.4482072,50.5262948 Z M50.4561753,39.3250996 C60.8968127,39.3250996 70.8378486,43.336255 78.4494024,50.6207171 C79.8007968,51.9139442 79.8478088,54.0573705 78.5545817,55.4087649 C77.2613546,56.7601594 75.1179283,56.8075697 73.7665339,55.5139442 C67.4219124,49.4422311 59.1430279,46.098008 50.4561753,46.098008 L50.4561753,46.098008 C41.7573705,46.1003984 33.4780876,49.4482072 27.1342629,55.5250996 C26.4780876,56.1537849 25.6342629,56.4661355 24.7920319,56.4661355 C23.9007968,56.4661355 23.0111554,56.1167331 22.3462151,55.4223108 C21.0521912,54.0717131 21.0984064,51.9278884 22.449004,50.6342629 C30.0593625,43.3438247 40.001992,39.3278884 50.4458167,39.3250996 L50.4458167,39.3250996 Z" id="icon-wifi-at-home" fill="#ED0000"></path>
    </g>
</svg>