<?xml version="1.0" encoding="UTF-8"?>
<svg width="100px" height="100px" viewBox="0 0 100 100" version="1.1" xmlns="http://www.w3.org/2000/svg" xmlns:xlink="http://www.w3.org/1999/xlink">
    <title>Random/Gift</title>
    <g id="Random/Gift" stroke="none" stroke-width="1" fill="none" fill-rule="evenodd">
        <path d="M88.2718254,29.2309524 L87.084127,29.2309524 C87.0944444,28.9488095 87.0984127,28.6896825 87.0984127,28.4619048 C87.0984127,25.797619 86.5702381,19.1615079 81.6825397,15.0888889 C81.6821429,15.0888889 81.6825397,15.0888889 81.6809524,15.0876984 C79.6634921,13.4063492 77.172619,12.5174603 74.477381,12.5174603 C70.7607143,12.5174603 67.2551587,14.177381 64.9686508,15.5698413 C64.9424603,15.5861111 64.9162698,15.602381 64.890873,15.6186508 C62.3789683,17.2297619 60.1261905,19.2146825 57.7857143,21.9234127 C53.5190476,16.5694444 49.4563492,12.7714286 44.9769841,9.89801587 C44.9511905,9.88134921 44.925,9.86507937 44.8984127,9.84880952 C41.5301587,7.79761905 36.3837302,5.35238095 30.9960317,5.35238095 C27.1650794,5.35238095 23.7678571,6.56190476 20.8980159,8.94722222 C16.002381,13.0174603 13.0793651,20.3123016 13.0793651,28.4619048 C13.0793651,28.7202381 13.090873,28.9746032 13.0964286,29.2309524 L12.0242063,29.2309524 C5.58452381,29.2309524 0.345238095,34.4702381 0.345238095,40.9099206 L0.345238095,82.4761905 C0.345238095,88.9162698 5.58452381,94.1551587 12.0242063,94.1551587 L88.2714286,94.1551587 C94.7115079,94.1551587 99.9503968,88.9162698 99.9503968,82.4761905 L99.9503968,40.9099206 C99.9503968,34.4702381 94.7115079,29.2309524 88.2718254,29.2309524 Z M88.2718254,37.1674603 C90.3353175,37.1674603 92.0142857,38.8460317 92.0142857,40.9099206 L92.0142857,57.1130952 L61.6880952,57.1130952 L61.6880952,38.9166667 C62.7253968,39.8035714 63.7825397,40.593254 64.890873,41.3043651 C64.9162698,41.3210317 64.9424603,41.3373016 64.9686508,41.3531746 C67.2551587,42.7456349 70.7607143,44.4055556 74.477381,44.4055556 C77.1734127,44.4055556 79.6646825,43.5162698 81.6809524,41.8353175 C83.3051587,40.4825397 84.4460317,38.8464286 85.2484127,37.1670635 L88.2718254,37.1670635 L88.2718254,37.1674603 Z M69.1365079,22.3242063 C71.1277778,21.1178571 73.0230159,20.4539683 74.477381,20.4539683 C75.3281746,20.4539683 76.0027778,20.6861111 76.6007937,21.1849206 C76.6011905,21.1849206 76.6015873,21.1857143 76.602381,21.1861111 C78.4896825,22.7579365 79.1623016,25.9753968 79.1623016,28.4615079 C79.1623016,30.947619 78.4896825,34.1650794 76.6007937,35.7380952 C76.0027778,36.2369048 75.3281746,36.4690476 74.477381,36.4690476 C73.0230159,36.4690476 71.127381,35.8051587 69.1361111,34.5984127 C66.9337302,33.1789683 64.9222222,31.2797619 62.6734127,28.4615079 C64.922619,25.643254 66.934127,23.7440476 69.1365079,22.3242063 Z M25.9710317,15.0511905 C27.3972222,13.865873 29.040873,13.2896825 30.9960317,13.2896825 C33.7539683,13.2896825 37.2099206,14.4666667 40.7313492,16.6043651 C44.8535714,19.2563492 48.6472222,22.9678571 52.8162698,28.4619048 C48.6468254,33.9563492 44.8535714,37.6674603 40.7309524,40.3194444 C37.2095238,42.4571429 33.7539683,43.6337302 30.9960317,43.6337302 C29.0404762,43.6337302 27.3972222,43.0575397 25.9714286,41.872619 C22.3178571,38.8357143 21.0162698,32.9539683 21.0162698,28.4623016 C21.0162698,23.9706349 22.3178571,18.0880952 25.9710317,15.0511905 Z M12.0246032,37.1674603 L14.2698413,37.1674603 C15.5575397,41.6416667 17.8436508,45.4365079 20.897619,47.9753968 C23.7666667,50.3607143 27.1642857,51.5702381 30.9956349,51.5702381 C36.384127,51.5702381 41.5297619,49.125 44.8980159,47.0738095 C44.9242063,47.0579365 44.9503968,47.0416667 44.9765873,47.025 C48.0297619,45.0666667 50.8888889,42.6777778 53.7511905,39.6603175 L53.7511905,57.1130952 L8.28253968,57.1130952 L8.28253968,40.9099206 C8.28253968,38.8464286 9.96111111,37.1674603 12.0246032,37.1674603 Z M8.28253968,82.4761905 L8.28253968,65.0492063 L53.7515873,65.0492063 L53.7515873,86.2186508 L12.0246032,86.2186508 C9.96111111,86.2186508 8.28253968,84.5400794 8.28253968,82.4761905 Z M88.2718254,86.2186508 L61.6880952,86.2186508 L61.6880952,65.0492063 L92.0142857,65.0492063 L92.0142857,82.4761905 C92.0138889,84.5400794 90.3353175,86.2186508 88.2718254,86.2186508 Z" id="icon-gift" fill="#ED0000"></path>
    </g>
</svg>