<?xml version="1.0" encoding="UTF-8"?>
<svg width="100px" height="100px" viewBox="0 0 100 100" version="1.1" xmlns="http://www.w3.org/2000/svg" xmlns:xlink="http://www.w3.org/1999/xlink">
    <title>Location/Location pin</title>
    <g id="Location/Location-pin" stroke="none" stroke-width="1" fill="none" fill-rule="evenodd">
        <path d="M63.020186,45.0170233 C59.7008372,48.3411163 55.6935814,50 51,50 C46.3111628,50 42.3007442,48.3411163 38.979814,45.0170233 C35.6604651,41.6992558 34,37.692 34,32.9968372 C34,28.3064186 35.6604651,24.2991628 38.979814,20.9766512 C42.3007442,17.6588837 46.3111628,16 51,16 C55.6935814,16 59.7008372,17.6588837 63.020186,20.9766512 C66.3411163,24.2991628 68,28.3064186 68,32.9968372 C68,37.692 66.3411163,41.6992558 63.020186,45.0170233 M74.1883953,9.76403832 C67.6426512,3.25416266 59.746,0 50.4984419,0 C41.2508837,0 33.3542326,3.25416266 26.8116047,9.76403832 C20.2689767,16.278565 17,24.1341354 17,33.3322998 C17,38.0670367 17.7167442,41.9521875 19.1580233,44.990853 L43.0380698,95.3799882 C43.6971628,96.8078509 44.7099535,97.9380484 46.0811163,98.7643794 C47.4538372,99.5876097 48.9325116,100 50.4984419,100 C52.0674884,100 53.5446047,99.5876097 54.9157674,98.7643794 C56.2884884,97.9380484 57.3246512,96.8078509 58.0242558,95.3799882 L81.8419767,44.990853 C83.2832558,41.9521875 84,38.0670367 84,33.3322998 C84,24.1341354 80.7294651,16.278565 74.1883953,9.76403832" id="icon-pin" fill="#ED0000"></path>
    </g>
</svg>