<?xml version="1.0" encoding="UTF-8"?>
<svg width="100px" height="100px" viewBox="0 0 100 100" version="1.1" xmlns="http://www.w3.org/2000/svg" xmlns:xlink="http://www.w3.org/1999/xlink">
    <title>Random/1tb</title>
    <g id="Random/1tb" stroke="none" stroke-width="1" fill="none" fill-rule="evenodd">
        <path d="M50.2568007,1.3332 C77.2336011,1.3332 99.1800015,23.2800003 99.1800015,50.2568007 C99.1800015,77.2336011 77.2332011,99.1800015 50.2568007,99.1800015 C23.2800003,99.1800015 1.3332,77.2332011 1.3332,50.2568007 C1.3332,23.2804003 23.2800003,1.3332 50.2568007,1.3332 Z M50.2568007,9.33320012 C27.6916004,9.33320012 9.33320012,27.6916004 9.33320012,50.2568007 C9.33320012,72.8220011 27.6916004,91.1800013 50.2568007,91.1800013 C72.8220011,91.1800013 91.1800013,72.8220011 91.1800013,50.2568007 C91.1800013,27.6916004 72.8220011,9.33320012 50.2568007,9.33320012 Z M31.6096005,37.4568005 C32.0516005,37.4568005 32.4588005,37.8000005 32.4588005,38.2416006 L32.4588005,38.2416006 L32.4588005,62.4276009 C32.4588005,62.8692009 32.0512005,63.0568009 31.6096005,63.0568009 L31.6096005,63.0568009 L28.0264004,63.0568009 C27.5844004,63.0568009 27.2584003,62.8692009 27.2584003,62.4276009 L27.2584003,62.4276009 L27.2584003,46.2568007 L22.1664003,46.2568007 C21.7248003,46.2568007 21.2584003,45.8120007 21.2584003,45.3704007 L21.2584003,45.3704007 L21.2584003,42.7952006 C21.2584003,42.3604006 21.6600003,42.0088006 22.0948003,41.9992006 C24.9636004,41.9352006 27.1132004,40.4364006 27.6176004,38.0816006 C27.6968004,37.7128005 28.0228004,37.4568005 28.4000004,37.4568005 L28.4000004,37.4568005 Z M56.7956008,37.4568005 C57.2372008,37.4568005 57.6588008,37.8040005 57.6584011,38.2456006 L57.6584011,38.2456006 L57.6584011,41.3492006 C57.6584011,41.7908006 57.2368008,42.2564006 56.7952008,42.2564006 L56.7952008,42.2564006 L49.6584007,42.2564006 L49.6584007,62.4272009 C49.6584007,62.8688009 49.1536007,63.0564009 48.7120007,63.0564009 L48.7120007,63.0564009 L45.3696007,63.0564009 C44.9280007,63.0564009 44.4588005,62.8688009 44.4588005,62.4272009 L44.4588005,62.4272009 L44.4588005,42.2564006 L37.2864005,42.2564006 C36.8448005,42.2564006 36.4588005,41.7908006 36.4588005,41.3492006 L36.4588005,41.3492006 L36.4588005,38.2456006 C36.4588005,37.8040005 36.8448005,37.4568005 37.2864005,37.4568005 L37.2864005,37.4568005 Z M70.405601,37.4568005 C75.2492011,37.4568005 78.5040012,40.4044006 78.5040012,44.7996007 C78.5040012,46.9420007 77.5828011,48.7548007 75.9720011,49.9144007 C77.9884011,51.0780007 79.2544012,53.1984008 79.2544012,55.7592008 C79.2544012,60.0372009 75.7768011,63.0564009 70.985201,63.0564009 L70.985201,63.0564009 L62.5268009,63.0564009 C62.0848009,63.0564009 61.6588009,62.8688009 61.6588009,62.4272009 L61.6588009,62.4272009 L61.6588009,38.2456006 C61.6588009,37.8040005 62.0852009,37.4568005 62.5268009,37.4568005 L62.5268009,37.4568005 Z M70.644401,52.6568008 L66.858801,52.6568008 L66.858801,58.6568008 L70.508001,58.6568008 C72.8124011,58.6568008 74.2440011,57.5916008 74.2440011,55.7080008 C74.2440011,53.6728008 72.9656011,52.6568008 70.644401,52.6568008 L70.644401,52.6568008 Z M69.894001,41.8568006 L66.858801,41.8568006 L66.858801,47.8568006 L70.030401,47.8568006 C72.1876011,47.8568006 73.5280011,46.7064007 73.5280011,44.8228007 C73.5280011,42.9532006 72.1692011,41.8568006 69.894001,41.8568006 L69.894001,41.8568006 Z" id="icon-1tb" fill="#ED0000"></path>
    </g>
</svg>