<?xml version="1.0" encoding="UTF-8"?>
<svg width="100px" height="100px" viewBox="0 0 100 100" version="1.1" xmlns="http://www.w3.org/2000/svg" xmlns:xlink="http://www.w3.org/1999/xlink">
    <title>Random/Rocket</title>
    <g id="Random/Rocket" stroke="none" stroke-width="1" fill="none" fill-rule="evenodd">
        <path d="M84.225,0.246311475 C85.2995902,-0.121721311 86.4786885,-0.0270491803 87.4811475,0.508196721 C88.4831967,1.04303279 89.2184426,1.97008197 89.5114754,3.06762295 C89.6086066,3.43155738 91.8844262,12.1422131 91.3991803,25.9618852 C91.117623,33.9704918 89.8282787,44.7737705 85.9963115,57.0946721 C86.0856557,57.1688525 86.1729508,57.2454918 86.2561475,57.3278689 C86.6770492,57.745082 90.4102459,61.6061475 91.8213115,68.6672131 C94.1028689,80.0795082 88.5413934,90.9918033 83.4741803,98.1364754 C82.702459,99.2241803 81.4540984,99.8639344 80.1319672,99.8639344 C80.0364754,99.8639344 79.9401639,99.8610656 79.8438525,99.8540984 C78.4168033,99.7536885 77.1459016,98.9168033 76.4893443,97.6459016 L76.4893443,97.6459016 L68.8938525,82.9340164 C68.8590164,82.9340164 68.8262295,82.9356557 68.7913934,82.9356557 C67.4102459,82.9356557 65.8561475,82.8098361 64.1229508,82.5590164 C60.825,82.082377 54.1893443,80.6930328 46.7963115,76.747541 C39.4032787,72.802459 34.5553279,68.0631148 32.3233607,65.5889344 C31.120082,64.2557377 30.1360656,63.0065574 29.3581967,61.8340164 L29.3581967,61.8340164 L12.9061475,63.7147541 C12.7504098,63.732377 12.5946721,63.7409836 12.4401639,63.7409836 C11.1840164,63.7409836 9.98606557,63.1631148 9.2045082,62.157377 C8.32704918,61.0282787 8.10163934,59.522541 8.6102459,58.1856557 C11.725,49.9987705 17.6938525,39.3040984 28.4438525,34.8459016 C35.0954918,32.0868852 40.3803279,33.0385246 40.9614754,33.1561475 C41.075,33.1790984 41.1836066,33.2168033 41.2942623,33.2491803 C49.3979508,23.2032787 57.6569672,16.1159836 64.154918,11.4229508 C75.3651639,3.32704918 83.8684426,0.368442623 84.225,0.246311475 Z M39.4106557,81.882377 C40.4762295,79.8856557 42.9590164,79.129918 44.9557377,80.1963115 C46.9528689,81.2614754 47.7077869,83.7442623 46.6418033,85.7413934 L46.6418033,85.7413934 L40.5856557,97.0901639 C39.8479508,98.472541 38.4311475,99.2598361 36.9663934,99.2598361 C36.3155738,99.2598361 35.6553279,99.1045082 35.0405738,98.7762295 C33.0438525,97.7110656 32.2889344,95.2282787 33.3545082,93.2311475 L33.3545082,93.2311475 Z M49.8237705,87.8495902 C50.0737705,85.6004098 52.1012295,83.9786885 54.35,84.2295082 C56.5995902,84.4795082 58.220082,86.5057377 57.970082,88.7553279 L57.970082,88.7553279 L57.2594262,95.1479508 C57.0258197,97.2438525 55.2512295,98.7938525 53.1909836,98.7938525 C53.0397541,98.7938525 52.8864754,98.7856557 52.7327869,98.7684426 C50.4831967,98.5184426 48.8622951,96.4918033 49.1127049,94.2422131 L49.1127049,94.2422131 Z M82.6282787,66.5790984 C80.9254098,70.8381148 78.9122951,75.2241803 76.5258197,79.6963115 C76.5127049,79.7204918 76.4971311,79.7430328 76.4836066,79.7672131 L76.4836066,79.7672131 L80.4516393,87.4528689 C85.6622951,77.4557377 84.3430328,70.4336066 82.6282787,66.5790984 Z M30.6008197,74.1504098 C32.3303279,72.6901639 34.9159836,72.9081967 36.3762295,74.6377049 C37.8360656,76.367623 37.6180328,78.9532787 35.8885246,80.4135246 L35.8885246,80.4135246 L30.9737705,84.5627049 C30.2045082,85.2122951 29.2655738,85.5295082 28.3319672,85.5295082 C27.1663934,85.5295082 26.0090164,85.0352459 25.1983607,84.075 C23.7385246,82.345082 23.9565574,79.7594262 25.6860656,78.2995902 L25.6860656,78.2995902 Z M82.457377,9.92213115 C79.1602459,11.5192623 74.2737705,14.197541 68.6688525,18.275 C59.3930328,25.022541 46.2135246,37.082377 35.6405738,56.4172131 C36.9319672,58.8815574 42.1877049,64.997541 50.6553279,69.5159836 C59.1221311,74.0348361 67.129918,74.9983607 69.8954918,74.6967213 C80.0717213,55.15 82.7528689,37.4885246 83.1946721,26.0262295 C83.4614754,19.1004098 82.9663934,13.55 82.457377,9.92213115 Z M35.2967213,41.3192623 C31.1401639,42.0401639 24.572541,44.8536885 19.167623,54.7483607 L19.167623,54.7483607 L27.7627049,53.7655738 L27.7627049,53.7655738 L27.7967213,53.6918033 C30.1836066,49.2192623 32.7065574,45.1053279 35.2967213,41.3192623 Z M61.9237705,29.5389344 C65.1045082,28.5721311 68.4704918,28.9012295 71.4028689,30.4663934 C74.3352459,32.0311475 76.4831967,34.6446721 77.45,37.8245902 C78.4168033,41.0045082 78.0872951,44.3709016 76.522541,47.3032787 C74.9581967,50.2356557 72.345082,52.3831967 69.1647541,53.3504098 C67.9680328,53.7143443 66.745082,53.8946721 65.5286885,53.8946721 C63.5122951,53.8946721 61.5147541,53.3991803 59.6856557,52.4233607 C56.7532787,50.8581967 54.6053279,48.245082 53.6385246,45.0647541 C52.6717213,41.8848361 53.0012295,38.5184426 54.5659836,35.5860656 C56.1303279,32.6536885 58.7434426,30.5061475 61.9237705,29.5389344 Z M65.5491803,37.1954918 C65.1344262,37.1954918 64.7168033,37.257377 64.3081967,37.3815574 C63.2229508,37.7114754 62.3315574,38.4442623 61.7971311,39.445082 C61.2635246,40.4463115 61.1508197,41.5954918 61.4807377,42.6807377 C61.8110656,43.7659836 62.5438525,44.6577869 63.5446721,45.1918033 C64.545082,45.7254098 65.6942623,45.8385246 66.7803279,45.5081967 C67.8651639,45.1782787 68.757377,44.4454918 69.2909836,43.4446721 L69.2909836,43.4446721 L69.3988776,43.2280173 C69.8384326,42.28001 69.9137295,41.2171546 69.607377,40.2094262 C69.2770492,39.1237705 68.5442623,38.2319672 67.5434426,37.6979508 C66.9192623,37.3647541 66.2372951,37.1954918 65.5491803,37.1954918 Z" id="icon-rocket" fill="#ED0000"></path>
    </g>
</svg>