<?xml version="1.0" encoding="UTF-8"?>
<svg width="100px" height="100px" viewBox="0 0 100 100" version="1.1" xmlns="http://www.w3.org/2000/svg" xmlns:xlink="http://www.w3.org/1999/xlink">
    <title>Site/Close</title>
    <g id="Site/Close" stroke="none" stroke-width="1" fill="none" fill-rule="evenodd">
        <path d="M49.9113821,0.00203252033 C77.3268293,0.00203252033 99.6300813,22.3056911 99.6300813,49.7207317 C99.6300813,77.1357724 77.3264228,99.4394309 49.9113821,99.4394309 C22.4963415,99.4394309 0.192276423,77.1357724 0.192276423,49.7207317 C0.192276423,22.3056911 22.495935,0.00203252033 49.9113821,0.00203252033 Z M49.9113821,8.13211382 C26.9792683,8.13211382 8.32235772,26.7890244 8.32235772,49.7211382 C8.32235772,72.653252 26.9792683,91.3097561 49.9113821,91.3097561 C72.8434959,91.3097561 91.5,72.6528455 91.5,49.7207317 C91.5,26.7886179 72.8434959,8.13211382 49.9113821,8.13211382 Z M66.3971545,26.4174797 C67.9853659,24.8300813 70.5585366,24.8300813 72.1463415,26.4174797 C73.7337398,28.0052846 73.7337398,30.5792683 72.1463415,32.1666667 L72.1463415,32.1666667 L55.6902439,48.6231707 L72.1455285,65.0792683 C73.7329268,66.6670732 73.7329268,69.2410569 72.1455285,70.8284553 C71.351626,71.6219512 70.3113821,72.0191057 69.2711382,72.0191057 C68.2308943,72.0191057 67.1906504,71.6219512 66.396748,70.8284553 L66.396748,70.8284553 L49.9406504,54.3723577 L33.4845528,70.8284553 C32.6910569,71.6219512 31.6504065,72.0191057 30.6101626,72.0191057 C29.5699187,72.0191057 28.5296748,71.6219512 27.7357724,70.8284553 C26.148374,69.2406504 26.148374,66.6666667 27.7357724,65.0792683 L27.7357724,65.0792683 L44.1918699,48.6231707 L27.7357724,32.1670732 C26.148374,30.5792683 26.1479675,28.0052846 27.7357724,26.4178862 C29.3235772,24.8304878 31.897561,24.8304878 33.4849593,26.4178862 L33.4849593,26.4178862 L49.9410569,42.8735772 Z" id="icon-close" fill="#ED0000"></path>
    </g>
</svg>