<?xml version="1.0" encoding="UTF-8"?>
<svg width="100px" height="98px" viewBox="0 0 100 98" version="1.1" xmlns="http://www.w3.org/2000/svg" xmlns:xlink="http://www.w3.org/1999/xlink">
    <title>Devices/V6 box</title>
    <g id="Devices/V6-box" stroke="none" stroke-width="1" fill="none" fill-rule="evenodd">
        <path d="M88.4429267,32.0105081 C94.1965228,32.0105081 98.8780034,36.7290379 98.8780034,42.5295137 L98.8780034,42.5295137 L98.8780034,55.0477841 C98.8780034,60.8478707 94.1969088,65.5667897 88.4433127,65.5667897 L88.4433127,65.5667897 L87.5329605,65.5667897 C87.5244669,66.7977951 86.5233883,67.8026816 85.3003196,67.8026816 L85.3003196,67.8026816 L77.3241205,67.8026816 C76.1006658,67.8026816 75.0999732,66.7977951 75.0914797,65.5667897 L75.0914797,65.5667897 L25.6375008,65.5667897 C25.6290073,66.7977951 24.6279287,67.8026816 23.40486,67.8026816 L23.40486,67.8026816 L15.4286609,67.8026816 C14.2052062,67.8026816 13.2045136,66.7977951 13.1960201,65.5667897 L13.1960201,65.5667897 L12.4871962,65.5667897 C6.73360007,65.5667897 2.05250547,60.8478707 2.05250547,55.0477841 L2.05250547,55.0477841 L2.05250547,42.5295137 C2.05250547,36.7294271 6.73360007,32.0105081 12.4871962,32.0105081 L12.4871962,32.0105081 Z M88.4429267,39.7939028 L12.4871962,39.7939028 C10.9884738,39.7939028 9.77389862,41.0186812 9.77389862,42.5291245 L9.77389862,42.5291245 L9.77389862,55.0473949 C9.77389862,56.5582274 10.9888598,57.7826166 12.4871962,57.7826166 L12.4871962,57.7826166 L88.4429267,57.7826166 C89.9416491,57.7826166 91.1562242,56.5578382 91.1562242,55.0473949 L91.1562242,55.0473949 L91.1562242,42.5291245 C91.1562242,41.018292 89.941263,39.7939028 88.4429267,39.7939028 L88.4429267,39.7939028 Z M85.6323396,42.8179029 C86.6986639,42.8179029 87.5626878,43.6889083 87.5626878,44.7638488 C87.5626878,45.8387894 86.6986639,46.7097948 85.6323396,46.7097948 L79.6320449,46.7097948 C78.5657205,46.7097948 77.7016967,45.8387894 77.7016967,44.7638488 C77.7016967,43.6889083 78.5657205,42.8179029 79.6320449,42.8179029 L85.6323396,42.8179029 Z" id="icon-tvbox" fill="#ED0000"></path>
    </g>
</svg>