<?xml version="1.0" encoding="UTF-8"?>
<svg width="100px" height="98px" viewBox="0 0 100 98" version="1.1" xmlns="http://www.w3.org/2000/svg" xmlns:xlink="http://www.w3.org/1999/xlink">
    <title>Devices/SIM</title>
    <g id="Devices/SIM" stroke="none" stroke-width="1" fill="none" fill-rule="evenodd">
        <path d="M74.9326508,-3.55271368e-14 C81.0356633,-3.55271368e-14 86,5.01115112 86,11.1708096 L86,11.1708096 L86,86.8291904 C86,92.9884423 81.0356633,98 74.9326508,98 L74.9326508,98 L25.0673492,98 C18.9647394,98 14,92.9884423 14,86.8291904 L14,86.8291904 L14,28.0943199 C14,24.2617609 15.8040782,19.8657219 18.4890493,17.1556511 L18.4890493,17.1556511 L30.9967609,4.53101406 C33.681732,1.8209432 38.0366535,-3.55271368e-14 41.8341193,-3.55271368e-14 L41.8341193,-3.55271368e-14 Z M74.9326508,8.13102567 L41.8341193,8.13102567 C40.1774608,8.13102567 37.8642611,9.09861773 36.6929596,10.2804623 L36.6929596,10.2804623 L24.185248,22.9050993 C23.0139465,24.0873504 22.0557187,26.422581 22.0557187,28.0943199 L22.0557187,28.0943199 L22.0557187,86.8291904 C22.0557187,88.5009293 23.4106906,89.8689743 25.0673492,89.8689743 L25.0673492,89.8689743 L74.9326508,89.8689743 C76.5893094,89.8689743 77.9442813,88.5009293 77.9442813,86.8291904 L77.9442813,86.8291904 L77.9442813,11.1708096 C77.9442813,9.49907074 76.5893094,8.13102567 74.9326508,8.13102567 L74.9326508,8.13102567 Z M61.2376883,41.1070508 C66.1434725,41.1070508 70.150885,45.0261029 70.2924426,49.897683 L70.2963121,50.1643323 L70.2963121,72.5548811 C70.2963121,77.4597176 66.3765029,81.4663561 61.5043678,81.6078863 L61.2376883,81.6117551 L38.8607477,81.6117551 C33.9549636,81.6117551 29.9479442,77.692703 29.8064007,72.821509 L29.8025315,72.5548811 L29.8025315,50.1643323 C29.8025315,45.2590956 33.7219477,41.2524499 38.5940687,41.1109196 L38.8607477,41.1070508 L61.2376883,41.1070508 Z M63.3673311,64.8207793 L36.7315126,64.8207793 L36.7315126,72.5548811 C36.7315126,73.6778679 37.605253,74.6006379 38.7088876,74.6787559 L38.8607477,74.6841124 L61.2376883,74.6841124 C62.3608921,74.6841124 63.2838404,73.8101679 63.3619735,72.7067141 L63.3673311,72.5548811 L63.3673311,64.8207793 Z M46.5849313,48.0346935 L38.8607477,48.0346935 C37.737544,48.0346935 36.8149686,48.908638 36.7368679,50.0124484 L36.7315126,50.1643323 L36.7315126,57.8931365 L46.5849313,57.8931365 L46.5849313,48.0346935 Z M61.2376883,48.0346935 L53.5139124,48.0346935 L53.5139124,57.8931365 L63.3673311,57.8931365 L63.3673311,50.1643323 C63.3673311,48.9898931 62.4119468,48.0346935 61.2376883,48.0346935 Z" id="icon-sim" fill="#ED0000"></path>
    </g>
</svg>