<?xml version="1.0" encoding="UTF-8"?>
<svg width="100px" height="98px" viewBox="0 0 100 98" version="1.1" xmlns="http://www.w3.org/2000/svg" xmlns:xlink="http://www.w3.org/1999/xlink">
    <title>Devices/Hub 4</title>
    <g id="Devices/Hub-4" stroke="none" stroke-width="1" fill="none" fill-rule="evenodd">
        <path d="M43.4301832,91.3092907 C45.2460283,91.3092907 46.718356,92.8072224 46.718356,94.6546453 C46.718356,96.5020683 45.2460283,98 43.4301832,98 L43.4301832,98 L33.8886795,98 C32.0728344,98 30.6005067,96.5020683 30.6005067,94.6546453 C30.6005067,92.8072224 32.0728344,91.3092907 33.8886795,91.3092907 L33.8886795,91.3092907 Z M66.8988395,91.3092907 C68.7146846,91.3092907 70.1870123,92.8072224 70.1870123,94.6546453 C70.1870123,96.5020683 68.7146846,98 66.8988395,98 L66.8988395,98 L57.3573358,98 C55.5414907,98 54.069163,96.5020683 54.069163,94.6546453 C54.069163,92.8072224 55.5414907,91.3092907 57.3573358,91.3092907 L57.3573358,91.3092907 Z M77.1312464,7.10542736e-15 C78.2380067,7.10542736e-15 79.2917693,0.482518213 80.025999,1.32515401 C80.7602286,2.16778982 81.1045197,3.28986113 80.9722191,4.40799672 L80.9722191,4.40799672 L71.3618571,85.3203187 C71.1270429,87.2972265 69.4783144,88.7841383 67.5212713,88.7841383 L67.5212713,88.7841383 L33.4790118,88.7841383 C31.5219688,88.7841383 29.8732402,87.296833 29.638426,85.3203187 L29.638426,85.3203187 L20.0280641,4.40799672 C19.8949898,3.2902547 20.2392808,2.16778982 20.9735104,1.32515401 C21.7077401,0.482518213 22.7615028,7.10542736e-15 23.868263,7.10542736e-15 L23.868263,7.10542736e-15 Z M70.6051905,26.0752685 L30.3947058,26.0752685 L36.9076089,80.9127156 L64.0919005,80.9127156 L70.6051905,26.0752685 Z M72.7672608,7.87142272 L28.2322486,7.87142272 L29.5997416,19.3845592 L71.3997678,19.3845592 L72.7672608,7.87142272 Z" id="icon-hub-4" fill="#ED0000"></path>
    </g>
</svg>