<?xml version="1.0" encoding="UTF-8"?>
<svg width="100px" height="98px" viewBox="0 0 100 98" version="1.1" xmlns="http://www.w3.org/2000/svg" xmlns:xlink="http://www.w3.org/1999/xlink">
    <title>Devices/Camera</title>
    <g id="Devices/Camera" stroke="none" stroke-width="1" fill="none" fill-rule="evenodd">
        <path d="M63.4504545,4.35863636 C68.4709091,4.35863636 72.5413636,8.42909091 72.5413636,13.4495455 L72.5413636,13.4495455 L72.5413636,16.3759091 L90.6913636,16.3759091 C95.7122727,16.3759091 99.7822727,20.4459091 99.7822727,25.4668182 L99.7822727,25.4668182 L99.7822727,77.0486364 C99.7822727,82.0695455 95.7122727,86.1395455 90.6913636,86.1395455 L90.6913636,86.1395455 L9.38772727,86.1395455 C4.36681818,86.1395455 0.296818182,82.0695455 0.296818182,77.0486364 L0.296818182,77.0486364 L0.296818182,25.4668182 C0.296818182,20.4459091 4.36681818,16.3759091 9.38772727,16.3759091 L9.38772727,16.3759091 L27.5372727,16.3759091 L27.5372727,13.4495455 C27.5372727,8.42863636 31.6072727,4.35863636 36.6281818,4.35863636 L36.6281818,4.35863636 Z M63.4504545,13.4495455 L36.6281818,13.4495455 L36.6281818,25.4668182 L9.38772727,25.4668182 L9.38772727,77.0486364 L90.6913636,77.0486364 L90.6913636,25.4668182 L63.4504545,25.4668182 L63.4504545,13.4495455 Z M50.2290909,28.9736364 C62.0845455,28.9736364 71.7295455,38.6186364 71.7295455,50.4740909 C71.7295455,62.3295455 62.0845455,71.9745455 50.2290909,71.9745455 C38.3736364,71.9745455 28.7286364,62.3295455 28.7286364,50.4740909 C28.7286364,38.6186364 38.3736364,28.9736364 50.2290909,28.9736364 Z M50.2290909,38.065 C43.3863636,38.065 37.8195455,43.6318182 37.8195455,50.4745455 C37.8195455,57.3172727 43.3863636,62.8840909 50.2290909,62.8840909 C57.0718182,62.8840909 62.6386364,57.3172727 62.6386364,50.4745455 C62.6386364,43.6318182 57.0718182,38.065 50.2290909,38.065 Z M82.595,29.6168182 C84.6535159,29.6168182 86.3222727,31.285575 86.3222727,33.3440909 C86.3222727,35.4026068 84.6535159,37.0713636 82.595,37.0713636 C80.5364841,37.0713636 78.8677273,35.4026068 78.8677273,33.3440909 C78.8677273,31.285575 80.5364841,29.6168182 82.595,29.6168182 Z" id="icon-camera" fill="#ED0000"></path>
    </g>
</svg>