<?xml version="1.0" encoding="UTF-8"?>
<svg width="100px" height="100px" viewBox="0 0 100 100" version="1.1" xmlns="http://www.w3.org/2000/svg" xmlns:xlink="http://www.w3.org/1999/xlink">
    <title>Paper/Postage</title>
    <g id="Paper/Postage" stroke="none" stroke-width="1" fill="none" fill-rule="evenodd">
        <path d="M21.4624003,9.3232 C31.8824005,9.3232 40.5788006,16.8224001 42.4520006,26.7060003 L42.4520006,26.7060003 L86.6788013,26.7060003 C93.8348014,26.7060003 99.6568015,32.5276004 99.6568015,39.6836005 L99.6568015,39.6836005 L99.6568015,77.016801 C99.6568015,84.1724011 93.8352014,89.9944012 86.6792013,89.9944012 L86.6792013,89.9944012 L18.6348003,89.9944012 C11.4792002,89.9944012 5.65720008,84.1728011 5.65720008,77.016801 L5.65720008,77.016801 L5.65720008,45.0568005 C2.20280003,41.2596005 0.0944000014,36.2172004 0.0944000014,30.6916003 C0.0944000014,18.9088001 9.68000014,9.3232 21.4624003,9.3232 Z M86.6792013,34.7060004 L42.4472006,34.7060004 C40.5628006,44.5756005 31.8724005,52.0600006 21.4624003,52.0600006 C18.7080003,52.0600006 16.0768002,51.5304006 13.6568002,50.5772006 L13.6568002,50.5772006 L13.6568002,77.016801 C13.6568002,79.7544011 15.8968002,81.9944011 18.6344003,81.9944011 L18.6344003,81.9944011 L86.6792013,81.9944011 C89.4168013,81.9944011 91.6568002,79.7544011 91.6568002,77.016801 L91.6568002,77.016801 L91.6568002,39.6836005 C91.6568002,36.9460004 89.4168013,34.7060004 86.6792013,34.7060004 L86.6792013,34.7060004 Z M53.8236008,66.2480009 C55.7012008,66.2480009 57.2236009,67.7704009 57.2236009,69.6480009 C57.2236009,71.5256009 55.7016008,73.048001 53.8240008,73.048001 L36.6040005,73.048001 C34.7264005,73.048001 33.2040005,71.5256009 33.2040005,69.6480009 C33.2040005,67.7704009 34.7264005,66.2480009 36.6040005,66.2480009 L53.8236008,66.2480009 Z M63.7252009,56.6020007 C65.602801,56.6020007 67.125201,58.1244007 67.125201,60.0020008 C67.125201,61.8796008 65.603201,63.4020008 63.7256009,63.4020008 L36.6040005,63.4020008 C34.7264005,63.4020008 33.2040005,61.8796008 33.2040005,60.0020008 C33.2040005,58.1244007 34.7264005,56.6020007 36.6040005,56.6020007 L63.7252009,56.6020007 Z M86.1500013,39.4292005 C86.5920013,39.4292005 86.9500013,39.7876005 86.9500013,40.2292005 L86.9500013,40.2292005 L86.9500013,50.1308006 C86.9500013,50.5724006 86.5916013,50.9308006 86.1500013,50.9308006 L86.1500013,50.9308006 L77.7068012,50.9308006 C77.2652012,50.9308006 76.9068011,50.5724006 76.9068011,50.1308006 L76.9068011,50.1308006 L76.9068011,40.2292005 C76.9068011,39.7876005 77.2652012,39.4292005 77.7068012,39.4292005 L77.7068012,39.4292005 Z M21.4628003,14.9232001 C12.7684002,14.9232001 5.69480008,21.9968002 5.69480008,30.6916003 C5.69480008,30.9360003 5.70200008,31.1784003 5.71320009,31.4200003 C5.71640009,31.4924003 5.72120009,31.5644003 5.72560009,31.6368003 C5.73640009,31.8136003 5.74960009,31.9900003 5.76600009,32.1652003 C5.77240009,32.2372003 5.77880009,32.3092003 5.78640009,32.3812003 C5.81160009,32.6160004 5.84000009,32.8500004 5.87560009,33.0816004 C5.87840009,33.1012004 5.88240009,33.1208004 5.88560009,33.1404004 C5.91880009,33.3540004 5.95720009,33.5656004 5.99920009,33.7760004 C6.01440009,33.8532004 6.03120009,33.9296004 6.04760009,34.0060004 C6.08200009,34.1656004 6.11880009,34.3248004 6.15800009,34.4828004 C6.17640009,34.5580004 6.19480008,34.6336004 6.21440009,34.7084004 C6.27200009,34.9272004 6.33320009,35.1452004 6.4000001,35.3604004 L6.4000001,35.3604004 L6.52416204,35.7426413 C7.77020012,39.4169302 10.3380535,42.4842538 13.6572002,44.3824005 L13.6572002,44.3824005 L14.0859965,44.6190968 C14.8072558,45.0026894 15.5612002,45.3314672 16.3432002,45.6008005 C16.3772002,45.6128005 16.4112002,45.6240005 16.4456002,45.6356005 C16.7276002,45.7304005 17.0124003,45.8180005 17.3012003,45.8972005 C17.3292003,45.9048005 17.3564003,45.9132006 17.3844003,45.9208006 C17.7028003,46.0064006 18.0240003,46.0832006 18.3500003,46.1488006 C18.3556003,46.1500006 18.3612003,46.1508006 18.3668003,46.1520006 C18.6636003,46.2116006 18.9636003,46.2604006 19.2660003,46.3028006 C19.3508003,46.3144006 19.4364003,46.3248006 19.5216003,46.3352006 C19.7568003,46.3644006 19.9936003,46.3880006 20.2320003,46.4064006 C20.3228003,46.4136006 20.4128003,46.4216006 20.5040003,46.4272006 C20.8212003,46.4464006 21.1404003,46.4592006 21.4628003,46.4592006 C21.7152003,46.4592006 21.9656003,46.4516006 22.2152003,46.4400006 C22.2956003,46.4360006 22.3752003,46.4296006 22.4556003,46.4244006 C22.6252003,46.4136006 22.7944003,46.4016006 22.9624003,46.3856006 C23.0544003,46.3768006 23.1464003,46.3664006 23.2380003,46.3560006 C23.3944003,46.3384006 23.5500004,46.3184006 23.7052004,46.2964006 C23.7980004,46.2832006 23.8904004,46.2696006 23.9828004,46.2548006 C24.1412004,46.2296006 24.2984004,46.2008006 24.4552004,46.1704006 C24.5392004,46.1544006 24.6236004,46.1392006 24.7072004,46.1216006 C24.8992004,46.0816006 25.0892004,46.0368006 25.2784004,45.9896006 L25.2784004,45.9896006 L25.4152004,45.9572006 C25.6468004,45.8972005 25.8760004,45.8316005 26.1036004,45.7612005 C26.1760004,45.7388005 26.2476004,45.7140005 26.3196004,45.6904005 C26.4752004,45.6400005 26.6304004,45.5884005 26.7840004,45.5332005 C26.8724004,45.5016005 26.9600004,45.4676005 27.0476004,45.4344005 C27.1840004,45.3828005 27.3196004,45.3296005 27.4540004,45.2740005 C27.5444004,45.2368005 27.6344004,45.1988005 27.7240004,45.1600005 C27.8564004,45.1028005 27.9872004,45.0428005 28.1176004,44.9820005 C28.2036004,44.9416005 28.2900004,44.9020005 28.3756004,44.8600005 C28.5168004,44.7908005 28.6560004,44.7184005 28.7948004,44.6452005 L28.7948004,44.6452005 L29.0072004,44.5340005 C29.2072004,44.4244005 29.4048004,44.3108005 29.5992004,44.1932005 L29.5992004,44.1932005 L29.8168004,44.0556005 C29.9420004,43.9772005 30.0672004,43.8980005 30.1904004,43.8160005 C30.2780005,43.7580005 30.3636005,43.6976005 30.4496005,43.6376005 C30.5556005,43.5636005 30.6608005,43.4896005 30.7648005,43.4132005 C30.8536005,43.3480005 30.9416005,43.2820005 31.0292005,43.2148005 C31.1276005,43.1396005 31.2244005,43.0632005 31.3208005,42.9856005 C31.4080005,42.9156005 31.4952005,42.8452005 31.5812005,42.7732005 C31.6764005,42.6932005 31.7692005,42.6116005 31.8624005,42.5296005 C31.9452005,42.4568005 32.0288005,42.3852005 32.1100005,42.3108005 C32.2204005,42.2096005 32.3276005,42.1052005 32.4352005,42.0008005 C32.5636005,41.8760005 32.6896005,41.7492005 32.8140005,41.6200005 C32.8972005,41.5336005 32.9808005,41.4480005 33.0620005,41.3600005 C33.1452005,41.2696005 33.2260005,41.1768005 33.3072005,41.0844005 C33.3788005,41.0032005 33.4500005,40.9216005 33.5200005,40.8388005 C33.6016005,40.7424005 33.6812005,40.6448005 33.7600005,40.5464005 C33.8260005,40.4640005 33.8908005,40.3816005 33.9552005,40.2980005 C34.0332005,40.1964005 34.1108005,40.0944005 34.1868005,39.9908005 C34.2468005,39.9088005 34.3048005,39.8256005 34.3632005,39.7428005 C34.4392005,39.6348005 34.5156005,39.5272005 34.5888005,39.4172005 C34.6380005,39.3440005 34.6844005,39.2688005 34.7320005,39.1944004 C34.8828005,38.9600004 35.0272005,38.7216004 35.1656005,38.4792004 L35.1656005,38.4792004 L35.2780005,38.2836004 C35.3452005,38.1616004 35.4088005,38.0376004 35.4728005,37.9136004 C35.5160005,37.8304004 35.5596005,37.7476004 35.6012005,37.6636004 C35.6624005,37.5404004 35.7208005,37.4160004 35.7788005,37.2908004 C35.8188005,37.2044004 35.8584005,37.1176004 35.8968005,37.0304004 C35.9528005,36.9036004 36.0072005,36.7760004 36.0600005,36.6476004 C36.0952005,36.5612004 36.1288005,36.4744004 36.1628005,36.3872004 C36.2144005,36.2548004 36.2656005,36.1228004 36.3136005,35.9888004 C36.3416005,35.9104004 36.3672005,35.8308004 36.3940005,35.7520004 C36.9340006,34.1624004 37.2316006,32.4616003 37.2316006,30.6916003 C37.2316006,29.3152003 37.0528006,27.9796003 36.7200005,26.7060003 L36.7200005,26.7060003 L36.6323005,26.3847003 L36.6323005,26.3847003 L36.5380005,26.0664003 C36.5028005,25.9524003 36.4636005,25.8400003 36.4260005,25.7272002 C36.3884005,25.6144002 36.3516005,25.5016002 36.3116005,25.3900002 C36.2700005,25.2748002 36.2264005,25.1612002 36.1824005,25.0472002 C36.1412005,24.9396002 36.0992005,24.8320002 36.0556005,24.7256002 C36.0092005,24.6124002 35.9616005,24.5004002 35.9128005,24.3888002 C35.8668005,24.2832002 35.8188005,24.1784002 35.7704005,24.0740002 C35.7196005,23.9644002 35.6688005,23.8552002 35.6156005,23.7472002 C35.5632005,23.6408002 35.5080005,23.5356002 35.4532005,23.4304002 C35.3996005,23.3276002 35.3476005,23.2240002 35.2916005,23.1224002 C35.2132005,22.9792002 35.1304005,22.8388002 35.0476005,22.6984002 C34.9656005,22.5592002 34.8808005,22.4224002 34.7948005,22.2860002 C34.7260005,22.1776002 34.6580005,22.0688002 34.5868005,21.9620002 C34.5232005,21.8672002 34.4572005,21.7744002 34.3920005,21.6808002 C34.3228005,21.5820002 34.2532005,21.4832002 34.1820005,21.3860002 C34.1144005,21.2940002 34.0452005,21.2028002 33.9756005,21.1120002 C33.9020005,21.0160002 33.8268005,20.9204002 33.7508005,20.8260002 C33.6800005,20.7380002 33.6092005,20.6504002 33.5368005,20.5644002 C33.4556005,20.4676002 33.3720005,20.3724002 33.2884005,20.2776002 C33.2180005,20.1976002 33.1484005,20.1168002 33.0764005,20.0384002 C32.9688005,19.9212002 32.8580005,19.8068002 32.7468005,19.6928002 C32.6620005,19.6060002 32.5768005,19.5196002 32.4900005,19.4348002 C32.3648005,19.3120002 32.2384005,19.1900002 32.1092005,19.0716002 L32.1092005,19.0716002 L31.8884005,18.8760001 C31.7860005,18.7856001 31.6832005,18.6956001 31.5784005,18.6076001 C31.4992005,18.5412001 31.4188005,18.4764001 31.3384005,18.4116001 C31.2348005,18.3280001 31.1304005,18.2456001 31.0244005,18.1648001 C30.9424005,18.1020001 30.8604005,18.0400001 30.7776005,17.9792001 C30.6660005,17.8972001 30.5528005,17.8176001 30.4392005,17.7384001 C30.3600005,17.6832001 30.2812005,17.6276001 30.2012005,17.5740001 C30.0648004,17.4828001 29.9260004,17.3952001 29.7864004,17.3080001 C29.7268004,17.2708001 29.6684004,17.2316001 29.6080004,17.1952001 C29.4108004,17.0756001 29.2108004,16.9608001 29.0084004,16.8500001 C28.9416004,16.8132001 28.8732004,16.7792001 28.8056004,16.7436001 C28.6636004,16.6684001 28.5212004,16.5944001 28.3768004,16.5236001 C28.2936004,16.4828001 28.2092004,16.4440001 28.1252004,16.4044001 C27.9924004,16.3424001 27.8592004,16.2816001 27.7248004,16.2232001 C27.6368004,16.1852001 27.5488004,16.1476001 27.4604004,16.1112001 C27.3232004,16.0548001 27.1848004,16.0004001 27.0456004,15.9476001 C26.9604004,15.9152001 26.8756004,15.8820001 26.7896004,15.8512001 C26.6320004,15.7944001 26.4728004,15.7416001 26.3128004,15.6896001 C26.2444004,15.6676001 26.1768004,15.6436001 26.1080004,15.6224001 C25.8800004,15.5520001 25.6500004,15.4864001 25.4176004,15.4260001 L25.4176004,15.4260001 L25.2736004,15.3916001 C25.0864004,15.3452001 24.8988004,15.3012001 24.7092004,15.2612001 C24.6252004,15.2436001 24.5408004,15.2288001 24.4568004,15.2124001 C24.3000004,15.1820001 24.1424004,15.1532001 23.9840004,15.1276001 C23.8920004,15.1128001 23.7996004,15.0992001 23.7072004,15.0860001 C23.5520004,15.0640001 23.3964003,15.0440001 23.2396003,15.0264001 C23.1476003,15.0160001 23.0556003,15.0056001 22.9632003,14.9968001 C22.7948003,14.9808001 22.6256003,14.9688001 22.4560003,14.9580001 C22.3760003,14.9528001 22.2964003,14.9460001 22.2160003,14.9424001 C21.9664003,14.9304001 21.7156003,14.9232001 21.4628003,14.9232001 Z M25.8176004,37.2948004 C25.9332004,37.2948004 26.0388004,37.3048004 26.1440004,37.3152004 C26.2540004,37.3260004 26.3436004,37.4192004 26.3440004,37.5304004 L26.3440004,37.5304004 L26.3440004,38.8736004 C26.3440004,38.9380004 26.3152004,38.9992004 26.2652004,39.0400004 C26.2152004,39.0808004 26.1500004,39.0972004 26.0864004,39.0844004 C25.9644004,39.0600004 25.8504004,39.0488004 25.7276004,39.0488004 C25.0156004,39.0488004 24.6696004,39.4340005 24.6696004,40.2268005 L24.6696004,40.2268005 L24.6696004,42.4824005 C24.6696004,42.6012005 24.5732004,42.6976005 24.4544004,42.6976005 L24.4544004,42.6976005 L23.1212003,42.6976005 C23.0024003,42.6976005 22.9060003,42.6012005 22.9060003,42.4824005 L22.9060003,42.4824005 L22.9060003,37.5504004 C22.9060003,37.4316004 23.0024003,37.3352004 23.1212003,37.3352004 L23.1212003,37.3352004 L24.4140004,37.3352004 C24.5328004,37.3352004 24.6292004,37.4316004 24.6292004,37.5504004 L24.6292004,37.5504004 L24.6292004,37.6660004 C25.0408004,37.3400004 25.5616004,37.2948004 25.8176004,37.2948004 Z M18.6012003,35.0088004 C18.7200003,35.0088004 18.8164003,35.1052004 18.8164003,35.2240004 L18.8164003,35.2240004 L18.8164003,37.5004004 C19.1272003,37.3108004 19.5188003,37.2044004 19.9344003,37.2044004 C21.1988003,37.2044004 21.9844003,38.0360004 21.9840005,39.3736005 L21.9840005,39.3736005 L21.9840005,42.4812005 C21.9840005,42.6000005 21.8876003,42.6964005 21.7688003,42.6964005 L21.7688003,42.6964005 L20.4356003,42.6964005 C20.3168003,42.6964005 20.2204003,42.6000005 20.2204003,42.4812005 L20.2204003,42.4812005 L20.2204003,39.6044005 C20.2204003,39.2544005 20.0996003,38.8372004 19.5236003,38.8372004 C19.0328003,38.8372004 18.8364003,39.2292005 18.8160003,39.5964005 L18.8160003,39.5964005 L18.8164003,42.4816005 C18.8164003,42.6004005 18.7200003,42.6968005 18.6012003,42.6968005 L18.6012003,42.6968005 L17.2680003,42.6968005 C17.1492003,42.6968005 17.0528003,42.6004005 17.0528003,42.4816005 L17.0528003,42.4816005 L17.0528003,35.2240004 C17.0528003,35.1052004 17.1492003,35.0088004 17.2680003,35.0088004 L17.2680003,35.0088004 Z M29.2068004,21.0164002 C29.3256004,21.0164002 29.4220004,21.1128002 29.4220004,21.2316002 L29.4220004,21.2316002 L29.4220004,27.9356003 L31.0956005,27.9356003 C31.2144005,27.9356003 31.3108005,28.0316003 31.3104017,28.1508003 L31.3104017,28.1508003 L31.3104017,30.2336003 C31.3104017,30.3524003 31.2140005,30.4488003 31.0952005,30.4488003 L31.0952005,30.4488003 L29.4216004,30.4488003 L29.4216004,32.6872004 C29.4216004,32.8060004 29.3252004,32.9024004 29.2064004,32.9024004 L29.2064004,32.9024004 L26.8060004,32.9024004 C26.6872004,32.9024004 26.5908004,32.8060004 26.5908004,32.6872004 L26.5908004,32.6872004 L26.5908004,30.4488003 L21.3876003,30.4488003 C21.2688003,30.4488003 21.1724003,30.3524003 21.1724003,30.2336003 L21.1724003,30.2336003 L21.1724003,27.6920003 C21.1724003,27.6452003 21.1876003,27.6004003 21.2152003,27.5632003 L21.2152003,27.5632003 L26.0336004,21.1028002 C26.0740004,21.0484002 26.1380004,21.0164002 26.2060004,21.0164002 L26.2060004,21.0164002 Z M16.2864002,20.7520002 C18.8044003,20.7520002 20.6320003,22.3936002 20.6320003,24.6560002 C20.6320003,26.1644003 19.8272003,27.4548003 18.3052003,28.3872003 L18.3052003,28.3872003 L16.0984002,29.7292003 C15.7592002,29.9460003 15.5212002,30.1524003 15.3624002,30.3712003 L15.3624002,30.3712003 L20.4876003,30.3712003 C20.6064003,30.3712003 20.7028003,30.4676003 20.7028003,30.5864003 L20.7028003,30.5864003 L20.7028003,32.6868004 C20.7028003,32.8060004 20.6064003,32.9024004 20.4876003,32.9020016 L20.4876003,32.9020016 L12.0152002,32.9020016 C11.9580002,32.9020016 11.9028002,32.8792004 11.8624002,32.8384004 C11.8220002,32.7976004 11.7996002,32.7420004 11.7999949,32.6848004 C11.8204002,30.3352003 12.6856002,28.7712003 14.6044002,27.6132003 L14.6044002,27.6132003 L16.4936002,26.4832003 C17.3728003,25.9560003 17.7480003,25.4200002 17.7480003,24.6912002 C17.7480003,24.0660002 17.3512003,23.3356002 16.2336002,23.3356002 C15.2300002,23.3356002 14.6308002,23.9676002 14.6308002,25.0268002 C14.6308002,25.2068002 14.6604002,25.4176002 14.7116002,25.6052002 C14.7292002,25.6712002 14.7152002,25.7416002 14.6728002,25.7952003 C14.6308002,25.8488003 14.5688002,25.8792003 14.4972002,25.8772003 L14.4972002,25.8772003 L12.1848002,25.8068003 C12.0864002,25.8040003 12.0028002,25.7344002 11.9812002,25.6384002 C11.9452002,25.4756002 11.8880002,25.1036002 11.8880002,24.7972002 C11.8880002,22.7868002 13.3988002,20.7520002 16.2864002,20.7520002 Z M26.5912004,24.4220002 L23.9700004,27.9356003 L26.5912004,27.9356003 L26.5912004,24.4220002 Z" id="icon-postage" fill="#ED0000"></path>
    </g>
</svg>