<?xml version="1.0" encoding="UTF-8"?>
<svg width="100px" height="100px" viewBox="0 0 100 100" version="1.1" xmlns="http://www.w3.org/2000/svg" xmlns:xlink="http://www.w3.org/1999/xlink">
    <title>Products/vm-at-home</title>
    <g id="Products/vm-at-home" stroke="none" stroke-width="1" fill="none" fill-rule="evenodd">
        <path d="M48.0676007,7.12760002 C49.5560007,5.8416 51.8000008,5.8148 53.3188008,7.15040002 L53.3188008,7.15040002 L98.9164015,47.2584006 C100.575601,48.7176006 100.737202,51.2452007 99.2788015,52.9036007 C98.4880015,53.8028007 97.3832015,54.2620007 96.2736014,54.2620007 C95.3352014,54.2620007 94.3928014,53.9340007 93.6332014,53.2656007 L93.6332014,53.2656007 L89.4388013,49.5760006 L89.4388013,80.9212011 C89.4388013,88.4400012 83.3216012,94.5572013 75.8028011,94.5572013 L75.8028011,94.5572013 L25.5392004,94.5572013 C18.0200003,94.5572013 11.9032002,88.4400012 11.9032002,80.9212011 L11.9032002,80.9212011 L11.9032002,48.8208006 L6.7468001,53.2604007 C5.99160009,53.9108007 5.06280008,54.2292007 4.13880006,54.2292007 C3.01400004,54.2292007 1.89680003,53.7580007 1.10560002,52.8388007 C-0.335600005,51.1644007 -0.147200002,48.6392006 1.52720002,47.1976006 L1.52720002,47.1976006 L47.9456007,7.23240002 C47.9820007,7.19800002 48.0208007,7.16800002 48.0580007,7.13560002 L48.0580007,7.13560002 L48.0652007,7.12960002 Z M50.6516008,15.4588001 L19.9028003,41.9324005 L19.9028003,80.9208011 C19.9028003,84.0288012 22.4312003,86.5568012 25.5388004,86.5568012 L25.5388004,86.5568012 L75.8024011,86.5568012 C78.9104012,86.5568012 81.4384012,84.0288012 81.4384012,80.9208011 L81.4384012,80.9208011 L81.4384012,42.5388005 L50.6516008,15.4588001 Z M38.6568005,37.8668005 C39.8944006,37.1524005 41.4192006,37.1524005 42.6568005,37.8668005 L42.6568005,37.8668005 L68.094801,52.5536007 C69.332401,53.2680007 70.094801,54.5888007 70.094801,56.0176007 C70.094801,57.4464008 69.332401,58.7672008 68.094801,59.4816008 L68.094801,59.4816008 L42.6568005,74.168401 C42.0380006,74.526001 41.3476006,74.704401 40.6568005,74.704401 C39.9660006,74.704401 39.2756006,74.526001 38.6568005,74.168401 C37.4192006,73.454001 36.6568005,72.133201 36.6568005,70.704401 L36.6568005,70.704401 L36.6568005,41.3308005 C36.6568005,39.9016005 37.4192006,38.5812005 38.6568005,37.8668005 Z M44.6568007,48.2588006 L44.6568007,63.7756009 L58.0948009,56.0172007 L44.6568007,48.2588006 Z" id="icon-vm-at-home" fill="#ED0000"></path>
    </g>
</svg>