<?xml version="1.0" encoding="UTF-8"?>
<svg width="100px" height="100px" viewBox="0 0 100 100" version="1.1" xmlns="http://www.w3.org/2000/svg" xmlns:xlink="http://www.w3.org/1999/xlink">
    <title>Refer a friend/Refer a Friend</title>
    <g id="Refer-a-friend/Refer-a-Friend" stroke="none" stroke-width="1" fill="none" fill-rule="evenodd">
        <path d="M77.3362315,2 C85.9716403,2 93,9.07462687 93,17.7711443 L93,64.0298507 C93,72.7263682 85.9716403,79.800995 77.3362315,79.800995 L47.675264,79.800995 L50.0560775,93.5671642 C50.328879,95.1393035 49.5898349,96.7114428 48.2109471,97.4975124 C47.6207037,97.8358209 46.9808601,98 46.3410165,98 C45.4630916,98 44.5901266,97.6915423 43.8907627,97.0945274 L23.6637685,79.8059701 C15.0283597,79.8059701 8,72.7313433 8,64.0348259 L8,17.7711443 C8,9.07462687 15.0283597,2 23.6637685,2 L77.3362315,2 Z M77.3312715,9.56218905 L23.6637685,9.56218905 C19.1848632,9.56218905 15.5392426,13.2437811 15.5392426,17.7711443 L15.5392426,64.0298507 C15.5392426,68.5572139 19.1848632,72.238806 23.6637685,72.238806 L25.0922565,72.238806 C25.9900216,72.238806 26.8580265,72.5572139 27.5375503,73.1442786 L40.8353854,84.5323383 L39.4763377,76.6666667 C39.2878567,75.5671642 39.5904184,74.4378109 40.3046624,73.5870647 C41.0189065,72.7313433 42.0753924,72.238806 43.1864387,72.238806 L77.3312715,72.238806 C81.8101768,72.238806 85.4557974,68.5572139 85.4557974,64.0298507 L85.4557974,17.7711443 C85.4557974,13.2437811 81.8101768,9.56218905 77.3312715,9.56218905 Z M50.5,15 C64.5592945,15 76,26.4407029 76,40.5 C76.0050036,54.5592971 64.5643014,66 50.5,66 C36.4407022,66 25,54.5592971 25,40.5 C25,26.4356961 36.4407022,15 50.5,15 Z M50.4999984,21.2635971 C39.8954438,21.2635971 31.2635967,29.8954447 31.2635967,40.5 C31.2635967,51.1045553 39.8954438,59.7364029 50.4999984,59.7364029 C61.1045529,59.7364029 69.7364,51.1045553 69.7364,40.5 C69.7364,29.8904379 61.1095598,21.2635971 50.4999984,21.2635971 Z M43.947934,43.8498015 C45.6928924,46.0644723 48.2752302,47.3397448 51.0280525,47.3397448 C53.7558035,47.3397448 56.3180843,46.0854644 58.0630427,43.9022818 C58.8502796,42.9104032 60.2592834,42.7792023 61.2019621,43.6083919 C62.1446407,44.4323334 62.2699969,45.9070312 61.48276,46.8936618 C58.8903936,50.1369475 55.079565,52 51.0280525,52 C46.9364259,52 43.100526,50.1107074 40.5081597,46.8096933 C39.725937,45.8178146 39.8613217,44.3483648 40.8140289,43.5296713 C41.766736,42.7162259 43.1707255,42.8526748 43.947934,43.8498015 Z M43,31 C44.6568542,31 46,32.3431458 46,34 C46,35.6568542 44.6568542,37 43,37 C41.3431458,37 40,35.6568542 40,34 C40,32.3431458 41.3431458,31 43,31 Z M59,31 C60.6568542,31 62,32.3431458 62,34 C62,35.6568542 60.6568542,37 59,37 C57.3431458,37 56,35.6568542 56,34 C56,32.3431458 57.3431458,31 59,31 Z" id="icon-raf" fill="#ED0000"></path>
    </g>
</svg>