<?xml version="1.0" encoding="UTF-8"?>
<svg width="100px" height="100px" viewBox="0 0 100 100" version="1.1" xmlns="http://www.w3.org/2000/svg" xmlns:xlink="http://www.w3.org/1999/xlink">
    <title>Random/Spanner</title>
    <g id="Random/Spanner" stroke="none" stroke-width="1" fill="none" fill-rule="evenodd">
        <path d="M85.3004098,3.66721311 C86.2782787,4.18401639 86.9520492,5.13442623 87.1172131,6.22827869 C87.2819672,7.32172131 86.917623,8.42868852 86.1356557,9.2102459 L75.3758197,19.9696721 L76.6631148,23.5954918 L80.2889344,24.8827869 L91.0131148,14.1581967 C91.7979508,13.3729508 92.9098361,13.0086066 94.0077869,13.1786885 C95.1053279,13.3479508 96.0557377,14.029918 96.5680328,15.0151639 C101.981967,25.4340164 100.038115,38.0155738 91.7307377,46.3229508 C85.2368852,52.8172131 75.9545082,55.4959016 67.070082,53.5598361 L24.4213115,96.2077869 C22.0081967,98.6213115 18.7995902,99.9504098 15.3864754,99.9504098 C11.9733607,99.9504098 8.7647541,98.6213115 6.35122951,96.207377 L3.94016393,93.7959016 C1.52704918,91.3827869 0.19795082,88.1741803 0.19795082,84.7610656 C0.19795082,81.3483607 1.52704918,78.1397541 3.94016393,75.7262295 L46.5885246,33.0782787 C44.652459,24.1954918 47.3311475,14.9114754 53.825,8.41803279 C62.1946721,0.0487704918 74.8430328,-1.86106557 85.3004098,3.66721311 Z M72.754918,7.50819672 C67.6311475,7.50819672 62.5856557,9.51065574 58.7516393,13.3442623 C53.5717213,18.5241803 51.672541,26.1040984 53.7934426,33.1270492 C54.1647541,34.3561475 53.829918,35.6897541 52.9221311,36.597541 L8.86680328,80.6528689 C7.76967213,81.7504098 7.16516393,83.2094262 7.16516393,84.7610656 C7.16516393,86.3131148 7.76967213,87.7721311 8.86680328,88.8692623 L11.2782787,91.2811475 C12.3758197,92.3786885 13.8348361,92.9827869 15.3864754,92.9827869 C16.9381148,92.9827869 18.397541,92.3782787 19.4946721,91.2811475 L63.5504098,47.2254098 C64.4586066,46.317623 65.792623,45.9815574 67.0213115,46.3540984 C74.0446721,48.4758197 81.6237705,46.5758197 86.8036885,41.3959016 C91.747541,36.4520492 93.6467213,29.4631148 92.1180328,22.9061475 L83.6594262,31.3647541 C82.7090164,32.3151639 81.2979508,32.6344262 80.0307377,32.1844262 L72.7688525,29.6065574 C71.7803279,29.2557377 71.0020492,28.4778689 70.6512295,27.4889344 L68.0737705,20.227459 C67.6241803,18.9610656 67.9434426,17.5491803 68.8934426,16.5987705 L77.4229508,8.0692623 C75.8811475,7.69385246 74.3143443,7.50819672 72.754918,7.50819672 Z M15.5303279,81.7487705 C17.1147513,81.7487705 18.3991803,83.0331995 18.3991803,84.617623 C18.3991803,86.2020464 17.1147513,87.4864754 15.5303279,87.4864754 C13.9459044,87.4864754 12.6614754,86.2020464 12.6614754,84.617623 C12.6614754,83.0331995 13.9459044,81.7487705 15.5303279,81.7487705 Z" id="icon-spanner" fill="#ED0000"></path>
    </g>
</svg>