<?xml version="1.0" encoding="UTF-8"?>
<svg width="100px" height="100px" viewBox="0 0 100 100" version="1.1" xmlns="http://www.w3.org/2000/svg" xmlns:xlink="http://www.w3.org/1999/xlink">
    <title>Devices/Phone</title>
    <g id="Devices/Phone" stroke="none" stroke-width="1" fill="none" fill-rule="evenodd">
        <path d="M89.8858839,61.8645227 L82.0591859,57.4962237 L80.547524,56.6001819 L79.6584285,55.9783276 C77.5074525,54.4645592 75.9969746,53.6859221 73.9936773,53.1958188 C73.0684627,52.9717326 72.1452979,52.856337 71.2164316,52.856337 C66.7982368,52.856337 64.1797307,54.5628582 60.0702347,59.422438 L58.2600025,61.6200826 L57.7211516,61.3139478 C49.8185642,56.6858283 44.3285401,51.2051036 39.7608523,43.414951 L39.3760417,42.7361218 L40.7457926,41.6227939 C46.2384786,37.1087763 48.1436673,34.4438643 48.1436673,29.7835727 C48.1436673,28.8230556 48.0236987,27.8794218 47.7865457,26.9451828 C47.3635204,25.2262704 46.7174608,23.8667049 45.5383417,22.10062 L44.323158,20.347728 L43.3838256,18.7289935 L38.994415,10.8539016 C39.0625527,10.9696426 38.8875968,10.6076052 38.7577182,10.3478479 C38.517472,9.85682334 38.2784066,9.39586298 38.0292984,8.94638512 C36.6307426,6.42103041 35.2905382,4.80629078 33.2912163,3.57238587 L32.6271899,3.19605442 C32.4016466,3.07933309 32.1718697,2.97144279 31.9377615,2.87270911 L31.4065213,2.67124003 L31.7186896,2.80699505 C31.099855,2.5028221 30.3081282,2.28684846 29.4835163,2.15473219 L28.8610789,2.07130041 L28.1512923,2.01397359 C27.9178757,2.00337403 27.6672933,2 27.3385107,2 C24.1093536,2 18.9281163,3.15460751 15.9126252,4.52737394 C11.7350497,6.31506477 9.32773065,9.0297011 5.96650778,15.072936 C3.30573219,19.9871466 2,24.7467941 2,29.7835727 C2,34.0432048 2.65456874,37.231361 4.72375226,42.9822483 L6.44741186,47.6144228 C7.95175256,51.7941472 9.76307088,55.616636 11.9039398,59.0772876 C18.5659462,69.862443 31.1510236,82.4504471 41.926729,89.0985433 C44.9034551,90.9357077 48.1357368,92.5302018 51.6594743,93.908028 L55.5705076,95.3718616 C62.9550024,98.1604055 66.4006408,99 71.2164316,99 C76.2430966,99 81.0024317,97.6950685 85.8451629,95.0739745 L86.0927536,94.9281651 C91.9928855,91.652965 94.6930362,89.2473146 96.5471277,84.9096561 C97.8512376,82.055799 99,76.8717532 99,73.6567367 L98.9859018,72.8430415 C98.97521,72.6090905 98.9572371,72.3925211 98.9281125,72.133636 L98.8155989,71.3574951 C98.7224849,70.8447115 98.5926317,70.3409128 98.4228619,69.8442845 L98.0307133,68.8225045 C97.863742,68.4501874 97.6536916,68.0743649 97.4125793,67.6819664 C96.2970861,65.9016718 94.9094031,64.663885 92.8500071,63.4350281 L92.0454667,62.9735832 C91.66048,62.7553481 91.2531161,62.54107 90.666423,62.2446992 L89.8858839,61.8645227 Z M90.6501421,71.5285955 L90.8040144,71.7498593 L90.7901397,71.5405872 L90.8342839,71.7632436 L91.0080416,72.1676796 C91.0798096,72.3347256 91.1328362,72.5051242 91.170378,72.6930019 L91.2154841,72.9896936 C91.2365776,73.1773453 91.240004,73.2648728 91.240004,73.6567367 C91.240004,75.74911 90.3344921,79.8354182 89.4497961,81.7733238 C88.5141049,83.9598231 87.2298858,85.2730826 83.7713547,87.3200772 L81.9419062,88.3714826 C78.4010272,90.279343 74.8973243,91.240004 71.2164316,91.240004 C67.7453328,91.240004 65.209657,90.6718889 59.4454753,88.5365103 L56.0811121,87.2801899 C52.3419307,85.9315578 49.0043467,84.3477506 46.0017674,82.4946303 C36.253965,76.4807012 24.5340051,64.7580157 18.5045986,54.996981 C16.9208301,52.4368644 15.5332407,49.6203237 14.3220183,46.5148168 L12.0879438,40.5301268 C10.2594808,35.482295 9.76000034,33.0478778 9.76000034,29.7835727 C9.76000034,26.0931117 10.7212191,22.5892825 12.7693684,18.8061307 C15.3500906,14.1666964 16.7198166,12.6221118 19.0474478,11.6254567 C21.1469894,10.6707576 25.233962,9.76000034 27.3385107,9.76000034 L27.881837,9.77189128 L28.3470842,9.82483435 C28.3813124,9.82364653 28.374058,9.8097578 28.2956072,9.77119723 L28.7919508,9.97388871 C28.9287669,10.0190089 29.0680297,10.0848495 29.2154194,10.1758308 C29.8069954,10.5409288 30.2932863,11.083377 30.949133,12.1947066 L31.4239395,13.0438454 L32.0655185,14.3313869 L36.6482973,22.5823804 C36.9829231,23.1678904 37.2910506,23.6981466 37.6183021,24.254313 L37.9045976,24.7073062 L38.6512155,25.7794786 C39.677271,27.2351636 40.0375135,27.9303472 40.2582827,28.8272224 C40.3451911,29.1700018 40.3836669,29.4726405 40.3836669,29.7835727 C40.3836669,31.2667313 39.8282323,32.2181433 37.0465556,34.600127 L35.1251856,36.1948719 L32.9337999,37.9845929 C32.36711,38.4604655 32.0273371,38.7684107 31.6650871,39.1216792 L29.5156834,41.2177919 L31.372484,44.458864 L32.2567914,45.9206767 C37.6385773,55.6158074 44.3064106,62.4709747 53.838505,68.0337831 L55.7741999,69.1569857 L56.5265763,69.6168137 C56.834388,69.8029522 57.0544477,69.9307288 57.28037,70.0503347 L59.8464292,71.4088366 L61.8735682,69.3301603 L62.631444,68.5071482 C62.9586524,68.1321114 63.3503964,67.66142 63.9098722,66.9745785 L65.3729354,65.180515 C68.5404821,61.3262607 69.5330601,60.6163374 71.2164316,60.6163374 C71.5148533,60.6163374 71.8265875,60.6553041 72.1583494,60.7356527 C72.9470437,60.9286149 73.5854887,61.231027 74.7043375,61.9873059 L75.9407683,62.8511815 C76.1659681,63.0088541 76.3605866,63.1423984 76.5339726,63.2513611 L79.0120107,64.6919339 L86.1163893,68.6497217 L87.9538853,69.5784199 L88.2561777,69.7453878 C89.5674457,70.4706016 90.2255988,70.967985 90.6501421,71.5285955 Z" id="icon-phone" fill="#ED0000"></path>
    </g>
</svg>