<?xml version="1.0" encoding="UTF-8"?>
<svg width="100px" height="100px" viewBox="0 0 100 100" version="1.1" xmlns="http://www.w3.org/2000/svg" xmlns:xlink="http://www.w3.org/1999/xlink">
    <title>Data/Rollover</title>
    <g id="Data/Rollover" stroke="none" stroke-width="1" fill="none" fill-rule="evenodd">
        <path d="M13.4319996,4.69599988 C14.2719996,2.51199995 16.6239995,1.33599999 18.8079994,2.00799997 L18.8079994,2.00799997 L31.743999,6.37599983 C33.423999,7.04799981 34.599999,8.72799976 34.599999,10.5759997 L34.599999,10.5759997 L33.927999,26.1999992 C33.759999,28.3839991 31.911999,30.2319991 29.7279991,30.2319991 L29.7279991,30.2319991 L29.5599991,30.2319991 C27.2079992,30.0639991 25.3599992,28.2159992 25.5279992,25.8639992 L25.5279992,25.8639992 L25.8639992,18.8079994 C18.3039995,24.5199993 13.0959996,32.751999 11.0799997,42.3279987 C9.06399975,52.7439984 11.0799997,63.3279981 16.9599995,72.2319978 C24.3519993,83.4879974 36.9519989,90.2079972 50.5599985,90.0399972 L50.5599985,90.0399972 L50.7723908,90.0450461 C53.0223014,90.1523058 54.7599983,91.954179 54.7599983,94.0719971 C54.7599983,96.423997 52.9119984,98.271997 50.5599985,98.271997 L50.5599985,98.271997 L50.0559985,98.271997 C33.759999,98.271997 18.6399994,90.2079972 9.73599973,76.5999976 C2.67999995,66.015998 0.328000021,53.0799984 2.84799994,40.4799988 C5.36799986,28.8879991 11.7519997,18.6399994 21.3279994,11.5839997 L21.3279994,11.5839997 L16.1199995,9.90399972 C13.9359996,9.23199974 12.7599996,6.87999982 13.4319996,4.69599988 Z M50.0559985,2.00799997 L50.598756,2.01098318 C66.6872305,2.18788441 81.5709308,10.2231997 90.3759972,23.6799993 C103.983997,44.1759987 99.6159969,71.5599978 81.1359975,87.0159973 L81.1359975,87.0159973 L86.6799973,89.1999972 C88.8639973,90.0399972 89.8719972,92.5599971 89.0319973,94.4079971 C88.5279973,96.087997 86.8479973,97.095997 85.1679974,97.095997 C84.6639974,97.095997 84.1599974,96.927997 83.6559974,96.759997 L83.6559974,96.759997 L69.0399979,91.2159972 C67.3599979,90.5439972 66.183998,88.8639973 66.351998,87.0159973 L66.351998,87.0159973 L67.5279979,73.4079977 C67.6959979,71.0559978 69.7119979,69.3759979 72.0639978,69.5439979 C74.4159977,69.7119979 76.0959977,71.7279978 75.9279977,74.0799977 L75.9279977,74.0799977 L75.4239977,80.7999975 C90.8799972,68.0319979 94.5759971,45.3519986 83.3199974,28.2159992 C75.9279977,17.1279995 63.495998,10.4079997 50.0559985,10.4079997 C47.7039985,10.4079997 45.8559986,8.55999976 45.8559986,6.20799984 C45.8559986,3.85599991 47.7039985,2.00799997 50.0559985,2.00799997 L50.0559985,2.00799997 Z M45.0159986,43.8399987 C47.3679986,43.8399987 48.3759985,45.0159986 48.7119985,45.6879986 L48.7119985,45.6879986 L48.7119985,44.1759987 L52.5759984,44.1759987 L52.5759984,44.1759987 L52.5759984,55.2639983 C52.5759984,56.4399983 52.7439984,57.2799982 52.7439984,57.6159982 L52.7439984,57.6159982 L48.8799985,57.6159982 C48.7119985,57.4479982 48.7119985,56.6079983 48.7119985,56.1039983 L48.7119985,55.9359983 C48.2079985,57.1119982 46.8639986,57.9519982 45.1839986,57.9519982 C41.3199987,57.9519982 38.6319988,54.9279983 38.6319988,50.8959984 C38.6319988,46.8639986 41.1519987,43.8399987 45.0159986,43.8399987 Z M72.0639978,43.8399987 C74.4159977,43.8399987 75.4239977,45.0159986 75.7599977,45.6879986 L75.7599977,45.6879986 L75.7599977,44.1759987 L79.6239975,44.1759987 L79.6243958,55.6067183 C79.6269842,56.6550383 79.6463975,57.3247982 79.7919975,57.6159982 L79.7919975,57.6159982 L75.9279977,57.6159982 C75.7599977,57.4479982 75.7599977,56.6079983 75.7599977,56.1039983 L75.7599977,55.9359983 C75.2559977,57.1119982 73.9119977,57.9519982 72.2319978,57.9519982 C68.3679979,57.9519982 65.679998,54.9279983 65.679998,50.8959984 C65.679998,46.8639986 68.1999979,43.8399987 72.0639978,43.8399987 Z M61.1439981,40.3119988 L61.1439981,44.1759987 L63.663998,44.1759987 L63.663998,47.7039985 L61.1439981,47.7039985 L61.1439981,52.7439984 C61.1439981,53.7519984 61.8159981,54.0879983 62.6559981,54.0879983 C62.9919981,54.0879983 63.495998,53.9199983 63.663998,53.9199983 L63.663998,53.9199983 L63.663998,57.2799982 C63.495998,57.2799982 62.8239981,57.6159982 61.4799981,57.6159982 C58.7919982,57.6159982 57.1119982,56.1039983 57.1119982,53.4159984 L57.1119982,53.4159984 L57.1119982,47.7039985 L54.7599983,47.7039985 L54.7599983,44.1759987 L55.4319983,44.1759987 C56.7759983,44.1759987 57.4479982,43.1679987 57.4479982,41.9919987 L57.4479982,41.9919987 L57.4479982,40.3119988 L61.1439981,40.3119988 L61.1439981,40.3119988 Z M27.3759992,38.6319988 C33.087999,38.6319988 36.9519989,42.1599987 36.9519989,48.0399985 C36.9519989,53.9199983 33.087999,57.4479982 27.3759992,57.4479982 L27.3759992,57.4479982 L20.4879994,57.4479982 L20.4879994,38.6319988 Z M45.6879986,47.3679986 C44.0079987,47.3679986 42.6639987,48.5439985 42.6639987,50.8959984 C42.6639987,53.0799984 44.0079987,54.4239983 45.6879986,54.4239983 C47.1999986,54.4239983 48.7119985,53.0799984 48.7119985,50.8959984 C48.7119985,48.5439985 47.3679986,47.3679986 45.6879986,47.3679986 Z M72.7359978,47.3679986 C71.0559978,47.3679986 69.7119979,48.5439985 69.7119979,50.8959984 C69.7119979,53.0799984 71.0559978,54.4239983 72.7359978,54.4239983 C74.2479977,54.4239983 75.7599977,53.0799984 75.7599977,50.8959984 C75.7599977,48.5439985 74.4159977,47.3679986 72.7359978,47.3679986 Z M27.2079992,42.6639987 L24.6879993,42.6639987 L24.6879993,53.5839984 L27.2079992,53.5839984 C30.0639991,53.5839984 32.415999,51.9039984 32.415999,48.2079985 C32.415999,44.3439986 30.0639991,42.6639987 27.2079992,42.6639987 L27.2079992,42.6639987 Z" id="icon-data-rollover" fill="#ED0000"></path>
    </g>
</svg>