<?xml version="1.0" encoding="UTF-8"?>
<svg width="100px" height="100px" viewBox="0 0 100 100" version="1.1" xmlns="http://www.w3.org/2000/svg" xmlns:xlink="http://www.w3.org/1999/xlink">
    <title>Products/Virus protect</title>
    <g id="Products/Virus-protect" stroke="none" stroke-width="1" fill="none" fill-rule="evenodd">
        <path d="M53.9983539,0.730864198 C64.4613169,-0.939917695 74.9477366,1.56337449 83.526749,7.77983539 C101.237449,20.6127572 105.206173,45.4621399 92.3736626,63.1736626 C84.6255144,73.8670782 72.4942387,79.5510288 60.2012346,79.5510288 C52.1337449,79.5510288 43.9979424,77.1045267 36.9802469,72.0197531 C36.6271605,71.763786 36.2814815,71.5016461 35.9395062,71.236214 L35.9395062,71.236214 L9.67901235,98.6547325 C8.87037037,99.4987654 7.78930041,99.9234568 6.70617284,99.9234568 C5.68271605,99.9234568 4.65761317,99.5440329 3.8600823,98.7802469 C2.21893004,97.2082305 2.16255144,94.6028807 3.7345679,92.9617284 L3.7345679,92.9617284 L29.9921811,65.5452675 C18.4621399,51.9390947 17.2123457,31.6983539 28.1337449,16.6259259 C34.3506173,8.04691358 43.5358025,2.40164609 53.9983539,0.730864198 Z M60.2950617,8.47613169 C50.5522634,8.47613169 40.9399177,12.9802469 34.7987654,21.4555556 C24.6283951,35.4909465 27.773251,55.1843621 41.809465,65.3547325 C55.844856,75.5251029 75.5382716,72.3794239 85.708642,58.3444444 C95.8786008,44.3082305 92.7333333,24.6152263 78.6979424,14.444856 C73.137037,10.4156379 66.6876543,8.47613169 60.2950617,8.47613169 Z M83.3711934,23.0888889 C84.5610478,24.2811174 84.60567,26.1836943 83.5054259,27.4287359 L83.3679012,27.5748971 L77.6930041,33.2415638 C78.3843621,34.7098765 78.7366255,36.3271605 78.7366255,38.0786008 C78.7366255,38.3043896 78.7291267,38.5298125 78.7169334,38.7551135 L78.6954733,39.0930041 L84.7530864,39.0930041 C86.5049383,39.0930041 87.9251029,40.5131687 87.9251029,42.2650206 C87.9251029,43.9564637 86.601192,45.3387003 84.9330847,45.4320157 L84.7530864,45.437037 L77.0506173,45.437037 C76.3946502,46.9823045 75.6337449,48.3876543 74.9259259,49.5493827 C74.6696845,49.9491084 74.4052126,50.3448102 74.1319006,50.7374638 L73.7152263,51.3242798 L78.7374486,56.3979424 C79.9699588,57.6432099 79.9596708,59.6510288 78.7148148,60.8835391 C78.0958848,61.4954733 77.2893004,61.8012346 76.4831276,61.8012346 C75.7339506,61.8012346 74.9854652,61.5377401 74.3879187,61.011068 L74.2288066,60.8609053 L69.5798354,56.1646091 C67.1279835,58.6444444 64.1193416,61.1600823 60.2835391,63.936214 C56.6608368,61.3143118 53.7759412,58.9247638 51.4014333,56.578285 L50.9876543,56.1646091 L46.3395062,60.8600823 C45.7193416,61.4868313 44.9020576,61.8004115 44.0851852,61.8004115 C43.2781893,61.8004115 42.4720165,61.4950617 41.8534979,60.882716 C40.6565211,59.6980057 40.6009716,57.795718 41.6941664,56.5441024 L41.8308642,56.3971193 L46.8530864,51.3238683 C46.4292181,50.7390947 46.0263374,50.1481481 45.6419753,49.5489712 C45.0131687,48.5163237 44.341767,47.2915104 43.739623,45.9464987 L43.517284,45.4366255 L35.8148148,45.4366255 C34.062963,45.4366255 32.6427984,44.0164609 32.6427984,42.2646091 C32.6427984,40.5731659 33.9667092,39.1909294 35.6348166,39.0976139 L35.8148148,39.0925926 L41.872428,39.0925926 C41.8481481,38.7547325 41.8312757,38.4164609 41.8312757,38.0781893 C41.8312757,36.4614752 42.1314291,34.9590718 42.7213784,33.5826314 L42.8748971,33.2411523 L37.2,27.5748971 C35.9604938,26.337037 35.9588477,24.3283951 37.1967078,23.0888889 C38.3865622,21.8974517 40.2886673,21.8501053 41.5358711,22.948313 L41.6823045,23.0855967 L47.0518519,28.4469136 C50.8390947,25.7662551 55.8888889,24.744856 60.2839506,24.744856 C64.5325103,24.744856 69.3928811,25.6992968 73.1331876,28.184355 L73.5160494,28.4469136 L78.8855967,23.0855967 C80.1259259,21.8481481 82.1333333,21.8493827 83.3711934,23.0888889 Z M60.2831276,15.8633745 C62.490535,15.8633745 65.1156379,16.5057613 66.6193416,18.3111111 C67.2917695,19.117284 67.6325103,20.0806584 67.6325103,21.173251 C67.6325103,21.9444444 67.4654321,22.7148148 67.21893,23.4333333 C64.8950617,22.8707819 62.5098765,22.6263374 60.2835391,22.6263374 C58.0572016,22.6263374 55.6720165,22.8703704 53.3473251,23.4333333 C53.1012346,22.7148148 52.9337449,21.9444444 52.9337449,21.173251 C52.9337449,20.0806584 53.2744856,19.1176955 53.9469136,18.3111111 C55.4506173,16.5057613 58.0757202,15.8633745 60.2831276,15.8633745 Z" id="icon-virus-protect" fill="#ED0000"></path>
    </g>
</svg>