<?xml version="1.0" encoding="UTF-8"?>
<svg width="100px" height="62px" viewBox="0 0 100 62" version="1.1" xmlns="http://www.w3.org/2000/svg" xmlns:xlink="http://www.w3.org/1999/xlink">
    <title>icon-bundle</title>
    <g id="📷-Icons" stroke="none" stroke-width="1" fill="none" fill-rule="evenodd">
        <g id="Devices/Bundle" transform="translate(0.000000, -19.000000)" fill="#ED0000">
            <path d="M23.5332093,41.5068994 C24.1416293,41.5068994 24.6679793,41.7290393 25.1131293,42.1736093 C25.5576993,42.6184693 25.7801293,43.1445293 25.7801293,43.7526593 L25.7801293,43.7526593 L25.7801293,54.892719 L31.2927391,54.892719 C31.9011591,54.892719 32.4275091,55.114859 32.8726591,55.5594289 C33.317229,56.0042889 33.5393693,56.5303489 33.5393693,57.1387689 L33.5393693,57.1387689 L33.5393693,78.2974583 C33.5393693,78.9055883 33.316939,79.4322283 32.8723691,79.8765082 C32.4272191,80.3213682 31.9008691,80.5435082 31.2924491,80.5435082 L31.2924491,80.5435082 L22.3073794,80.5435082 C21.6989594,80.5435082 21.1723194,80.3213682 20.7280394,79.8765082 C20.4705194,79.6189883 20.2901394,79.3333383 20.1816794,79.0210083 L20.1816794,79.0210083 L2.50820993,79.0210083 C1.89978995,79.0210083 1.37314996,78.7988683 0.928869973,78.3540083 C0.484009986,77.9097283 0.261869992,77.3830883 0.261869992,76.7749583 L0.261869992,76.7749583 L0.261869992,43.7526593 C0.261869992,43.1448193 0.484009986,42.6184693 0.928869973,42.1736093 C1.37314996,41.7290393 1.89978995,41.5068994 2.50820993,41.5068994 L2.50820993,41.5068994 Z M26.8003492,76.8926983 C26.4143592,76.8926983 26.0837592,77.0304483 25.8094193,77.3050783 C25.5339193,77.5802883 25.3967493,77.9103083 25.3967493,78.2968783 C25.3967493,78.6831583 25.5336293,79.0137583 25.8094193,79.2883883 C26.0840492,79.5635983 26.4143592,79.7007683 26.8003492,79.7007683 C27.1866292,79.7007683 27.5169392,79.5635983 27.7918592,79.2883883 C28.0667792,79.0137583 28.2045292,78.6831583 28.2045292,78.2968783 C28.2045292,77.9103083 28.0667792,77.5802883 27.7918592,77.3050783 C27.5169392,77.0301583 27.1866292,76.8926983 26.8003492,76.8926983 Z M12.9769196,75.3701984 C12.5909296,75.3701984 12.2603296,75.5079484 11.9859897,75.7825784 C11.7104897,76.0577884 11.5733197,76.3878083 11.5733197,76.7743783 C11.5733197,77.1606583 11.7101997,77.4912583 11.9859897,77.7658883 C12.2606196,78.0410983 12.5909296,78.1782683 12.9769196,78.1782683 C13.3631996,78.1782683 13.6935096,78.0410983 13.9684296,77.7658883 C14.2433496,77.4912583 14.3813896,77.1606583 14.3811,76.7743783 C14.3811,76.3878083 14.2433496,76.0577884 13.9684296,75.7825784 C13.6935096,75.5076584 13.3631996,75.3701984 12.9769196,75.3701984 Z M63.8368282,71.9922785 C65.1980881,71.9922785 66.3018281,73.0960184 66.3018281,74.4572784 C66.3018281,75.8185384 65.1980881,76.9222783 63.8365382,76.9222783 L37.6100989,76.9222783 C36.248839,76.9222783 35.145099,75.8185384 35.145099,74.4572784 C35.145099,73.0960184 36.248839,71.9922785 37.6100989,71.9922785 L63.8368282,71.9922785 Z M31.2927391,59.3853988 L22.3076694,59.3853988 C22.1557094,59.3853988 22.0237594,59.4407888 21.9129794,59.5521488 C21.8016194,59.6635088 21.7459394,59.7945888 21.7459394,59.9468388 L21.7459394,59.9468388 L21.7459394,75.4888084 C21.7459394,75.6407684 21.8016194,75.7727184 21.9129794,75.8834984 C22.0237594,75.9948584 22.1554194,76.0502484 22.3076694,76.0502484 L22.3076694,76.0502484 L31.2927391,76.0502484 C31.4449891,76.0502484 31.5766491,75.9948584 31.6880091,75.8834984 C31.7987891,75.7727184 31.8547591,75.6410584 31.8547591,75.4888084 L31.8547591,75.4888084 L31.8547591,59.9468388 C31.8547591,59.7948788 31.7987891,59.6635088 31.6880091,59.5521488 C31.5766491,59.4407888 31.4449891,59.3853988 31.2927391,59.3853988 L31.2927391,59.3853988 Z M23.5332093,45.9989992 L2.50820993,45.9989992 C2.35624993,45.9989992 2.22429994,46.0543892 2.11351994,46.1657492 C2.00215994,46.2771092 1.94647994,46.4081892 1.94647994,46.5604392 L1.94647994,46.5604392 L1.94647994,73.9663084 C1.94647994,74.1182684 2.00215994,74.2502184 2.11351994,74.3609984 C2.22429994,74.4723584 2.35595993,74.5277484 2.50820993,74.5277484 L2.50820993,74.5277484 L20.0613294,74.5277484 L20.0613294,57.1384789 C20.0613294,56.5303489 20.2834694,56.0039989 20.7283294,55.5591389 C21.1726094,55.114569 21.6992494,54.892429 22.3076694,54.892429 L22.3076694,54.892429 L24.0952293,54.892429 L24.0952293,46.5604392 C24.0952293,46.4084792 24.0392593,46.2771092 23.9284793,46.1657492 C23.8171193,46.0543892 23.6854593,45.9989992 23.5332093,45.9989992 L23.5332093,45.9989992 Z M86.6531575,55.488669 C87.6139275,55.488669 88.3931575,56.2678989 88.3931575,57.2286689 L88.3931575,59.7012088 C88.7107074,60.8980388 89.7790674,62.4373588 93.0276473,63.1240787 C94.4152973,63.4175587 95.4224673,64.6613687 95.4224673,66.0814986 L95.4224673,71.1379385 C95.4224673,72.8057285 94.0658473,74.1623484 92.3983473,74.1623484 L70.223498,74.1623484 C68.555998,74.1623484 67.1990881,72.8057285 67.1990881,71.1382285 L67.1990881,66.0817886 C67.1990881,64.6616587 68.206258,63.4175587 69.593908,63.1243687 C72.8436479,62.4373588 73.9117179,60.8974588 74.2283979,59.7003388 L74.2283979,57.2289589 C74.2283979,56.2681889 75.0076278,55.488959 75.9683978,55.488959 C76.9291678,55.488959 77.7083978,56.2681889 77.7083978,57.2289589 L77.7083978,59.7583388 C77.7083978,60.0030988 77.6799778,60.2414788 77.6242978,60.4670988 C77.1994478,62.2015888 75.7300178,65.2535487 70.679088,66.4471886 L70.679088,70.6823485 L91.9424674,70.6823485 L91.9424674,66.4474786 C86.8915375,65.2538387 85.4221075,62.2018788 84.9958076,60.4624588 C84.9409976,60.2379988 84.9131576,60.0007788 84.9131576,59.7580488 L84.9131576,57.2286689 C84.9131576,56.2678989 85.6923875,55.488669 86.6531575,55.488669 Z M65.6704981,65.3057487 C65.6269981,65.5592087 65.6040881,65.8184687 65.6040881,66.0820786 L65.6040881,66.0820786 L65.6040881,70.2357485 L35.134659,70.2357485 L35.134659,65.3057487 Z M99.3864771,52.545749 C99.7307071,53.040199 99.9119571,53.628609 99.9119571,54.249209 L99.9119571,58.6131289 C99.9119571,60.2803388 98.5550472,61.6366688 96.8875472,61.6366688 L92.7854973,61.6366688 C91.1179974,61.6366688 89.7613774,60.2800488 89.7613774,58.6125489 L89.7613774,57.2420089 C89.7613774,56.2812389 90.5406074,55.5020089 91.5013774,55.5020089 C92.4621473,55.5020089 93.2413773,56.2812389 93.2413773,57.2420089 L93.2413773,58.1563789 L96.4319572,58.1563789 L96.4319572,54.408999 C95.1542173,52.957839 89.2880974,51.4994291 81.3241177,51.4994291 C73.3630379,51.4997191 67.4989481,52.957259 66.2191781,54.409289 L66.2191781,58.1569589 L69.409468,58.1569589 L69.409468,57.2425889 C69.409468,56.2818189 70.188698,55.5025889 71.149468,55.5025889 C72.1102379,55.5025889 72.8894679,56.2818189 72.8894679,57.2425889 L72.8894679,58.6131289 C72.8894679,60.2806288 71.5328479,61.6372488 69.865348,61.6372488 L65.7632981,61.6372488 C64.0957982,61.6372488 62.7391782,60.2806288 62.7391782,58.6131289 L62.7391782,54.248629 C62.7391782,53.627449 62.9210082,53.038749 63.2646582,52.545749 C66.1392646,48.4226135 77.4076516,48.0328737 81.125443,48.0200643 L81.3241177,48.0197192 C84.8212276,48.0197192 96.4583472,48.3459692 99.3864771,52.545749 Z M28.2045292,57.1384789 L25.3964593,57.1384789 C25.2094093,57.1384789 25.1154493,57.2327289 25.1154493,57.4194889 C25.1154493,57.6062489 25.2094093,57.7002089 25.3964593,57.7002089 L25.3964593,57.7002089 L28.2045292,57.7002089 C28.3915792,57.7002089 28.4849592,57.6065389 28.4849592,57.4194889 C28.4849592,57.2327289 28.3915792,57.1384789 28.2045292,57.1384789 L28.2045292,57.1384789 Z M59.6393683,19.89204 C60.5954983,18.92286 62.1562782,18.91242 63.1254582,19.86855 C64.0946382,20.8246799 64.1050782,22.3854599 63.1489482,23.3546399 L63.1489482,23.3546399 L57.0696784,29.5168497 L75.3689678,29.5168497 C79.2076977,29.5168497 82.3307076,32.6398596 82.3307076,36.4785895 L82.3307076,36.4785895 L82.3307076,46.4044192 L77.4009978,46.4044192 L77.4009978,36.4785895 C77.4009978,35.3565795 76.4912678,34.4468496 75.3692578,34.4468496 L75.3692578,34.4468496 L26.3789792,34.4468496 C25.2569693,34.4468496 24.3472393,35.3565795 24.3472393,36.4785895 L24.3472393,36.4785895 L24.3472393,39.9263994 L19.4172394,39.9113194 L19.4172394,36.4785895 C19.4172394,32.6398596 22.5402494,29.5168497 26.3789792,29.5168497 L26.3789792,29.5168497 L44.4662787,29.5168497 L38.3872989,23.3546399 C37.4311689,22.3854599 37.4416089,20.8246799 38.4107889,19.86855 C39.3799689,18.913 40.9407488,18.92315 41.8968788,19.89233 L41.8968788,19.89233 L50.7676885,28.8849397 Z M12.9980896,43.2387793 C12.7176596,43.2387793 12.4905896,43.4661393 12.4905896,43.7462793 C12.4905896,44.0264193 12.7179496,44.2537793 12.9980896,44.2537793 C13.2782296,44.2537793 13.5055896,44.0264193 13.5055896,43.7462793 C13.5055896,43.4661393 13.2782296,43.2387793 12.9980896,43.2387793 Z" id="icon-bundle"></path>
        </g>
    </g>
</svg>