<?xml version="1.0" encoding="UTF-8"?>
<svg width="100px" height="100px" viewBox="0 0 100 100" version="1.1" xmlns="http://www.w3.org/2000/svg" xmlns:xlink="http://www.w3.org/1999/xlink">
    <title>Random/Piggy bank</title>
    <g id="Random/Piggy-bank" stroke="none" stroke-width="1" fill="none" fill-rule="evenodd">
        <path d="M53.4676113,12.3032389 C58.2878543,12.3032389 62.9554656,12.994332 67.3979757,14.3623482 C69.3259109,13.4489879 71.4481781,12.9672065 73.6445344,12.9672065 C77.5449393,12.9672065 81.2117409,14.48583 83.9696356,17.2437247 C86.2850202,19.5591093 86.9048583,22.9287449 85.8291498,25.808502 C87.0263158,27.1348178 88.108502,28.534413 89.0659919,29.9951417 L89.0659919,29.9951417 L89.5105263,29.9951417 C95.1530364,29.9951417 99.7473684,34.5708502 99.7769231,40.2068826 L99.7769231,40.2068826 L99.9040486,52.9348178 L99.9040486,52.9348178 L99.9040486,53.0145749 C99.9040486,58.6757085 95.2983806,63.2813765 89.637247,63.2813765 L89.637247,63.2813765 L89.1736842,63.2813765 C86.4566802,67.4838057 82.7259109,71.1607287 78.2194332,74.0736842 L78.2194332,74.0736842 L78.2194332,77.888664 C78.2194332,83.5497976 73.6137652,88.1554656 67.9526316,88.1554656 L67.9526316,88.1554656 L62.3421053,88.1554656 C58.6101215,88.1554656 55.337247,86.154251 53.5396761,83.1680162 C51.7421053,86.154251 48.4688259,88.1554656 44.7368421,88.1554656 L44.7368421,88.1554656 L39.1263158,88.1554656 C33.4651822,88.1554656 28.8595142,83.5497976 28.8595142,77.888664 L28.8595142,77.888664 L28.8595142,74.1635628 C19.1619433,67.9449393 13.1919028,58.2825911 12.7935223,47.837247 C12.4206478,47.657085 12.0801619,47.4696356 11.78583,47.2902834 C11.7631579,47.2761134 11.740081,47.2619433 11.7174089,47.2473684 C11.0020243,46.788664 10.3283401,46.259919 9.66963563,45.6336032 C9.57732794,45.697166 9.48421053,45.7595142 9.3902834,45.8198381 L9.3902834,45.8198381 L9.32388664,45.8615385 C8.10404858,46.6048583 6.87611336,46.9817814 5.67408907,46.9817814 C4.42145749,46.9817814 3.25748988,46.5639676 2.30769231,45.7732794 C0.887044534,44.5898785 0.0724696356,42.6862348 0.0724696356,40.5506073 C0.0724696356,38.6502024 1.61336032,37.1093117 3.51376518,37.1093117 C4.89878543,37.1093117 6.09230769,37.9275304 6.63846154,39.1068826 C6.76882591,38.9473684 6.91214575,38.7603239 7.07165992,38.5404858 C7.71902834,37.6465587 8.75546559,37.1178138 9.85870445,37.1178138 L9.85870445,37.1178138 C10.9744939,37.1210526 12.0121457,37.6558704 12.6562753,38.5554656 C12.9846154,39.01417 13.294332,39.4125506 13.5951417,39.7680162 C14.1773279,37.3522267 15.0643725,34.9959514 16.257085,32.7190283 C18.4161943,28.5975709 21.4688259,24.9271255 25.3295547,21.8097166 C32.9222672,15.6793522 42.9149798,12.3032389 53.4676113,12.3032389 Z M53.4668016,20.4 C35.462753,20.4 20.8672065,32.1846154 20.8672065,46.7218623 C20.8672065,56.4404858 27.3959514,64.9230769 37.1004049,69.4821862 C37.011336,69.7186235 36.9562753,69.9716599 36.9562753,70.2380567 L36.9562753,70.2380567 L36.9562753,77.8894737 C36.9562753,79.082996 37.9327935,80.0591093 39.1259109,80.0591093 L39.1259109,80.0591093 L44.7360324,80.0591093 C45.9295547,80.0591093 46.905668,79.0825911 46.905668,77.8894737 L46.905668,77.8894737 L46.905668,72.5097166 C49.0251012,72.8595142 51.2194332,73.0433198 53.4668016,73.0433198 C55.765587,73.0433198 58.0076923,72.848583 60.1720648,72.4834008 L60.1720648,72.4834008 L60.1720648,77.8894737 C60.1720648,79.082996 61.148583,80.0591093 62.3417004,80.0591093 L62.3417004,80.0591093 L67.9522267,80.0591093 C69.145749,80.0591093 70.1218623,79.0825911 70.1218623,77.8894737 L70.1218623,77.8894737 L70.1218623,70.2380567 C70.1218623,69.9502024 70.0623482,69.6761134 69.9595142,69.4238866 C76.645749,66.2502024 81.8020243,61.208502 84.3348178,55.1850202 L84.3348178,55.1850202 L89.637247,55.1850202 C90.8303644,55.1850202 91.8068826,54.208502 91.8060734,53.0153846 L91.8060734,53.0153846 L91.6789474,40.2615385 C91.6789474,39.0680162 90.7024291,38.0919028 89.5093117,38.0919028 L89.5093117,38.0919028 L84.2643725,38.0919028 C82.3356275,33.6036437 78.9477733,29.6692308 74.5550607,26.6566802 L74.5550607,26.6566802 L78.242915,22.9688259 C76.9728745,21.6983806 75.3080972,21.0635628 73.6437247,21.0635628 C71.9793522,21.0635628 70.3145749,21.6987854 69.0445344,22.9688259 C68.8983806,23.1149798 68.7631579,23.2672065 68.6340081,23.4230769 C64.1024291,21.4959514 58.9441296,20.4 53.4668016,20.4 Z M72.3097166,34.7 C73.6888633,34.7 74.8068826,35.8180193 74.8068826,37.197166 C74.8068826,38.5763127 73.6888633,39.694332 72.3097166,39.694332 C70.9305699,39.694332 69.8125506,38.5763127 69.8125506,37.197166 C69.8125506,35.8180193 70.9305699,34.7 72.3097166,34.7 Z M55.4684211,25.2623482 C57.0700405,25.3963563 58.2578947,26.8 58.1246964,28.4004049 C57.991498,30.0004049 56.5866397,31.1894737 54.9870445,31.0566802 C50.1534413,30.6546559 45.5469636,31.4534413 41.6659919,33.3659919 C40.8963563,33.7453441 40.0404858,33.7526316 39.3020243,33.4578947 C38.6587045,33.2008097 38.1044534,32.71417 37.7736842,32.0437247 C37.0635628,30.6036437 37.6558704,28.8607287 39.0959514,28.151417 C43.9226721,25.7724696 49.5842105,24.7736842 55.4684211,25.2623482 Z" id="icon-piggy-bank" fill="#ED0000"></path>
    </g>
</svg>