<?xml version="1.0" encoding="UTF-8"?>
<svg width="100px" height="100px" viewBox="0 0 100 100" version="1.1" xmlns="http://www.w3.org/2000/svg" xmlns:xlink="http://www.w3.org/1999/xlink">
    <title>Site/Home</title>
    <g id="Site/Home" stroke="none" stroke-width="1" fill="none" fill-rule="evenodd">
        <path d="M98.7795314,47.2584006 L53.1819307,7.15040002 C51.6631307,5.8148 49.4191306,5.8416 47.9307306,7.12760002 C47.9299306,7.12840002 47.9291306,7.12880002 47.9283306,7.12960002 L47.9211306,7.13560002 C47.8839306,7.16800002 47.8451306,7.19800002 47.8087306,7.23240002 L1.39032992,47.1976006 C-0.284070108,48.6392006 -0.472470111,51.1644007 0.968729911,52.8388007 C1.75992992,53.7580007 2.87712994,54.2292007 4.00192996,54.2292007 C4.92592997,54.2292007 5.85472998,53.9108007 6.60992999,53.2604007 L11.7663301,48.8208006 L11.7663301,80.9212011 C11.7663301,88.4400012 17.8831302,94.5572013 25.4023303,94.5572013 L75.665931,94.5572013 C83.1847311,94.5572013 89.3019312,88.4400012 89.3019312,80.9212011 L89.3019312,49.5760006 L93.4963313,53.2656007 C94.2559313,53.9340007 95.1983313,54.2620007 96.1367313,54.2620007 C97.2463313,54.2620007 98.3511314,53.8028007 99.1419314,52.9036007 C100.600331,51.2452007 100.438731,48.7176006 98.7795314,47.2584006 Z M81.3015311,80.9208011 C81.3015311,84.0288012 78.7735311,86.5568012 75.665531,86.5568012 L25.4019303,86.5568012 C22.2943302,86.5568012 19.7659302,84.0288012 19.7659302,80.9208011 L19.7659302,41.9324005 L50.5147306,15.4588001 L81.3015311,42.5388005 L81.3015311,80.9208011 Z" id="icon-home" fill="#ED0000"></path>
    </g>
</svg>