<?xml version="1.0" encoding="UTF-8"?>
<svg width="100px" height="100px" viewBox="0 0 100 100" version="1.1" xmlns="http://www.w3.org/2000/svg" xmlns:xlink="http://www.w3.org/1999/xlink">
    <title>Location/Enable location</title>
    <g id="Location/Enable-location" stroke="none" stroke-width="1" fill="none" fill-rule="evenodd">
        <path d="M49.9113821,0.408536585 C77.3268293,0.408536585 99.6300813,22.7121951 99.6300813,50.1272358 C99.6300813,77.5422764 77.3264228,99.845935 49.9113821,99.845935 C22.4963415,99.845935 0.192276423,77.5422764 0.192276423,50.1272358 C0.192276423,22.7121951 22.495935,0.408536585 49.9113821,0.408536585 Z M49.9113821,8.53861789 C26.9792683,8.53861789 8.32235772,27.1955285 8.32235772,50.1276423 C8.32235772,73.0597561 26.9792683,91.7162602 49.9113821,91.7162602 C72.8434959,91.7162602 91.5,73.0593496 91.5,50.1272358 C91.5,27.195122 72.8434959,8.53861789 49.9113821,8.53861789 Z M75.3731707,24.9158537 C76.55,26.1150407 76.8674797,27.9142276 76.1727642,29.4439024 L51.6544715,83.4292683 C50.9890244,84.8930894 49.5329268,85.8130081 47.954878,85.8130081 C47.7902439,85.8130081 47.6247967,85.803252 47.4581301,85.7829268 C45.6955285,85.5666667 44.2772358,84.2313008 43.9552846,82.4845528 L39.7317073,59.5560976 L17.4707317,55.1439024 C15.7247967,54.797561 14.4069106,53.3560976 14.2186992,51.5857724 C14.0304878,49.8158537 15.0158537,48.1292683 16.6504065,47.4239837 L70.8609756,24.0304878 C72.402439,23.3658537 74.1963415,23.7166667 75.3731707,24.9158537 Z M64.4178862,35.6654472 L31.8723577,49.7097561 L44.0199187,52.1170732 C45.6544715,52.4410569 46.9252033,53.7296748 47.2272358,55.3682927 L49.6056911,68.2792683 L64.4178862,35.6654472 Z" id="icon-enable-location" fill="#ED0000"></path>
    </g>
</svg>