<?xml version="1.0" encoding="UTF-8"?>
<svg width="100px" height="100px" viewBox="0 0 100 100" version="1.1" xmlns="http://www.w3.org/2000/svg" xmlns:xlink="http://www.w3.org/1999/xlink">
    <title>App/User plek</title>
    <g id="App/User-plek" stroke="none" stroke-width="1" fill="none" fill-rule="evenodd">
        <path d="M50,1 C77.0619527,1 99,22.9380473 99,50 C99,77.0619527 77.0619527,99 50,99 C22.9380473,99 1,77.0619527 1,50 C1,22.9380473 22.9380473,1 50,1 Z M33.7341072,70.6814984 C28.51158,73.3171922 24.5566849,76.7531045 21.8057971,81.0018606 C29.2500861,87.7760117 39.1428572,91.9049774 50,91.9049774 C60.8571428,91.9049774 70.7499139,87.7760117 78.193729,81.0026648 L78.3177292,81.1938957 C75.5660858,76.8626052 71.5784488,73.3666106 66.2883001,70.6915263 C62.2604237,75.0355558 57.3998716,79.2467056 51.8983968,83.1462721 C51.3431569,83.5399137 50.6823593,83.7506285 50.0019407,83.7506285 C49.3178787,83.7506285 48.6543601,83.5376821 48.0958494,83.1396785 C42.6115108,79.2241427 37.76092,75.0115821 33.7341072,70.6814984 Z M50.0288235,27.1872851 L49.1208698,27.2012127 C42.3952397,27.3781535 36.4634321,29.2327184 32.3466199,32.4059687 C28.9695649,34.9883551 27.2031493,38.6058801 27.1874418,42.97408 C27.2290323,47.8257624 29.2889299,53.4767445 33.2013273,59.2751477 C36.8708515,64.708303 42.243674,70.2383661 48.8255446,75.3550203 L50.0088688,76.2582353 L50.081211,76.2057061 C56.8013919,71.1618309 62.3310098,65.6515108 66.1792512,60.1813551 L66.8049723,59.2701212 C70.787661,53.3557124 72.8428482,47.7131975 72.812418,42.9978289 C72.812418,38.5515121 71.0760573,34.9510187 67.7228081,32.4130142 C63.7876996,29.3537388 58.1678358,27.5134663 51.793231,27.2272874 L50.9193759,27.1979272 L50.0288235,27.1872851 Z M50,8.09502262 C26.8565201,8.09502262 8.09502262,26.8565201 8.09502262,50 C8.09502262,59.6681774 11.3691789,68.5716347 16.8691756,75.6620561 C19.95493,71.4129495 24.0335045,67.8971991 29.0686408,65.1213857 C28.5297626,64.4016514 28.0143085,63.6799597 27.5239735,62.9579463 C22.863689,56.0882755 20.3434411,49.1531916 20.2896078,42.8303554 C20.3124317,36.3212482 23.0415519,30.7599076 28.1175644,26.9000453 C33.4577884,22.806148 40.8508036,20.5005955 49.0406127,20.3031599 L50.0375061,20.2895936 C58.6335389,20.2966956 66.4207214,22.6295842 71.9508828,26.9061549 C77.0108133,30.7149876 79.7082699,36.268823 79.7100066,42.8099295 C79.749166,48.9968478 77.2306777,55.9390556 72.4913538,62.9391501 C71.9995463,63.6694482 71.4821928,64.3990243 70.9401415,65.1270777 C75.9717912,67.9015489 80.0475004,71.4156925 83.1315388,75.6611887 C88.6308211,68.5716347 91.9049774,59.6681774 91.9049774,50 C91.9049774,26.8565201 73.1434799,8.09502262 50,8.09502262 Z" id="icon-user-plek" fill="#ED0000"></path>
    </g>
</svg>