<?xml version="1.0" encoding="UTF-8"?>
<svg width="100px" height="100px" viewBox="0 0 100 100" version="1.1" xmlns="http://www.w3.org/2000/svg" xmlns:xlink="http://www.w3.org/1999/xlink">
    <title>Random/Headset</title>
    <g id="Random/Headset" stroke="none" stroke-width="1" fill="none" fill-rule="evenodd">
        <path d="M86.47875,35.2066667 L86.395,35.2066667 C85.74125,15.7041667 69.675,0.0395833333 50.01625,0.0395833333 L45.655,0.0395833333 C25.9945833,0.0395833333 9.92666667,15.7070833 9.27583333,35.2120833 C4.21958333,35.3233333 0.139583333,39.4683333 0.139583333,44.55125 L0.139583333,66.2320833 C0.139583333,71.3845833 4.33166667,75.5766667 9.48375,75.5766667 L17.25,75.5766667 C22.4025,75.5766667 26.5941667,71.3845833 26.5941667,66.2320833 L26.5941667,44.55125 C26.5941667,39.5220833 22.6,35.41 17.6175,35.21625 C18.2620833,20.3058333 30.5891667,8.37333333 45.6554167,8.37333333 L50.0166667,8.37333333 C65.0883333,8.37333333 77.41875,20.315 78.055,35.2329167 C73.2091667,35.5725 69.3695833,39.6208333 69.3695833,44.55125 L69.3695833,66.2320833 C69.3695833,71.3845833 73.5616667,75.5766667 78.71375,75.5766667 L79.0008333,75.5766667 C78.85125,77.70875 78.20875,80.4425 76.1220833,82.2866667 C73.75125,84.38125 69.8158333,85.16625 64.5283333,84.6495833 C63.41625,78.7191667 58.2029167,74.21625 51.955,74.21625 C44.8991667,74.21625 39.1591667,79.9566667 39.1591667,87.0125 C39.1591667,94.0683333 44.8995833,99.8083333 51.955,99.8083333 C56.89875,99.8083333 61.1933333,96.9883333 63.3233333,92.8745833 C64.7675,93.0245833 66.1591667,93.1091667 67.4829167,93.1091667 C73.4925,93.1091667 78.2520833,91.5616667 81.71,88.4695833 C86.0479167,84.5904167 87.1670833,79.3045833 87.34,75.5358333 C92.0908333,75.1 95.8245833,71.095 95.8245833,66.2325 L95.8245833,44.5516667 C95.8229167,39.39875 91.63125,35.2066667 86.47875,35.2066667 Z M18.2604167,44.5508333 L18.2604167,66.2316667 C18.2604167,66.7795833 17.7975,67.2429167 17.2495833,67.2429167 L9.48333333,67.2429167 C8.93541667,67.2429167 8.4725,66.78 8.4725,66.2316667 L8.4725,44.5508333 C8.4725,44.0029167 8.93541667,43.54 9.48333333,43.54 L17.2495833,43.54 C17.7975,43.54 18.2604167,44.0029167 18.2604167,44.5508333 Z M51.95375,91.4741667 C49.4929167,91.4741667 47.49125,89.4720833 47.49125,87.0116667 C47.49125,84.5508333 49.4929167,82.54875 51.95375,82.54875 C54.4141667,82.54875 56.41625,84.5508333 56.41625,87.0116667 C56.41625,89.4720833 54.4145833,91.4741667 51.95375,91.4741667 Z M87.4895833,66.2316667 C87.4895833,66.7795833 87.0266667,67.2429167 86.4783333,67.2429167 L78.7125,67.2429167 C78.165,67.2429167 77.7016667,66.78 77.7016667,66.2316667 L77.7016667,44.5508333 C77.7016667,44.0029167 78.1645833,43.54 78.7125,43.54 L86.47875,43.54 C87.0266667,43.54 87.49,44.0029167 87.49,44.5508333 L87.49,66.2316667 L87.4895833,66.2316667 Z" id="icon-headset" fill="#ED0000"></path>
    </g>
</svg>