<?xml version="1.0" encoding="UTF-8"?>
<svg width="100px" height="100px" viewBox="0 0 100 100" version="1.1" xmlns="http://www.w3.org/2000/svg" xmlns:xlink="http://www.w3.org/1999/xlink">
    <title>Site/Question</title>
    <g id="Site/Question" stroke="none" stroke-width="1" fill="none" fill-rule="evenodd">
        <path d="M49.9113821,0.00203252033 C77.3268293,0.00203252033 99.6300813,22.3056911 99.6300813,49.7207317 C99.6300813,77.1357724 77.3264228,99.4394309 49.9113821,99.4394309 C22.4963415,99.4394309 0.192276423,77.1357724 0.192276423,49.7207317 C0.192276423,22.3056911 22.495935,0.00203252033 49.9113821,0.00203252033 Z M49.9113821,8.13211382 C26.9792683,8.13211382 8.32235772,26.7890244 8.32235772,49.7211382 C8.32235772,72.653252 26.9792683,91.3097561 49.9113821,91.3097561 C72.8434959,91.3097561 91.5,72.6528455 91.5,49.7207317 C91.5,26.7886179 72.8434959,8.13211382 49.9113821,8.13211382 Z M49.1836735,60.3261719 C50.827664,60.3261719 52.2165537,60.9000647 53.3503401,62.0478516 C54.4841266,63.1956384 55.0510204,64.5673828 55.0510204,66.1630859 C55.0510204,67.7587891 54.4841266,69.1305334 53.3503401,70.2783203 C52.2165537,71.4261072 50.827664,72 49.1836735,72 C47.539683,72 46.1507932,71.4261072 45.0170068,70.2783203 C43.8832204,69.1305334 43.3163265,67.7587891 43.3163265,66.1630859 C43.3163265,64.5673828 43.8832204,63.1956384 45.0170068,62.0478516 C46.1507932,60.9000647 47.539683,60.3261719 49.1836735,60.3261719 Z M50.0340136,29 C52.4716558,29 54.8384354,29.5738928 57.1343537,30.7216797 C59.4302721,31.8694666 61.2868476,33.3951819 62.7040816,35.2988281 C64.2346939,37.3704431 65,39.5820313 65,41.9335938 C65,43.78125 64.6031742,45.4049475 63.8095238,46.8046875 C63.1292517,47.9804688 62.1938776,49.0442713 61.0034014,49.9960938 C60.2664395,50.55599 59.1609973,51.2558594 57.6870748,52.0957031 C56.4965986,52.7675781 55.7029483,53.2714844 55.3061224,53.6074219 C54.6258503,54.1673181 54.2857143,54.7552088 54.2857143,55.3710938 L54.2857143,55.3710938 L54.2857143,55.875 L54.2783657,56.0585215 C54.2391731,56.5396173 54.0432103,56.9543544 53.6904762,57.3027344 C53.2936504,57.6946619 52.8117918,57.890625 52.244898,57.890625 L52.244898,57.890625 L46.122449,57.890625 L45.9366338,57.8833671 C45.4495252,57.8446583 45.0296048,57.6511144 44.6768707,57.3027344 C44.2800449,56.9108069 44.0816327,56.4348963 44.0816327,55.875 L44.0816327,55.875 L44.0816327,55.0351563 L44.087757,54.6843295 C44.161249,52.5961194 44.8961694,50.8094165 46.292517,49.3242188 C47.1995469,48.428385 48.7301592,47.3925781 50.8843537,46.2167969 L50.8843537,46.2167969 L51.0544218,46.1328125 L51.3537415,45.9670833 C52.7188209,45.2041319 53.6394558,44.5875 54.1156463,44.1171875 C54.8526081,43.4453125 55.2210884,42.6894531 55.2210884,41.8496094 C55.2210884,40.6178381 54.5691606,39.6100256 53.2653061,38.8261719 C52.0748299,38.0423181 50.7709755,37.6503906 49.3537415,37.6503906 C47.8231293,37.6503906 46.5192748,38.0143225 45.4421769,38.7421875 C44.5918367,39.3020838 43.5430843,40.3098963 42.2959184,41.765625 C41.9557823,42.2135412 41.5164395,42.4794922 40.9778912,42.5634766 C40.4393428,42.6474609 39.9433102,42.5214844 39.4897959,42.1855469 L39.4897959,42.1855469 L35.8333333,39.4140625 L35.6889856,39.2984544 C35.3222548,38.9804888 35.101096,38.5851052 35.0255102,38.1123047 C34.9404762,37.5804041 35.0680272,37.0904944 35.4081633,36.6425781 C37.2222218,34.1230469 39.2346939,32.2473963 41.4455782,31.015625 C43.8832204,29.671875 46.7460313,29 50.0340136,29 Z" id="icon-question" fill="#ED0000"></path>
    </g>
</svg>