<?xml version="1.0" encoding="UTF-8"?>
<svg width="100px" height="100px" viewBox="0 0 100 100" version="1.1" xmlns="http://www.w3.org/2000/svg" xmlns:xlink="http://www.w3.org/1999/xlink">
    <title>Random/Tickets</title>
    <g id="Random/Tickets" stroke="none" stroke-width="1" fill="none" fill-rule="evenodd">
        <path d="M98.1495935,10.597561 C96.8756098,8.90487805 95.0235772,7.81056911 92.9337398,7.51585366 L81.0813008,5.84430894 C79.248374,5.58333333 77.5390244,6.81626016 77.201626,8.63536585 C76.7837398,10.8882114 74.6813008,12.404065 72.4166667,12.0833333 C70.1512195,11.7638211 68.55,9.72682927 68.7711382,7.44634146 C68.95,5.60487805 67.6463415,3.94918699 65.8146341,3.69105691 L53.5703252,1.96422764 C49.2495935,1.35243902 45.2337398,4.37560976 44.6243902,8.69878049 L43.1845528,18.9089431 L34.300813,20.1621951 C32.4691057,20.4203252 31.1654472,22.0760163 31.3443089,23.9174797 C31.5658537,26.1979675 29.9646341,28.2349593 27.699187,28.5544715 C25.4321138,28.8735772 23.3313008,27.3593496 22.9138211,25.1065041 C22.5764228,23.2878049 20.8682927,22.0581301 19.0341463,22.3154472 L7.18170732,23.9869919 C5.09227642,24.2817073 3.2398374,25.3760163 1.96585366,27.0682927 C0.691869919,28.7609756 0.152439024,30.8434959 0.447154472,32.9329268 L8.91666667,92.9890244 C9.47357724,96.9390244 12.8719512,99.8020325 16.7520325,99.8020325 C17.1182927,99.8020325 17.4894309,99.7764228 17.8626016,99.7239837 L29.698374,98.054878 C31.5878049,97.7882114 32.9036585,96.0394309 32.6369919,94.15 C32.3081301,91.8178862 33.9378049,89.653252 36.2699187,89.3243902 C37.399187,89.1654472 38.5231707,89.4552846 39.4349593,90.1414634 C40.3386179,90.8215447 40.9260163,91.8097561 41.0910569,92.9276423 C41.200813,93.7585366 41.6097561,94.5276423 42.250813,95.0841463 C43.0060976,95.7402439 44.0073171,96.0361789 44.9995935,95.897561 L57.2272358,94.1731707 C61.55,93.5630081 64.5711382,89.55 63.9617886,85.2268293 L62.2284553,72.9357724 C62.750813,72.8073171 63.2979675,72.7764228 63.8471545,72.8536585 C64.9764228,73.0130081 65.9764228,73.602439 66.6630081,74.5138211 C67.3439024,75.4182927 67.6345528,76.5321138 67.4833333,77.6528455 C67.4044715,78.1821138 67.447561,78.7317073 67.6239837,79.2585366 C68.0390244,80.500813 69.1215447,81.4012195 70.4182927,81.5845528 L82.2544715,83.2536585 C82.6280488,83.3060976 82.998374,83.3317073 83.3650407,83.3317073 C87.2447154,83.3313008 90.6430894,80.4682927 91.2,76.5182927 L99.6695122,16.4630081 C99.9630081,14.3731707 99.4239837,12.2902439 98.1495935,10.597561 Z M56.2609756,87.3288618 L46.9199187,88.6463415 C46.1560976,87.0768293 45.0256098,85.699187 43.5910569,84.6191057 C41.2044715,82.8227642 38.2613821,82.0634146 35.304878,82.4800813 C30.3930894,83.1727642 26.6711382,86.9768293 25.852439,91.6174797 L16.8979675,92.8800813 C16.3581301,92.9560976 15.8357724,92.5642276 15.7593496,92.0235772 L7.28943089,31.9674797 C7.2398374,31.6146341 7.39146341,31.3504065 7.48658537,31.2239837 C7.58130081,31.0979675 7.79349593,30.8788618 8.14674797,30.8288618 L17.2195122,29.5495935 C19.3593496,33.6215447 23.8719512,36.0723577 28.6642276,35.396748 C33.4569106,34.7211382 37.1154472,31.1174797 38.0455285,26.6126016 L42.1800813,26.0296748 L42.1800813,26.0296748 L47.5101626,25.2780488 C48.051626,25.201626 48.5719512,25.5947154 48.648374,26.1349593 L56.1617886,79.4121951 L56.1617886,79.4121951 L57.1178862,86.1906504 C57.1939024,86.7313008 56.801626,87.2528455 56.2609756,87.3288618 Z M92.8256098,15.4971545 L84.3560976,75.5528455 C84.2796748,76.0934959 83.752439,76.4841463 83.2182927,76.4093496 L74.2682927,75.147561 C73.9682927,73.4280488 73.2626016,71.7914634 72.1825203,70.3565041 C70.3861789,67.9707317 67.7682927,66.4268293 64.8109756,66.0097561 C63.6130081,65.8410569 62.4178862,65.8686992 61.2601626,66.0768293 L55.4914634,25.1695122 C55.0597561,22.1121951 52.9227642,19.7117886 50.1813008,18.7808943 L51.4670732,9.66422764 C51.5434959,9.12357724 52.0613821,8.73170732 52.6056911,8.80731707 L62.0703252,10.1422764 C63.0004065,14.6471545 66.6589431,18.2504065 71.4512195,18.9264228 C76.245122,19.604065 80.7565041,17.150813 82.895935,13.0792683 L91.9686992,14.3585366 C92.3215447,14.4085366 92.5337398,14.6272358 92.6284553,14.7536585 C92.7235772,14.8796748 92.8756098,15.1439024 92.8256098,15.4971545 Z" id="icon-tickets" fill="#ED0000"></path>
    </g>
</svg>