<?xml version="1.0" encoding="UTF-8"?>
<svg width="100px" height="100px" viewBox="0 0 100 100" version="1.1" xmlns="http://www.w3.org/2000/svg" xmlns:xlink="http://www.w3.org/1999/xlink">
    <title>Network/WiFi at home unavilable</title>
    <g id="Network/WiFi-at-home-unavilable" stroke="none" stroke-width="1" fill="none" fill-rule="evenodd">
        <path d="M90.510757,8.87330677 C91.8270916,10.201992 91.8163347,12.3462151 90.4876494,13.6625498 L8.01752988,95.3358566 C7.35697211,95.989243 6.49521912,96.3159363 5.63426295,96.3159363 C4.76215139,96.3159363 3.89043825,95.9812749 3.22788845,95.3123506 C1.91195219,93.9832669 1.92231076,91.8390438 3.25139442,90.5231076 L85.7215139,8.8498008 C87.0505976,7.53346614 89.1948207,7.54422311 90.510757,8.87330677 Z M79.4521912,28.2350598 L98.5055777,44.9940239 C100.158167,46.4474104 100.319124,48.9649402 98.8661355,50.6171315 C98.0784861,51.512749 96.9780876,51.9701195 95.8729084,51.9701195 C94.938247,51.9701195 93.9996016,51.6434263 93.2430279,50.9776892 L93.2430279,50.9776892 L89.0653386,47.3027888 L89.0653386,78.5227092 C89.0653386,86.0115538 82.97251,92.1043825 75.4836653,92.1043825 L75.4836653,92.1043825 L25.4207171,92.1043825 C22.4776892,92.1043825 19.7525896,91.1605578 17.5258964,89.563745 L17.5258964,89.563745 L23.3944223,83.7517928 C24.0239044,83.9968127 24.7055777,84.136255 25.4207171,84.136255 L25.4207171,84.136255 L75.4832669,84.136255 C78.5788845,84.136255 81.0968127,81.6183267 81.0968127,78.5227092 L81.0968127,78.5227092 L81.0968127,40.2940239 L73.7768924,33.8553785 L79.4521912,28.2350598 Z M50.385259,70.9043825 C52.6709163,70.9043825 54.5302789,72.7633466 54.5302789,75.0486056 C54.5302789,77.3338645 52.6709163,79.1932271 50.385259,79.1932271 C48.1,79.1932271 46.2406375,77.3338645 46.2406375,75.0486056 C46.2406375,72.7633466 48.1,70.9043825 50.385259,70.9043825 Z M47.7366534,5.12908367 C49.2163347,3.74183267 51.5350598,3.67928287 53.0896414,5.04621514 L53.0896414,5.04621514 L70.4569721,20.3223108 L64.7816733,25.9426295 L50.4334661,13.3219124 L19.8071713,39.6900398 L19.8071713,70.4824701 L11.8390438,78.3737052 L11.8390438,46.5505976 L6.70318725,50.9721116 C5.95099602,51.6199203 5.02589641,51.9370518 4.10557769,51.9370518 C2.98565737,51.9370518 1.87250996,51.4677291 1.08446215,50.5525896 C-0.350996016,48.8848606 -0.163346614,46.3697211 1.50438247,44.9338645 L1.50438247,44.9338645 Z M50.3932271,59.7278884 C55.036255,59.7278884 59.476494,61.5306773 62.8976096,64.8051793 C64.249004,66.0984064 64.2960159,68.2418327 63.0027888,69.5932271 C61.7095618,70.9450199 59.5661355,70.9912351 58.214741,69.6984064 C56.0601594,67.6366534 53.2820717,66.5007968 50.3932271,66.5007968 L50.3932271,66.5007968 C47.5023904,66.5015936 44.7250996,67.6386454 42.5713147,69.7023904 C41.9151394,70.3310757 41.0717131,70.6434263 40.2290837,70.6434263 C39.3378486,70.6434263 38.4482072,70.2940239 37.7832669,69.6 C37.7669323,69.5828685 37.7533865,69.5645418 37.7374502,69.547012 L37.7374502,69.547012 L47.3896414,59.9880478 C48.374502,59.8195219 49.3768924,59.7282869 50.3896414,59.7278884 L50.3896414,59.7278884 Z M57.9478088,49.5314741 C62.6521912,50.7984064 67.0111554,53.2374502 70.6426295,56.7119522 C71.9940239,58.0055777 72.0410359,60.149004 70.7482072,61.5003984 C69.4541833,62.8513944 67.3111554,62.8988048 65.959761,61.6059761 C62.1187251,57.9298805 57.2322709,55.7533865 52.0549801,55.3673307 L52.0549801,55.3673307 Z M40.0466135,50.4386454 L29.540239,60.8430279 C28.7888446,59.5258964 28.9924303,57.8199203 30.1370518,56.7231076 C33.0394422,53.9426295 36.4087649,51.8266932 40.0466135,50.4386454 L40.0466135,50.4386454 Z M50.3948207,37.3250996 C51.3310757,37.3250996 52.2629482,37.3585657 53.1896414,37.4227092 L53.1896414,37.4227092 L46.1717131,44.3729084 C39.0466135,45.2752988 32.3812749,48.440239 27.0729084,53.5250996 C26.4167331,54.1537849 25.5729084,54.4661355 24.7306773,54.4661355 C23.8398406,54.4661355 22.9501992,54.1167331 22.2848606,53.4223108 C20.9908367,52.0717131 21.0370518,49.9278884 22.3876494,48.6342629 C29.998008,41.3438247 39.9406375,37.3278884 50.3844622,37.3250996 L50.3844622,37.3250996 Z M66.7641434,40.8007968 C71.0035857,42.689243 74.9354582,45.3167331 78.3876494,48.6203187 C79.7390438,49.9135458 79.7864542,52.0569721 78.4928287,53.4083665 C77.1992032,54.759761 75.0561753,54.8071713 73.7047809,53.5135458 C70.1581673,50.1191235 66.0059761,47.5788845 61.5167331,45.9972112 L61.5167331,45.9972112 Z" id="icon-wifi-at-home-unavilable" fill="#ED0000"></path>
    </g>
</svg>