<?xml version="1.0" encoding="UTF-8"?>
<svg width="100px" height="100px" viewBox="0 0 100 100" version="1.1" xmlns="http://www.w3.org/2000/svg" xmlns:xlink="http://www.w3.org/1999/xlink">
    <title>Random/Firework</title>
    <g id="Random/Firework" stroke="none" stroke-width="1" fill="none" fill-rule="evenodd">
        <path d="M98.6719851,2.32862062 C97.6365485,1.2927093 96.1648045,0.820108775 94.7193659,1.0623052 L56.1782681,7.48595319 C54.5024302,7.76534083 53.1232087,8.95772737 52.6043566,10.5755451 C52.085958,12.1933628 52.5154624,13.965388 53.7164418,15.1668456 L56.9329621,18.3834318 L21.5988602,53.718258 C20.7484689,54.5691204 20.2704355,55.7225015 20.2704355,56.9253197 C20.2704355,58.128138 20.7484689,59.2819726 21.5993138,60.1323815 L28.0264584,66.5587507 C28.0250978,66.5601114 28.0237372,66.5610185 28.0223765,66.5623792 L2.32831133,92.2569711 C0.557229556,94.0280892 0.557229556,96.8999764 2.32831133,98.6715481 C3.21407899,99.5568803 4.37469314,100 5.53530729,100 C6.69592144,100 7.85698914,99.5568803 8.74230325,98.6715481 L34.4363685,72.9769561 C34.4377291,72.9755955 34.4390897,72.9737813 34.4404503,72.9724206 L40.8694092,79.4006041 C41.7551768,80.2863899 42.9153374,80.729056 44.0759516,80.729056 C45.2365657,80.729056 46.3971799,80.2859364 47.2829475,79.4006041 L82.6170494,44.0684992 L85.8335697,47.2850855 C86.6975674,48.1491008 87.8563674,48.613991 89.0410193,48.613991 C89.5040857,48.613991 89.9703269,48.5427834 90.4247761,48.3971934 C92.0425607,47.8787842 93.2349228,46.4995345 93.5143047,44.8236622 L99.937821,6.28132076 C100.179559,4.83675966 99.7078751,3.36453193 98.6719851,2.32862062 Z M62.667548,25.4778823 L62.667548,51.1897092 L57.5307306,56.3261784 L57.5307306,30.6148051 L62.667548,25.4778823 Z M36.9730293,51.1724742 L36.9730293,62.6768046 L31.2203017,56.9248662 L36.9730293,51.1724742 Z M44.6832444,69.1730208 L44.6832444,43.462101 L49.8205154,38.3247247 L49.8205154,64.0356445 L44.6832444,69.1730208 Z M70.3777632,43.4797895 L70.3777632,31.828055 L76.2039646,37.6543758 L70.3777632,43.4797895 Z M86.0168007,34.6391663 L66.7394487,15.3609655 L66.5548571,15.1763701 L66.5548571,15.1763701 L66.3630088,14.9845179 L89.9476498,11.0535882 L86.0168007,34.6391663 Z" id="icon-firework" fill="#ED0000"></path>
    </g>
</svg>