<?xml version="1.0" encoding="UTF-8"?>
<svg width="100px" height="100px" viewBox="0 0 100 100" version="1.1" xmlns="http://www.w3.org/2000/svg" xmlns:xlink="http://www.w3.org/1999/xlink">
    <title>App/Truck alt</title>
    <g id="App/Truck-alt" stroke="none" stroke-width="1" fill="none" fill-rule="evenodd">
        <path d="M62.5632011,19.1888001 C64.0662844,19.1888001 65.3285423,20.2793521 65.5237509,21.7457847 L65.5420012,21.9235151 L65.5479934,22.1031727 L65.547,31.258 L81.2174058,31.2585926 C81.8356293,31.2585926 82.4349047,31.4459222 82.9480112,31.802084 L83.1362556,31.9435225 L83.2981176,32.084171 L83.4511938,32.239977 L99.0602562,49.4365301 C99.4410285,49.856122 99.6888896,50.3729019 99.7776518,50.9479571 L99.8034287,51.1662584 L99.8111999,51.3695567 L99.8111999,71.541086 C99.8111999,73.0204142 98.6822182,74.2447173 97.189982,74.4322338 L97.0092191,74.4497092 L96.8264076,74.4554586 L89.846,74.455 L89.7910598,74.6346584 C88.4771585,78.6692312 84.6982895,81.5565699 80.2871217,81.7952092 L79.985402,81.807358 L79.6948043,81.8111999 C75.150151,81.8111999 71.1669987,78.9949454 69.698505,74.9222507 L69.6043522,74.6488935 L69.543,74.455 L32.727,74.455 L32.6725568,74.6345382 C31.3587579,78.6691571 27.5798449,81.5565638 23.1686967,81.7952088 L22.8669784,81.8073579 L22.5763824,81.8111999 C18.0316245,81.8111999 14.0484644,78.9949405 12.5799727,74.9221644 L12.4858201,74.6488017 L12.425,74.455 L3.1735924,74.4553535 C1.73063244,74.4553535 0.50961716,73.4503007 0.241536591,72.0724908 L0.2130426,71.8983688 L0.194792282,71.7206384 L0.18880006,71.5409808 L0.18880006,22.1031727 C0.18880006,20.6238445 1.31778177,19.3995414 2.81001796,19.2120249 L2.99078092,19.1945495 L3.1735924,19.1888001 L62.5632011,19.1888001 Z M79.6948043,67.0997173 C77.2874417,67.0997173 75.3009306,68.8841065 75.095741,71.1358638 L75.0820325,71.3418199 L75.0776746,71.5409504 C75.0776746,73.9832646 77.1438087,75.9824547 79.6948043,75.9824547 C82.2459996,75.9824547 84.3122601,73.9832805 84.3122601,71.541086 C84.3122601,69.0988527 82.2460742,67.0997173 79.6948043,67.0997173 Z M22.5763824,67.0997173 C20.0252467,67.0997173 17.959144,69.0988275 17.959144,71.5409808 C17.959144,73.9832509 20.0252578,75.9824547 22.5763824,75.9824547 C25.1275324,75.9824547 27.1937295,73.9832256 27.1937295,71.5409808 C27.1937295,69.0988527 25.1275435,67.0997173 22.5763824,67.0997173 Z M79.873,37.087 L65.548,37.087 L65.548,68.626 L69.543,68.626 L69.5988241,68.4475614 C70.942385,64.3213333 74.8644714,61.3949556 79.4042136,61.2748141 L79.6948043,61.2709721 C84.340708,61.2709721 88.3996713,64.2137418 89.7855808,68.4332733 L89.846,68.626 L93.841,68.626 L93.841,52.475 L79.873,37.087 Z M59.578,25.017 L6.158,25.017 L6.158,68.626 L12.425,68.626 L12.4804261,68.4474326 C13.8240727,64.3211918 17.7460039,61.3949498 22.2857887,61.2748139 L22.5763824,61.2709721 C27.2221527,61.2709721 31.2811515,64.213715 32.6670514,68.433177 L32.727,68.626 L59.578,68.626 L59.578,25.017 Z M78.5778325,41.6624843 C79.0410924,41.6624843 79.4895817,41.8133575 79.8765128,42.1098738 L80.0186351,42.2278841 L80.1448187,42.3551099 L89.4126449,52.6239209 C89.792835,53.0055621 90.0111999,53.5194248 90.0111999,54.0661685 C90.0111999,55.0780021 89.2690734,55.9231497 88.250025,56.0976532 L88.0868892,56.1195596 L87.9157646,56.1269894 L70.8842354,56.1269894 C69.8652591,56.1269894 69.0001394,55.4069034 68.8193083,54.3976601 L68.79652,54.2359658 L68.7888001,54.0661685 L68.7888001,43.7233052 C68.7888001,42.7113999 69.530911,41.8663016 70.5499784,41.6918165 L70.7131175,41.6699126 L70.8842354,41.6624843 L78.5778325,41.6624843 Z M77.636,45.784 L72.979,45.784 L72.979,52.005 L83.251,52.005 L77.636,45.784 Z" id="icon-truck-alt" fill="#ED0000"></path>
    </g>
</svg>