<?xml version="1.0" encoding="UTF-8"?>
<svg width="100px" height="100px" viewBox="0 0 100 100" version="1.1" xmlns="http://www.w3.org/2000/svg" xmlns:xlink="http://www.w3.org/1999/xlink">
    <title>Site/More</title>
    <g id="Site/More" stroke="none" stroke-width="1" fill="none" fill-rule="evenodd">
        <path d="M15,36 C22.7319865,36 29,42.2680135 29,50 C29,57.7319865 22.7319865,64 15,64 C7.2680135,64 1,57.7319865 1,50 C1,42.2680135 7.2680135,36 15,36 Z M50,36 C57.7319865,36 64,42.2680135 64,50 C64,57.7319865 57.7319865,64 50,64 C42.2680135,64 36,57.7319865 36,50 C36,42.2680135 42.2680135,36 50,36 Z M85,36 C92.7319865,36 99,42.2680135 99,50 C99,57.7319865 92.7319865,64 85,64 C77.2680135,64 71,57.7319865 71,50 C71,42.2680135 77.2680135,36 85,36 Z M15,43 C11.1340068,43 8,46.1340068 8,50 C8,53.8659932 11.1340068,57 15,57 C18.8659932,57 22,53.8659932 22,50 C22,46.1340068 18.8659932,43 15,43 Z M50,43 C46.1340068,43 43,46.1340068 43,50 C43,53.8659932 46.1340068,57 50,57 C53.8659932,57 57,53.8659932 57,50 C57,46.1340068 53.8659932,43 50,43 Z M85,43 C81.1340068,43 78,46.1340068 78,50 C78,53.8659932 81.1340068,57 85,57 C88.8659932,57 92,53.8659932 92,50 C92,46.1340068 88.8659932,43 85,43 Z" id="icon-more" fill="#ED0000"></path>
    </g>
</svg>