<?xml version="1.0" encoding="UTF-8"?>
<svg width="100px" height="100px" viewBox="0 0 100 100" version="1.1" xmlns="http://www.w3.org/2000/svg" xmlns:xlink="http://www.w3.org/1999/xlink">
    <title>Network/Secure network</title>
    <g id="Network/Secure-network" stroke="none" stroke-width="1" fill="none" fill-rule="evenodd">
        <path d="M49.3650602,0.0570281124 C63.4779116,0.0570281124 74.9594378,11.5385542 74.9594378,25.6514056 L74.9594378,25.6514056 L74.9594378,36.213253 C81.4823293,36.4473896 86.7172691,41.8236948 86.7172691,48.4024096 L86.7172691,48.4024096 L86.7172691,87.4550201 C86.7172691,94.1823293 81.2441767,99.6554217 74.5168675,99.6554217 L74.5168675,99.6554217 L24.2124498,99.6554217 C17.4851406,99.6554217 12.0120482,94.1823293 12.0120482,87.4550201 L12.0120482,87.4550201 L12.0120482,48.4024096 C12.0120482,41.8232932 17.2473896,36.4473896 23.7706827,36.213253 L23.7706827,36.213253 L23.7706827,25.6514056 C23.7706827,11.5385542 35.2522088,0.0570281124 49.3650602,0.0570281124 Z M74.5172691,44.2337349 L24.2128514,44.2337349 C23.8477912,44.2337349 23.4955823,44.2859438 23.1578313,44.3742972 C23.1052209,44.3879518 23.0518072,44.3991968 23.0004016,44.4148594 C22.9305221,44.4361446 22.8630522,44.4626506 22.7947791,44.4875502 C22.7393574,44.5076305 22.6827309,44.5261044 22.6285141,44.5485944 C22.5634538,44.575502 22.5008032,44.6064257 22.4373494,44.6365462 C22.3827309,44.662249 22.3277108,44.6871486 22.2742972,44.715261 C22.2136546,44.746988 22.1554217,44.7823293 22.0967871,44.8172691 C22.0433735,44.8485944 21.9899598,44.8799197 21.9381526,44.9136546 C21.8823293,44.9502008 21.8289157,44.9891566 21.7751004,45.0281124 C21.7236948,45.0654618 21.6722892,45.1028112 21.6228916,45.1421687 C21.5718876,45.1827309 21.5228916,45.2248996 21.4738956,45.2678715 C21.4248996,45.3104418 21.3767068,45.3534137 21.3301205,45.3983936 C21.2839357,45.4425703 21.2393574,45.4879518 21.1955823,45.5341365 C21.1497992,45.5819277 21.1056225,45.6309237 21.062249,45.6807229 C21.0212851,45.7281124 20.9815261,45.7759036 20.9425703,45.8253012 C20.9008032,45.8783133 20.8606426,45.9321285 20.8212851,45.9871486 C20.7851406,46.0373494 20.7502008,46.0875502 20.7164659,46.1393574 C20.6787149,46.1971888 20.6437751,46.2566265 20.6088353,46.3164659 C20.5783133,46.3686747 20.5477912,46.4208835 20.5196787,46.4746988 C20.486747,46.537751 20.4566265,46.6024096 20.4269076,46.6674699 C20.4024096,46.7212851 20.3771084,46.7742972 20.3546185,46.8293173 C20.326506,46.897992 20.3024096,46.9682731 20.2779116,47.0389558 C20.2590361,47.0931727 20.2389558,47.1461847 20.22249,47.2012048 C20.1995984,47.2771084 20.1815261,47.3550201 20.1630522,47.4325301 C20.1502008,47.484739 20.135743,47.535743 20.1253012,47.588755 C20.1076305,47.6767068 20.0959839,47.7662651 20.0843373,47.8558233 C20.0783133,47.9008032 20.0694779,47.9445783 20.0650602,47.9899598 C20.0518072,48.1257028 20.0441767,48.2630522 20.0441767,48.4024096 L20.0441767,48.4024096 L20.0441767,87.4550201 C20.0441767,89.7534137 21.9140562,91.6232932 24.2124498,91.6232932 L24.2124498,91.6232932 L74.5168675,91.6232932 C76.815261,91.6232932 78.6851406,89.7534137 78.6851406,87.4550201 L78.6859438,87.4550201 L78.6859438,48.402008 C78.6859438,48.2626506 78.6783133,48.1253012 78.6650602,47.9895582 C78.6606426,47.9441767 78.6518072,47.9 78.6457831,47.8546185 C78.6341365,47.7654618 78.62249,47.6763052 78.6052209,47.5891566 C78.5943775,47.535743 78.5795181,47.4835341 78.5670683,47.4309237 C78.5485944,47.3542169 78.5305221,47.2771084 78.5080321,47.202008 C78.4911647,47.1465863 78.4710843,47.0931727 78.4522088,47.0389558 C78.4277108,46.9686747 78.4036145,46.8983936 78.375502,46.8297189 C78.353012,46.7746988 78.3277108,46.7212851 78.3028112,46.6674699 C78.2730924,46.6028112 78.2429719,46.5381526 78.2100402,46.4751004 C78.1819277,46.4212851 78.1514056,46.3690763 78.1208835,46.3164659 C78.0863454,46.2566265 78.051004,46.1975904 78.0136546,46.139759 C77.9799197,46.0875502 77.9445783,46.0369478 77.9084337,45.986747 C77.8694779,45.9321285 77.8297189,45.8783133 77.7879518,45.8257028 C77.7485944,45.7763052 77.7088353,45.7281124 77.6674699,45.6803213 C77.624498,45.6305221 77.5803213,45.5823293 77.5349398,45.5345382 C77.4907631,45.4879518 77.4457831,45.4425703 77.3995984,45.397992 C77.3534137,45.3534137 77.3056225,45.3108434 77.2570281,45.2682731 C77.2076305,45.2253012 77.1586345,45.1827309 77.1072289,45.1417671 C77.0578313,45.1024096 77.0068273,45.0654618 76.9558233,45.0285141 C76.9016064,44.9895582 76.8477912,44.9502008 76.7919679,44.9136546 C76.7401606,44.8799197 76.686747,44.848996 76.6337349,44.8176707 C76.5746988,44.7827309 76.5164659,44.7473896 76.4558233,44.715261 C76.4024096,44.6871486 76.3473896,44.662249 76.2927711,44.6365462 C76.2293173,44.6068273 76.1662651,44.575502 76.1012048,44.5485944 C76.0473896,44.5261044 75.9915663,44.5080321 75.9365462,44.4879518 C75.8678715,44.4630522 75.8,44.4361446 75.7297189,44.4148594 C75.6791165,44.3995984 75.6269076,44.388755 75.575502,44.3751004 C75.3763052,44.3228916 75.1730924,44.2811245 74.9638554,44.2586345 C74.9626506,44.2582329 74.9610442,44.2578313 74.9598394,44.2578313 L74.9598394,44.2578313 L74.7399096,44.2400602 L74.7399096,44.2400602 L74.5172691,44.2337349 Z M49.4578313,79.0823293 C51.7140562,79.0823293 53.5493976,80.9176707 53.5493976,83.1738956 C53.5493976,85.4301205 51.7140562,87.2654618 49.4578313,87.2654618 C47.2016064,87.2654618 45.3662651,85.4301205 45.3662651,83.1738956 C45.3662651,80.9176707 47.2016064,79.0823293 49.4578313,79.0823293 Z M49.4646586,69.0871486 C53.7160643,69.0871486 57.7815261,70.7373494 60.913253,73.7349398 C62.275502,75.0385542 62.3228916,77.1991968 61.0192771,78.5614458 C59.7160643,79.9236948 57.5542169,79.9706827 56.1927711,78.6674699 C54.337751,76.8923695 51.9485944,75.9148594 49.4650602,75.9148594 L49.4630522,75.9148594 C46.9791165,75.9156627 44.5903614,76.8943775 42.7361446,78.6710843 C42.0746988,79.3048193 41.224498,79.6196787 40.3751004,79.6196787 C39.4771084,79.6196787 38.5803213,79.2674699 37.9096386,78.5678715 C36.6052209,77.2064257 36.6518072,75.0453815 38.0128514,73.7409639 C41.1433735,70.7413655 45.2092369,69.088755 49.4610442,69.0871486 L49.4646586,69.0871486 Z M49.4662651,59.0698795 C56.3104418,59.0698795 62.8345382,61.7072289 67.839759,66.4975904 C69.202008,67.8008032 69.2493976,69.9618474 67.9457831,71.3240964 C66.6421687,72.6863454 64.4815261,72.7341365 63.1192771,71.4301205 C59.3911647,67.862249 54.5421687,65.8975904 49.4658635,65.8975904 L49.4606426,65.8975904 C44.3827309,65.8987952 39.5337349,67.8662651 35.8060241,71.4373494 C35.1449799,72.0710843 34.2943775,72.3859438 33.4453815,72.3859438 C32.546988,72.3859438 31.6506024,72.0337349 30.9799197,71.3337349 C29.675502,69.9722892 29.7220884,67.811245 31.0831325,66.5072289 C36.0875502,61.7128514 42.613253,59.0718876 49.4590361,59.0698795 L49.4662651,59.0698795 Z M49.4662651,49.053012 C58.9032129,49.053012 67.8871486,52.6779116 74.7662651,59.2614458 C76.1285141,60.5646586 76.1759036,62.7257028 74.8722892,64.0879518 C73.5690763,65.4502008 71.4080321,65.4967871 70.0457831,64.1939759 C64.4441767,58.8329317 57.1353414,55.8807229 49.4662651,55.8807229 L49.4582329,55.8807229 C41.7863454,55.8827309 34.4767068,58.8385542 28.8759036,64.2040161 C28.2148594,64.8369478 27.364257,65.1522088 26.515261,65.1522088 C25.6168675,65.1522088 24.7200803,64.8 24.0497992,64.1 C22.7457831,62.7385542 22.7919679,60.57751 24.1534137,59.273494 C31.0309237,52.6851406 40.0168675,49.0554217 49.4566265,49.053012 L49.4662651,49.053012 L49.4662651,49.053012 Z M49.3646586,8.08915663 C39.6807229,8.08915663 31.8024096,15.9674699 31.8024096,25.6514056 L31.8024096,25.6514056 L31.8024096,36.202008 L66.9269076,36.202008 L66.9269076,25.6514056 C66.9269076,15.9674699 59.0485944,8.08915663 49.3646586,8.08915663 Z" id="icon-secure-network" fill="#ED0000"></path>
    </g>
</svg>