<?xml version="1.0" encoding="UTF-8"?>
<svg width="100px" height="100px" viewBox="0 0 100 100" version="1.1" xmlns="http://www.w3.org/2000/svg" xmlns:xlink="http://www.w3.org/1999/xlink">
    <title>Random/Speed dial</title>
    <g id="Random/Speed-dial" stroke="none" stroke-width="1" fill="none" fill-rule="evenodd">
        <path d="M49.9368651,22.3968254 C77.4721825,22.3968254 99.873373,44.7984127 99.873373,72.3337302 C99.873373,74.525 98.0963889,76.3019841 95.905119,76.3019841 C93.7138492,76.3019841 91.9368651,74.525 91.9368651,72.3337302 C91.9368651,49.1746032 73.0959921,30.3333333 49.9368651,30.3333333 C26.7777381,30.3333333 7.93646825,49.1746032 7.93646825,72.3337302 C7.93646825,74.525 6.15988095,76.3019841 3.96821429,76.3019841 C1.77654762,76.3019841 -3.96825398e-05,74.525 -3.96825398e-05,72.3337302 C-3.96825398e-05,44.7984127 22.4015476,22.3968254 49.9368651,22.3968254 Z M64.3959127,38.6742857 C64.4228968,38.6742857 64.4506746,38.6750794 64.4780556,38.6766667 C65.2411508,38.7187302 65.8459127,39.350873 65.8459127,40.1242857 C65.8459127,40.2877778 65.8189286,40.4445238 65.7689286,40.5913492 L65.7689286,40.5913492 L56.865754,70.8365873 C56.7395635,71.3183333 56.5629762,71.7865873 56.340754,72.2290476 C55.120119,74.6627778 52.6677381,76.1746825 49.940754,76.1746825 C48.8189286,76.1746825 47.7387698,75.9175397 46.7296429,75.4115873 C43.1990873,73.6405556 41.765754,69.3306349 43.5348016,65.8048413 C43.7276587,65.4199206 43.9601984,65.0473016 44.2205159,64.7020635 L44.2205159,64.7020635 L63.2232937,39.2703175 C63.2447222,39.2405556 63.2673413,39.2119841 63.2911508,39.1842063 C63.3855952,39.0730952 63.4939286,38.9794444 63.6121825,38.9036508 C63.8113889,38.775873 64.0435317,38.6953175 64.2931349,38.6778571 C64.3272619,38.6754762 64.3613889,38.6742857 64.3959127,38.6742857 Z M17.0198016,60.0152778 C19.0309127,60.5541667 20.2245635,62.6212302 19.6856746,64.6323413 C19.1467857,66.6434524 17.0793254,67.8367063 15.0686111,67.2978175 C13.0575,66.7593254 11.8638492,64.6922619 12.4027381,62.680754 C12.941627,60.6696429 15.0086905,59.4763889 17.0198016,60.0152778 Z M25.4969048,47.265119 C27.091746,48.6036111 27.2996825,50.9813889 25.9615873,52.5762302 C24.6230952,54.1710714 22.2453175,54.3790079 20.6504762,53.0409127 C19.0556349,51.7024206 18.8476984,49.3246429 20.1857937,47.7298016 C21.5242857,46.1349603 23.9020635,45.926627 25.4969048,47.265119 Z M38.5680952,39.2922222 C39.4478571,41.179127 38.6315873,43.4219841 36.7446825,44.3021429 C34.8577778,45.1819048 32.6149206,44.3656349 31.7347619,42.4787302 C30.855,40.5914286 31.6712698,38.3485714 33.5581746,37.4688095 C35.4450794,36.5890476 37.6883333,37.4053175 38.5680952,39.2922222 Z M50.0144048,33.8205556 C52.0965476,33.8205556 53.784246,35.508254 53.784246,37.5903968 C53.784246,39.6725397 52.0965476,41.3602381 50.0144048,41.3602381 C47.9322619,41.3602381 46.2445635,39.6725397 46.2445635,37.5903968 C46.2445635,35.508254 47.9322619,33.8205556 50.0144048,33.8205556 Z" id="icon-speed-dial" fill="#ED0000"></path>
    </g>
</svg>