<?xml version="1.0" encoding="UTF-8"?>
<svg width="100px" height="100px" viewBox="0 0 100 100" version="1.1" xmlns="http://www.w3.org/2000/svg" xmlns:xlink="http://www.w3.org/1999/xlink">
    <title>Transport/Plane</title>
    <g id="Transport/Plane" stroke="none" stroke-width="1" fill="none" fill-rule="evenodd">
        <path d="M34.0827309,99.5445783 C33.9188755,99.5445783 33.7546185,99.5349398 33.5899598,99.5144578 C32.3618474,99.3626506 31.2722892,98.653012 30.6365462,97.5915663 L20.0261044,79.8678715 L2.30321285,69.2574297 C1.24136546,68.6216867 0.532128514,67.5321285 0.380321285,66.3040161 C0.228514056,65.0759036 0.651405622,63.8465863 1.52610442,62.9714859 L10.7534137,53.7437751 C11.6955823,52.802008 13.0429719,52.3879518 14.3518072,52.639759 L27.7385542,55.2140562 L39.2176707,43.7349398 L8.28032129,27.2365462 C7.15783133,26.637751 6.38514056,25.5425703 6.19799197,24.2839357 C6.01084337,23.0257028 6.43092369,21.7526104 7.33052209,20.853012 L18.3441767,9.83935743 C19.2971888,8.88634538 20.6646586,8.47429719 21.9863454,8.74417671 L65.115261,17.5401606 L79.0666667,3.58835341 C79.1465863,3.50843373 79.2289157,3.43293173 79.3136546,3.36104418 C84.0779116,-1.05823293 91.6040161,-0.93935743 96.2196787,3.67590361 L96.2196787,3.67590361 C100.846988,8.30361446 100.954217,15.8578313 96.4983936,20.6196787 C96.4393574,20.6875502 96.3771084,20.7546185 96.3128514,20.8192771 C96.3008032,20.8321285 96.288755,20.8445783 96.2767068,20.8574297 C96.226506,20.9100402 96.1746988,20.9606426 96.1220884,21.0100402 L82.3538153,34.7787149 L91.1493976,77.9076305 C91.4188755,79.2285141 91.0072289,80.5963855 90.0542169,81.5497992 L79.0405622,92.5634538 C78.1409639,93.4634538 76.8662651,93.8827309 75.6096386,93.6955823 C74.351004,93.5084337 73.2558233,92.735743 72.6570281,91.613253 L56.1574297,60.6763052 L44.6783133,72.1554217 L47.2526104,85.5417671 C47.5040161,86.8502008 47.0907631,88.197992 46.1485944,89.1401606 L36.9212851,98.3678715 C36.1646586,99.1261044 35.1409639,99.5445783 34.0827309,99.5445783 Z M10.8465863,65.0104418 L25.0172691,73.4939759 C25.5851406,73.8341365 26.060241,74.3088353 26.4,74.8767068 L34.8835341,89.0473896 L38.9638554,84.9670683 L36.3895582,71.5807229 C36.137751,70.2722892 36.5514056,68.924498 37.4935743,67.9823293 L54.3116466,51.164257 C55.211245,50.2650602 56.4819277,49.8441767 57.7425703,50.0317269 C59.0012048,50.2188755 60.0963855,50.9915663 60.6951807,52.1140562 L77.1947791,83.051004 L82.8485944,77.3967871 L74.0526104,34.2682731 C73.7831325,32.946988 74.1947791,31.5791165 75.1477912,30.6257028 L90.4987952,15.2746988 C90.5257028,15.2453815 90.5534137,15.2160643 90.5811245,15.1875502 C92.1538153,13.5666667 92.1353414,10.9506024 90.5401606,9.35542169 C88.9453815,7.76064257 86.3285141,7.74176707 84.7080321,9.31485944 C84.6690763,9.35261044 84.6297189,9.38955823 84.5895582,9.4253012 L69.2686747,24.7465863 C68.315261,25.7 66.9461847,26.111245 65.626506,25.8417671 L22.4967871,17.0457831 L16.8425703,22.7 L47.7795181,39.1991968 C48.902008,39.797992 49.6746988,40.8931727 49.8618474,42.1518072 C50.048996,43.4100402 49.6289157,44.6831325 48.7293173,45.5823293 L31.9116466,62.4008032 C30.9694779,63.3425703 29.6220884,63.7570281 28.313253,63.5048193 L14.926506,60.9305221 L10.8465863,65.0104418 Z" id="icon-plane" fill="#ED0000"></path>
    </g>
</svg>