<?xml version="1.0" encoding="UTF-8"?>
<svg width="100px" height="100px" viewBox="0 0 100 100" version="1.1" xmlns="http://www.w3.org/2000/svg" xmlns:xlink="http://www.w3.org/1999/xlink">
    <title>Network/Scan your home</title>
    <g id="Network/Scan-your-home" stroke="none" stroke-width="1" fill="none" fill-rule="evenodd">
        <path d="M98.5055777,46.9944223 L53.0896414,7.04621514 C51.5346614,5.67928287 49.2155378,5.74183267 47.736255,7.12948207 L25.3936255,26.3657371 L18.3641434,19.3366534 C17.2752988,18.2474104 15.5095618,18.2478088 14.4203187,19.3366534 C13.3310757,20.425498 13.3310757,22.1916335 14.4203187,23.2804781 L21.1549801,30.0151394 L1.50438247,46.9338645 C-0.163346614,48.3697211 -0.350996016,50.8848606 1.08446215,52.5525896 C1.87250996,53.4681275 2.98525896,53.9374502 4.10557769,53.9374502 C5.02589641,53.9374502 5.95099602,53.6203187 6.70318725,52.97251 L11.8390438,48.5505976 L11.8390438,80.5231076 C11.8390438,88.0119522 17.9314741,94.1047809 25.4207171,94.1047809 L75.4836653,94.1047809 C82.97251,94.1047809 89.0653386,88.0119522 89.0653386,80.5231076 L89.0653386,49.3027888 L93.2430279,52.9776892 C93.9996016,53.6434263 94.938247,53.9701195 95.8729084,53.9701195 C96.9780876,53.9701195 98.0784861,53.512749 98.8661355,52.6171315 C100.319124,50.9653386 100.158167,48.4478088 98.5055777,46.9944223 Z M81.0972112,80.5227092 C81.0972112,83.6183267 78.5792829,86.136255 75.4836653,86.136255 L25.4207171,86.136255 C22.325498,86.136255 19.8071713,83.6183267 19.8071713,80.5227092 L19.8071713,41.6896414 L26.8047809,35.6653386 L29.3812749,38.2418327 C25.2968127,43.1374502 23.0749004,49.2422311 23.0749004,55.7083665 C23.0749004,70.7780876 35.3350598,83.0386454 50.4051793,83.0386454 C65.4752988,83.0386454 77.7354582,70.7784861 77.7354582,55.7083665 C77.7354582,54.1681275 76.4868526,52.9195219 74.9466135,52.9195219 C73.4063745,52.9195219 72.1577689,54.1681275 72.1577689,55.7083665 C72.1577689,67.7023904 62.3996016,77.4609562 50.4051793,77.4609562 C38.410757,77.4609562 28.6525896,67.7027888 28.6525896,55.7083665 C28.6525896,50.7374502 30.3075697,46.0374502 33.3501992,42.2111554 L36.259761,45.1207171 C33.9749004,48.1573705 32.7390438,51.8306773 32.7390438,55.7083665 C32.7390438,65.4494024 40.6641434,73.374502 50.4051793,73.374502 C60.1462151,73.374502 68.0713147,65.4494024 68.0713147,55.7083665 C68.0713147,54.1681275 66.8227092,52.9195219 65.2824701,52.9195219 C63.7422311,52.9195219 62.4936255,54.1681275 62.4936255,55.7083665 C62.4936255,62.3737052 57.0709163,67.7968127 50.4051793,67.7968127 C43.7394422,67.7968127 38.3167331,62.3741036 38.3167331,55.7083665 C38.3167331,53.3302789 38.9984064,51.0661355 40.2645418,49.125498 L42.8063745,51.6673307 C42.1860558,52.852988 41.8302789,54.1976096 41.8302789,55.6258964 C41.8302789,60.3537849 45.6768924,64.2003984 50.4047809,64.2003984 C55.1326693,64.2003984 58.9792829,60.3537849 58.9792829,55.6258964 C58.9792829,50.898008 55.1326693,47.0513944 50.4047809,47.0513944 C49.138247,47.0513944 47.9394422,47.3346614 46.8565737,47.8294821 L31.0434263,32.0159363 L50.4330677,15.3219124 L81.0972112,42.2940239 L81.0972112,80.5227092 L81.0972112,80.5227092 Z M50.4051793,52.6286853 C52.0573705,52.6286853 53.401992,53.9733068 53.401992,55.625498 C53.401992,57.2776892 52.0573705,58.6223108 50.4051793,58.6223108 C48.7525896,58.6223108 47.4083665,57.2776892 47.4083665,55.625498 C47.4083665,53.9733068 48.7525896,52.6286853 50.4051793,52.6286853 Z" id="icon-scan-your-home" fill="#ED0000"></path>
    </g>
</svg>