<?xml version="1.0" encoding="UTF-8"?>
<svg width="100px" height="100px" viewBox="0 0 100 100" version="1.1" xmlns="http://www.w3.org/2000/svg" xmlns:xlink="http://www.w3.org/1999/xlink">
    <title>Location/Direction</title>
    <g id="Location/Direction" stroke="none" stroke-width="1" fill="none" fill-rule="evenodd">
        <path d="M98.6918803,21.0935897 L85.5209402,7.92307692 C84.8448718,7.24700855 83.9277778,6.86752137 82.9717949,6.86752137 L53.65,6.86752137 L53.65,3.88717949 C53.65,1.89615385 52.0358974,0.282478632 50.0452991,0.282478632 C48.0542735,0.282478632 46.4405983,1.8965812 46.4405983,3.88717949 L46.4405983,39.7944444 L17.1183761,39.7944444 C16.1623932,39.7944444 15.2452991,40.174359 14.5692308,40.85 L1.39871795,54.0205128 C-0.00897435897,55.4282051 -0.00897435897,57.7111111 1.39871795,59.1188034 L14.5692308,72.2897436 C15.2452991,72.965812 16.1623932,73.3452991 17.1183761,73.3452991 L46.4401709,73.3452991 L46.4401709,96.0816239 C46.4401709,98.0722222 48.0542735,99.6863248 50.0448718,99.6863248 C52.0354701,99.6863248 53.6495726,98.0722222 53.6495726,96.0816239 L53.6495726,40.4183761 L82.9713675,40.4183761 C83.9273504,40.4183761 84.8440171,40.0384615 85.5205128,39.3623932 L98.691453,26.1918803 C99.3675214,25.515812 99.7474359,24.5987179 99.7474359,23.642735 C99.7474359,22.6867521 99.3679487,21.7696581 98.6918803,21.0935897 Z M18.6115385,66.1354701 L9.0457265,56.5696581 L18.6115385,47.0038462 L46.4401709,47.0038462 L46.4401709,66.1354701 L18.6115385,66.1354701 Z M81.4790598,33.208547 L53.6504274,33.208547 L53.6504274,14.0769231 L81.4790598,14.0769231 L91.0448718,23.642735 L81.4790598,33.208547 Z" id="icon-direction" fill="#ED0000"></path>
    </g>
</svg>